M48
; DRILL file {KiCad 5.1.10-88a1d61d58~88~ubuntu20.10.1} date Mon May 10 20:49:56 2021
; FORMAT={-:-/ absolute / inch / decimal}
; #@! TF.CreationDate,2021-05-10T20:49:56+02:00
; #@! TF.GenerationSoftware,Kicad,Pcbnew,5.1.10-88a1d61d58~88~ubuntu20.10.1
; #@! TF.FileFunction,Plated,1,2,PTH
FMAT,2
INCH
T1C0.0157
T2C0.0197
T3C0.0295
T4C0.0315
T5C0.0354
T6C0.0394
T7C0.0402
T8C0.0433
T9C0.1181
%
G90
G05
T1
X3.48Y-1.77
X3.5828Y-1.6728
X3.6513Y-2.0313
X3.89Y-1.92
X3.9702Y-2.1998
X4.03Y-1.92
X4.06Y-2.2
X4.0828Y-1.6728
X4.17Y-1.95
X4.18Y-1.88
X4.2087Y-2.0313
X4.3657Y-1.9143
X4.47Y-1.95
X4.47Y-2.33
X4.47Y-2.47
X4.55Y-1.19
T2
X2.7002Y-0.7081
X2.7002Y-2.7554
X2.7261Y-0.6455
X2.7261Y-0.7707
X2.7261Y-2.6927
X2.7261Y-2.818
X2.7887Y-0.6195
X2.7887Y-0.7967
X2.7887Y-2.6668
X2.7887Y-2.8439
X2.8514Y-0.6455
X2.8514Y-0.7707
X2.8514Y-2.6927
X2.8514Y-2.818
X2.8773Y-0.7081
X2.8773Y-2.7554
X4.7474Y-0.7081
X4.7474Y-2.7554
X4.7733Y-0.6455
X4.7733Y-0.7707
X4.7733Y-2.6927
X4.7733Y-2.818
X4.836Y-0.6195
X4.836Y-0.7967
X4.836Y-2.6668
X4.836Y-2.8439
X4.8986Y-0.6455
X4.8986Y-0.7707
X4.8986Y-2.6927
X4.8986Y-2.818
X4.9246Y-0.7081
X4.9246Y-2.7554
T3
X3.2Y-1.49
X3.26Y-1.49
X3.32Y-1.49
X3.5887Y-0.89
X3.5887Y-1.19
X4.1451Y-1.4944
X4.2051Y-1.4944
X4.2651Y-1.4944
X4.4551Y-0.8944
X4.4551Y-1.1944
T4
X3.24Y-1.83
X3.24Y-2.03
X3.34Y-1.93
X3.74Y-1.38
X3.74Y-1.5721
T5
X3.0234Y-2.3759
X3.1234Y-2.3759
X3.3187Y-2.3759
X3.4187Y-2.3759
X3.61Y-2.3759
X3.71Y-2.3759
T6
X3.1748Y-0.79
X3.1748Y-1.19
X3.1748Y-1.29
X3.4748Y-0.79
X3.4748Y-1.19
X3.4748Y-1.29
X4.03Y-2.37
X4.03Y-2.47
X4.0411Y-0.7944
X4.0411Y-1.1944
X4.0411Y-1.2944
X4.13Y-2.37
X4.13Y-2.47
X4.23Y-2.37
X4.23Y-2.47
X4.3411Y-0.7944
X4.3411Y-1.1944
X4.3411Y-1.2944
T7
X2.81Y-1.59
X2.91Y-1.59
X2.95Y-1.06
X3.05Y-1.06
X3.82Y-1.06
X3.92Y-1.06
X4.65Y-1.11
X4.75Y-1.11
T8
X4.41Y-2.5694
X4.41Y-2.8254
X4.5872Y-2.5694
X4.5872Y-2.8254
X4.6187Y-1.3369
X4.6187Y-1.4369
X4.6187Y-1.5369
X4.6471Y-1.7229
X4.6471Y-1.9
X4.65Y-2.1028
X4.65Y-2.28
X4.903Y-1.7229
X4.903Y-1.9
X4.9059Y-2.1028
X4.9059Y-2.28
T9
X2.7887Y-0.7081
X2.7887Y-2.7554
X4.836Y-0.7081
X4.836Y-2.7554
T0
M30
