%TF.GenerationSoftware,KiCad,Pcbnew,5.1.6-c6e7f7d~87~ubuntu20.04.1*%
%TF.CreationDate,2021-03-09T18:46:47+01:00*%
%TF.ProjectId,arduBell,61726475-4265-46c6-9c2e-6b696361645f,rev?*%
%TF.SameCoordinates,Original*%
%TF.FileFunction,Legend,Top*%
%TF.FilePolarity,Positive*%
%FSLAX46Y46*%
G04 Gerber Fmt 4.6, Leading zero omitted, Abs format (unit mm)*
G04 Created by KiCad (PCBNEW 5.1.6-c6e7f7d~87~ubuntu20.04.1) date 2021-03-09 18:46:47*
%MOMM*%
%LPD*%
G01*
G04 APERTURE LIST*
%ADD10C,0.300000*%
%ADD11C,0.010000*%
%ADD12C,0.120000*%
%ADD13C,0.100000*%
%ADD14C,0.150000*%
G04 APERTURE END LIST*
D10*
X84012571Y-70389571D02*
X84012571Y-68889571D01*
X84512571Y-69961000D01*
X85012571Y-68889571D01*
X85012571Y-70389571D01*
X86369714Y-70389571D02*
X86369714Y-69603857D01*
X86298285Y-69461000D01*
X86155428Y-69389571D01*
X85869714Y-69389571D01*
X85726857Y-69461000D01*
X86369714Y-70318142D02*
X86226857Y-70389571D01*
X85869714Y-70389571D01*
X85726857Y-70318142D01*
X85655428Y-70175285D01*
X85655428Y-70032428D01*
X85726857Y-69889571D01*
X85869714Y-69818142D01*
X86226857Y-69818142D01*
X86369714Y-69746714D01*
X87726857Y-70389571D02*
X87726857Y-68889571D01*
X87726857Y-70318142D02*
X87584000Y-70389571D01*
X87298285Y-70389571D01*
X87155428Y-70318142D01*
X87084000Y-70246714D01*
X87012571Y-70103857D01*
X87012571Y-69675285D01*
X87084000Y-69532428D01*
X87155428Y-69461000D01*
X87298285Y-69389571D01*
X87584000Y-69389571D01*
X87726857Y-69461000D01*
X89012571Y-70318142D02*
X88869714Y-70389571D01*
X88584000Y-70389571D01*
X88441142Y-70318142D01*
X88369714Y-70175285D01*
X88369714Y-69603857D01*
X88441142Y-69461000D01*
X88584000Y-69389571D01*
X88869714Y-69389571D01*
X89012571Y-69461000D01*
X89084000Y-69603857D01*
X89084000Y-69746714D01*
X88369714Y-69889571D01*
X90869714Y-70389571D02*
X90869714Y-68889571D01*
X90869714Y-69461000D02*
X91012571Y-69389571D01*
X91298285Y-69389571D01*
X91441142Y-69461000D01*
X91512571Y-69532428D01*
X91584000Y-69675285D01*
X91584000Y-70103857D01*
X91512571Y-70246714D01*
X91441142Y-70318142D01*
X91298285Y-70389571D01*
X91012571Y-70389571D01*
X90869714Y-70318142D01*
X92084000Y-69389571D02*
X92441142Y-70389571D01*
X92798285Y-69389571D02*
X92441142Y-70389571D01*
X92298285Y-70746714D01*
X92226857Y-70818142D01*
X92084000Y-70889571D01*
X94512571Y-70389571D02*
X94512571Y-68889571D01*
X95084000Y-68889571D01*
X95226857Y-68961000D01*
X95298285Y-69032428D01*
X95369714Y-69175285D01*
X95369714Y-69389571D01*
X95298285Y-69532428D01*
X95226857Y-69603857D01*
X95084000Y-69675285D01*
X94512571Y-69675285D01*
X96584000Y-70318142D02*
X96441142Y-70389571D01*
X96155428Y-70389571D01*
X96012571Y-70318142D01*
X95941142Y-70175285D01*
X95941142Y-69603857D01*
X96012571Y-69461000D01*
X96155428Y-69389571D01*
X96441142Y-69389571D01*
X96584000Y-69461000D01*
X96655428Y-69603857D01*
X96655428Y-69746714D01*
X95941142Y-69889571D01*
X97084000Y-69389571D02*
X97655428Y-69389571D01*
X97298285Y-68889571D02*
X97298285Y-70175285D01*
X97369714Y-70318142D01*
X97512571Y-70389571D01*
X97655428Y-70389571D01*
X98726857Y-70318142D02*
X98584000Y-70389571D01*
X98298285Y-70389571D01*
X98155428Y-70318142D01*
X98084000Y-70175285D01*
X98084000Y-69603857D01*
X98155428Y-69461000D01*
X98298285Y-69389571D01*
X98584000Y-69389571D01*
X98726857Y-69461000D01*
X98798285Y-69603857D01*
X98798285Y-69746714D01*
X98084000Y-69889571D01*
X99441142Y-70389571D02*
X99441142Y-69389571D01*
X99441142Y-69675285D02*
X99512571Y-69532428D01*
X99584000Y-69461000D01*
X99726857Y-69389571D01*
X99869714Y-69389571D01*
X83798285Y-72939571D02*
X83798285Y-71439571D01*
X84155428Y-71439571D01*
X84369714Y-71511000D01*
X84512571Y-71653857D01*
X84584000Y-71796714D01*
X84655428Y-72082428D01*
X84655428Y-72296714D01*
X84584000Y-72582428D01*
X84512571Y-72725285D01*
X84369714Y-72868142D01*
X84155428Y-72939571D01*
X83798285Y-72939571D01*
X85298285Y-72939571D02*
X85298285Y-71439571D01*
X85298285Y-72153857D02*
X86155428Y-72153857D01*
X86155428Y-72939571D02*
X86155428Y-71439571D01*
X86798285Y-71582428D02*
X86869714Y-71511000D01*
X87012571Y-71439571D01*
X87369714Y-71439571D01*
X87512571Y-71511000D01*
X87584000Y-71582428D01*
X87655428Y-71725285D01*
X87655428Y-71868142D01*
X87584000Y-72082428D01*
X86726857Y-72939571D01*
X87655428Y-72939571D01*
X88298285Y-72939571D02*
X88298285Y-71439571D01*
X88869714Y-71439571D01*
X89012571Y-71511000D01*
X89084000Y-71582428D01*
X89155428Y-71725285D01*
X89155428Y-71939571D01*
X89084000Y-72082428D01*
X89012571Y-72153857D01*
X88869714Y-72225285D01*
X88298285Y-72225285D01*
X89798285Y-72939571D02*
X89798285Y-71439571D01*
X90369714Y-71439571D01*
X90512571Y-71511000D01*
X90584000Y-71582428D01*
X90655428Y-71725285D01*
X90655428Y-71939571D01*
X90584000Y-72082428D01*
X90512571Y-72153857D01*
X90369714Y-72225285D01*
X89798285Y-72225285D01*
X92226857Y-72225285D02*
X92155428Y-72153857D01*
X92012571Y-72082428D01*
X91869714Y-72082428D01*
X91726857Y-72153857D01*
X91655428Y-72225285D01*
X91584000Y-72368142D01*
X91584000Y-72511000D01*
X91655428Y-72653857D01*
X91726857Y-72725285D01*
X91869714Y-72796714D01*
X92012571Y-72796714D01*
X92155428Y-72725285D01*
X92226857Y-72653857D01*
X92226857Y-72082428D02*
X92226857Y-72653857D01*
X92298285Y-72725285D01*
X92369714Y-72725285D01*
X92512571Y-72653857D01*
X92584000Y-72511000D01*
X92584000Y-72153857D01*
X92441142Y-71939571D01*
X92226857Y-71796714D01*
X91941142Y-71725285D01*
X91655428Y-71796714D01*
X91441142Y-71939571D01*
X91298285Y-72153857D01*
X91226857Y-72439571D01*
X91298285Y-72725285D01*
X91441142Y-72939571D01*
X91655428Y-73082428D01*
X91941142Y-73153857D01*
X92226857Y-73082428D01*
X92441142Y-72939571D01*
X93798285Y-72868142D02*
X93655428Y-72939571D01*
X93369714Y-72939571D01*
X93226857Y-72868142D01*
X93155428Y-72725285D01*
X93155428Y-72153857D01*
X93226857Y-72011000D01*
X93369714Y-71939571D01*
X93655428Y-71939571D01*
X93798285Y-72011000D01*
X93869714Y-72153857D01*
X93869714Y-72296714D01*
X93155428Y-72439571D01*
X94512571Y-72939571D02*
X94512571Y-71939571D01*
X94512571Y-72082428D02*
X94584000Y-72011000D01*
X94726857Y-71939571D01*
X94941142Y-71939571D01*
X95084000Y-72011000D01*
X95155428Y-72153857D01*
X95155428Y-72939571D01*
X95155428Y-72153857D02*
X95226857Y-72011000D01*
X95369714Y-71939571D01*
X95584000Y-71939571D01*
X95726857Y-72011000D01*
X95798285Y-72153857D01*
X95798285Y-72939571D01*
X96726857Y-72939571D02*
X96584000Y-72868142D01*
X96512571Y-72725285D01*
X96512571Y-71439571D01*
X97298285Y-72796714D02*
X97369714Y-72868142D01*
X97298285Y-72939571D01*
X97226857Y-72868142D01*
X97298285Y-72796714D01*
X97298285Y-72939571D01*
X98655428Y-72868142D02*
X98512571Y-72939571D01*
X98226857Y-72939571D01*
X98084000Y-72868142D01*
X98012571Y-72796714D01*
X97941142Y-72653857D01*
X97941142Y-72225285D01*
X98012571Y-72082428D01*
X98084000Y-72011000D01*
X98226857Y-71939571D01*
X98512571Y-71939571D01*
X98655428Y-72011000D01*
X99941142Y-72868142D02*
X99798285Y-72939571D01*
X99512571Y-72939571D01*
X99369714Y-72868142D01*
X99298285Y-72796714D01*
X99226857Y-72653857D01*
X99226857Y-72225285D01*
X99298285Y-72082428D01*
X99369714Y-72011000D01*
X99512571Y-71939571D01*
X99798285Y-71939571D01*
X99941142Y-72011000D01*
D11*
%TO.C,REF\u002A\u002A*%
G36*
X77183744Y-72405918D02*
G01*
X77239201Y-72433568D01*
X77288148Y-72484480D01*
X77301629Y-72503338D01*
X77316314Y-72528015D01*
X77325842Y-72554816D01*
X77331293Y-72590587D01*
X77333747Y-72642169D01*
X77334286Y-72710267D01*
X77331852Y-72803588D01*
X77323394Y-72873657D01*
X77307174Y-72925931D01*
X77281454Y-72965869D01*
X77244497Y-72998929D01*
X77241782Y-73000886D01*
X77205360Y-73020908D01*
X77161502Y-73030815D01*
X77105724Y-73033257D01*
X77015048Y-73033257D01*
X77015010Y-73121283D01*
X77014166Y-73170308D01*
X77009024Y-73199065D01*
X76995587Y-73216311D01*
X76969858Y-73230808D01*
X76963679Y-73233769D01*
X76934764Y-73247648D01*
X76912376Y-73256414D01*
X76895729Y-73257171D01*
X76884036Y-73247023D01*
X76876510Y-73223073D01*
X76872366Y-73182426D01*
X76870815Y-73122186D01*
X76871071Y-73039455D01*
X76872349Y-72931339D01*
X76872748Y-72899000D01*
X76874185Y-72787524D01*
X76875472Y-72714603D01*
X77014971Y-72714603D01*
X77015755Y-72776499D01*
X77019240Y-72816997D01*
X77027124Y-72843708D01*
X77041105Y-72864244D01*
X77050597Y-72874260D01*
X77089404Y-72903567D01*
X77123763Y-72905952D01*
X77159216Y-72881750D01*
X77160114Y-72880857D01*
X77174539Y-72862153D01*
X77183313Y-72836732D01*
X77187739Y-72797584D01*
X77189118Y-72737697D01*
X77189143Y-72724430D01*
X77185812Y-72641901D01*
X77174969Y-72584691D01*
X77155340Y-72549766D01*
X77125650Y-72534094D01*
X77108491Y-72532514D01*
X77067766Y-72539926D01*
X77039832Y-72564330D01*
X77023017Y-72608980D01*
X77015650Y-72677130D01*
X77014971Y-72714603D01*
X76875472Y-72714603D01*
X76875708Y-72701245D01*
X76877677Y-72636333D01*
X76880450Y-72588958D01*
X76884388Y-72555290D01*
X76889849Y-72531498D01*
X76897192Y-72513753D01*
X76906777Y-72498224D01*
X76910887Y-72492381D01*
X76965405Y-72437185D01*
X77034336Y-72405890D01*
X77114072Y-72397165D01*
X77183744Y-72405918D01*
G37*
X77183744Y-72405918D02*
X77239201Y-72433568D01*
X77288148Y-72484480D01*
X77301629Y-72503338D01*
X77316314Y-72528015D01*
X77325842Y-72554816D01*
X77331293Y-72590587D01*
X77333747Y-72642169D01*
X77334286Y-72710267D01*
X77331852Y-72803588D01*
X77323394Y-72873657D01*
X77307174Y-72925931D01*
X77281454Y-72965869D01*
X77244497Y-72998929D01*
X77241782Y-73000886D01*
X77205360Y-73020908D01*
X77161502Y-73030815D01*
X77105724Y-73033257D01*
X77015048Y-73033257D01*
X77015010Y-73121283D01*
X77014166Y-73170308D01*
X77009024Y-73199065D01*
X76995587Y-73216311D01*
X76969858Y-73230808D01*
X76963679Y-73233769D01*
X76934764Y-73247648D01*
X76912376Y-73256414D01*
X76895729Y-73257171D01*
X76884036Y-73247023D01*
X76876510Y-73223073D01*
X76872366Y-73182426D01*
X76870815Y-73122186D01*
X76871071Y-73039455D01*
X76872349Y-72931339D01*
X76872748Y-72899000D01*
X76874185Y-72787524D01*
X76875472Y-72714603D01*
X77014971Y-72714603D01*
X77015755Y-72776499D01*
X77019240Y-72816997D01*
X77027124Y-72843708D01*
X77041105Y-72864244D01*
X77050597Y-72874260D01*
X77089404Y-72903567D01*
X77123763Y-72905952D01*
X77159216Y-72881750D01*
X77160114Y-72880857D01*
X77174539Y-72862153D01*
X77183313Y-72836732D01*
X77187739Y-72797584D01*
X77189118Y-72737697D01*
X77189143Y-72724430D01*
X77185812Y-72641901D01*
X77174969Y-72584691D01*
X77155340Y-72549766D01*
X77125650Y-72534094D01*
X77108491Y-72532514D01*
X77067766Y-72539926D01*
X77039832Y-72564330D01*
X77023017Y-72608980D01*
X77015650Y-72677130D01*
X77014971Y-72714603D01*
X76875472Y-72714603D01*
X76875708Y-72701245D01*
X76877677Y-72636333D01*
X76880450Y-72588958D01*
X76884388Y-72555290D01*
X76889849Y-72531498D01*
X76897192Y-72513753D01*
X76906777Y-72498224D01*
X76910887Y-72492381D01*
X76965405Y-72437185D01*
X77034336Y-72405890D01*
X77114072Y-72397165D01*
X77183744Y-72405918D01*
G36*
X78300093Y-72413780D02*
G01*
X78346672Y-72440723D01*
X78379057Y-72467466D01*
X78402742Y-72495484D01*
X78419059Y-72529748D01*
X78429339Y-72575227D01*
X78434914Y-72636892D01*
X78437116Y-72719711D01*
X78437371Y-72779246D01*
X78437371Y-72998391D01*
X78375686Y-73026044D01*
X78314000Y-73053697D01*
X78306743Y-72813670D01*
X78303744Y-72724028D01*
X78300598Y-72658962D01*
X78296701Y-72614026D01*
X78291447Y-72584770D01*
X78284231Y-72566748D01*
X78274450Y-72555511D01*
X78271312Y-72553079D01*
X78223761Y-72534083D01*
X78175697Y-72541600D01*
X78147086Y-72561543D01*
X78135447Y-72575675D01*
X78127391Y-72594220D01*
X78122271Y-72622334D01*
X78119441Y-72665173D01*
X78118256Y-72727895D01*
X78118057Y-72793261D01*
X78118018Y-72875268D01*
X78116614Y-72933316D01*
X78111914Y-72972465D01*
X78101987Y-72997780D01*
X78084903Y-73014323D01*
X78058732Y-73027156D01*
X78023775Y-73040491D01*
X77985596Y-73055007D01*
X77990141Y-72797389D01*
X77991971Y-72704519D01*
X77994112Y-72635889D01*
X77997181Y-72586711D01*
X78001794Y-72552198D01*
X78008568Y-72527562D01*
X78018119Y-72508016D01*
X78029634Y-72490770D01*
X78085190Y-72435680D01*
X78152980Y-72403822D01*
X78226713Y-72396191D01*
X78300093Y-72413780D01*
G37*
X78300093Y-72413780D02*
X78346672Y-72440723D01*
X78379057Y-72467466D01*
X78402742Y-72495484D01*
X78419059Y-72529748D01*
X78429339Y-72575227D01*
X78434914Y-72636892D01*
X78437116Y-72719711D01*
X78437371Y-72779246D01*
X78437371Y-72998391D01*
X78375686Y-73026044D01*
X78314000Y-73053697D01*
X78306743Y-72813670D01*
X78303744Y-72724028D01*
X78300598Y-72658962D01*
X78296701Y-72614026D01*
X78291447Y-72584770D01*
X78284231Y-72566748D01*
X78274450Y-72555511D01*
X78271312Y-72553079D01*
X78223761Y-72534083D01*
X78175697Y-72541600D01*
X78147086Y-72561543D01*
X78135447Y-72575675D01*
X78127391Y-72594220D01*
X78122271Y-72622334D01*
X78119441Y-72665173D01*
X78118256Y-72727895D01*
X78118057Y-72793261D01*
X78118018Y-72875268D01*
X78116614Y-72933316D01*
X78111914Y-72972465D01*
X78101987Y-72997780D01*
X78084903Y-73014323D01*
X78058732Y-73027156D01*
X78023775Y-73040491D01*
X77985596Y-73055007D01*
X77990141Y-72797389D01*
X77991971Y-72704519D01*
X77994112Y-72635889D01*
X77997181Y-72586711D01*
X78001794Y-72552198D01*
X78008568Y-72527562D01*
X78018119Y-72508016D01*
X78029634Y-72490770D01*
X78085190Y-72435680D01*
X78152980Y-72403822D01*
X78226713Y-72396191D01*
X78300093Y-72413780D01*
G36*
X76625115Y-72407962D02*
G01*
X76693145Y-72443733D01*
X76743351Y-72501301D01*
X76761185Y-72538312D01*
X76775063Y-72593882D01*
X76782167Y-72664096D01*
X76782840Y-72740727D01*
X76777427Y-72815552D01*
X76766270Y-72880342D01*
X76749714Y-72926873D01*
X76744626Y-72934887D01*
X76684355Y-72994707D01*
X76612769Y-73030535D01*
X76535092Y-73041020D01*
X76456548Y-73024810D01*
X76434689Y-73015092D01*
X76392122Y-72985143D01*
X76354763Y-72945433D01*
X76351232Y-72940397D01*
X76336881Y-72916124D01*
X76327394Y-72890178D01*
X76321790Y-72856022D01*
X76319086Y-72807119D01*
X76318299Y-72736935D01*
X76318286Y-72721200D01*
X76318322Y-72716192D01*
X76463429Y-72716192D01*
X76464273Y-72782430D01*
X76467596Y-72826386D01*
X76474583Y-72854779D01*
X76486416Y-72874325D01*
X76492457Y-72880857D01*
X76527186Y-72905680D01*
X76560903Y-72904548D01*
X76594995Y-72883016D01*
X76615329Y-72860029D01*
X76627371Y-72826478D01*
X76634134Y-72773569D01*
X76634598Y-72767399D01*
X76635752Y-72671513D01*
X76623688Y-72600299D01*
X76598570Y-72554194D01*
X76560560Y-72533635D01*
X76546992Y-72532514D01*
X76511364Y-72538152D01*
X76486994Y-72557686D01*
X76472093Y-72595042D01*
X76464875Y-72654150D01*
X76463429Y-72716192D01*
X76318322Y-72716192D01*
X76318826Y-72646413D01*
X76321096Y-72594159D01*
X76326068Y-72557949D01*
X76334713Y-72531299D01*
X76348005Y-72507722D01*
X76350943Y-72503338D01*
X76400313Y-72444249D01*
X76454109Y-72409947D01*
X76519602Y-72396331D01*
X76541842Y-72395665D01*
X76625115Y-72407962D01*
G37*
X76625115Y-72407962D02*
X76693145Y-72443733D01*
X76743351Y-72501301D01*
X76761185Y-72538312D01*
X76775063Y-72593882D01*
X76782167Y-72664096D01*
X76782840Y-72740727D01*
X76777427Y-72815552D01*
X76766270Y-72880342D01*
X76749714Y-72926873D01*
X76744626Y-72934887D01*
X76684355Y-72994707D01*
X76612769Y-73030535D01*
X76535092Y-73041020D01*
X76456548Y-73024810D01*
X76434689Y-73015092D01*
X76392122Y-72985143D01*
X76354763Y-72945433D01*
X76351232Y-72940397D01*
X76336881Y-72916124D01*
X76327394Y-72890178D01*
X76321790Y-72856022D01*
X76319086Y-72807119D01*
X76318299Y-72736935D01*
X76318286Y-72721200D01*
X76318322Y-72716192D01*
X76463429Y-72716192D01*
X76464273Y-72782430D01*
X76467596Y-72826386D01*
X76474583Y-72854779D01*
X76486416Y-72874325D01*
X76492457Y-72880857D01*
X76527186Y-72905680D01*
X76560903Y-72904548D01*
X76594995Y-72883016D01*
X76615329Y-72860029D01*
X76627371Y-72826478D01*
X76634134Y-72773569D01*
X76634598Y-72767399D01*
X76635752Y-72671513D01*
X76623688Y-72600299D01*
X76598570Y-72554194D01*
X76560560Y-72533635D01*
X76546992Y-72532514D01*
X76511364Y-72538152D01*
X76486994Y-72557686D01*
X76472093Y-72595042D01*
X76464875Y-72654150D01*
X76463429Y-72716192D01*
X76318322Y-72716192D01*
X76318826Y-72646413D01*
X76321096Y-72594159D01*
X76326068Y-72557949D01*
X76334713Y-72531299D01*
X76348005Y-72507722D01*
X76350943Y-72503338D01*
X76400313Y-72444249D01*
X76454109Y-72409947D01*
X76519602Y-72396331D01*
X76541842Y-72395665D01*
X76625115Y-72407962D01*
G36*
X77752303Y-72417239D02*
G01*
X77809527Y-72455735D01*
X77853749Y-72511335D01*
X77880167Y-72582086D01*
X77885510Y-72634162D01*
X77884903Y-72655893D01*
X77879822Y-72672531D01*
X77865855Y-72687437D01*
X77838589Y-72703973D01*
X77793612Y-72725498D01*
X77726511Y-72755374D01*
X77726171Y-72755524D01*
X77664407Y-72783813D01*
X77613759Y-72808933D01*
X77579404Y-72828179D01*
X77566518Y-72838848D01*
X77566514Y-72838934D01*
X77577872Y-72862166D01*
X77604431Y-72887774D01*
X77634923Y-72906221D01*
X77650370Y-72909886D01*
X77692515Y-72897212D01*
X77728808Y-72865471D01*
X77746517Y-72830572D01*
X77763552Y-72804845D01*
X77796922Y-72775546D01*
X77836149Y-72750235D01*
X77870756Y-72736471D01*
X77877993Y-72735714D01*
X77886139Y-72748160D01*
X77886630Y-72779972D01*
X77880643Y-72822866D01*
X77869357Y-72868558D01*
X77853950Y-72908761D01*
X77853171Y-72910322D01*
X77806804Y-72975062D01*
X77746711Y-73019097D01*
X77678465Y-73040711D01*
X77607638Y-73038185D01*
X77539804Y-73009804D01*
X77536788Y-73007808D01*
X77483427Y-72959448D01*
X77448340Y-72896352D01*
X77428922Y-72813387D01*
X77426316Y-72790078D01*
X77421701Y-72680055D01*
X77427233Y-72628748D01*
X77566514Y-72628748D01*
X77568324Y-72660753D01*
X77578222Y-72670093D01*
X77602898Y-72663105D01*
X77641795Y-72646587D01*
X77685275Y-72625881D01*
X77686356Y-72625333D01*
X77723209Y-72605949D01*
X77738000Y-72593013D01*
X77734353Y-72579451D01*
X77718995Y-72561632D01*
X77679923Y-72535845D01*
X77637846Y-72533950D01*
X77600103Y-72552717D01*
X77574034Y-72588915D01*
X77566514Y-72628748D01*
X77427233Y-72628748D01*
X77431194Y-72592027D01*
X77455550Y-72522212D01*
X77489456Y-72473302D01*
X77550653Y-72423878D01*
X77618063Y-72399359D01*
X77686880Y-72397797D01*
X77752303Y-72417239D01*
G37*
X77752303Y-72417239D02*
X77809527Y-72455735D01*
X77853749Y-72511335D01*
X77880167Y-72582086D01*
X77885510Y-72634162D01*
X77884903Y-72655893D01*
X77879822Y-72672531D01*
X77865855Y-72687437D01*
X77838589Y-72703973D01*
X77793612Y-72725498D01*
X77726511Y-72755374D01*
X77726171Y-72755524D01*
X77664407Y-72783813D01*
X77613759Y-72808933D01*
X77579404Y-72828179D01*
X77566518Y-72838848D01*
X77566514Y-72838934D01*
X77577872Y-72862166D01*
X77604431Y-72887774D01*
X77634923Y-72906221D01*
X77650370Y-72909886D01*
X77692515Y-72897212D01*
X77728808Y-72865471D01*
X77746517Y-72830572D01*
X77763552Y-72804845D01*
X77796922Y-72775546D01*
X77836149Y-72750235D01*
X77870756Y-72736471D01*
X77877993Y-72735714D01*
X77886139Y-72748160D01*
X77886630Y-72779972D01*
X77880643Y-72822866D01*
X77869357Y-72868558D01*
X77853950Y-72908761D01*
X77853171Y-72910322D01*
X77806804Y-72975062D01*
X77746711Y-73019097D01*
X77678465Y-73040711D01*
X77607638Y-73038185D01*
X77539804Y-73009804D01*
X77536788Y-73007808D01*
X77483427Y-72959448D01*
X77448340Y-72896352D01*
X77428922Y-72813387D01*
X77426316Y-72790078D01*
X77421701Y-72680055D01*
X77427233Y-72628748D01*
X77566514Y-72628748D01*
X77568324Y-72660753D01*
X77578222Y-72670093D01*
X77602898Y-72663105D01*
X77641795Y-72646587D01*
X77685275Y-72625881D01*
X77686356Y-72625333D01*
X77723209Y-72605949D01*
X77738000Y-72593013D01*
X77734353Y-72579451D01*
X77718995Y-72561632D01*
X77679923Y-72535845D01*
X77637846Y-72533950D01*
X77600103Y-72552717D01*
X77574034Y-72588915D01*
X77566514Y-72628748D01*
X77427233Y-72628748D01*
X77431194Y-72592027D01*
X77455550Y-72522212D01*
X77489456Y-72473302D01*
X77550653Y-72423878D01*
X77618063Y-72399359D01*
X77686880Y-72397797D01*
X77752303Y-72417239D01*
G36*
X78959886Y-72337289D02*
G01*
X78964139Y-72396613D01*
X78969025Y-72431572D01*
X78975795Y-72446820D01*
X78985702Y-72447015D01*
X78988914Y-72445195D01*
X79031644Y-72432015D01*
X79087227Y-72432785D01*
X79143737Y-72446333D01*
X79179082Y-72463861D01*
X79215321Y-72491861D01*
X79241813Y-72523549D01*
X79259999Y-72563813D01*
X79271322Y-72617543D01*
X79277222Y-72689626D01*
X79279143Y-72784951D01*
X79279177Y-72803237D01*
X79279200Y-73008646D01*
X79233491Y-73024580D01*
X79201027Y-73035420D01*
X79183215Y-73040468D01*
X79182691Y-73040514D01*
X79180937Y-73026828D01*
X79179444Y-72989076D01*
X79178326Y-72932224D01*
X79177697Y-72861234D01*
X79177600Y-72818073D01*
X79177398Y-72732973D01*
X79176358Y-72671981D01*
X79173831Y-72630177D01*
X79169164Y-72602642D01*
X79161707Y-72584456D01*
X79150811Y-72570698D01*
X79144007Y-72564073D01*
X79097272Y-72537375D01*
X79046272Y-72535375D01*
X79000001Y-72557955D01*
X78991444Y-72566107D01*
X78978893Y-72581436D01*
X78970188Y-72599618D01*
X78964631Y-72625909D01*
X78961526Y-72665562D01*
X78960176Y-72723832D01*
X78959886Y-72804173D01*
X78959886Y-73008646D01*
X78914177Y-73024580D01*
X78881713Y-73035420D01*
X78863901Y-73040468D01*
X78863377Y-73040514D01*
X78862037Y-73026623D01*
X78860828Y-72987439D01*
X78859801Y-72926700D01*
X78859002Y-72848141D01*
X78858481Y-72755498D01*
X78858286Y-72652509D01*
X78858286Y-72255342D01*
X78905457Y-72235444D01*
X78952629Y-72215547D01*
X78959886Y-72337289D01*
G37*
X78959886Y-72337289D02*
X78964139Y-72396613D01*
X78969025Y-72431572D01*
X78975795Y-72446820D01*
X78985702Y-72447015D01*
X78988914Y-72445195D01*
X79031644Y-72432015D01*
X79087227Y-72432785D01*
X79143737Y-72446333D01*
X79179082Y-72463861D01*
X79215321Y-72491861D01*
X79241813Y-72523549D01*
X79259999Y-72563813D01*
X79271322Y-72617543D01*
X79277222Y-72689626D01*
X79279143Y-72784951D01*
X79279177Y-72803237D01*
X79279200Y-73008646D01*
X79233491Y-73024580D01*
X79201027Y-73035420D01*
X79183215Y-73040468D01*
X79182691Y-73040514D01*
X79180937Y-73026828D01*
X79179444Y-72989076D01*
X79178326Y-72932224D01*
X79177697Y-72861234D01*
X79177600Y-72818073D01*
X79177398Y-72732973D01*
X79176358Y-72671981D01*
X79173831Y-72630177D01*
X79169164Y-72602642D01*
X79161707Y-72584456D01*
X79150811Y-72570698D01*
X79144007Y-72564073D01*
X79097272Y-72537375D01*
X79046272Y-72535375D01*
X79000001Y-72557955D01*
X78991444Y-72566107D01*
X78978893Y-72581436D01*
X78970188Y-72599618D01*
X78964631Y-72625909D01*
X78961526Y-72665562D01*
X78960176Y-72723832D01*
X78959886Y-72804173D01*
X78959886Y-73008646D01*
X78914177Y-73024580D01*
X78881713Y-73035420D01*
X78863901Y-73040468D01*
X78863377Y-73040514D01*
X78862037Y-73026623D01*
X78860828Y-72987439D01*
X78859801Y-72926700D01*
X78859002Y-72848141D01*
X78858481Y-72755498D01*
X78858286Y-72652509D01*
X78858286Y-72255342D01*
X78905457Y-72235444D01*
X78952629Y-72215547D01*
X78959886Y-72337289D01*
G36*
X79623744Y-72436968D02*
G01*
X79680616Y-72458087D01*
X79681267Y-72458493D01*
X79716440Y-72484380D01*
X79742407Y-72514633D01*
X79760670Y-72554058D01*
X79772732Y-72607462D01*
X79780096Y-72679651D01*
X79784264Y-72775432D01*
X79784629Y-72789078D01*
X79789876Y-72994842D01*
X79745716Y-73017678D01*
X79713763Y-73033110D01*
X79694470Y-73040423D01*
X79693578Y-73040514D01*
X79690239Y-73027022D01*
X79687587Y-72990626D01*
X79685956Y-72937452D01*
X79685600Y-72894393D01*
X79685592Y-72824641D01*
X79682403Y-72780837D01*
X79671288Y-72759944D01*
X79647501Y-72758925D01*
X79606296Y-72774741D01*
X79544086Y-72803815D01*
X79498341Y-72827963D01*
X79474813Y-72848913D01*
X79467896Y-72871747D01*
X79467886Y-72872877D01*
X79479299Y-72912212D01*
X79513092Y-72933462D01*
X79564809Y-72936539D01*
X79602061Y-72936006D01*
X79621703Y-72946735D01*
X79633952Y-72972505D01*
X79641002Y-73005337D01*
X79630842Y-73023966D01*
X79627017Y-73026632D01*
X79591001Y-73037340D01*
X79540566Y-73038856D01*
X79488626Y-73031759D01*
X79451822Y-73018788D01*
X79400938Y-72975585D01*
X79372014Y-72915446D01*
X79366286Y-72868462D01*
X79370657Y-72826082D01*
X79386475Y-72791488D01*
X79417797Y-72760763D01*
X79468678Y-72729990D01*
X79543176Y-72695252D01*
X79547714Y-72693288D01*
X79614821Y-72662287D01*
X79656232Y-72636862D01*
X79673981Y-72614014D01*
X79670107Y-72590745D01*
X79646643Y-72564056D01*
X79639627Y-72557914D01*
X79592630Y-72534100D01*
X79543933Y-72535103D01*
X79501522Y-72558451D01*
X79473384Y-72601675D01*
X79470769Y-72610160D01*
X79445308Y-72651308D01*
X79413001Y-72671128D01*
X79366286Y-72690770D01*
X79366286Y-72639950D01*
X79380496Y-72566082D01*
X79422675Y-72498327D01*
X79444624Y-72475661D01*
X79494517Y-72446569D01*
X79557967Y-72433400D01*
X79623744Y-72436968D01*
G37*
X79623744Y-72436968D02*
X79680616Y-72458087D01*
X79681267Y-72458493D01*
X79716440Y-72484380D01*
X79742407Y-72514633D01*
X79760670Y-72554058D01*
X79772732Y-72607462D01*
X79780096Y-72679651D01*
X79784264Y-72775432D01*
X79784629Y-72789078D01*
X79789876Y-72994842D01*
X79745716Y-73017678D01*
X79713763Y-73033110D01*
X79694470Y-73040423D01*
X79693578Y-73040514D01*
X79690239Y-73027022D01*
X79687587Y-72990626D01*
X79685956Y-72937452D01*
X79685600Y-72894393D01*
X79685592Y-72824641D01*
X79682403Y-72780837D01*
X79671288Y-72759944D01*
X79647501Y-72758925D01*
X79606296Y-72774741D01*
X79544086Y-72803815D01*
X79498341Y-72827963D01*
X79474813Y-72848913D01*
X79467896Y-72871747D01*
X79467886Y-72872877D01*
X79479299Y-72912212D01*
X79513092Y-72933462D01*
X79564809Y-72936539D01*
X79602061Y-72936006D01*
X79621703Y-72946735D01*
X79633952Y-72972505D01*
X79641002Y-73005337D01*
X79630842Y-73023966D01*
X79627017Y-73026632D01*
X79591001Y-73037340D01*
X79540566Y-73038856D01*
X79488626Y-73031759D01*
X79451822Y-73018788D01*
X79400938Y-72975585D01*
X79372014Y-72915446D01*
X79366286Y-72868462D01*
X79370657Y-72826082D01*
X79386475Y-72791488D01*
X79417797Y-72760763D01*
X79468678Y-72729990D01*
X79543176Y-72695252D01*
X79547714Y-72693288D01*
X79614821Y-72662287D01*
X79656232Y-72636862D01*
X79673981Y-72614014D01*
X79670107Y-72590745D01*
X79646643Y-72564056D01*
X79639627Y-72557914D01*
X79592630Y-72534100D01*
X79543933Y-72535103D01*
X79501522Y-72558451D01*
X79473384Y-72601675D01*
X79470769Y-72610160D01*
X79445308Y-72651308D01*
X79413001Y-72671128D01*
X79366286Y-72690770D01*
X79366286Y-72639950D01*
X79380496Y-72566082D01*
X79422675Y-72498327D01*
X79444624Y-72475661D01*
X79494517Y-72446569D01*
X79557967Y-72433400D01*
X79623744Y-72436968D01*
G36*
X80113926Y-72435755D02*
G01*
X80179858Y-72460084D01*
X80233273Y-72503117D01*
X80254164Y-72533409D01*
X80276939Y-72588994D01*
X80276466Y-72629186D01*
X80252562Y-72656217D01*
X80243717Y-72660813D01*
X80205530Y-72675144D01*
X80186028Y-72671472D01*
X80179422Y-72647407D01*
X80179086Y-72634114D01*
X80166992Y-72585210D01*
X80135471Y-72550999D01*
X80091659Y-72534476D01*
X80042695Y-72538634D01*
X80002894Y-72560227D01*
X79989450Y-72572544D01*
X79979921Y-72587487D01*
X79973485Y-72610075D01*
X79969317Y-72645328D01*
X79966597Y-72698266D01*
X79964502Y-72773907D01*
X79963960Y-72797857D01*
X79961981Y-72879790D01*
X79959731Y-72937455D01*
X79956357Y-72975608D01*
X79951006Y-72999004D01*
X79942824Y-73012398D01*
X79930959Y-73020545D01*
X79923362Y-73024144D01*
X79891102Y-73036452D01*
X79872111Y-73040514D01*
X79865836Y-73026948D01*
X79862006Y-72985934D01*
X79860600Y-72916999D01*
X79861598Y-72819669D01*
X79861908Y-72804657D01*
X79864101Y-72715859D01*
X79866693Y-72651019D01*
X79870382Y-72605067D01*
X79875864Y-72572935D01*
X79883835Y-72549553D01*
X79894993Y-72529852D01*
X79900830Y-72521410D01*
X79934296Y-72484057D01*
X79971727Y-72455003D01*
X79976309Y-72452467D01*
X80043426Y-72432443D01*
X80113926Y-72435755D01*
G37*
X80113926Y-72435755D02*
X80179858Y-72460084D01*
X80233273Y-72503117D01*
X80254164Y-72533409D01*
X80276939Y-72588994D01*
X80276466Y-72629186D01*
X80252562Y-72656217D01*
X80243717Y-72660813D01*
X80205530Y-72675144D01*
X80186028Y-72671472D01*
X80179422Y-72647407D01*
X80179086Y-72634114D01*
X80166992Y-72585210D01*
X80135471Y-72550999D01*
X80091659Y-72534476D01*
X80042695Y-72538634D01*
X80002894Y-72560227D01*
X79989450Y-72572544D01*
X79979921Y-72587487D01*
X79973485Y-72610075D01*
X79969317Y-72645328D01*
X79966597Y-72698266D01*
X79964502Y-72773907D01*
X79963960Y-72797857D01*
X79961981Y-72879790D01*
X79959731Y-72937455D01*
X79956357Y-72975608D01*
X79951006Y-72999004D01*
X79942824Y-73012398D01*
X79930959Y-73020545D01*
X79923362Y-73024144D01*
X79891102Y-73036452D01*
X79872111Y-73040514D01*
X79865836Y-73026948D01*
X79862006Y-72985934D01*
X79860600Y-72916999D01*
X79861598Y-72819669D01*
X79861908Y-72804657D01*
X79864101Y-72715859D01*
X79866693Y-72651019D01*
X79870382Y-72605067D01*
X79875864Y-72572935D01*
X79883835Y-72549553D01*
X79894993Y-72529852D01*
X79900830Y-72521410D01*
X79934296Y-72484057D01*
X79971727Y-72455003D01*
X79976309Y-72452467D01*
X80043426Y-72432443D01*
X80113926Y-72435755D01*
G36*
X80774117Y-72551358D02*
G01*
X80773933Y-72659837D01*
X80773219Y-72743287D01*
X80771675Y-72805704D01*
X80769001Y-72851085D01*
X80764894Y-72883429D01*
X80759055Y-72906733D01*
X80751182Y-72924995D01*
X80745221Y-72935418D01*
X80695855Y-72991945D01*
X80633264Y-73027377D01*
X80564013Y-73040090D01*
X80494668Y-73028463D01*
X80453375Y-73007568D01*
X80410025Y-72971422D01*
X80380481Y-72927276D01*
X80362655Y-72869462D01*
X80354463Y-72792313D01*
X80353302Y-72735714D01*
X80353458Y-72731647D01*
X80454857Y-72731647D01*
X80455476Y-72796550D01*
X80458314Y-72839514D01*
X80464840Y-72867622D01*
X80476523Y-72887953D01*
X80490483Y-72903288D01*
X80537365Y-72932890D01*
X80587701Y-72935419D01*
X80635276Y-72910705D01*
X80638979Y-72907356D01*
X80654783Y-72889935D01*
X80664693Y-72869209D01*
X80670058Y-72838362D01*
X80672228Y-72790577D01*
X80672571Y-72737748D01*
X80671827Y-72671381D01*
X80668748Y-72627106D01*
X80662061Y-72598009D01*
X80650496Y-72577173D01*
X80641013Y-72566107D01*
X80596960Y-72538198D01*
X80546224Y-72534843D01*
X80497796Y-72556159D01*
X80488450Y-72564073D01*
X80472540Y-72581647D01*
X80462610Y-72602587D01*
X80457278Y-72633782D01*
X80455163Y-72682122D01*
X80454857Y-72731647D01*
X80353458Y-72731647D01*
X80356810Y-72644568D01*
X80368726Y-72576086D01*
X80391135Y-72524600D01*
X80426124Y-72484443D01*
X80453375Y-72463861D01*
X80502907Y-72441625D01*
X80560316Y-72431304D01*
X80613682Y-72434067D01*
X80643543Y-72445212D01*
X80655261Y-72448383D01*
X80663037Y-72436557D01*
X80668465Y-72404866D01*
X80672571Y-72356593D01*
X80677067Y-72302829D01*
X80683313Y-72270482D01*
X80694676Y-72251985D01*
X80714528Y-72239770D01*
X80727000Y-72234362D01*
X80774171Y-72214601D01*
X80774117Y-72551358D01*
G37*
X80774117Y-72551358D02*
X80773933Y-72659837D01*
X80773219Y-72743287D01*
X80771675Y-72805704D01*
X80769001Y-72851085D01*
X80764894Y-72883429D01*
X80759055Y-72906733D01*
X80751182Y-72924995D01*
X80745221Y-72935418D01*
X80695855Y-72991945D01*
X80633264Y-73027377D01*
X80564013Y-73040090D01*
X80494668Y-73028463D01*
X80453375Y-73007568D01*
X80410025Y-72971422D01*
X80380481Y-72927276D01*
X80362655Y-72869462D01*
X80354463Y-72792313D01*
X80353302Y-72735714D01*
X80353458Y-72731647D01*
X80454857Y-72731647D01*
X80455476Y-72796550D01*
X80458314Y-72839514D01*
X80464840Y-72867622D01*
X80476523Y-72887953D01*
X80490483Y-72903288D01*
X80537365Y-72932890D01*
X80587701Y-72935419D01*
X80635276Y-72910705D01*
X80638979Y-72907356D01*
X80654783Y-72889935D01*
X80664693Y-72869209D01*
X80670058Y-72838362D01*
X80672228Y-72790577D01*
X80672571Y-72737748D01*
X80671827Y-72671381D01*
X80668748Y-72627106D01*
X80662061Y-72598009D01*
X80650496Y-72577173D01*
X80641013Y-72566107D01*
X80596960Y-72538198D01*
X80546224Y-72534843D01*
X80497796Y-72556159D01*
X80488450Y-72564073D01*
X80472540Y-72581647D01*
X80462610Y-72602587D01*
X80457278Y-72633782D01*
X80455163Y-72682122D01*
X80454857Y-72731647D01*
X80353458Y-72731647D01*
X80356810Y-72644568D01*
X80368726Y-72576086D01*
X80391135Y-72524600D01*
X80426124Y-72484443D01*
X80453375Y-72463861D01*
X80502907Y-72441625D01*
X80560316Y-72431304D01*
X80613682Y-72434067D01*
X80643543Y-72445212D01*
X80655261Y-72448383D01*
X80663037Y-72436557D01*
X80668465Y-72404866D01*
X80672571Y-72356593D01*
X80677067Y-72302829D01*
X80683313Y-72270482D01*
X80694676Y-72251985D01*
X80714528Y-72239770D01*
X80727000Y-72234362D01*
X80774171Y-72214601D01*
X80774117Y-72551358D01*
G36*
X81363833Y-72444663D02*
G01*
X81366048Y-72482850D01*
X81367784Y-72540886D01*
X81368899Y-72614180D01*
X81369257Y-72691055D01*
X81369257Y-72951196D01*
X81323326Y-72997127D01*
X81291675Y-73025429D01*
X81263890Y-73036893D01*
X81225915Y-73036168D01*
X81210840Y-73034321D01*
X81163726Y-73028948D01*
X81124756Y-73025869D01*
X81115257Y-73025585D01*
X81083233Y-73027445D01*
X81037432Y-73032114D01*
X81019674Y-73034321D01*
X80976057Y-73037735D01*
X80946745Y-73030320D01*
X80917680Y-73007427D01*
X80907188Y-72997127D01*
X80861257Y-72951196D01*
X80861257Y-72464602D01*
X80898226Y-72447758D01*
X80930059Y-72435282D01*
X80948683Y-72430914D01*
X80953458Y-72444718D01*
X80957921Y-72483286D01*
X80961775Y-72542356D01*
X80964722Y-72617663D01*
X80966143Y-72681286D01*
X80970114Y-72931657D01*
X81004759Y-72936556D01*
X81036268Y-72933131D01*
X81051708Y-72922041D01*
X81056023Y-72901308D01*
X81059708Y-72857145D01*
X81062469Y-72795146D01*
X81064012Y-72720909D01*
X81064235Y-72682706D01*
X81064457Y-72462783D01*
X81110166Y-72446849D01*
X81142518Y-72436015D01*
X81160115Y-72430962D01*
X81160623Y-72430914D01*
X81162388Y-72444648D01*
X81164329Y-72482730D01*
X81166282Y-72540482D01*
X81168084Y-72613227D01*
X81169343Y-72681286D01*
X81173314Y-72931657D01*
X81260400Y-72931657D01*
X81264396Y-72703240D01*
X81268392Y-72474822D01*
X81310847Y-72452868D01*
X81342192Y-72437793D01*
X81360744Y-72430951D01*
X81361279Y-72430914D01*
X81363833Y-72444663D01*
G37*
X81363833Y-72444663D02*
X81366048Y-72482850D01*
X81367784Y-72540886D01*
X81368899Y-72614180D01*
X81369257Y-72691055D01*
X81369257Y-72951196D01*
X81323326Y-72997127D01*
X81291675Y-73025429D01*
X81263890Y-73036893D01*
X81225915Y-73036168D01*
X81210840Y-73034321D01*
X81163726Y-73028948D01*
X81124756Y-73025869D01*
X81115257Y-73025585D01*
X81083233Y-73027445D01*
X81037432Y-73032114D01*
X81019674Y-73034321D01*
X80976057Y-73037735D01*
X80946745Y-73030320D01*
X80917680Y-73007427D01*
X80907188Y-72997127D01*
X80861257Y-72951196D01*
X80861257Y-72464602D01*
X80898226Y-72447758D01*
X80930059Y-72435282D01*
X80948683Y-72430914D01*
X80953458Y-72444718D01*
X80957921Y-72483286D01*
X80961775Y-72542356D01*
X80964722Y-72617663D01*
X80966143Y-72681286D01*
X80970114Y-72931657D01*
X81004759Y-72936556D01*
X81036268Y-72933131D01*
X81051708Y-72922041D01*
X81056023Y-72901308D01*
X81059708Y-72857145D01*
X81062469Y-72795146D01*
X81064012Y-72720909D01*
X81064235Y-72682706D01*
X81064457Y-72462783D01*
X81110166Y-72446849D01*
X81142518Y-72436015D01*
X81160115Y-72430962D01*
X81160623Y-72430914D01*
X81162388Y-72444648D01*
X81164329Y-72482730D01*
X81166282Y-72540482D01*
X81168084Y-72613227D01*
X81169343Y-72681286D01*
X81173314Y-72931657D01*
X81260400Y-72931657D01*
X81264396Y-72703240D01*
X81268392Y-72474822D01*
X81310847Y-72452868D01*
X81342192Y-72437793D01*
X81360744Y-72430951D01*
X81361279Y-72430914D01*
X81363833Y-72444663D01*
G36*
X81728876Y-72442335D02*
G01*
X81770667Y-72461344D01*
X81803469Y-72484378D01*
X81827503Y-72510133D01*
X81844097Y-72543358D01*
X81854577Y-72588800D01*
X81860271Y-72651207D01*
X81862507Y-72735327D01*
X81862743Y-72790721D01*
X81862743Y-73006826D01*
X81825774Y-73023670D01*
X81796656Y-73035981D01*
X81782231Y-73040514D01*
X81779472Y-73027025D01*
X81777282Y-72990653D01*
X81775942Y-72937542D01*
X81775657Y-72895372D01*
X81774434Y-72834447D01*
X81771136Y-72786115D01*
X81766321Y-72756518D01*
X81762496Y-72750229D01*
X81736783Y-72756652D01*
X81696418Y-72773125D01*
X81649679Y-72795458D01*
X81604845Y-72819457D01*
X81570193Y-72840930D01*
X81554002Y-72855685D01*
X81553938Y-72855845D01*
X81555330Y-72883152D01*
X81567818Y-72909219D01*
X81589743Y-72930392D01*
X81621743Y-72937474D01*
X81649092Y-72936649D01*
X81687826Y-72936042D01*
X81708158Y-72945116D01*
X81720369Y-72969092D01*
X81721909Y-72973613D01*
X81727203Y-73007806D01*
X81713047Y-73028568D01*
X81676148Y-73038462D01*
X81636289Y-73040292D01*
X81564562Y-73026727D01*
X81527432Y-73007355D01*
X81481576Y-72961845D01*
X81457256Y-72905983D01*
X81455073Y-72846957D01*
X81475629Y-72791953D01*
X81506549Y-72757486D01*
X81537420Y-72738189D01*
X81585942Y-72713759D01*
X81642485Y-72688985D01*
X81651910Y-72685199D01*
X81714019Y-72657791D01*
X81749822Y-72633634D01*
X81761337Y-72609619D01*
X81750580Y-72582635D01*
X81732114Y-72561543D01*
X81688469Y-72535572D01*
X81640446Y-72533624D01*
X81596406Y-72553637D01*
X81564709Y-72593551D01*
X81560549Y-72603848D01*
X81536327Y-72641724D01*
X81500965Y-72669842D01*
X81456343Y-72692917D01*
X81456343Y-72627485D01*
X81458969Y-72587506D01*
X81470230Y-72555997D01*
X81495199Y-72522378D01*
X81519169Y-72496484D01*
X81556441Y-72459817D01*
X81585401Y-72440121D01*
X81616505Y-72432220D01*
X81651713Y-72430914D01*
X81728876Y-72442335D01*
G37*
X81728876Y-72442335D02*
X81770667Y-72461344D01*
X81803469Y-72484378D01*
X81827503Y-72510133D01*
X81844097Y-72543358D01*
X81854577Y-72588800D01*
X81860271Y-72651207D01*
X81862507Y-72735327D01*
X81862743Y-72790721D01*
X81862743Y-73006826D01*
X81825774Y-73023670D01*
X81796656Y-73035981D01*
X81782231Y-73040514D01*
X81779472Y-73027025D01*
X81777282Y-72990653D01*
X81775942Y-72937542D01*
X81775657Y-72895372D01*
X81774434Y-72834447D01*
X81771136Y-72786115D01*
X81766321Y-72756518D01*
X81762496Y-72750229D01*
X81736783Y-72756652D01*
X81696418Y-72773125D01*
X81649679Y-72795458D01*
X81604845Y-72819457D01*
X81570193Y-72840930D01*
X81554002Y-72855685D01*
X81553938Y-72855845D01*
X81555330Y-72883152D01*
X81567818Y-72909219D01*
X81589743Y-72930392D01*
X81621743Y-72937474D01*
X81649092Y-72936649D01*
X81687826Y-72936042D01*
X81708158Y-72945116D01*
X81720369Y-72969092D01*
X81721909Y-72973613D01*
X81727203Y-73007806D01*
X81713047Y-73028568D01*
X81676148Y-73038462D01*
X81636289Y-73040292D01*
X81564562Y-73026727D01*
X81527432Y-73007355D01*
X81481576Y-72961845D01*
X81457256Y-72905983D01*
X81455073Y-72846957D01*
X81475629Y-72791953D01*
X81506549Y-72757486D01*
X81537420Y-72738189D01*
X81585942Y-72713759D01*
X81642485Y-72688985D01*
X81651910Y-72685199D01*
X81714019Y-72657791D01*
X81749822Y-72633634D01*
X81761337Y-72609619D01*
X81750580Y-72582635D01*
X81732114Y-72561543D01*
X81688469Y-72535572D01*
X81640446Y-72533624D01*
X81596406Y-72553637D01*
X81564709Y-72593551D01*
X81560549Y-72603848D01*
X81536327Y-72641724D01*
X81500965Y-72669842D01*
X81456343Y-72692917D01*
X81456343Y-72627485D01*
X81458969Y-72587506D01*
X81470230Y-72555997D01*
X81495199Y-72522378D01*
X81519169Y-72496484D01*
X81556441Y-72459817D01*
X81585401Y-72440121D01*
X81616505Y-72432220D01*
X81651713Y-72430914D01*
X81728876Y-72442335D01*
G36*
X82236600Y-72444752D02*
G01*
X82253948Y-72452334D01*
X82295356Y-72485128D01*
X82330765Y-72532547D01*
X82352664Y-72583151D01*
X82356229Y-72608098D01*
X82344279Y-72642927D01*
X82318067Y-72661357D01*
X82289964Y-72672516D01*
X82277095Y-72674572D01*
X82270829Y-72659649D01*
X82258456Y-72627175D01*
X82253028Y-72612502D01*
X82222590Y-72561744D01*
X82178520Y-72536427D01*
X82122010Y-72537206D01*
X82117825Y-72538203D01*
X82087655Y-72552507D01*
X82065476Y-72580393D01*
X82050327Y-72625287D01*
X82041250Y-72690615D01*
X82037286Y-72779804D01*
X82036914Y-72827261D01*
X82036730Y-72902071D01*
X82035522Y-72953069D01*
X82032309Y-72985471D01*
X82026109Y-73004495D01*
X82015940Y-73015356D01*
X82000819Y-73023272D01*
X81999946Y-73023670D01*
X81970828Y-73035981D01*
X81956403Y-73040514D01*
X81954186Y-73026809D01*
X81952289Y-72988925D01*
X81950847Y-72931715D01*
X81949998Y-72860027D01*
X81949829Y-72807565D01*
X81950692Y-72706047D01*
X81954070Y-72629032D01*
X81961142Y-72572023D01*
X81973088Y-72530526D01*
X81991090Y-72500043D01*
X82016327Y-72476080D01*
X82041247Y-72459355D01*
X82101171Y-72437097D01*
X82170911Y-72432076D01*
X82236600Y-72444752D01*
G37*
X82236600Y-72444752D02*
X82253948Y-72452334D01*
X82295356Y-72485128D01*
X82330765Y-72532547D01*
X82352664Y-72583151D01*
X82356229Y-72608098D01*
X82344279Y-72642927D01*
X82318067Y-72661357D01*
X82289964Y-72672516D01*
X82277095Y-72674572D01*
X82270829Y-72659649D01*
X82258456Y-72627175D01*
X82253028Y-72612502D01*
X82222590Y-72561744D01*
X82178520Y-72536427D01*
X82122010Y-72537206D01*
X82117825Y-72538203D01*
X82087655Y-72552507D01*
X82065476Y-72580393D01*
X82050327Y-72625287D01*
X82041250Y-72690615D01*
X82037286Y-72779804D01*
X82036914Y-72827261D01*
X82036730Y-72902071D01*
X82035522Y-72953069D01*
X82032309Y-72985471D01*
X82026109Y-73004495D01*
X82015940Y-73015356D01*
X82000819Y-73023272D01*
X81999946Y-73023670D01*
X81970828Y-73035981D01*
X81956403Y-73040514D01*
X81954186Y-73026809D01*
X81952289Y-72988925D01*
X81950847Y-72931715D01*
X81949998Y-72860027D01*
X81949829Y-72807565D01*
X81950692Y-72706047D01*
X81954070Y-72629032D01*
X81961142Y-72572023D01*
X81973088Y-72530526D01*
X81991090Y-72500043D01*
X82016327Y-72476080D01*
X82041247Y-72459355D01*
X82101171Y-72437097D01*
X82170911Y-72432076D01*
X82236600Y-72444752D01*
G36*
X82737595Y-72452966D02*
G01*
X82795021Y-72490497D01*
X82822719Y-72524096D01*
X82844662Y-72585064D01*
X82846405Y-72633308D01*
X82842457Y-72697816D01*
X82693686Y-72762934D01*
X82621349Y-72796202D01*
X82574084Y-72822964D01*
X82549507Y-72846144D01*
X82545237Y-72868667D01*
X82558889Y-72893455D01*
X82573943Y-72909886D01*
X82617746Y-72936235D01*
X82665389Y-72938081D01*
X82709145Y-72917546D01*
X82741289Y-72876752D01*
X82747038Y-72862347D01*
X82774576Y-72817356D01*
X82806258Y-72798182D01*
X82849714Y-72781779D01*
X82849714Y-72843966D01*
X82845872Y-72886283D01*
X82830823Y-72921969D01*
X82799280Y-72962943D01*
X82794592Y-72968267D01*
X82759506Y-73004720D01*
X82729347Y-73024283D01*
X82691615Y-73033283D01*
X82660335Y-73036230D01*
X82604385Y-73036965D01*
X82564555Y-73027660D01*
X82539708Y-73013846D01*
X82500656Y-72983467D01*
X82473625Y-72950613D01*
X82456517Y-72909294D01*
X82447238Y-72853521D01*
X82443693Y-72777305D01*
X82443410Y-72738622D01*
X82444372Y-72692247D01*
X82532007Y-72692247D01*
X82533023Y-72717126D01*
X82535556Y-72721200D01*
X82552274Y-72715665D01*
X82588249Y-72701017D01*
X82636331Y-72680190D01*
X82646386Y-72675714D01*
X82707152Y-72644814D01*
X82740632Y-72617657D01*
X82747990Y-72592220D01*
X82730391Y-72566481D01*
X82715856Y-72555109D01*
X82663410Y-72532364D01*
X82614322Y-72536122D01*
X82573227Y-72563884D01*
X82544758Y-72613152D01*
X82535631Y-72652257D01*
X82532007Y-72692247D01*
X82444372Y-72692247D01*
X82445285Y-72648249D01*
X82452196Y-72581384D01*
X82465884Y-72532695D01*
X82488096Y-72496849D01*
X82520574Y-72468513D01*
X82534733Y-72459355D01*
X82599053Y-72435507D01*
X82669473Y-72434006D01*
X82737595Y-72452966D01*
G37*
X82737595Y-72452966D02*
X82795021Y-72490497D01*
X82822719Y-72524096D01*
X82844662Y-72585064D01*
X82846405Y-72633308D01*
X82842457Y-72697816D01*
X82693686Y-72762934D01*
X82621349Y-72796202D01*
X82574084Y-72822964D01*
X82549507Y-72846144D01*
X82545237Y-72868667D01*
X82558889Y-72893455D01*
X82573943Y-72909886D01*
X82617746Y-72936235D01*
X82665389Y-72938081D01*
X82709145Y-72917546D01*
X82741289Y-72876752D01*
X82747038Y-72862347D01*
X82774576Y-72817356D01*
X82806258Y-72798182D01*
X82849714Y-72781779D01*
X82849714Y-72843966D01*
X82845872Y-72886283D01*
X82830823Y-72921969D01*
X82799280Y-72962943D01*
X82794592Y-72968267D01*
X82759506Y-73004720D01*
X82729347Y-73024283D01*
X82691615Y-73033283D01*
X82660335Y-73036230D01*
X82604385Y-73036965D01*
X82564555Y-73027660D01*
X82539708Y-73013846D01*
X82500656Y-72983467D01*
X82473625Y-72950613D01*
X82456517Y-72909294D01*
X82447238Y-72853521D01*
X82443693Y-72777305D01*
X82443410Y-72738622D01*
X82444372Y-72692247D01*
X82532007Y-72692247D01*
X82533023Y-72717126D01*
X82535556Y-72721200D01*
X82552274Y-72715665D01*
X82588249Y-72701017D01*
X82636331Y-72680190D01*
X82646386Y-72675714D01*
X82707152Y-72644814D01*
X82740632Y-72617657D01*
X82747990Y-72592220D01*
X82730391Y-72566481D01*
X82715856Y-72555109D01*
X82663410Y-72532364D01*
X82614322Y-72536122D01*
X82573227Y-72563884D01*
X82544758Y-72613152D01*
X82535631Y-72652257D01*
X82532007Y-72692247D01*
X82444372Y-72692247D01*
X82445285Y-72648249D01*
X82452196Y-72581384D01*
X82465884Y-72532695D01*
X82488096Y-72496849D01*
X82520574Y-72468513D01*
X82534733Y-72459355D01*
X82599053Y-72435507D01*
X82669473Y-72434006D01*
X82737595Y-72452966D01*
G36*
X79687910Y-67728348D02*
G01*
X79766454Y-67728778D01*
X79823298Y-67729942D01*
X79862105Y-67732207D01*
X79886538Y-67735940D01*
X79900262Y-67741506D01*
X79906940Y-67749273D01*
X79910236Y-67759605D01*
X79910556Y-67760943D01*
X79915562Y-67785079D01*
X79924829Y-67832701D01*
X79937392Y-67898741D01*
X79952287Y-67978128D01*
X79968551Y-68065796D01*
X79969119Y-68068875D01*
X79985410Y-68154789D01*
X80000652Y-68230696D01*
X80013861Y-68292045D01*
X80024054Y-68334282D01*
X80030248Y-68352855D01*
X80030543Y-68353184D01*
X80048788Y-68362253D01*
X80086405Y-68377367D01*
X80135271Y-68395262D01*
X80135543Y-68395358D01*
X80197093Y-68418493D01*
X80269657Y-68447965D01*
X80338057Y-68477597D01*
X80341294Y-68479062D01*
X80452702Y-68529626D01*
X80699399Y-68361160D01*
X80775077Y-68309803D01*
X80843631Y-68263889D01*
X80901088Y-68226030D01*
X80943476Y-68198837D01*
X80966825Y-68184921D01*
X80969042Y-68183889D01*
X80986010Y-68188484D01*
X81017701Y-68210655D01*
X81065352Y-68251447D01*
X81130198Y-68311905D01*
X81196397Y-68376227D01*
X81260214Y-68439612D01*
X81317329Y-68497451D01*
X81364305Y-68546175D01*
X81397703Y-68582210D01*
X81414085Y-68601984D01*
X81414694Y-68603002D01*
X81416505Y-68616572D01*
X81409683Y-68638733D01*
X81392540Y-68672478D01*
X81363393Y-68720800D01*
X81320555Y-68786692D01*
X81263448Y-68871517D01*
X81212766Y-68946177D01*
X81167461Y-69013140D01*
X81130150Y-69068516D01*
X81103452Y-69108420D01*
X81089985Y-69128962D01*
X81089137Y-69130356D01*
X81090781Y-69150038D01*
X81103245Y-69188293D01*
X81124048Y-69237889D01*
X81131462Y-69253728D01*
X81163814Y-69324290D01*
X81198328Y-69404353D01*
X81226365Y-69473629D01*
X81246568Y-69525045D01*
X81262615Y-69564119D01*
X81271888Y-69584541D01*
X81273041Y-69586114D01*
X81290096Y-69588721D01*
X81330298Y-69595863D01*
X81388302Y-69606523D01*
X81458763Y-69619685D01*
X81536335Y-69634333D01*
X81615672Y-69649449D01*
X81691431Y-69664018D01*
X81758264Y-69677022D01*
X81810828Y-69687445D01*
X81843776Y-69694270D01*
X81851857Y-69696199D01*
X81860205Y-69700962D01*
X81866506Y-69711718D01*
X81871045Y-69732098D01*
X81874104Y-69765734D01*
X81875967Y-69816255D01*
X81876918Y-69887292D01*
X81877240Y-69982476D01*
X81877257Y-70021492D01*
X81877257Y-70338799D01*
X81801057Y-70353839D01*
X81758663Y-70361995D01*
X81695400Y-70373899D01*
X81618962Y-70388116D01*
X81537043Y-70403210D01*
X81514400Y-70407355D01*
X81438806Y-70422053D01*
X81372953Y-70436505D01*
X81322366Y-70449375D01*
X81292574Y-70459322D01*
X81287612Y-70462287D01*
X81275426Y-70483283D01*
X81257953Y-70523967D01*
X81238577Y-70576322D01*
X81234734Y-70587600D01*
X81209339Y-70657523D01*
X81177817Y-70736418D01*
X81146969Y-70807266D01*
X81146817Y-70807595D01*
X81095447Y-70918733D01*
X81264399Y-71167253D01*
X81433352Y-71415772D01*
X81216429Y-71633058D01*
X81150819Y-71697726D01*
X81090979Y-71754733D01*
X81040267Y-71801033D01*
X81002046Y-71833584D01*
X80979675Y-71849343D01*
X80976466Y-71850343D01*
X80957626Y-71842469D01*
X80919180Y-71820578D01*
X80865330Y-71787267D01*
X80800276Y-71745131D01*
X80729940Y-71697943D01*
X80658555Y-71649810D01*
X80594908Y-71607928D01*
X80543041Y-71574871D01*
X80506995Y-71553218D01*
X80490867Y-71545543D01*
X80471189Y-71552037D01*
X80433875Y-71569150D01*
X80386621Y-71593326D01*
X80381612Y-71596013D01*
X80317977Y-71627927D01*
X80274341Y-71643579D01*
X80247202Y-71643745D01*
X80233057Y-71629204D01*
X80232975Y-71629000D01*
X80225905Y-71611779D01*
X80209042Y-71570899D01*
X80183695Y-71509525D01*
X80151171Y-71430819D01*
X80112778Y-71337947D01*
X80069822Y-71234072D01*
X80028222Y-71133502D01*
X79982504Y-71022516D01*
X79940526Y-70919703D01*
X79903548Y-70828215D01*
X79872827Y-70751201D01*
X79849622Y-70691815D01*
X79835190Y-70653209D01*
X79830743Y-70638800D01*
X79841896Y-70622272D01*
X79871069Y-70595930D01*
X79909971Y-70566887D01*
X80020757Y-70475039D01*
X80107351Y-70369759D01*
X80168716Y-70253266D01*
X80203815Y-70127776D01*
X80211608Y-69995507D01*
X80205943Y-69934457D01*
X80175078Y-69807795D01*
X80121920Y-69695941D01*
X80049767Y-69600001D01*
X79961917Y-69521076D01*
X79861665Y-69460270D01*
X79752310Y-69418687D01*
X79637147Y-69397428D01*
X79519475Y-69397599D01*
X79402590Y-69420301D01*
X79289789Y-69466638D01*
X79184369Y-69537713D01*
X79140368Y-69577911D01*
X79055979Y-69681129D01*
X78997222Y-69793925D01*
X78963704Y-69913010D01*
X78955035Y-70035095D01*
X78970823Y-70156893D01*
X79010678Y-70275116D01*
X79074207Y-70386475D01*
X79161021Y-70487684D01*
X79258029Y-70566887D01*
X79298437Y-70597162D01*
X79326982Y-70623219D01*
X79337257Y-70638825D01*
X79331877Y-70655843D01*
X79316575Y-70696500D01*
X79292612Y-70757642D01*
X79261244Y-70836119D01*
X79223732Y-70928780D01*
X79181333Y-71032472D01*
X79139663Y-71133526D01*
X79093690Y-71244607D01*
X79051107Y-71347541D01*
X79013221Y-71439165D01*
X78981340Y-71516316D01*
X78956771Y-71575831D01*
X78940820Y-71614544D01*
X78934910Y-71629000D01*
X78920948Y-71643685D01*
X78893940Y-71643642D01*
X78850413Y-71628099D01*
X78786890Y-71596284D01*
X78786388Y-71596013D01*
X78738560Y-71571323D01*
X78699897Y-71553338D01*
X78678095Y-71545614D01*
X78677133Y-71545543D01*
X78660721Y-71553378D01*
X78624487Y-71575165D01*
X78572474Y-71608328D01*
X78508725Y-71650291D01*
X78438060Y-71697943D01*
X78366116Y-71746191D01*
X78301274Y-71788151D01*
X78247735Y-71821227D01*
X78209697Y-71842821D01*
X78191533Y-71850343D01*
X78174808Y-71840457D01*
X78141180Y-71812826D01*
X78094010Y-71770495D01*
X78036658Y-71716505D01*
X77972484Y-71653899D01*
X77951497Y-71632983D01*
X77734499Y-71415623D01*
X77899668Y-71173220D01*
X77949864Y-71098781D01*
X77993919Y-71031972D01*
X78029362Y-70976665D01*
X78053719Y-70936729D01*
X78064522Y-70916036D01*
X78064838Y-70914563D01*
X78059143Y-70895058D01*
X78043826Y-70855822D01*
X78021537Y-70803430D01*
X78005893Y-70768355D01*
X77976641Y-70701201D01*
X77949094Y-70633358D01*
X77927737Y-70576034D01*
X77921935Y-70558572D01*
X77905452Y-70511938D01*
X77889340Y-70475905D01*
X77880490Y-70462287D01*
X77860960Y-70453952D01*
X77818334Y-70442137D01*
X77758145Y-70428181D01*
X77685922Y-70413422D01*
X77653600Y-70407355D01*
X77571522Y-70392273D01*
X77492795Y-70377669D01*
X77425109Y-70364980D01*
X77376160Y-70355642D01*
X77366943Y-70353839D01*
X77290743Y-70338799D01*
X77290743Y-70021492D01*
X77290914Y-69917154D01*
X77291616Y-69838213D01*
X77293134Y-69781038D01*
X77295749Y-69741999D01*
X77299746Y-69717465D01*
X77305409Y-69703805D01*
X77313020Y-69697389D01*
X77316143Y-69696199D01*
X77334978Y-69691980D01*
X77376588Y-69683562D01*
X77435630Y-69671961D01*
X77506757Y-69658195D01*
X77584625Y-69643280D01*
X77663887Y-69628232D01*
X77739198Y-69614069D01*
X77805213Y-69601806D01*
X77856587Y-69592461D01*
X77887975Y-69587050D01*
X77894959Y-69586114D01*
X77901285Y-69573596D01*
X77915290Y-69540246D01*
X77934355Y-69492377D01*
X77941634Y-69473629D01*
X77970996Y-69401195D01*
X78005571Y-69321170D01*
X78036537Y-69253728D01*
X78059323Y-69202159D01*
X78074482Y-69159785D01*
X78079542Y-69133834D01*
X78078736Y-69130356D01*
X78068041Y-69113936D01*
X78043620Y-69077417D01*
X78008095Y-69024687D01*
X77964087Y-68959635D01*
X77914217Y-68886151D01*
X77904356Y-68871645D01*
X77846492Y-68785704D01*
X77803956Y-68720261D01*
X77775054Y-68672304D01*
X77758090Y-68638820D01*
X77751367Y-68616795D01*
X77753190Y-68603217D01*
X77753236Y-68603131D01*
X77767586Y-68585297D01*
X77799323Y-68550817D01*
X77845010Y-68503268D01*
X77901204Y-68446222D01*
X77964468Y-68383255D01*
X77971602Y-68376227D01*
X78051330Y-68299020D01*
X78112857Y-68242330D01*
X78157421Y-68205110D01*
X78186257Y-68186315D01*
X78198958Y-68183889D01*
X78217494Y-68194471D01*
X78255961Y-68218916D01*
X78310386Y-68254612D01*
X78376798Y-68298947D01*
X78451225Y-68349311D01*
X78468601Y-68361160D01*
X78715297Y-68529626D01*
X78826706Y-68479062D01*
X78894457Y-68449595D01*
X78967183Y-68419959D01*
X79029703Y-68396330D01*
X79032457Y-68395358D01*
X79081360Y-68377457D01*
X79119057Y-68362320D01*
X79137425Y-68353210D01*
X79137456Y-68353184D01*
X79143285Y-68336717D01*
X79153192Y-68296219D01*
X79166195Y-68236242D01*
X79181309Y-68161340D01*
X79197552Y-68076064D01*
X79198881Y-68068875D01*
X79215175Y-67981014D01*
X79230133Y-67901260D01*
X79242791Y-67834681D01*
X79252186Y-67786347D01*
X79257354Y-67761325D01*
X79257444Y-67760943D01*
X79260589Y-67750299D01*
X79266704Y-67742262D01*
X79279453Y-67736467D01*
X79302500Y-67732547D01*
X79339509Y-67730135D01*
X79394144Y-67728865D01*
X79470067Y-67728371D01*
X79570944Y-67728286D01*
X79584000Y-67728286D01*
X79687910Y-67728348D01*
G37*
X79687910Y-67728348D02*
X79766454Y-67728778D01*
X79823298Y-67729942D01*
X79862105Y-67732207D01*
X79886538Y-67735940D01*
X79900262Y-67741506D01*
X79906940Y-67749273D01*
X79910236Y-67759605D01*
X79910556Y-67760943D01*
X79915562Y-67785079D01*
X79924829Y-67832701D01*
X79937392Y-67898741D01*
X79952287Y-67978128D01*
X79968551Y-68065796D01*
X79969119Y-68068875D01*
X79985410Y-68154789D01*
X80000652Y-68230696D01*
X80013861Y-68292045D01*
X80024054Y-68334282D01*
X80030248Y-68352855D01*
X80030543Y-68353184D01*
X80048788Y-68362253D01*
X80086405Y-68377367D01*
X80135271Y-68395262D01*
X80135543Y-68395358D01*
X80197093Y-68418493D01*
X80269657Y-68447965D01*
X80338057Y-68477597D01*
X80341294Y-68479062D01*
X80452702Y-68529626D01*
X80699399Y-68361160D01*
X80775077Y-68309803D01*
X80843631Y-68263889D01*
X80901088Y-68226030D01*
X80943476Y-68198837D01*
X80966825Y-68184921D01*
X80969042Y-68183889D01*
X80986010Y-68188484D01*
X81017701Y-68210655D01*
X81065352Y-68251447D01*
X81130198Y-68311905D01*
X81196397Y-68376227D01*
X81260214Y-68439612D01*
X81317329Y-68497451D01*
X81364305Y-68546175D01*
X81397703Y-68582210D01*
X81414085Y-68601984D01*
X81414694Y-68603002D01*
X81416505Y-68616572D01*
X81409683Y-68638733D01*
X81392540Y-68672478D01*
X81363393Y-68720800D01*
X81320555Y-68786692D01*
X81263448Y-68871517D01*
X81212766Y-68946177D01*
X81167461Y-69013140D01*
X81130150Y-69068516D01*
X81103452Y-69108420D01*
X81089985Y-69128962D01*
X81089137Y-69130356D01*
X81090781Y-69150038D01*
X81103245Y-69188293D01*
X81124048Y-69237889D01*
X81131462Y-69253728D01*
X81163814Y-69324290D01*
X81198328Y-69404353D01*
X81226365Y-69473629D01*
X81246568Y-69525045D01*
X81262615Y-69564119D01*
X81271888Y-69584541D01*
X81273041Y-69586114D01*
X81290096Y-69588721D01*
X81330298Y-69595863D01*
X81388302Y-69606523D01*
X81458763Y-69619685D01*
X81536335Y-69634333D01*
X81615672Y-69649449D01*
X81691431Y-69664018D01*
X81758264Y-69677022D01*
X81810828Y-69687445D01*
X81843776Y-69694270D01*
X81851857Y-69696199D01*
X81860205Y-69700962D01*
X81866506Y-69711718D01*
X81871045Y-69732098D01*
X81874104Y-69765734D01*
X81875967Y-69816255D01*
X81876918Y-69887292D01*
X81877240Y-69982476D01*
X81877257Y-70021492D01*
X81877257Y-70338799D01*
X81801057Y-70353839D01*
X81758663Y-70361995D01*
X81695400Y-70373899D01*
X81618962Y-70388116D01*
X81537043Y-70403210D01*
X81514400Y-70407355D01*
X81438806Y-70422053D01*
X81372953Y-70436505D01*
X81322366Y-70449375D01*
X81292574Y-70459322D01*
X81287612Y-70462287D01*
X81275426Y-70483283D01*
X81257953Y-70523967D01*
X81238577Y-70576322D01*
X81234734Y-70587600D01*
X81209339Y-70657523D01*
X81177817Y-70736418D01*
X81146969Y-70807266D01*
X81146817Y-70807595D01*
X81095447Y-70918733D01*
X81264399Y-71167253D01*
X81433352Y-71415772D01*
X81216429Y-71633058D01*
X81150819Y-71697726D01*
X81090979Y-71754733D01*
X81040267Y-71801033D01*
X81002046Y-71833584D01*
X80979675Y-71849343D01*
X80976466Y-71850343D01*
X80957626Y-71842469D01*
X80919180Y-71820578D01*
X80865330Y-71787267D01*
X80800276Y-71745131D01*
X80729940Y-71697943D01*
X80658555Y-71649810D01*
X80594908Y-71607928D01*
X80543041Y-71574871D01*
X80506995Y-71553218D01*
X80490867Y-71545543D01*
X80471189Y-71552037D01*
X80433875Y-71569150D01*
X80386621Y-71593326D01*
X80381612Y-71596013D01*
X80317977Y-71627927D01*
X80274341Y-71643579D01*
X80247202Y-71643745D01*
X80233057Y-71629204D01*
X80232975Y-71629000D01*
X80225905Y-71611779D01*
X80209042Y-71570899D01*
X80183695Y-71509525D01*
X80151171Y-71430819D01*
X80112778Y-71337947D01*
X80069822Y-71234072D01*
X80028222Y-71133502D01*
X79982504Y-71022516D01*
X79940526Y-70919703D01*
X79903548Y-70828215D01*
X79872827Y-70751201D01*
X79849622Y-70691815D01*
X79835190Y-70653209D01*
X79830743Y-70638800D01*
X79841896Y-70622272D01*
X79871069Y-70595930D01*
X79909971Y-70566887D01*
X80020757Y-70475039D01*
X80107351Y-70369759D01*
X80168716Y-70253266D01*
X80203815Y-70127776D01*
X80211608Y-69995507D01*
X80205943Y-69934457D01*
X80175078Y-69807795D01*
X80121920Y-69695941D01*
X80049767Y-69600001D01*
X79961917Y-69521076D01*
X79861665Y-69460270D01*
X79752310Y-69418687D01*
X79637147Y-69397428D01*
X79519475Y-69397599D01*
X79402590Y-69420301D01*
X79289789Y-69466638D01*
X79184369Y-69537713D01*
X79140368Y-69577911D01*
X79055979Y-69681129D01*
X78997222Y-69793925D01*
X78963704Y-69913010D01*
X78955035Y-70035095D01*
X78970823Y-70156893D01*
X79010678Y-70275116D01*
X79074207Y-70386475D01*
X79161021Y-70487684D01*
X79258029Y-70566887D01*
X79298437Y-70597162D01*
X79326982Y-70623219D01*
X79337257Y-70638825D01*
X79331877Y-70655843D01*
X79316575Y-70696500D01*
X79292612Y-70757642D01*
X79261244Y-70836119D01*
X79223732Y-70928780D01*
X79181333Y-71032472D01*
X79139663Y-71133526D01*
X79093690Y-71244607D01*
X79051107Y-71347541D01*
X79013221Y-71439165D01*
X78981340Y-71516316D01*
X78956771Y-71575831D01*
X78940820Y-71614544D01*
X78934910Y-71629000D01*
X78920948Y-71643685D01*
X78893940Y-71643642D01*
X78850413Y-71628099D01*
X78786890Y-71596284D01*
X78786388Y-71596013D01*
X78738560Y-71571323D01*
X78699897Y-71553338D01*
X78678095Y-71545614D01*
X78677133Y-71545543D01*
X78660721Y-71553378D01*
X78624487Y-71575165D01*
X78572474Y-71608328D01*
X78508725Y-71650291D01*
X78438060Y-71697943D01*
X78366116Y-71746191D01*
X78301274Y-71788151D01*
X78247735Y-71821227D01*
X78209697Y-71842821D01*
X78191533Y-71850343D01*
X78174808Y-71840457D01*
X78141180Y-71812826D01*
X78094010Y-71770495D01*
X78036658Y-71716505D01*
X77972484Y-71653899D01*
X77951497Y-71632983D01*
X77734499Y-71415623D01*
X77899668Y-71173220D01*
X77949864Y-71098781D01*
X77993919Y-71031972D01*
X78029362Y-70976665D01*
X78053719Y-70936729D01*
X78064522Y-70916036D01*
X78064838Y-70914563D01*
X78059143Y-70895058D01*
X78043826Y-70855822D01*
X78021537Y-70803430D01*
X78005893Y-70768355D01*
X77976641Y-70701201D01*
X77949094Y-70633358D01*
X77927737Y-70576034D01*
X77921935Y-70558572D01*
X77905452Y-70511938D01*
X77889340Y-70475905D01*
X77880490Y-70462287D01*
X77860960Y-70453952D01*
X77818334Y-70442137D01*
X77758145Y-70428181D01*
X77685922Y-70413422D01*
X77653600Y-70407355D01*
X77571522Y-70392273D01*
X77492795Y-70377669D01*
X77425109Y-70364980D01*
X77376160Y-70355642D01*
X77366943Y-70353839D01*
X77290743Y-70338799D01*
X77290743Y-70021492D01*
X77290914Y-69917154D01*
X77291616Y-69838213D01*
X77293134Y-69781038D01*
X77295749Y-69741999D01*
X77299746Y-69717465D01*
X77305409Y-69703805D01*
X77313020Y-69697389D01*
X77316143Y-69696199D01*
X77334978Y-69691980D01*
X77376588Y-69683562D01*
X77435630Y-69671961D01*
X77506757Y-69658195D01*
X77584625Y-69643280D01*
X77663887Y-69628232D01*
X77739198Y-69614069D01*
X77805213Y-69601806D01*
X77856587Y-69592461D01*
X77887975Y-69587050D01*
X77894959Y-69586114D01*
X77901285Y-69573596D01*
X77915290Y-69540246D01*
X77934355Y-69492377D01*
X77941634Y-69473629D01*
X77970996Y-69401195D01*
X78005571Y-69321170D01*
X78036537Y-69253728D01*
X78059323Y-69202159D01*
X78074482Y-69159785D01*
X78079542Y-69133834D01*
X78078736Y-69130356D01*
X78068041Y-69113936D01*
X78043620Y-69077417D01*
X78008095Y-69024687D01*
X77964087Y-68959635D01*
X77914217Y-68886151D01*
X77904356Y-68871645D01*
X77846492Y-68785704D01*
X77803956Y-68720261D01*
X77775054Y-68672304D01*
X77758090Y-68638820D01*
X77751367Y-68616795D01*
X77753190Y-68603217D01*
X77753236Y-68603131D01*
X77767586Y-68585297D01*
X77799323Y-68550817D01*
X77845010Y-68503268D01*
X77901204Y-68446222D01*
X77964468Y-68383255D01*
X77971602Y-68376227D01*
X78051330Y-68299020D01*
X78112857Y-68242330D01*
X78157421Y-68205110D01*
X78186257Y-68186315D01*
X78198958Y-68183889D01*
X78217494Y-68194471D01*
X78255961Y-68218916D01*
X78310386Y-68254612D01*
X78376798Y-68298947D01*
X78451225Y-68349311D01*
X78468601Y-68361160D01*
X78715297Y-68529626D01*
X78826706Y-68479062D01*
X78894457Y-68449595D01*
X78967183Y-68419959D01*
X79029703Y-68396330D01*
X79032457Y-68395358D01*
X79081360Y-68377457D01*
X79119057Y-68362320D01*
X79137425Y-68353210D01*
X79137456Y-68353184D01*
X79143285Y-68336717D01*
X79153192Y-68296219D01*
X79166195Y-68236242D01*
X79181309Y-68161340D01*
X79197552Y-68076064D01*
X79198881Y-68068875D01*
X79215175Y-67981014D01*
X79230133Y-67901260D01*
X79242791Y-67834681D01*
X79252186Y-67786347D01*
X79257354Y-67761325D01*
X79257444Y-67760943D01*
X79260589Y-67750299D01*
X79266704Y-67742262D01*
X79279453Y-67736467D01*
X79302500Y-67732547D01*
X79339509Y-67730135D01*
X79394144Y-67728865D01*
X79470067Y-67728371D01*
X79570944Y-67728286D01*
X79584000Y-67728286D01*
X79687910Y-67728348D01*
D12*
%TO.C,Q1*%
X108677611Y-39647123D02*
G75*
G03*
X104789000Y-39657001I-1948611J1690122D01*
G01*
X104789000Y-39657001D02*
X108639000Y-39657001D01*
%TO.C,R2*%
X117732779Y-37768000D02*
X117407221Y-37768000D01*
X117732779Y-36748000D02*
X117407221Y-36748000D01*
%TO.C,R11*%
X83314000Y-41493221D02*
X83314000Y-41818779D01*
X82294000Y-41493221D02*
X82294000Y-41818779D01*
%TO.C,J1*%
X108772000Y-64178000D02*
X101032000Y-64178000D01*
X101032000Y-64178000D02*
X101032000Y-66838000D01*
X101032000Y-66838000D02*
X108772000Y-66838000D01*
X108772000Y-66838000D02*
X108772000Y-64178000D01*
X107822000Y-66838000D02*
X107822000Y-72838000D01*
X107822000Y-72838000D02*
X107062000Y-72838000D01*
X107062000Y-72838000D02*
X107062000Y-66838000D01*
X107762000Y-66838000D02*
X107762000Y-72838000D01*
X107642000Y-66838000D02*
X107642000Y-72838000D01*
X107522000Y-66838000D02*
X107522000Y-72838000D01*
X107402000Y-66838000D02*
X107402000Y-72838000D01*
X107282000Y-66838000D02*
X107282000Y-72838000D01*
X107162000Y-66838000D02*
X107162000Y-72838000D01*
X107822000Y-63780929D02*
X107822000Y-64178000D01*
X107062000Y-63780929D02*
X107062000Y-64178000D01*
X107822000Y-61308000D02*
X107822000Y-61695071D01*
X107062000Y-61308000D02*
X107062000Y-61695071D01*
X106172000Y-64178000D02*
X106172000Y-66838000D01*
X105282000Y-66838000D02*
X105282000Y-72838000D01*
X105282000Y-72838000D02*
X104522000Y-72838000D01*
X104522000Y-72838000D02*
X104522000Y-66838000D01*
X105282000Y-63780929D02*
X105282000Y-64178000D01*
X104522000Y-63780929D02*
X104522000Y-64178000D01*
X105282000Y-61240929D02*
X105282000Y-61695071D01*
X104522000Y-61240929D02*
X104522000Y-61695071D01*
X103632000Y-64178000D02*
X103632000Y-66838000D01*
X102742000Y-66838000D02*
X102742000Y-72838000D01*
X102742000Y-72838000D02*
X101982000Y-72838000D01*
X101982000Y-72838000D02*
X101982000Y-66838000D01*
X102742000Y-63780929D02*
X102742000Y-64178000D01*
X101982000Y-63780929D02*
X101982000Y-64178000D01*
X102742000Y-61240929D02*
X102742000Y-61695071D01*
X101982000Y-61240929D02*
X101982000Y-61695071D01*
X107442000Y-58928000D02*
X108712000Y-58928000D01*
X108712000Y-58928000D02*
X108712000Y-60198000D01*
%TO.C,Q2*%
X84672611Y-39536122D02*
G75*
G03*
X80784000Y-39546000I-1948611J1690122D01*
G01*
X80784000Y-39546000D02*
X84634000Y-39546000D01*
%TO.C,R1*%
X115487221Y-62228000D02*
X115812779Y-62228000D01*
X115487221Y-63248000D02*
X115812779Y-63248000D01*
%TO.C,RLY2*%
X89529001Y-19050000D02*
X89529001Y-33782000D01*
X89529001Y-33782000D02*
X79369001Y-33782000D01*
X79369001Y-33782000D02*
X79369001Y-19050000D01*
X79369001Y-19050000D02*
X89529001Y-19050000D01*
X84855001Y-30226000D02*
X84220001Y-31242000D01*
X82671001Y-30099000D02*
X82671001Y-30734000D01*
X82671001Y-30734000D02*
X83331001Y-30734000D01*
X85871001Y-30099000D02*
X85871001Y-30734000D01*
X85871001Y-30734000D02*
X85236001Y-30734000D01*
X85236001Y-30226000D02*
X83331001Y-30226000D01*
X83331001Y-30226000D02*
X83331001Y-31242000D01*
X83331001Y-31242000D02*
X85236001Y-31242000D01*
X85236001Y-30226000D02*
X85236001Y-31242000D01*
%TO.C,R8*%
X114176222Y-54354000D02*
X114501780Y-54354000D01*
X114176222Y-55374000D02*
X114501780Y-55374000D01*
%TO.C,D4*%
X88555001Y-60348539D02*
G75*
G02*
X83005001Y-61893831I-2990000J-462D01*
G01*
X88555001Y-60349463D02*
G75*
G03*
X83005001Y-58804171I-2990000J462D01*
G01*
X88065001Y-60349001D02*
G75*
G03*
X88065001Y-60349001I-2500000J0D01*
G01*
X83005001Y-58804001D02*
X83005001Y-61894001D01*
%TO.C,R10*%
X107319000Y-41604222D02*
X107319000Y-41929780D01*
X106299000Y-41604222D02*
X106299000Y-41929780D01*
%TO.C,R9*%
X114103221Y-44702999D02*
X114428779Y-44702999D01*
X114103221Y-45722999D02*
X114428779Y-45722999D01*
%TO.C,R13*%
X114064220Y-47750999D02*
X114389778Y-47750999D01*
X114064220Y-48770999D02*
X114389778Y-48770999D01*
%TO.C,R5*%
X76108779Y-66804000D02*
X75783221Y-66804000D01*
X76108779Y-65784000D02*
X75783221Y-65784000D01*
D13*
%TO.C,J4*%
X70074000Y-37824000D02*
X70074000Y-37324000D01*
X70074000Y-37824000D02*
X70574000Y-37824000D01*
X75214000Y-37844000D02*
X75214000Y-37344000D01*
X75214000Y-37844000D02*
X74714000Y-37844000D01*
X75214000Y-31244000D02*
X75214000Y-31744000D01*
X75214000Y-31244000D02*
X74714000Y-31244000D01*
X70064000Y-31254000D02*
X70064000Y-31754000D01*
X70064000Y-31254000D02*
X70564000Y-31254000D01*
%TO.C,J3*%
X121950000Y-24914000D02*
X121950000Y-25414000D01*
X121950000Y-24914000D02*
X121450000Y-24914000D01*
X116810000Y-24894000D02*
X116810000Y-25394000D01*
X116810000Y-24894000D02*
X117310000Y-24894000D01*
X116810000Y-31494000D02*
X116810000Y-30994000D01*
X116810000Y-31494000D02*
X117310000Y-31494000D01*
X121960000Y-31484000D02*
X121960000Y-30984000D01*
X121960000Y-31484000D02*
X121460000Y-31484000D01*
%TO.C,U1*%
X108502000Y-45872000D02*
X108502000Y-45772000D01*
X108502000Y-45772000D02*
X108152000Y-45422000D01*
X108152000Y-45422000D02*
X108052000Y-45422000D01*
X108052000Y-45422000D02*
X108052000Y-44122000D01*
X108502000Y-52622000D02*
X108502000Y-52172000D01*
X108502000Y-52622000D02*
X108052000Y-52622000D01*
X101302000Y-52622000D02*
X101752000Y-52622000D01*
X101302000Y-52622000D02*
X101302000Y-52172000D01*
X101302000Y-45422000D02*
X101302000Y-45872000D01*
X101302000Y-45422000D02*
X101752000Y-45422000D01*
D12*
%TO.C,D3*%
X81055001Y-60348539D02*
G75*
G02*
X75505001Y-61893831I-2990000J-462D01*
G01*
X81055001Y-60349463D02*
G75*
G03*
X75505001Y-58804171I-2990000J462D01*
G01*
X80565001Y-60349001D02*
G75*
G03*
X80565001Y-60349001I-2500000J0D01*
G01*
X75505001Y-58804001D02*
X75505001Y-61894001D01*
%TO.C,C2*%
X90332779Y-41404000D02*
X90007221Y-41404000D01*
X90332779Y-40384000D02*
X90007221Y-40384000D01*
%TO.C,R6*%
X83728779Y-66804000D02*
X83403221Y-66804000D01*
X83728779Y-65784000D02*
X83403221Y-65784000D01*
%TO.C,R4*%
X77396000Y-44137000D02*
X87166000Y-44137000D01*
X77396000Y-53907000D02*
X87166000Y-53907000D01*
X77396000Y-44137000D02*
X77396000Y-53907000D01*
X87166000Y-44137000D02*
X87166000Y-53907000D01*
%TO.C,Y1*%
X99299000Y-31952000D02*
G75*
G03*
X94249000Y-31952000I-2525000J0D01*
G01*
X99299000Y-38352000D02*
G75*
G02*
X94249000Y-38352000I-2525000J0D01*
G01*
X94249000Y-38352000D02*
X94249000Y-31952000D01*
X99299000Y-38352000D02*
X99299000Y-31952000D01*
%TO.C,C8*%
X114064220Y-41654999D02*
X114389778Y-41654999D01*
X114064220Y-42674999D02*
X114389778Y-42674999D01*
%TO.C,C5*%
X91696000Y-50611721D02*
X91696000Y-50937279D01*
X90676000Y-50611721D02*
X90676000Y-50937279D01*
%TO.C,U2*%
X75244000Y-45450000D02*
G75*
G02*
X75244000Y-43450000I0J1000000D01*
G01*
X75244000Y-43450000D02*
X75244000Y-41915000D01*
X75244000Y-41915000D02*
X70044000Y-41915000D01*
X70044000Y-41915000D02*
X70044000Y-46985000D01*
X70044000Y-46985000D02*
X75244000Y-46985000D01*
X75244000Y-46985000D02*
X75244000Y-45450000D01*
X75304000Y-38215000D02*
X69984000Y-38215000D01*
X69984000Y-38215000D02*
X69984000Y-50685000D01*
X69984000Y-50685000D02*
X75304000Y-50685000D01*
X75304000Y-50685000D02*
X75304000Y-38215000D01*
D13*
%TO.C,J5*%
X100868000Y-19580000D02*
X100868000Y-20080000D01*
X100868000Y-19580000D02*
X100368000Y-19580000D01*
X95728000Y-19560000D02*
X95728000Y-20060000D01*
X95728000Y-19560000D02*
X96228000Y-19560000D01*
X95728000Y-26160000D02*
X95728000Y-25660000D01*
X95728000Y-26160000D02*
X96228000Y-26160000D01*
X100878000Y-26150000D02*
X100878000Y-25650000D01*
X100878000Y-26150000D02*
X100378000Y-26150000D01*
D12*
%TO.C,C4*%
X86466000Y-40102064D02*
X86466000Y-38897936D01*
X88286000Y-40102064D02*
X88286000Y-38897936D01*
%TO.C,SW1*%
X123610000Y-52412000D02*
X119110000Y-52412000D01*
X124860000Y-56412000D02*
X124860000Y-54912000D01*
X119110000Y-58912000D02*
X123610000Y-58912000D01*
X117860000Y-54912000D02*
X117860000Y-56412000D01*
%TO.C,C1*%
X105755221Y-54608000D02*
X106080779Y-54608000D01*
X105755221Y-55628000D02*
X106080779Y-55628000D01*
D13*
%TO.C,J6*%
X78992000Y-19326000D02*
X78992000Y-19826000D01*
X78992000Y-19326000D02*
X78492000Y-19326000D01*
X73852000Y-19306000D02*
X73852000Y-19806000D01*
X73852000Y-19306000D02*
X74352000Y-19306000D01*
X73852000Y-25906000D02*
X73852000Y-25406000D01*
X73852000Y-25906000D02*
X74352000Y-25906000D01*
X79002000Y-25896000D02*
X79002000Y-25396000D01*
X79002000Y-25896000D02*
X78502000Y-25896000D01*
D12*
%TO.C,D5*%
X95954000Y-60348539D02*
G75*
G02*
X90404000Y-61893831I-2990000J-462D01*
G01*
X95954000Y-60349463D02*
G75*
G03*
X90404000Y-58804171I-2990000J462D01*
G01*
X95464000Y-60349001D02*
G75*
G03*
X95464000Y-60349001I-2500000J0D01*
G01*
X90404000Y-58804001D02*
X90404000Y-61894001D01*
%TO.C,D1*%
X90234000Y-28056000D02*
X92074000Y-28056000D01*
X92074000Y-28056000D02*
X92074000Y-24776000D01*
X92074000Y-24776000D02*
X90234000Y-24776000D01*
X90234000Y-24776000D02*
X90234000Y-28056000D01*
X91154000Y-29236000D02*
X91154000Y-28056000D01*
X91154000Y-23596000D02*
X91154000Y-24776000D01*
X90234000Y-27480000D02*
X92074000Y-27480000D01*
X90234000Y-27360000D02*
X92074000Y-27360000D01*
X90234000Y-27600000D02*
X92074000Y-27600000D01*
%TO.C,R7*%
X91094779Y-66804000D02*
X90769221Y-66804000D01*
X91094779Y-65784000D02*
X90769221Y-65784000D01*
%TO.C,R12*%
X114137221Y-57402000D02*
X114462779Y-57402000D01*
X114137221Y-58422000D02*
X114462779Y-58422000D01*
D13*
%TO.C,J2*%
X122018000Y-33298000D02*
X121518000Y-33298000D01*
X122018000Y-33298000D02*
X122018000Y-33798000D01*
X122018000Y-41198000D02*
X122018000Y-40698000D01*
X122018000Y-41198000D02*
X121518000Y-41198000D01*
X119218000Y-41198000D02*
X119718000Y-41198000D01*
X119218000Y-41198000D02*
X119218000Y-40698000D01*
X119218000Y-33298000D02*
X119718000Y-33298000D01*
X119218000Y-33298000D02*
X119218000Y-33798000D01*
D12*
%TO.C,D2*%
X112239000Y-28167001D02*
X114079000Y-28167001D01*
X114079000Y-28167001D02*
X114079000Y-24887001D01*
X114079000Y-24887001D02*
X112239000Y-24887001D01*
X112239000Y-24887001D02*
X112239000Y-28167001D01*
X113159000Y-29347001D02*
X113159000Y-28167001D01*
X113159000Y-23707001D02*
X113159000Y-24887001D01*
X112239000Y-27591001D02*
X114079000Y-27591001D01*
X112239000Y-27471001D02*
X114079000Y-27471001D01*
X112239000Y-27711001D02*
X114079000Y-27711001D01*
%TO.C,C7*%
X114137221Y-51306000D02*
X114462779Y-51306000D01*
X114137221Y-52326000D02*
X114462779Y-52326000D01*
%TO.C,SW2*%
X123536999Y-42760999D02*
X119036999Y-42760999D01*
X124786999Y-46760999D02*
X124786999Y-45260999D01*
X119036999Y-49260999D02*
X123536999Y-49260999D01*
X117786999Y-45260999D02*
X117786999Y-46760999D01*
%TO.C,C6*%
X87736000Y-50764064D02*
X87736000Y-49559936D01*
X89556000Y-50764064D02*
X89556000Y-49559936D01*
%TO.C,RLY1*%
X111534001Y-19161001D02*
X111534001Y-33893001D01*
X111534001Y-33893001D02*
X101374001Y-33893001D01*
X101374001Y-33893001D02*
X101374001Y-19161001D01*
X101374001Y-19161001D02*
X111534001Y-19161001D01*
X106860001Y-30337001D02*
X106225001Y-31353001D01*
X104676001Y-30210001D02*
X104676001Y-30845001D01*
X104676001Y-30845001D02*
X105336001Y-30845001D01*
X107876001Y-30210001D02*
X107876001Y-30845001D01*
X107876001Y-30845001D02*
X107241001Y-30845001D01*
X107241001Y-30337001D02*
X105336001Y-30337001D01*
X105336001Y-30337001D02*
X105336001Y-31353001D01*
X105336001Y-31353001D02*
X107241001Y-31353001D01*
X107241001Y-30337001D02*
X107241001Y-31353001D01*
%TO.C,S1*%
X117514000Y-70764000D02*
X117514000Y-66264000D01*
X113514000Y-72014000D02*
X115014000Y-72014000D01*
X111014000Y-66264000D02*
X111014000Y-70764000D01*
X115014000Y-65014000D02*
X113514000Y-65014000D01*
%TO.C,C3*%
X90332779Y-38610000D02*
X90007221Y-38610000D01*
X90332779Y-37590000D02*
X90007221Y-37590000D01*
%TO.C,R3*%
X117732779Y-40308000D02*
X117407221Y-40308000D01*
X117732779Y-39288000D02*
X117407221Y-39288000D01*
%TO.C, *%
D14*
%TO.C,Q1*%
X103028761Y-38647619D02*
X102933523Y-38600000D01*
X102838285Y-38504761D01*
X102695428Y-38361904D01*
X102600190Y-38314285D01*
X102504952Y-38314285D01*
X102552571Y-38552380D02*
X102457333Y-38504761D01*
X102362095Y-38409523D01*
X102314476Y-38219047D01*
X102314476Y-37885714D01*
X102362095Y-37695238D01*
X102457333Y-37600000D01*
X102552571Y-37552380D01*
X102743047Y-37552380D01*
X102838285Y-37600000D01*
X102933523Y-37695238D01*
X102981142Y-37885714D01*
X102981142Y-38219047D01*
X102933523Y-38409523D01*
X102838285Y-38504761D01*
X102743047Y-38552380D01*
X102552571Y-38552380D01*
X103933523Y-38552380D02*
X103362095Y-38552380D01*
X103647809Y-38552380D02*
X103647809Y-37552380D01*
X103552571Y-37695238D01*
X103457333Y-37790476D01*
X103362095Y-37838095D01*
%TO.C,R2*%
X117435333Y-36266380D02*
X117102000Y-35790190D01*
X116863904Y-36266380D02*
X116863904Y-35266380D01*
X117244857Y-35266380D01*
X117340095Y-35314000D01*
X117387714Y-35361619D01*
X117435333Y-35456857D01*
X117435333Y-35599714D01*
X117387714Y-35694952D01*
X117340095Y-35742571D01*
X117244857Y-35790190D01*
X116863904Y-35790190D01*
X117816285Y-35361619D02*
X117863904Y-35314000D01*
X117959142Y-35266380D01*
X118197238Y-35266380D01*
X118292476Y-35314000D01*
X118340095Y-35361619D01*
X118387714Y-35456857D01*
X118387714Y-35552095D01*
X118340095Y-35694952D01*
X117768666Y-36266380D01*
X118387714Y-36266380D01*
%TO.C,R11*%
X84686380Y-42298857D02*
X84210190Y-42632190D01*
X84686380Y-42870285D02*
X83686380Y-42870285D01*
X83686380Y-42489333D01*
X83734000Y-42394095D01*
X83781619Y-42346476D01*
X83876857Y-42298857D01*
X84019714Y-42298857D01*
X84114952Y-42346476D01*
X84162571Y-42394095D01*
X84210190Y-42489333D01*
X84210190Y-42870285D01*
X84686380Y-41346476D02*
X84686380Y-41917904D01*
X84686380Y-41632190D02*
X83686380Y-41632190D01*
X83829238Y-41727428D01*
X83924476Y-41822666D01*
X83972095Y-41917904D01*
X84686380Y-40394095D02*
X84686380Y-40965523D01*
X84686380Y-40679809D02*
X83686380Y-40679809D01*
X83829238Y-40775047D01*
X83924476Y-40870285D01*
X83972095Y-40965523D01*
%TO.C,J1*%
X109164380Y-66186333D02*
X109878666Y-66186333D01*
X110021523Y-66233952D01*
X110116761Y-66329190D01*
X110164380Y-66472047D01*
X110164380Y-66567285D01*
X110164380Y-65186333D02*
X110164380Y-65757761D01*
X110164380Y-65472047D02*
X109164380Y-65472047D01*
X109307238Y-65567285D01*
X109402476Y-65662523D01*
X109450095Y-65757761D01*
%TO.C,Q2*%
X78898761Y-38393619D02*
X78803523Y-38346000D01*
X78708285Y-38250761D01*
X78565428Y-38107904D01*
X78470190Y-38060285D01*
X78374952Y-38060285D01*
X78422571Y-38298380D02*
X78327333Y-38250761D01*
X78232095Y-38155523D01*
X78184476Y-37965047D01*
X78184476Y-37631714D01*
X78232095Y-37441238D01*
X78327333Y-37346000D01*
X78422571Y-37298380D01*
X78613047Y-37298380D01*
X78708285Y-37346000D01*
X78803523Y-37441238D01*
X78851142Y-37631714D01*
X78851142Y-37965047D01*
X78803523Y-38155523D01*
X78708285Y-38250761D01*
X78613047Y-38298380D01*
X78422571Y-38298380D01*
X79232095Y-37393619D02*
X79279714Y-37346000D01*
X79374952Y-37298380D01*
X79613047Y-37298380D01*
X79708285Y-37346000D01*
X79755904Y-37393619D01*
X79803523Y-37488857D01*
X79803523Y-37584095D01*
X79755904Y-37726952D01*
X79184476Y-38298380D01*
X79803523Y-38298380D01*
%TO.C,R1*%
X115483333Y-61760380D02*
X115150000Y-61284190D01*
X114911904Y-61760380D02*
X114911904Y-60760380D01*
X115292857Y-60760380D01*
X115388095Y-60808000D01*
X115435714Y-60855619D01*
X115483333Y-60950857D01*
X115483333Y-61093714D01*
X115435714Y-61188952D01*
X115388095Y-61236571D01*
X115292857Y-61284190D01*
X114911904Y-61284190D01*
X116435714Y-61760380D02*
X115864285Y-61760380D01*
X116150000Y-61760380D02*
X116150000Y-60760380D01*
X116054761Y-60903238D01*
X115959523Y-60998476D01*
X115864285Y-61046095D01*
%TO.C,RLY2*%
X80909001Y-18740380D02*
X80575667Y-18264190D01*
X80337572Y-18740380D02*
X80337572Y-17740380D01*
X80718524Y-17740380D01*
X80813762Y-17788000D01*
X80861381Y-17835619D01*
X80909001Y-17930857D01*
X80909001Y-18073714D01*
X80861381Y-18168952D01*
X80813762Y-18216571D01*
X80718524Y-18264190D01*
X80337572Y-18264190D01*
X81813762Y-18740380D02*
X81337572Y-18740380D01*
X81337572Y-17740380D01*
X82337572Y-18264190D02*
X82337572Y-18740380D01*
X82004239Y-17740380D02*
X82337572Y-18264190D01*
X82670905Y-17740380D01*
X82956620Y-17835619D02*
X83004239Y-17788000D01*
X83099477Y-17740380D01*
X83337572Y-17740380D01*
X83432810Y-17788000D01*
X83480429Y-17835619D01*
X83528048Y-17930857D01*
X83528048Y-18026095D01*
X83480429Y-18168952D01*
X82909001Y-18740380D01*
X83528048Y-18740380D01*
%TO.C,R8*%
X114172334Y-53886380D02*
X113839001Y-53410190D01*
X113600905Y-53886380D02*
X113600905Y-52886380D01*
X113981858Y-52886380D01*
X114077096Y-52934000D01*
X114124715Y-52981619D01*
X114172334Y-53076857D01*
X114172334Y-53219714D01*
X114124715Y-53314952D01*
X114077096Y-53362571D01*
X113981858Y-53410190D01*
X113600905Y-53410190D01*
X114743762Y-53314952D02*
X114648524Y-53267333D01*
X114600905Y-53219714D01*
X114553286Y-53124476D01*
X114553286Y-53076857D01*
X114600905Y-52981619D01*
X114648524Y-52934000D01*
X114743762Y-52886380D01*
X114934239Y-52886380D01*
X115029477Y-52934000D01*
X115077096Y-52981619D01*
X115124715Y-53076857D01*
X115124715Y-53124476D01*
X115077096Y-53219714D01*
X115029477Y-53267333D01*
X114934239Y-53314952D01*
X114743762Y-53314952D01*
X114648524Y-53362571D01*
X114600905Y-53410190D01*
X114553286Y-53505428D01*
X114553286Y-53695904D01*
X114600905Y-53791142D01*
X114648524Y-53838761D01*
X114743762Y-53886380D01*
X114934239Y-53886380D01*
X115029477Y-53838761D01*
X115077096Y-53791142D01*
X115124715Y-53695904D01*
X115124715Y-53505428D01*
X115077096Y-53410190D01*
X115029477Y-53362571D01*
X114934239Y-53314952D01*
%TO.C,D4*%
X84826905Y-56841381D02*
X84826905Y-55841381D01*
X85065001Y-55841381D01*
X85207858Y-55889001D01*
X85303096Y-55984239D01*
X85350715Y-56079477D01*
X85398334Y-56269953D01*
X85398334Y-56412810D01*
X85350715Y-56603286D01*
X85303096Y-56698524D01*
X85207858Y-56793762D01*
X85065001Y-56841381D01*
X84826905Y-56841381D01*
X86255477Y-56174715D02*
X86255477Y-56841381D01*
X86017381Y-55793762D02*
X85779286Y-56508048D01*
X86398334Y-56508048D01*
%TO.C,R10*%
X108691380Y-42409858D02*
X108215190Y-42743191D01*
X108691380Y-42981286D02*
X107691380Y-42981286D01*
X107691380Y-42600334D01*
X107739000Y-42505096D01*
X107786619Y-42457477D01*
X107881857Y-42409858D01*
X108024714Y-42409858D01*
X108119952Y-42457477D01*
X108167571Y-42505096D01*
X108215190Y-42600334D01*
X108215190Y-42981286D01*
X108691380Y-41457477D02*
X108691380Y-42028905D01*
X108691380Y-41743191D02*
X107691380Y-41743191D01*
X107834238Y-41838429D01*
X107929476Y-41933667D01*
X107977095Y-42028905D01*
X107691380Y-40838429D02*
X107691380Y-40743191D01*
X107739000Y-40647953D01*
X107786619Y-40600334D01*
X107881857Y-40552715D01*
X108072333Y-40505096D01*
X108310428Y-40505096D01*
X108500904Y-40552715D01*
X108596142Y-40600334D01*
X108643761Y-40647953D01*
X108691380Y-40743191D01*
X108691380Y-40838429D01*
X108643761Y-40933667D01*
X108596142Y-40981286D01*
X108500904Y-41028905D01*
X108310428Y-41076524D01*
X108072333Y-41076524D01*
X107881857Y-41028905D01*
X107786619Y-40981286D01*
X107739000Y-40933667D01*
X107691380Y-40838429D01*
%TO.C,R9*%
X114099333Y-44235379D02*
X113766000Y-43759189D01*
X113527904Y-44235379D02*
X113527904Y-43235379D01*
X113908857Y-43235379D01*
X114004095Y-43282999D01*
X114051714Y-43330618D01*
X114099333Y-43425856D01*
X114099333Y-43568713D01*
X114051714Y-43663951D01*
X114004095Y-43711570D01*
X113908857Y-43759189D01*
X113527904Y-43759189D01*
X114575523Y-44235379D02*
X114766000Y-44235379D01*
X114861238Y-44187760D01*
X114908857Y-44140141D01*
X115004095Y-43997284D01*
X115051714Y-43806808D01*
X115051714Y-43425856D01*
X115004095Y-43330618D01*
X114956476Y-43282999D01*
X114861238Y-43235379D01*
X114670761Y-43235379D01*
X114575523Y-43282999D01*
X114527904Y-43330618D01*
X114480285Y-43425856D01*
X114480285Y-43663951D01*
X114527904Y-43759189D01*
X114575523Y-43806808D01*
X114670761Y-43854427D01*
X114861238Y-43854427D01*
X114956476Y-43806808D01*
X115004095Y-43759189D01*
X115051714Y-43663951D01*
%TO.C,R13*%
X113584141Y-47283379D02*
X113250808Y-46807189D01*
X113012713Y-47283379D02*
X113012713Y-46283379D01*
X113393665Y-46283379D01*
X113488903Y-46330999D01*
X113536522Y-46378618D01*
X113584141Y-46473856D01*
X113584141Y-46616713D01*
X113536522Y-46711951D01*
X113488903Y-46759570D01*
X113393665Y-46807189D01*
X113012713Y-46807189D01*
X114536522Y-47283379D02*
X113965094Y-47283379D01*
X114250808Y-47283379D02*
X114250808Y-46283379D01*
X114155570Y-46426237D01*
X114060332Y-46521475D01*
X113965094Y-46569094D01*
X114869856Y-46283379D02*
X115488903Y-46283379D01*
X115155570Y-46664332D01*
X115298427Y-46664332D01*
X115393665Y-46711951D01*
X115441284Y-46759570D01*
X115488903Y-46854808D01*
X115488903Y-47092903D01*
X115441284Y-47188141D01*
X115393665Y-47235760D01*
X115298427Y-47283379D01*
X115012713Y-47283379D01*
X114917475Y-47235760D01*
X114869856Y-47188141D01*
%TO.C,R5*%
X75779333Y-68176380D02*
X75446000Y-67700190D01*
X75207904Y-68176380D02*
X75207904Y-67176380D01*
X75588857Y-67176380D01*
X75684095Y-67224000D01*
X75731714Y-67271619D01*
X75779333Y-67366857D01*
X75779333Y-67509714D01*
X75731714Y-67604952D01*
X75684095Y-67652571D01*
X75588857Y-67700190D01*
X75207904Y-67700190D01*
X76684095Y-67176380D02*
X76207904Y-67176380D01*
X76160285Y-67652571D01*
X76207904Y-67604952D01*
X76303142Y-67557333D01*
X76541238Y-67557333D01*
X76636476Y-67604952D01*
X76684095Y-67652571D01*
X76731714Y-67747809D01*
X76731714Y-67985904D01*
X76684095Y-68081142D01*
X76636476Y-68128761D01*
X76541238Y-68176380D01*
X76303142Y-68176380D01*
X76207904Y-68128761D01*
X76160285Y-68081142D01*
%TO.C,J4*%
X72130666Y-29678380D02*
X72130666Y-30392666D01*
X72083047Y-30535523D01*
X71987809Y-30630761D01*
X71844952Y-30678380D01*
X71749714Y-30678380D01*
X73035428Y-30011714D02*
X73035428Y-30678380D01*
X72797333Y-29630761D02*
X72559238Y-30345047D01*
X73178285Y-30345047D01*
%TO.C,J3*%
X119226666Y-23166380D02*
X119226666Y-23880666D01*
X119179047Y-24023523D01*
X119083809Y-24118761D01*
X118940952Y-24166380D01*
X118845714Y-24166380D01*
X119607619Y-23166380D02*
X120226666Y-23166380D01*
X119893333Y-23547333D01*
X120036190Y-23547333D01*
X120131428Y-23594952D01*
X120179047Y-23642571D01*
X120226666Y-23737809D01*
X120226666Y-23975904D01*
X120179047Y-24071142D01*
X120131428Y-24118761D01*
X120036190Y-24166380D01*
X119750476Y-24166380D01*
X119655238Y-24118761D01*
X119607619Y-24071142D01*
%TO.C,U1*%
X99822095Y-44156380D02*
X99822095Y-44965904D01*
X99869714Y-45061142D01*
X99917333Y-45108761D01*
X100012571Y-45156380D01*
X100203047Y-45156380D01*
X100298285Y-45108761D01*
X100345904Y-45061142D01*
X100393523Y-44965904D01*
X100393523Y-44156380D01*
X101393523Y-45156380D02*
X100822095Y-45156380D01*
X101107809Y-45156380D02*
X101107809Y-44156380D01*
X101012571Y-44299238D01*
X100917333Y-44394476D01*
X100822095Y-44442095D01*
%TO.C,D3*%
X77326905Y-56841381D02*
X77326905Y-55841381D01*
X77565001Y-55841381D01*
X77707858Y-55889001D01*
X77803096Y-55984239D01*
X77850715Y-56079477D01*
X77898334Y-56269953D01*
X77898334Y-56412810D01*
X77850715Y-56603286D01*
X77803096Y-56698524D01*
X77707858Y-56793762D01*
X77565001Y-56841381D01*
X77326905Y-56841381D01*
X78231667Y-55841381D02*
X78850715Y-55841381D01*
X78517381Y-56222334D01*
X78660239Y-56222334D01*
X78755477Y-56269953D01*
X78803096Y-56317572D01*
X78850715Y-56412810D01*
X78850715Y-56650905D01*
X78803096Y-56746143D01*
X78755477Y-56793762D01*
X78660239Y-56841381D01*
X78374524Y-56841381D01*
X78279286Y-56793762D01*
X78231667Y-56746143D01*
%TO.C,C2*%
X92289333Y-41251142D02*
X92241714Y-41298761D01*
X92098857Y-41346380D01*
X92003619Y-41346380D01*
X91860761Y-41298761D01*
X91765523Y-41203523D01*
X91717904Y-41108285D01*
X91670285Y-40917809D01*
X91670285Y-40774952D01*
X91717904Y-40584476D01*
X91765523Y-40489238D01*
X91860761Y-40394000D01*
X92003619Y-40346380D01*
X92098857Y-40346380D01*
X92241714Y-40394000D01*
X92289333Y-40441619D01*
X92670285Y-40441619D02*
X92717904Y-40394000D01*
X92813142Y-40346380D01*
X93051238Y-40346380D01*
X93146476Y-40394000D01*
X93194095Y-40441619D01*
X93241714Y-40536857D01*
X93241714Y-40632095D01*
X93194095Y-40774952D01*
X92622666Y-41346380D01*
X93241714Y-41346380D01*
%TO.C,R6*%
X83399333Y-68176380D02*
X83066000Y-67700190D01*
X82827904Y-68176380D02*
X82827904Y-67176380D01*
X83208857Y-67176380D01*
X83304095Y-67224000D01*
X83351714Y-67271619D01*
X83399333Y-67366857D01*
X83399333Y-67509714D01*
X83351714Y-67604952D01*
X83304095Y-67652571D01*
X83208857Y-67700190D01*
X82827904Y-67700190D01*
X84256476Y-67176380D02*
X84066000Y-67176380D01*
X83970761Y-67224000D01*
X83923142Y-67271619D01*
X83827904Y-67414476D01*
X83780285Y-67604952D01*
X83780285Y-67985904D01*
X83827904Y-68081142D01*
X83875523Y-68128761D01*
X83970761Y-68176380D01*
X84161238Y-68176380D01*
X84256476Y-68128761D01*
X84304095Y-68081142D01*
X84351714Y-67985904D01*
X84351714Y-67747809D01*
X84304095Y-67652571D01*
X84256476Y-67604952D01*
X84161238Y-67557333D01*
X83970761Y-67557333D01*
X83875523Y-67604952D01*
X83827904Y-67652571D01*
X83780285Y-67747809D01*
%TO.C,R4*%
X79335333Y-43632380D02*
X79002000Y-43156190D01*
X78763904Y-43632380D02*
X78763904Y-42632380D01*
X79144857Y-42632380D01*
X79240095Y-42680000D01*
X79287714Y-42727619D01*
X79335333Y-42822857D01*
X79335333Y-42965714D01*
X79287714Y-43060952D01*
X79240095Y-43108571D01*
X79144857Y-43156190D01*
X78763904Y-43156190D01*
X80192476Y-42965714D02*
X80192476Y-43632380D01*
X79954380Y-42584761D02*
X79716285Y-43299047D01*
X80335333Y-43299047D01*
%TO.C,Y1*%
X93225190Y-35628190D02*
X93701380Y-35628190D01*
X92701380Y-35961523D02*
X93225190Y-35628190D01*
X92701380Y-35294857D01*
X93701380Y-34437714D02*
X93701380Y-35009142D01*
X93701380Y-34723428D02*
X92701380Y-34723428D01*
X92844238Y-34818666D01*
X92939476Y-34913904D01*
X92987095Y-35009142D01*
%TO.C,C8*%
X114060332Y-41092141D02*
X114012713Y-41139760D01*
X113869856Y-41187379D01*
X113774618Y-41187379D01*
X113631760Y-41139760D01*
X113536522Y-41044522D01*
X113488903Y-40949284D01*
X113441284Y-40758808D01*
X113441284Y-40615951D01*
X113488903Y-40425475D01*
X113536522Y-40330237D01*
X113631760Y-40234999D01*
X113774618Y-40187379D01*
X113869856Y-40187379D01*
X114012713Y-40234999D01*
X114060332Y-40282618D01*
X114631760Y-40615951D02*
X114536522Y-40568332D01*
X114488903Y-40520713D01*
X114441284Y-40425475D01*
X114441284Y-40377856D01*
X114488903Y-40282618D01*
X114536522Y-40234999D01*
X114631760Y-40187379D01*
X114822237Y-40187379D01*
X114917475Y-40234999D01*
X114965094Y-40282618D01*
X115012713Y-40377856D01*
X115012713Y-40425475D01*
X114965094Y-40520713D01*
X114917475Y-40568332D01*
X114822237Y-40615951D01*
X114631760Y-40615951D01*
X114536522Y-40663570D01*
X114488903Y-40711189D01*
X114441284Y-40806427D01*
X114441284Y-40996903D01*
X114488903Y-41092141D01*
X114536522Y-41139760D01*
X114631760Y-41187379D01*
X114822237Y-41187379D01*
X114917475Y-41139760D01*
X114965094Y-41092141D01*
X115012713Y-40996903D01*
X115012713Y-40806427D01*
X114965094Y-40711189D01*
X114917475Y-40663570D01*
X114822237Y-40615951D01*
%TO.C,C5*%
X91543142Y-48426666D02*
X91590761Y-48474285D01*
X91638380Y-48617142D01*
X91638380Y-48712380D01*
X91590761Y-48855238D01*
X91495523Y-48950476D01*
X91400285Y-48998095D01*
X91209809Y-49045714D01*
X91066952Y-49045714D01*
X90876476Y-48998095D01*
X90781238Y-48950476D01*
X90686000Y-48855238D01*
X90638380Y-48712380D01*
X90638380Y-48617142D01*
X90686000Y-48474285D01*
X90733619Y-48426666D01*
X90638380Y-47521904D02*
X90638380Y-47998095D01*
X91114571Y-48045714D01*
X91066952Y-47998095D01*
X91019333Y-47902857D01*
X91019333Y-47664761D01*
X91066952Y-47569523D01*
X91114571Y-47521904D01*
X91209809Y-47474285D01*
X91447904Y-47474285D01*
X91543142Y-47521904D01*
X91590761Y-47569523D01*
X91638380Y-47664761D01*
X91638380Y-47902857D01*
X91590761Y-47998095D01*
X91543142Y-48045714D01*
%TO.C,U2*%
X75696380Y-45211904D02*
X76505904Y-45211904D01*
X76601142Y-45164285D01*
X76648761Y-45116666D01*
X76696380Y-45021428D01*
X76696380Y-44830952D01*
X76648761Y-44735714D01*
X76601142Y-44688095D01*
X76505904Y-44640476D01*
X75696380Y-44640476D01*
X75791619Y-44211904D02*
X75744000Y-44164285D01*
X75696380Y-44069047D01*
X75696380Y-43830952D01*
X75744000Y-43735714D01*
X75791619Y-43688095D01*
X75886857Y-43640476D01*
X75982095Y-43640476D01*
X76124952Y-43688095D01*
X76696380Y-44259523D01*
X76696380Y-43640476D01*
%TO.C,J5*%
X98144666Y-17832380D02*
X98144666Y-18546666D01*
X98097047Y-18689523D01*
X98001809Y-18784761D01*
X97858952Y-18832380D01*
X97763714Y-18832380D01*
X99097047Y-17832380D02*
X98620857Y-17832380D01*
X98573238Y-18308571D01*
X98620857Y-18260952D01*
X98716095Y-18213333D01*
X98954190Y-18213333D01*
X99049428Y-18260952D01*
X99097047Y-18308571D01*
X99144666Y-18403809D01*
X99144666Y-18641904D01*
X99097047Y-18737142D01*
X99049428Y-18784761D01*
X98954190Y-18832380D01*
X98716095Y-18832380D01*
X98620857Y-18784761D01*
X98573238Y-18737142D01*
%TO.C,C4*%
X86701333Y-36933142D02*
X86653714Y-36980761D01*
X86510857Y-37028380D01*
X86415619Y-37028380D01*
X86272761Y-36980761D01*
X86177523Y-36885523D01*
X86129904Y-36790285D01*
X86082285Y-36599809D01*
X86082285Y-36456952D01*
X86129904Y-36266476D01*
X86177523Y-36171238D01*
X86272761Y-36076000D01*
X86415619Y-36028380D01*
X86510857Y-36028380D01*
X86653714Y-36076000D01*
X86701333Y-36123619D01*
X87558476Y-36361714D02*
X87558476Y-37028380D01*
X87320380Y-35980761D02*
X87082285Y-36695047D01*
X87701333Y-36695047D01*
%TO.C,SW1*%
X120026666Y-60316761D02*
X120169523Y-60364380D01*
X120407619Y-60364380D01*
X120502857Y-60316761D01*
X120550476Y-60269142D01*
X120598095Y-60173904D01*
X120598095Y-60078666D01*
X120550476Y-59983428D01*
X120502857Y-59935809D01*
X120407619Y-59888190D01*
X120217142Y-59840571D01*
X120121904Y-59792952D01*
X120074285Y-59745333D01*
X120026666Y-59650095D01*
X120026666Y-59554857D01*
X120074285Y-59459619D01*
X120121904Y-59412000D01*
X120217142Y-59364380D01*
X120455238Y-59364380D01*
X120598095Y-59412000D01*
X120931428Y-59364380D02*
X121169523Y-60364380D01*
X121360000Y-59650095D01*
X121550476Y-60364380D01*
X121788571Y-59364380D01*
X122693333Y-60364380D02*
X122121904Y-60364380D01*
X122407619Y-60364380D02*
X122407619Y-59364380D01*
X122312380Y-59507238D01*
X122217142Y-59602476D01*
X122121904Y-59650095D01*
%TO.C,C1*%
X108037333Y-55475142D02*
X107989714Y-55522761D01*
X107846857Y-55570380D01*
X107751619Y-55570380D01*
X107608761Y-55522761D01*
X107513523Y-55427523D01*
X107465904Y-55332285D01*
X107418285Y-55141809D01*
X107418285Y-54998952D01*
X107465904Y-54808476D01*
X107513523Y-54713238D01*
X107608761Y-54618000D01*
X107751619Y-54570380D01*
X107846857Y-54570380D01*
X107989714Y-54618000D01*
X108037333Y-54665619D01*
X108989714Y-55570380D02*
X108418285Y-55570380D01*
X108704000Y-55570380D02*
X108704000Y-54570380D01*
X108608761Y-54713238D01*
X108513523Y-54808476D01*
X108418285Y-54856095D01*
%TO.C,J6*%
X76268666Y-17578380D02*
X76268666Y-18292666D01*
X76221047Y-18435523D01*
X76125809Y-18530761D01*
X75982952Y-18578380D01*
X75887714Y-18578380D01*
X77173428Y-17578380D02*
X76982952Y-17578380D01*
X76887714Y-17626000D01*
X76840095Y-17673619D01*
X76744857Y-17816476D01*
X76697238Y-18006952D01*
X76697238Y-18387904D01*
X76744857Y-18483142D01*
X76792476Y-18530761D01*
X76887714Y-18578380D01*
X77078190Y-18578380D01*
X77173428Y-18530761D01*
X77221047Y-18483142D01*
X77268666Y-18387904D01*
X77268666Y-18149809D01*
X77221047Y-18054571D01*
X77173428Y-18006952D01*
X77078190Y-17959333D01*
X76887714Y-17959333D01*
X76792476Y-18006952D01*
X76744857Y-18054571D01*
X76697238Y-18149809D01*
%TO.C,D5*%
X92225904Y-56841381D02*
X92225904Y-55841381D01*
X92464000Y-55841381D01*
X92606857Y-55889001D01*
X92702095Y-55984239D01*
X92749714Y-56079477D01*
X92797333Y-56269953D01*
X92797333Y-56412810D01*
X92749714Y-56603286D01*
X92702095Y-56698524D01*
X92606857Y-56793762D01*
X92464000Y-56841381D01*
X92225904Y-56841381D01*
X93702095Y-55841381D02*
X93225904Y-55841381D01*
X93178285Y-56317572D01*
X93225904Y-56269953D01*
X93321142Y-56222334D01*
X93559238Y-56222334D01*
X93654476Y-56269953D01*
X93702095Y-56317572D01*
X93749714Y-56412810D01*
X93749714Y-56650905D01*
X93702095Y-56746143D01*
X93654476Y-56793762D01*
X93559238Y-56841381D01*
X93321142Y-56841381D01*
X93225904Y-56793762D01*
X93178285Y-56746143D01*
%TO.C,D1*%
X93384380Y-27154095D02*
X92384380Y-27154095D01*
X92384380Y-26916000D01*
X92432000Y-26773142D01*
X92527238Y-26677904D01*
X92622476Y-26630285D01*
X92812952Y-26582666D01*
X92955809Y-26582666D01*
X93146285Y-26630285D01*
X93241523Y-26677904D01*
X93336761Y-26773142D01*
X93384380Y-26916000D01*
X93384380Y-27154095D01*
X93384380Y-25630285D02*
X93384380Y-26201714D01*
X93384380Y-25916000D02*
X92384380Y-25916000D01*
X92527238Y-26011238D01*
X92622476Y-26106476D01*
X92670095Y-26201714D01*
X89856380Y-30487904D02*
X88856380Y-30487904D01*
X89856380Y-29916476D02*
X89284952Y-30345047D01*
X88856380Y-29916476D02*
X89427809Y-30487904D01*
%TO.C,R7*%
X90765333Y-68176380D02*
X90432000Y-67700190D01*
X90193904Y-68176380D02*
X90193904Y-67176380D01*
X90574857Y-67176380D01*
X90670095Y-67224000D01*
X90717714Y-67271619D01*
X90765333Y-67366857D01*
X90765333Y-67509714D01*
X90717714Y-67604952D01*
X90670095Y-67652571D01*
X90574857Y-67700190D01*
X90193904Y-67700190D01*
X91098666Y-67176380D02*
X91765333Y-67176380D01*
X91336761Y-68176380D01*
%TO.C,R12*%
X113657142Y-56934380D02*
X113323809Y-56458190D01*
X113085714Y-56934380D02*
X113085714Y-55934380D01*
X113466666Y-55934380D01*
X113561904Y-55982000D01*
X113609523Y-56029619D01*
X113657142Y-56124857D01*
X113657142Y-56267714D01*
X113609523Y-56362952D01*
X113561904Y-56410571D01*
X113466666Y-56458190D01*
X113085714Y-56458190D01*
X114609523Y-56934380D02*
X114038095Y-56934380D01*
X114323809Y-56934380D02*
X114323809Y-55934380D01*
X114228571Y-56077238D01*
X114133333Y-56172476D01*
X114038095Y-56220095D01*
X114990476Y-56029619D02*
X115038095Y-55982000D01*
X115133333Y-55934380D01*
X115371428Y-55934380D01*
X115466666Y-55982000D01*
X115514285Y-56029619D01*
X115561904Y-56124857D01*
X115561904Y-56220095D01*
X115514285Y-56362952D01*
X114942857Y-56934380D01*
X115561904Y-56934380D01*
%TO.C,J2*%
X122642380Y-40719333D02*
X123356666Y-40719333D01*
X123499523Y-40766952D01*
X123594761Y-40862190D01*
X123642380Y-41005047D01*
X123642380Y-41100285D01*
X122737619Y-40290761D02*
X122690000Y-40243142D01*
X122642380Y-40147904D01*
X122642380Y-39909809D01*
X122690000Y-39814571D01*
X122737619Y-39766952D01*
X122832857Y-39719333D01*
X122928095Y-39719333D01*
X123070952Y-39766952D01*
X123642380Y-40338380D01*
X123642380Y-39719333D01*
%TO.C,D2*%
X115514380Y-27154095D02*
X114514380Y-27154095D01*
X114514380Y-26916000D01*
X114562000Y-26773142D01*
X114657238Y-26677904D01*
X114752476Y-26630285D01*
X114942952Y-26582666D01*
X115085809Y-26582666D01*
X115276285Y-26630285D01*
X115371523Y-26677904D01*
X115466761Y-26773142D01*
X115514380Y-26916000D01*
X115514380Y-27154095D01*
X114609619Y-26201714D02*
X114562000Y-26154095D01*
X114514380Y-26058857D01*
X114514380Y-25820761D01*
X114562000Y-25725523D01*
X114609619Y-25677904D01*
X114704857Y-25630285D01*
X114800095Y-25630285D01*
X114942952Y-25677904D01*
X115514380Y-26249333D01*
X115514380Y-25630285D01*
X111861380Y-30598905D02*
X110861380Y-30598905D01*
X111861380Y-30027477D02*
X111289952Y-30456048D01*
X110861380Y-30027477D02*
X111432809Y-30598905D01*
%TO.C,C7*%
X114133333Y-50743142D02*
X114085714Y-50790761D01*
X113942857Y-50838380D01*
X113847619Y-50838380D01*
X113704761Y-50790761D01*
X113609523Y-50695523D01*
X113561904Y-50600285D01*
X113514285Y-50409809D01*
X113514285Y-50266952D01*
X113561904Y-50076476D01*
X113609523Y-49981238D01*
X113704761Y-49886000D01*
X113847619Y-49838380D01*
X113942857Y-49838380D01*
X114085714Y-49886000D01*
X114133333Y-49933619D01*
X114466666Y-49838380D02*
X115133333Y-49838380D01*
X114704761Y-50838380D01*
%TO.C,SW2*%
X119953665Y-50665760D02*
X120096522Y-50713379D01*
X120334618Y-50713379D01*
X120429856Y-50665760D01*
X120477475Y-50618141D01*
X120525094Y-50522903D01*
X120525094Y-50427665D01*
X120477475Y-50332427D01*
X120429856Y-50284808D01*
X120334618Y-50237189D01*
X120144141Y-50189570D01*
X120048903Y-50141951D01*
X120001284Y-50094332D01*
X119953665Y-49999094D01*
X119953665Y-49903856D01*
X120001284Y-49808618D01*
X120048903Y-49760999D01*
X120144141Y-49713379D01*
X120382237Y-49713379D01*
X120525094Y-49760999D01*
X120858427Y-49713379D02*
X121096522Y-50713379D01*
X121286999Y-49999094D01*
X121477475Y-50713379D01*
X121715570Y-49713379D01*
X122048903Y-49808618D02*
X122096522Y-49760999D01*
X122191760Y-49713379D01*
X122429856Y-49713379D01*
X122525094Y-49760999D01*
X122572713Y-49808618D01*
X122620332Y-49903856D01*
X122620332Y-49999094D01*
X122572713Y-50141951D01*
X122001284Y-50713379D01*
X122620332Y-50713379D01*
%TO.C,C6*%
X89003142Y-47156666D02*
X89050761Y-47204285D01*
X89098380Y-47347142D01*
X89098380Y-47442380D01*
X89050761Y-47585238D01*
X88955523Y-47680476D01*
X88860285Y-47728095D01*
X88669809Y-47775714D01*
X88526952Y-47775714D01*
X88336476Y-47728095D01*
X88241238Y-47680476D01*
X88146000Y-47585238D01*
X88098380Y-47442380D01*
X88098380Y-47347142D01*
X88146000Y-47204285D01*
X88193619Y-47156666D01*
X88098380Y-46299523D02*
X88098380Y-46490000D01*
X88146000Y-46585238D01*
X88193619Y-46632857D01*
X88336476Y-46728095D01*
X88526952Y-46775714D01*
X88907904Y-46775714D01*
X89003142Y-46728095D01*
X89050761Y-46680476D01*
X89098380Y-46585238D01*
X89098380Y-46394761D01*
X89050761Y-46299523D01*
X89003142Y-46251904D01*
X88907904Y-46204285D01*
X88669809Y-46204285D01*
X88574571Y-46251904D01*
X88526952Y-46299523D01*
X88479333Y-46394761D01*
X88479333Y-46585238D01*
X88526952Y-46680476D01*
X88574571Y-46728095D01*
X88669809Y-46775714D01*
%TO.C,RLY1*%
X102914001Y-18851381D02*
X102580667Y-18375191D01*
X102342572Y-18851381D02*
X102342572Y-17851381D01*
X102723524Y-17851381D01*
X102818762Y-17899001D01*
X102866381Y-17946620D01*
X102914001Y-18041858D01*
X102914001Y-18184715D01*
X102866381Y-18279953D01*
X102818762Y-18327572D01*
X102723524Y-18375191D01*
X102342572Y-18375191D01*
X103818762Y-18851381D02*
X103342572Y-18851381D01*
X103342572Y-17851381D01*
X104342572Y-18375191D02*
X104342572Y-18851381D01*
X104009239Y-17851381D02*
X104342572Y-18375191D01*
X104675905Y-17851381D01*
X105533048Y-18851381D02*
X104961620Y-18851381D01*
X105247334Y-18851381D02*
X105247334Y-17851381D01*
X105152096Y-17994239D01*
X105056858Y-18089477D01*
X104961620Y-18137096D01*
%TO.C,S1*%
X110418761Y-69275904D02*
X110466380Y-69133047D01*
X110466380Y-68894952D01*
X110418761Y-68799714D01*
X110371142Y-68752095D01*
X110275904Y-68704476D01*
X110180666Y-68704476D01*
X110085428Y-68752095D01*
X110037809Y-68799714D01*
X109990190Y-68894952D01*
X109942571Y-69085428D01*
X109894952Y-69180666D01*
X109847333Y-69228285D01*
X109752095Y-69275904D01*
X109656857Y-69275904D01*
X109561619Y-69228285D01*
X109514000Y-69180666D01*
X109466380Y-69085428D01*
X109466380Y-68847333D01*
X109514000Y-68704476D01*
X110466380Y-67752095D02*
X110466380Y-68323523D01*
X110466380Y-68037809D02*
X109466380Y-68037809D01*
X109609238Y-68133047D01*
X109704476Y-68228285D01*
X109752095Y-68323523D01*
%TO.C,C3*%
X92289333Y-38457142D02*
X92241714Y-38504761D01*
X92098857Y-38552380D01*
X92003619Y-38552380D01*
X91860761Y-38504761D01*
X91765523Y-38409523D01*
X91717904Y-38314285D01*
X91670285Y-38123809D01*
X91670285Y-37980952D01*
X91717904Y-37790476D01*
X91765523Y-37695238D01*
X91860761Y-37600000D01*
X92003619Y-37552380D01*
X92098857Y-37552380D01*
X92241714Y-37600000D01*
X92289333Y-37647619D01*
X92622666Y-37552380D02*
X93241714Y-37552380D01*
X92908380Y-37933333D01*
X93051238Y-37933333D01*
X93146476Y-37980952D01*
X93194095Y-38028571D01*
X93241714Y-38123809D01*
X93241714Y-38361904D01*
X93194095Y-38457142D01*
X93146476Y-38504761D01*
X93051238Y-38552380D01*
X92765523Y-38552380D01*
X92670285Y-38504761D01*
X92622666Y-38457142D01*
%TO.C,R3*%
X117403333Y-41680380D02*
X117070000Y-41204190D01*
X116831904Y-41680380D02*
X116831904Y-40680380D01*
X117212857Y-40680380D01*
X117308095Y-40728000D01*
X117355714Y-40775619D01*
X117403333Y-40870857D01*
X117403333Y-41013714D01*
X117355714Y-41108952D01*
X117308095Y-41156571D01*
X117212857Y-41204190D01*
X116831904Y-41204190D01*
X117736666Y-40680380D02*
X118355714Y-40680380D01*
X118022380Y-41061333D01*
X118165238Y-41061333D01*
X118260476Y-41108952D01*
X118308095Y-41156571D01*
X118355714Y-41251809D01*
X118355714Y-41489904D01*
X118308095Y-41585142D01*
X118260476Y-41632761D01*
X118165238Y-41680380D01*
X117879523Y-41680380D01*
X117784285Y-41632761D01*
X117736666Y-41585142D01*
%TD*%
M02*
