%TF.GenerationSoftware,KiCad,Pcbnew,5.1.6-c6e7f7d~87~ubuntu20.04.1*%
%TF.CreationDate,2021-03-09T18:46:47+01:00*%
%TF.ProjectId,arduBell,61726475-4265-46c6-9c2e-6b696361645f,rev?*%
%TF.SameCoordinates,Original*%
%TF.FileFunction,Soldermask,Top*%
%TF.FilePolarity,Negative*%
%FSLAX46Y46*%
G04 Gerber Fmt 4.6, Leading zero omitted, Abs format (unit mm)*
G04 Created by KiCad (PCBNEW 5.1.6-c6e7f7d~87~ubuntu20.04.1) date 2021-03-09 18:46:47*
%MOMM*%
%LPD*%
G01*
G04 APERTURE LIST*
%ADD10C,0.900000*%
%ADD11C,6.100000*%
%ADD12R,1.150000X1.600000*%
%ADD13O,1.800000X1.800000*%
%ADD14R,1.800000X1.800000*%
%ADD15O,2.400000X1.700000*%
%ADD16C,1.900000*%
%ADD17R,1.900000X1.900000*%
%ADD18C,2.120000*%
%ADD19R,1.600000X0.650000*%
%ADD20R,0.650000X1.600000*%
%ADD21C,1.540000*%
%ADD22C,1.600000*%
%ADD23R,1.700000X3.200000*%
%ADD24C,2.100000*%
%ADD25O,1.600000X1.600000*%
%ADD26R,1.600000X1.600000*%
%ADD27C,2.200000*%
G04 APERTURE END LIST*
D10*
%TO.C, *%
X124424990Y-68395010D03*
X122834000Y-67736000D03*
X121243010Y-68395010D03*
X120584000Y-69986000D03*
X121243010Y-71576990D03*
X122834000Y-72236000D03*
X124424990Y-71576990D03*
X125084000Y-69986000D03*
D11*
X122834000Y-69986000D03*
%TD*%
%TO.C, *%
X122834000Y-17986000D03*
D10*
X125084000Y-17986000D03*
X124424990Y-19576990D03*
X122834000Y-20236000D03*
X121243010Y-19576990D03*
X120584000Y-17986000D03*
X121243010Y-16395010D03*
X122834000Y-15736000D03*
X124424990Y-16395010D03*
%TD*%
D11*
%TO.C, *%
X70834000Y-17986000D03*
D10*
X73084000Y-17986000D03*
X72424990Y-19576990D03*
X70834000Y-20236000D03*
X69243010Y-19576990D03*
X68584000Y-17986000D03*
X69243010Y-16395010D03*
X70834000Y-15736000D03*
X72424990Y-16395010D03*
%TD*%
%TO.C, *%
X72424990Y-68395010D03*
X70834000Y-67736000D03*
X69243010Y-68395010D03*
X68584000Y-69986000D03*
X69243010Y-71576990D03*
X70834000Y-72236000D03*
X72424990Y-71576990D03*
X73084000Y-69986000D03*
D11*
X70834000Y-69986000D03*
%TD*%
D12*
%TO.C,Q1*%
X105539000Y-37957001D03*
G36*
G01*
X107504000Y-38469501D02*
X107504000Y-37444501D01*
G75*
G02*
X107791500Y-37157001I287500J0D01*
G01*
X108366500Y-37157001D01*
G75*
G02*
X108654000Y-37444501I0J-287500D01*
G01*
X108654000Y-38469501D01*
G75*
G02*
X108366500Y-38757001I-287500J0D01*
G01*
X107791500Y-38757001D01*
G75*
G02*
X107504000Y-38469501I0J287500D01*
G01*
G37*
G36*
G01*
X106234000Y-38469501D02*
X106234000Y-37444501D01*
G75*
G02*
X106521500Y-37157001I287500J0D01*
G01*
X107096500Y-37157001D01*
G75*
G02*
X107384000Y-37444501I0J-287500D01*
G01*
X107384000Y-38469501D01*
G75*
G02*
X107096500Y-38757001I-287500J0D01*
G01*
X106521500Y-38757001D01*
G75*
G02*
X106234000Y-38469501I0J287500D01*
G01*
G37*
%TD*%
%TO.C,R2*%
G36*
G01*
X117270000Y-36976750D02*
X117270000Y-37539250D01*
G75*
G02*
X117026250Y-37783000I-243750J0D01*
G01*
X116538750Y-37783000D01*
G75*
G02*
X116295000Y-37539250I0J243750D01*
G01*
X116295000Y-36976750D01*
G75*
G02*
X116538750Y-36733000I243750J0D01*
G01*
X117026250Y-36733000D01*
G75*
G02*
X117270000Y-36976750I0J-243750D01*
G01*
G37*
G36*
G01*
X118845000Y-36976750D02*
X118845000Y-37539250D01*
G75*
G02*
X118601250Y-37783000I-243750J0D01*
G01*
X118113750Y-37783000D01*
G75*
G02*
X117870000Y-37539250I0J243750D01*
G01*
X117870000Y-36976750D01*
G75*
G02*
X118113750Y-36733000I243750J0D01*
G01*
X118601250Y-36733000D01*
G75*
G02*
X118845000Y-36976750I0J-243750D01*
G01*
G37*
%TD*%
%TO.C,R11*%
G36*
G01*
X82522750Y-41956000D02*
X83085250Y-41956000D01*
G75*
G02*
X83329000Y-42199750I0J-243750D01*
G01*
X83329000Y-42687250D01*
G75*
G02*
X83085250Y-42931000I-243750J0D01*
G01*
X82522750Y-42931000D01*
G75*
G02*
X82279000Y-42687250I0J243750D01*
G01*
X82279000Y-42199750D01*
G75*
G02*
X82522750Y-41956000I243750J0D01*
G01*
G37*
G36*
G01*
X82522750Y-40381000D02*
X83085250Y-40381000D01*
G75*
G02*
X83329000Y-40624750I0J-243750D01*
G01*
X83329000Y-41112250D01*
G75*
G02*
X83085250Y-41356000I-243750J0D01*
G01*
X82522750Y-41356000D01*
G75*
G02*
X82279000Y-41112250I0J243750D01*
G01*
X82279000Y-40624750D01*
G75*
G02*
X82522750Y-40381000I243750J0D01*
G01*
G37*
%TD*%
D13*
%TO.C,J1*%
X102362000Y-62738000D03*
X102362000Y-60198000D03*
X104902000Y-62738000D03*
X104902000Y-60198000D03*
X107442000Y-62738000D03*
D14*
X107442000Y-60198000D03*
%TD*%
D12*
%TO.C,Q2*%
X81534000Y-37846000D03*
G36*
G01*
X83499000Y-38358500D02*
X83499000Y-37333500D01*
G75*
G02*
X83786500Y-37046000I287500J0D01*
G01*
X84361500Y-37046000D01*
G75*
G02*
X84649000Y-37333500I0J-287500D01*
G01*
X84649000Y-38358500D01*
G75*
G02*
X84361500Y-38646000I-287500J0D01*
G01*
X83786500Y-38646000D01*
G75*
G02*
X83499000Y-38358500I0J287500D01*
G01*
G37*
G36*
G01*
X82229000Y-38358500D02*
X82229000Y-37333500D01*
G75*
G02*
X82516500Y-37046000I287500J0D01*
G01*
X83091500Y-37046000D01*
G75*
G02*
X83379000Y-37333500I0J-287500D01*
G01*
X83379000Y-38358500D01*
G75*
G02*
X83091500Y-38646000I-287500J0D01*
G01*
X82516500Y-38646000D01*
G75*
G02*
X82229000Y-38358500I0J287500D01*
G01*
G37*
%TD*%
%TO.C,R1*%
G36*
G01*
X115950000Y-63019250D02*
X115950000Y-62456750D01*
G75*
G02*
X116193750Y-62213000I243750J0D01*
G01*
X116681250Y-62213000D01*
G75*
G02*
X116925000Y-62456750I0J-243750D01*
G01*
X116925000Y-63019250D01*
G75*
G02*
X116681250Y-63263000I-243750J0D01*
G01*
X116193750Y-63263000D01*
G75*
G02*
X115950000Y-63019250I0J243750D01*
G01*
G37*
G36*
G01*
X114375000Y-63019250D02*
X114375000Y-62456750D01*
G75*
G02*
X114618750Y-62213000I243750J0D01*
G01*
X115106250Y-62213000D01*
G75*
G02*
X115350000Y-62456750I0J-243750D01*
G01*
X115350000Y-63019250D01*
G75*
G02*
X115106250Y-63263000I-243750J0D01*
G01*
X114618750Y-63263000D01*
G75*
G02*
X114375000Y-63019250I0J243750D01*
G01*
G37*
%TD*%
D15*
%TO.C,RLY2*%
X80639001Y-32766000D03*
X88259001Y-32766000D03*
X80639001Y-30226000D03*
X80639001Y-20066000D03*
X88259001Y-30226000D03*
X88259001Y-20066000D03*
%TD*%
%TO.C,R8*%
G36*
G01*
X114639001Y-55145250D02*
X114639001Y-54582750D01*
G75*
G02*
X114882751Y-54339000I243750J0D01*
G01*
X115370251Y-54339000D01*
G75*
G02*
X115614001Y-54582750I0J-243750D01*
G01*
X115614001Y-55145250D01*
G75*
G02*
X115370251Y-55389000I-243750J0D01*
G01*
X114882751Y-55389000D01*
G75*
G02*
X114639001Y-55145250I0J243750D01*
G01*
G37*
G36*
G01*
X113064001Y-55145250D02*
X113064001Y-54582750D01*
G75*
G02*
X113307751Y-54339000I243750J0D01*
G01*
X113795251Y-54339000D01*
G75*
G02*
X114039001Y-54582750I0J-243750D01*
G01*
X114039001Y-55145250D01*
G75*
G02*
X113795251Y-55389000I-243750J0D01*
G01*
X113307751Y-55389000D01*
G75*
G02*
X113064001Y-55145250I0J243750D01*
G01*
G37*
%TD*%
D16*
%TO.C,D4*%
X86835001Y-60349001D03*
D17*
X84295001Y-60349001D03*
%TD*%
%TO.C,R10*%
G36*
G01*
X106527750Y-42067001D02*
X107090250Y-42067001D01*
G75*
G02*
X107334000Y-42310751I0J-243750D01*
G01*
X107334000Y-42798251D01*
G75*
G02*
X107090250Y-43042001I-243750J0D01*
G01*
X106527750Y-43042001D01*
G75*
G02*
X106284000Y-42798251I0J243750D01*
G01*
X106284000Y-42310751D01*
G75*
G02*
X106527750Y-42067001I243750J0D01*
G01*
G37*
G36*
G01*
X106527750Y-40492001D02*
X107090250Y-40492001D01*
G75*
G02*
X107334000Y-40735751I0J-243750D01*
G01*
X107334000Y-41223251D01*
G75*
G02*
X107090250Y-41467001I-243750J0D01*
G01*
X106527750Y-41467001D01*
G75*
G02*
X106284000Y-41223251I0J243750D01*
G01*
X106284000Y-40735751D01*
G75*
G02*
X106527750Y-40492001I243750J0D01*
G01*
G37*
%TD*%
%TO.C,R9*%
G36*
G01*
X114566000Y-45494249D02*
X114566000Y-44931749D01*
G75*
G02*
X114809750Y-44687999I243750J0D01*
G01*
X115297250Y-44687999D01*
G75*
G02*
X115541000Y-44931749I0J-243750D01*
G01*
X115541000Y-45494249D01*
G75*
G02*
X115297250Y-45737999I-243750J0D01*
G01*
X114809750Y-45737999D01*
G75*
G02*
X114566000Y-45494249I0J243750D01*
G01*
G37*
G36*
G01*
X112991000Y-45494249D02*
X112991000Y-44931749D01*
G75*
G02*
X113234750Y-44687999I243750J0D01*
G01*
X113722250Y-44687999D01*
G75*
G02*
X113966000Y-44931749I0J-243750D01*
G01*
X113966000Y-45494249D01*
G75*
G02*
X113722250Y-45737999I-243750J0D01*
G01*
X113234750Y-45737999D01*
G75*
G02*
X112991000Y-45494249I0J243750D01*
G01*
G37*
%TD*%
%TO.C,R13*%
G36*
G01*
X114526999Y-48542249D02*
X114526999Y-47979749D01*
G75*
G02*
X114770749Y-47735999I243750J0D01*
G01*
X115258249Y-47735999D01*
G75*
G02*
X115501999Y-47979749I0J-243750D01*
G01*
X115501999Y-48542249D01*
G75*
G02*
X115258249Y-48785999I-243750J0D01*
G01*
X114770749Y-48785999D01*
G75*
G02*
X114526999Y-48542249I0J243750D01*
G01*
G37*
G36*
G01*
X112951999Y-48542249D02*
X112951999Y-47979749D01*
G75*
G02*
X113195749Y-47735999I243750J0D01*
G01*
X113683249Y-47735999D01*
G75*
G02*
X113926999Y-47979749I0J-243750D01*
G01*
X113926999Y-48542249D01*
G75*
G02*
X113683249Y-48785999I-243750J0D01*
G01*
X113195749Y-48785999D01*
G75*
G02*
X112951999Y-48542249I0J243750D01*
G01*
G37*
%TD*%
%TO.C,R5*%
G36*
G01*
X75646000Y-66012750D02*
X75646000Y-66575250D01*
G75*
G02*
X75402250Y-66819000I-243750J0D01*
G01*
X74914750Y-66819000D01*
G75*
G02*
X74671000Y-66575250I0J243750D01*
G01*
X74671000Y-66012750D01*
G75*
G02*
X74914750Y-65769000I243750J0D01*
G01*
X75402250Y-65769000D01*
G75*
G02*
X75646000Y-66012750I0J-243750D01*
G01*
G37*
G36*
G01*
X77221000Y-66012750D02*
X77221000Y-66575250D01*
G75*
G02*
X76977250Y-66819000I-243750J0D01*
G01*
X76489750Y-66819000D01*
G75*
G02*
X76246000Y-66575250I0J243750D01*
G01*
X76246000Y-66012750D01*
G75*
G02*
X76489750Y-65769000I243750J0D01*
G01*
X76977250Y-65769000D01*
G75*
G02*
X77221000Y-66012750I0J-243750D01*
G01*
G37*
%TD*%
D18*
%TO.C,J4*%
X71374000Y-34544000D03*
X73914000Y-34544000D03*
%TD*%
%TO.C,J3*%
X120650000Y-28194000D03*
X118110000Y-28194000D03*
%TD*%
D19*
%TO.C,U1*%
X109102000Y-46222000D03*
X109102000Y-47022000D03*
X109102000Y-47822000D03*
X109102000Y-48622000D03*
X109102000Y-49422000D03*
X109102000Y-50222000D03*
X109102000Y-51022000D03*
X109102000Y-51822000D03*
D20*
X107702000Y-53222000D03*
X106902000Y-53222000D03*
X106102000Y-53222000D03*
X105302000Y-53222000D03*
X104502000Y-53222000D03*
X103702000Y-53222000D03*
X102902000Y-53222000D03*
X102102000Y-53222000D03*
D19*
X100702000Y-51822000D03*
X100702000Y-51022000D03*
X100702000Y-50222000D03*
X100702000Y-49422000D03*
X100702000Y-48622000D03*
X100702000Y-47822000D03*
X100702000Y-47022000D03*
D20*
X102102000Y-44822000D03*
X102902000Y-44822000D03*
X103702000Y-44822000D03*
X104502000Y-44822000D03*
X105302000Y-44822000D03*
X106102000Y-44822000D03*
X106902000Y-44822000D03*
X107702000Y-44822000D03*
D19*
X100702000Y-46222000D03*
%TD*%
D16*
%TO.C,D3*%
X79335001Y-60349001D03*
D17*
X76795001Y-60349001D03*
%TD*%
%TO.C,C2*%
G36*
G01*
X89870000Y-40612750D02*
X89870000Y-41175250D01*
G75*
G02*
X89626250Y-41419000I-243750J0D01*
G01*
X89138750Y-41419000D01*
G75*
G02*
X88895000Y-41175250I0J243750D01*
G01*
X88895000Y-40612750D01*
G75*
G02*
X89138750Y-40369000I243750J0D01*
G01*
X89626250Y-40369000D01*
G75*
G02*
X89870000Y-40612750I0J-243750D01*
G01*
G37*
G36*
G01*
X91445000Y-40612750D02*
X91445000Y-41175250D01*
G75*
G02*
X91201250Y-41419000I-243750J0D01*
G01*
X90713750Y-41419000D01*
G75*
G02*
X90470000Y-41175250I0J243750D01*
G01*
X90470000Y-40612750D01*
G75*
G02*
X90713750Y-40369000I243750J0D01*
G01*
X91201250Y-40369000D01*
G75*
G02*
X91445000Y-40612750I0J-243750D01*
G01*
G37*
%TD*%
%TO.C,R6*%
G36*
G01*
X83266000Y-66012750D02*
X83266000Y-66575250D01*
G75*
G02*
X83022250Y-66819000I-243750J0D01*
G01*
X82534750Y-66819000D01*
G75*
G02*
X82291000Y-66575250I0J243750D01*
G01*
X82291000Y-66012750D01*
G75*
G02*
X82534750Y-65769000I243750J0D01*
G01*
X83022250Y-65769000D01*
G75*
G02*
X83266000Y-66012750I0J-243750D01*
G01*
G37*
G36*
G01*
X84841000Y-66012750D02*
X84841000Y-66575250D01*
G75*
G02*
X84597250Y-66819000I-243750J0D01*
G01*
X84109750Y-66819000D01*
G75*
G02*
X83866000Y-66575250I0J243750D01*
G01*
X83866000Y-66012750D01*
G75*
G02*
X84109750Y-65769000I243750J0D01*
G01*
X84597250Y-65769000D01*
G75*
G02*
X84841000Y-66012750I0J-243750D01*
G01*
G37*
%TD*%
D21*
%TO.C,R4*%
X82296000Y-51562000D03*
X84836000Y-49022000D03*
X82296000Y-46482000D03*
%TD*%
D22*
%TO.C,Y1*%
X96774000Y-32712000D03*
X96774000Y-37592000D03*
%TD*%
%TO.C,C8*%
G36*
G01*
X114526999Y-42446249D02*
X114526999Y-41883749D01*
G75*
G02*
X114770749Y-41639999I243750J0D01*
G01*
X115258249Y-41639999D01*
G75*
G02*
X115501999Y-41883749I0J-243750D01*
G01*
X115501999Y-42446249D01*
G75*
G02*
X115258249Y-42689999I-243750J0D01*
G01*
X114770749Y-42689999D01*
G75*
G02*
X114526999Y-42446249I0J243750D01*
G01*
G37*
G36*
G01*
X112951999Y-42446249D02*
X112951999Y-41883749D01*
G75*
G02*
X113195749Y-41639999I243750J0D01*
G01*
X113683249Y-41639999D01*
G75*
G02*
X113926999Y-41883749I0J-243750D01*
G01*
X113926999Y-42446249D01*
G75*
G02*
X113683249Y-42689999I-243750J0D01*
G01*
X113195749Y-42689999D01*
G75*
G02*
X112951999Y-42446249I0J243750D01*
G01*
G37*
%TD*%
%TO.C,C5*%
G36*
G01*
X90904750Y-51074500D02*
X91467250Y-51074500D01*
G75*
G02*
X91711000Y-51318250I0J-243750D01*
G01*
X91711000Y-51805750D01*
G75*
G02*
X91467250Y-52049500I-243750J0D01*
G01*
X90904750Y-52049500D01*
G75*
G02*
X90661000Y-51805750I0J243750D01*
G01*
X90661000Y-51318250D01*
G75*
G02*
X90904750Y-51074500I243750J0D01*
G01*
G37*
G36*
G01*
X90904750Y-49499500D02*
X91467250Y-49499500D01*
G75*
G02*
X91711000Y-49743250I0J-243750D01*
G01*
X91711000Y-50230750D01*
G75*
G02*
X91467250Y-50474500I-243750J0D01*
G01*
X90904750Y-50474500D01*
G75*
G02*
X90661000Y-50230750I0J243750D01*
G01*
X90661000Y-49743250D01*
G75*
G02*
X90904750Y-49499500I243750J0D01*
G01*
G37*
%TD*%
D23*
%TO.C,U2*%
X73914000Y-48895000D03*
X71374000Y-40005000D03*
X71374000Y-48895000D03*
X73914000Y-40005000D03*
%TD*%
D18*
%TO.C,J5*%
X99568000Y-22860000D03*
X97028000Y-22860000D03*
%TD*%
%TO.C,C4*%
G36*
G01*
X88031000Y-38775000D02*
X86721000Y-38775000D01*
G75*
G02*
X86451000Y-38505000I0J270000D01*
G01*
X86451000Y-37695000D01*
G75*
G02*
X86721000Y-37425000I270000J0D01*
G01*
X88031000Y-37425000D01*
G75*
G02*
X88301000Y-37695000I0J-270000D01*
G01*
X88301000Y-38505000D01*
G75*
G02*
X88031000Y-38775000I-270000J0D01*
G01*
G37*
G36*
G01*
X88031000Y-41575000D02*
X86721000Y-41575000D01*
G75*
G02*
X86451000Y-41305000I0J270000D01*
G01*
X86451000Y-40495000D01*
G75*
G02*
X86721000Y-40225000I270000J0D01*
G01*
X88031000Y-40225000D01*
G75*
G02*
X88301000Y-40495000I0J-270000D01*
G01*
X88301000Y-41305000D01*
G75*
G02*
X88031000Y-41575000I-270000J0D01*
G01*
G37*
%TD*%
D24*
%TO.C,SW1*%
X118110000Y-57912000D03*
X118110000Y-53412000D03*
X124610000Y-57912000D03*
X124610000Y-53412000D03*
%TD*%
%TO.C,C1*%
G36*
G01*
X106218000Y-55399250D02*
X106218000Y-54836750D01*
G75*
G02*
X106461750Y-54593000I243750J0D01*
G01*
X106949250Y-54593000D01*
G75*
G02*
X107193000Y-54836750I0J-243750D01*
G01*
X107193000Y-55399250D01*
G75*
G02*
X106949250Y-55643000I-243750J0D01*
G01*
X106461750Y-55643000D01*
G75*
G02*
X106218000Y-55399250I0J243750D01*
G01*
G37*
G36*
G01*
X104643000Y-55399250D02*
X104643000Y-54836750D01*
G75*
G02*
X104886750Y-54593000I243750J0D01*
G01*
X105374250Y-54593000D01*
G75*
G02*
X105618000Y-54836750I0J-243750D01*
G01*
X105618000Y-55399250D01*
G75*
G02*
X105374250Y-55643000I-243750J0D01*
G01*
X104886750Y-55643000D01*
G75*
G02*
X104643000Y-55399250I0J243750D01*
G01*
G37*
%TD*%
D18*
%TO.C,J6*%
X77692000Y-22606000D03*
X75152000Y-22606000D03*
%TD*%
D16*
%TO.C,D5*%
X94234000Y-60349001D03*
D17*
X91694000Y-60349001D03*
%TD*%
D25*
%TO.C,D1*%
X91154000Y-22606000D03*
D26*
X91154000Y-30226000D03*
%TD*%
%TO.C,R7*%
G36*
G01*
X90632000Y-66012750D02*
X90632000Y-66575250D01*
G75*
G02*
X90388250Y-66819000I-243750J0D01*
G01*
X89900750Y-66819000D01*
G75*
G02*
X89657000Y-66575250I0J243750D01*
G01*
X89657000Y-66012750D01*
G75*
G02*
X89900750Y-65769000I243750J0D01*
G01*
X90388250Y-65769000D01*
G75*
G02*
X90632000Y-66012750I0J-243750D01*
G01*
G37*
G36*
G01*
X92207000Y-66012750D02*
X92207000Y-66575250D01*
G75*
G02*
X91963250Y-66819000I-243750J0D01*
G01*
X91475750Y-66819000D01*
G75*
G02*
X91232000Y-66575250I0J243750D01*
G01*
X91232000Y-66012750D01*
G75*
G02*
X91475750Y-65769000I243750J0D01*
G01*
X91963250Y-65769000D01*
G75*
G02*
X92207000Y-66012750I0J-243750D01*
G01*
G37*
%TD*%
%TO.C,R12*%
G36*
G01*
X114600000Y-58193250D02*
X114600000Y-57630750D01*
G75*
G02*
X114843750Y-57387000I243750J0D01*
G01*
X115331250Y-57387000D01*
G75*
G02*
X115575000Y-57630750I0J-243750D01*
G01*
X115575000Y-58193250D01*
G75*
G02*
X115331250Y-58437000I-243750J0D01*
G01*
X114843750Y-58437000D01*
G75*
G02*
X114600000Y-58193250I0J243750D01*
G01*
G37*
G36*
G01*
X113025000Y-58193250D02*
X113025000Y-57630750D01*
G75*
G02*
X113268750Y-57387000I243750J0D01*
G01*
X113756250Y-57387000D01*
G75*
G02*
X114000000Y-57630750I0J-243750D01*
G01*
X114000000Y-58193250D01*
G75*
G02*
X113756250Y-58437000I-243750J0D01*
G01*
X113268750Y-58437000D01*
G75*
G02*
X113025000Y-58193250I0J243750D01*
G01*
G37*
%TD*%
D27*
%TO.C,J2*%
X120618000Y-34718000D03*
X120618000Y-37258000D03*
X120618000Y-39798000D03*
%TD*%
D25*
%TO.C,D2*%
X113159000Y-22717001D03*
D26*
X113159000Y-30337001D03*
%TD*%
%TO.C,C7*%
G36*
G01*
X114600000Y-52097250D02*
X114600000Y-51534750D01*
G75*
G02*
X114843750Y-51291000I243750J0D01*
G01*
X115331250Y-51291000D01*
G75*
G02*
X115575000Y-51534750I0J-243750D01*
G01*
X115575000Y-52097250D01*
G75*
G02*
X115331250Y-52341000I-243750J0D01*
G01*
X114843750Y-52341000D01*
G75*
G02*
X114600000Y-52097250I0J243750D01*
G01*
G37*
G36*
G01*
X113025000Y-52097250D02*
X113025000Y-51534750D01*
G75*
G02*
X113268750Y-51291000I243750J0D01*
G01*
X113756250Y-51291000D01*
G75*
G02*
X114000000Y-51534750I0J-243750D01*
G01*
X114000000Y-52097250D01*
G75*
G02*
X113756250Y-52341000I-243750J0D01*
G01*
X113268750Y-52341000D01*
G75*
G02*
X113025000Y-52097250I0J243750D01*
G01*
G37*
%TD*%
D24*
%TO.C,SW2*%
X118036999Y-48260999D03*
X118036999Y-43760999D03*
X124536999Y-48260999D03*
X124536999Y-43760999D03*
%TD*%
%TO.C,C6*%
G36*
G01*
X89301000Y-49437000D02*
X87991000Y-49437000D01*
G75*
G02*
X87721000Y-49167000I0J270000D01*
G01*
X87721000Y-48357000D01*
G75*
G02*
X87991000Y-48087000I270000J0D01*
G01*
X89301000Y-48087000D01*
G75*
G02*
X89571000Y-48357000I0J-270000D01*
G01*
X89571000Y-49167000D01*
G75*
G02*
X89301000Y-49437000I-270000J0D01*
G01*
G37*
G36*
G01*
X89301000Y-52237000D02*
X87991000Y-52237000D01*
G75*
G02*
X87721000Y-51967000I0J270000D01*
G01*
X87721000Y-51157000D01*
G75*
G02*
X87991000Y-50887000I270000J0D01*
G01*
X89301000Y-50887000D01*
G75*
G02*
X89571000Y-51157000I0J-270000D01*
G01*
X89571000Y-51967000D01*
G75*
G02*
X89301000Y-52237000I-270000J0D01*
G01*
G37*
%TD*%
D15*
%TO.C,RLY1*%
X102644001Y-32877001D03*
X110264001Y-32877001D03*
X102644001Y-30337001D03*
X102644001Y-20177001D03*
X110264001Y-30337001D03*
X110264001Y-20177001D03*
%TD*%
D24*
%TO.C,S1*%
X112014000Y-65264000D03*
X116514000Y-65264000D03*
X112014000Y-71764000D03*
X116514000Y-71764000D03*
%TD*%
%TO.C,C3*%
G36*
G01*
X89870000Y-37818750D02*
X89870000Y-38381250D01*
G75*
G02*
X89626250Y-38625000I-243750J0D01*
G01*
X89138750Y-38625000D01*
G75*
G02*
X88895000Y-38381250I0J243750D01*
G01*
X88895000Y-37818750D01*
G75*
G02*
X89138750Y-37575000I243750J0D01*
G01*
X89626250Y-37575000D01*
G75*
G02*
X89870000Y-37818750I0J-243750D01*
G01*
G37*
G36*
G01*
X91445000Y-37818750D02*
X91445000Y-38381250D01*
G75*
G02*
X91201250Y-38625000I-243750J0D01*
G01*
X90713750Y-38625000D01*
G75*
G02*
X90470000Y-38381250I0J243750D01*
G01*
X90470000Y-37818750D01*
G75*
G02*
X90713750Y-37575000I243750J0D01*
G01*
X91201250Y-37575000D01*
G75*
G02*
X91445000Y-37818750I0J-243750D01*
G01*
G37*
%TD*%
%TO.C,R3*%
G36*
G01*
X117270000Y-39516750D02*
X117270000Y-40079250D01*
G75*
G02*
X117026250Y-40323000I-243750J0D01*
G01*
X116538750Y-40323000D01*
G75*
G02*
X116295000Y-40079250I0J243750D01*
G01*
X116295000Y-39516750D01*
G75*
G02*
X116538750Y-39273000I243750J0D01*
G01*
X117026250Y-39273000D01*
G75*
G02*
X117270000Y-39516750I0J-243750D01*
G01*
G37*
G36*
G01*
X118845000Y-39516750D02*
X118845000Y-40079250D01*
G75*
G02*
X118601250Y-40323000I-243750J0D01*
G01*
X118113750Y-40323000D01*
G75*
G02*
X117870000Y-40079250I0J243750D01*
G01*
X117870000Y-39516750D01*
G75*
G02*
X118113750Y-39273000I243750J0D01*
G01*
X118601250Y-39273000D01*
G75*
G02*
X118845000Y-39516750I0J-243750D01*
G01*
G37*
%TD*%
M02*
