%TF.GenerationSoftware,KiCad,Pcbnew,5.1.6-c6e7f7d~87~ubuntu20.04.1*%
%TF.CreationDate,2021-03-09T18:46:47+01:00*%
%TF.ProjectId,arduBell,61726475-4265-46c6-9c2e-6b696361645f,rev?*%
%TF.SameCoordinates,Original*%
%TF.FileFunction,Copper,L2,Bot*%
%TF.FilePolarity,Positive*%
%FSLAX46Y46*%
G04 Gerber Fmt 4.6, Leading zero omitted, Abs format (unit mm)*
G04 Created by KiCad (PCBNEW 5.1.6-c6e7f7d~87~ubuntu20.04.1) date 2021-03-09 18:46:47*
%MOMM*%
%LPD*%
G01*
G04 APERTURE LIST*
%TA.AperFunction,ComponentPad*%
%ADD10C,0.800000*%
%TD*%
%TA.AperFunction,ComponentPad*%
%ADD11C,6.000000*%
%TD*%
%TA.AperFunction,ComponentPad*%
%ADD12R,1.050000X1.500000*%
%TD*%
%TA.AperFunction,ComponentPad*%
%ADD13O,1.700000X1.700000*%
%TD*%
%TA.AperFunction,ComponentPad*%
%ADD14R,1.700000X1.700000*%
%TD*%
%TA.AperFunction,ComponentPad*%
%ADD15O,2.300000X1.600000*%
%TD*%
%TA.AperFunction,ComponentPad*%
%ADD16C,1.800000*%
%TD*%
%TA.AperFunction,ComponentPad*%
%ADD17R,1.800000X1.800000*%
%TD*%
%TA.AperFunction,ComponentPad*%
%ADD18C,2.020000*%
%TD*%
%TA.AperFunction,ComponentPad*%
%ADD19C,1.440000*%
%TD*%
%TA.AperFunction,ComponentPad*%
%ADD20C,1.500000*%
%TD*%
%TA.AperFunction,ComponentPad*%
%ADD21C,2.000000*%
%TD*%
%TA.AperFunction,ComponentPad*%
%ADD22O,1.500000X1.500000*%
%TD*%
%TA.AperFunction,ComponentPad*%
%ADD23R,1.500000X1.500000*%
%TD*%
%TA.AperFunction,ComponentPad*%
%ADD24C,2.100000*%
%TD*%
%TA.AperFunction,ViaPad*%
%ADD25C,0.800000*%
%TD*%
%TA.AperFunction,Conductor*%
%ADD26C,0.250000*%
%TD*%
%TA.AperFunction,Conductor*%
%ADD27C,0.254000*%
%TD*%
G04 APERTURE END LIST*
D10*
%TO.P, ,1*%
%TO.N,N/C*%
X124424990Y-68395010D03*
X122834000Y-67736000D03*
X121243010Y-68395010D03*
X120584000Y-69986000D03*
X121243010Y-71576990D03*
X122834000Y-72236000D03*
X124424990Y-71576990D03*
X125084000Y-69986000D03*
D11*
X122834000Y-69986000D03*
%TD*%
%TO.P, ,1*%
%TO.N,N/C*%
X122834000Y-17986000D03*
D10*
X125084000Y-17986000D03*
X124424990Y-19576990D03*
X122834000Y-20236000D03*
X121243010Y-19576990D03*
X120584000Y-17986000D03*
X121243010Y-16395010D03*
X122834000Y-15736000D03*
X124424990Y-16395010D03*
%TD*%
D11*
%TO.P, ,1*%
%TO.N,N/C*%
X70834000Y-17986000D03*
D10*
X73084000Y-17986000D03*
X72424990Y-19576990D03*
X70834000Y-20236000D03*
X69243010Y-19576990D03*
X68584000Y-17986000D03*
X69243010Y-16395010D03*
X70834000Y-15736000D03*
X72424990Y-16395010D03*
%TD*%
%TO.P, ,1*%
%TO.N,N/C*%
X72424990Y-68395010D03*
X70834000Y-67736000D03*
X69243010Y-68395010D03*
X68584000Y-69986000D03*
X69243010Y-71576990D03*
X70834000Y-72236000D03*
X72424990Y-71576990D03*
X73084000Y-69986000D03*
D11*
X70834000Y-69986000D03*
%TD*%
D12*
%TO.P,Q1,1*%
%TO.N,Net-(D2-Pad2)*%
X105539000Y-37957001D03*
%TO.P,Q1,3*%
%TO.N,GND*%
%TA.AperFunction,ComponentPad*%
G36*
G01*
X107554000Y-38444501D02*
X107554000Y-37469501D01*
G75*
G02*
X107816500Y-37207001I262500J0D01*
G01*
X108341500Y-37207001D01*
G75*
G02*
X108604000Y-37469501I0J-262500D01*
G01*
X108604000Y-38444501D01*
G75*
G02*
X108341500Y-38707001I-262500J0D01*
G01*
X107816500Y-38707001D01*
G75*
G02*
X107554000Y-38444501I0J262500D01*
G01*
G37*
%TD.AperFunction*%
%TO.P,Q1,2*%
%TO.N,Net-(Q1-Pad2)*%
%TA.AperFunction,ComponentPad*%
G36*
G01*
X106284000Y-38444501D02*
X106284000Y-37469501D01*
G75*
G02*
X106546500Y-37207001I262500J0D01*
G01*
X107071500Y-37207001D01*
G75*
G02*
X107334000Y-37469501I0J-262500D01*
G01*
X107334000Y-38444501D01*
G75*
G02*
X107071500Y-38707001I-262500J0D01*
G01*
X106546500Y-38707001D01*
G75*
G02*
X106284000Y-38444501I0J262500D01*
G01*
G37*
%TD.AperFunction*%
%TD*%
D13*
%TO.P,J1,6*%
%TO.N,GND*%
X102362000Y-62738000D03*
%TO.P,J1,5*%
%TO.N,RESET*%
X102362000Y-60198000D03*
%TO.P,J1,4*%
%TO.N,MOSI*%
X104902000Y-62738000D03*
%TO.P,J1,3*%
%TO.N,SCK*%
X104902000Y-60198000D03*
%TO.P,J1,2*%
%TO.N,VCC*%
X107442000Y-62738000D03*
D14*
%TO.P,J1,1*%
%TO.N,MISO*%
X107442000Y-60198000D03*
%TD*%
D12*
%TO.P,Q2,1*%
%TO.N,Net-(D1-Pad2)*%
X81534000Y-37846000D03*
%TO.P,Q2,3*%
%TO.N,GND*%
%TA.AperFunction,ComponentPad*%
G36*
G01*
X83549000Y-38333500D02*
X83549000Y-37358500D01*
G75*
G02*
X83811500Y-37096000I262500J0D01*
G01*
X84336500Y-37096000D01*
G75*
G02*
X84599000Y-37358500I0J-262500D01*
G01*
X84599000Y-38333500D01*
G75*
G02*
X84336500Y-38596000I-262500J0D01*
G01*
X83811500Y-38596000D01*
G75*
G02*
X83549000Y-38333500I0J262500D01*
G01*
G37*
%TD.AperFunction*%
%TO.P,Q2,2*%
%TO.N,Net-(Q2-Pad2)*%
%TA.AperFunction,ComponentPad*%
G36*
G01*
X82279000Y-38333500D02*
X82279000Y-37358500D01*
G75*
G02*
X82541500Y-37096000I262500J0D01*
G01*
X83066500Y-37096000D01*
G75*
G02*
X83329000Y-37358500I0J-262500D01*
G01*
X83329000Y-38333500D01*
G75*
G02*
X83066500Y-38596000I-262500J0D01*
G01*
X82541500Y-38596000D01*
G75*
G02*
X82279000Y-38333500I0J262500D01*
G01*
G37*
%TD.AperFunction*%
%TD*%
D15*
%TO.P,RLY2,6*%
%TO.N,/Relay2/n_c*%
X80639001Y-32766000D03*
%TO.P,RLY2,7*%
%TO.N,GND*%
X88259001Y-32766000D03*
%TO.P,RLY2,5*%
%TO.N,Net-(D1-Pad2)*%
X80639001Y-30226000D03*
%TO.P,RLY2,1*%
%TO.N,/Relay2/comm*%
X80639001Y-20066000D03*
%TO.P,RLY2,8*%
%TO.N,VCC*%
X88259001Y-30226000D03*
%TO.P,RLY2,12*%
%TO.N,/Relay2/comm*%
X88259001Y-20066000D03*
%TD*%
D16*
%TO.P,D4,2*%
%TO.N,/led2*%
X86835001Y-60349001D03*
D17*
%TO.P,D4,1*%
%TO.N,Net-(D4-Pad1)*%
X84295001Y-60349001D03*
%TD*%
D18*
%TO.P,J4,2*%
%TO.N,Net-(J4-Pad2)*%
X71374000Y-34544000D03*
%TO.P,J4,1*%
%TO.N,Net-(J4-Pad1)*%
X73914000Y-34544000D03*
%TD*%
%TO.P,J3,2*%
%TO.N,VCC*%
X120650000Y-28194000D03*
%TO.P,J3,1*%
%TO.N,GND*%
X118110000Y-28194000D03*
%TD*%
D16*
%TO.P,D3,2*%
%TO.N,/led1*%
X79335001Y-60349001D03*
D17*
%TO.P,D3,1*%
%TO.N,Net-(D3-Pad1)*%
X76795001Y-60349001D03*
%TD*%
D19*
%TO.P,R4,1*%
%TO.N,/bell_detect*%
X82296000Y-51562000D03*
%TO.P,R4,2*%
%TO.N,GND*%
X84836000Y-49022000D03*
%TO.P,R4,3*%
%TO.N,N/C*%
X82296000Y-46482000D03*
%TD*%
D20*
%TO.P,Y1,2*%
%TO.N,GND*%
X96774000Y-32712000D03*
%TO.P,Y1,1*%
%TO.N,Net-(U1-Pad7)*%
X96774000Y-37592000D03*
%TD*%
D18*
%TO.P,J5,2*%
%TO.N,/Relay 1/n_c*%
X99568000Y-22860000D03*
%TO.P,J5,1*%
%TO.N,/Relay 1/comm*%
X97028000Y-22860000D03*
%TD*%
D21*
%TO.P,SW1,1*%
%TO.N,Net-(R12-Pad2)*%
X118110000Y-57912000D03*
%TO.P,SW1,2*%
%TO.N,GND*%
X118110000Y-53412000D03*
%TO.P,SW1,1*%
%TO.N,Net-(R12-Pad2)*%
X124610000Y-57912000D03*
%TO.P,SW1,2*%
%TO.N,GND*%
X124610000Y-53412000D03*
%TD*%
D18*
%TO.P,J6,2*%
%TO.N,/Relay2/n_c*%
X77692000Y-22606000D03*
%TO.P,J6,1*%
%TO.N,/Relay2/comm*%
X75152000Y-22606000D03*
%TD*%
D16*
%TO.P,D5,2*%
%TO.N,/led3*%
X94234000Y-60349001D03*
D17*
%TO.P,D5,1*%
%TO.N,Net-(D5-Pad1)*%
X91694000Y-60349001D03*
%TD*%
D22*
%TO.P,D1,2*%
%TO.N,Net-(D1-Pad2)*%
X91154000Y-22606000D03*
D23*
%TO.P,D1,1*%
%TO.N,VCC*%
X91154000Y-30226000D03*
%TD*%
D24*
%TO.P,J2,3*%
%TO.N,GND*%
X120618000Y-34718000D03*
%TO.P,J2,2*%
%TO.N,Net-(J2-Pad2)*%
X120618000Y-37258000D03*
%TO.P,J2,1*%
%TO.N,Net-(J2-Pad1)*%
X120618000Y-39798000D03*
%TD*%
D22*
%TO.P,D2,2*%
%TO.N,Net-(D2-Pad2)*%
X113159000Y-22717001D03*
D23*
%TO.P,D2,1*%
%TO.N,VCC*%
X113159000Y-30337001D03*
%TD*%
D21*
%TO.P,SW2,1*%
%TO.N,Net-(R13-Pad2)*%
X118036999Y-48260999D03*
%TO.P,SW2,2*%
%TO.N,GND*%
X118036999Y-43760999D03*
%TO.P,SW2,1*%
%TO.N,Net-(R13-Pad2)*%
X124536999Y-48260999D03*
%TO.P,SW2,2*%
%TO.N,GND*%
X124536999Y-43760999D03*
%TD*%
D15*
%TO.P,RLY1,6*%
%TO.N,/Relay 1/n_c*%
X102644001Y-32877001D03*
%TO.P,RLY1,7*%
%TO.N,GND*%
X110264001Y-32877001D03*
%TO.P,RLY1,5*%
%TO.N,Net-(D2-Pad2)*%
X102644001Y-30337001D03*
%TO.P,RLY1,1*%
%TO.N,/Relay 1/comm*%
X102644001Y-20177001D03*
%TO.P,RLY1,8*%
%TO.N,VCC*%
X110264001Y-30337001D03*
%TO.P,RLY1,12*%
%TO.N,/Relay 1/comm*%
X110264001Y-20177001D03*
%TD*%
D21*
%TO.P,S1,1*%
%TO.N,GND*%
X112014000Y-65264000D03*
%TO.P,S1,2*%
%TO.N,RESET*%
X116514000Y-65264000D03*
%TO.P,S1,1*%
%TO.N,GND*%
X112014000Y-71764000D03*
%TO.P,S1,2*%
%TO.N,RESET*%
X116514000Y-71764000D03*
%TD*%
D25*
%TO.N,GND*%
X105918000Y-49530000D03*
%TO.N,VCC*%
X113538000Y-59182000D03*
X113538000Y-62738000D03*
X113538000Y-49530000D03*
X115570000Y-30226000D03*
X103702000Y-42488000D03*
X91002000Y-42488000D03*
X106172000Y-47752000D03*
X88392000Y-44958000D03*
%TO.N,RESET*%
X110890000Y-48622000D03*
%TO.N,/bell_detect*%
X106902000Y-51594000D03*
X92742000Y-51594000D03*
%TO.N,/led1*%
X102362000Y-48768000D03*
X98806000Y-48768000D03*
%TD*%
D26*
%TO.N,VCC*%
X113538000Y-59182000D02*
X113538000Y-62738000D01*
X113538000Y-59182000D02*
X115570000Y-59182000D01*
X115570000Y-59182000D02*
X116078000Y-59182000D01*
X116078000Y-59182000D02*
X116586000Y-58674000D01*
X116586000Y-58674000D02*
X116586000Y-52578000D01*
X116586000Y-52578000D02*
X113538000Y-49530000D01*
X113538000Y-49530000D02*
X113538000Y-32258000D01*
X113538000Y-32258000D02*
X115570000Y-30226000D01*
X103702000Y-42488000D02*
X91002000Y-42488000D01*
X111760000Y-47752000D02*
X113538000Y-49530000D01*
X110264001Y-30337001D02*
X110264001Y-30451999D01*
X110264001Y-30451999D02*
X108514002Y-28702000D01*
X92678000Y-28702000D02*
X91154000Y-30226000D01*
X91002000Y-42488000D02*
X88532000Y-44958000D01*
X88532000Y-44958000D02*
X88392000Y-44958000D01*
X107442000Y-47752000D02*
X106172000Y-47752000D01*
X107188000Y-47752000D02*
X107442000Y-47752000D01*
X107442000Y-47752000D02*
X111760000Y-47752000D01*
X92678000Y-28702000D02*
X108514002Y-28702000D01*
%TO.N,RESET*%
X110890000Y-48622000D02*
X110890000Y-55226000D01*
X110890000Y-55226000D02*
X108966000Y-57150000D01*
X105410000Y-57150000D02*
X102362000Y-60198000D01*
X108966000Y-57150000D02*
X105410000Y-57150000D01*
%TO.N,/bell_detect*%
X106902000Y-51594000D02*
X92742000Y-51594000D01*
%TO.N,/led1*%
X102362000Y-48768000D02*
X98806000Y-48768000D01*
%TD*%
D27*
%TO.N,GND*%
G36*
X126424000Y-73576000D02*
G01*
X67244000Y-73576000D01*
X67244000Y-69652607D01*
X67449000Y-69652607D01*
X67449000Y-70319393D01*
X67579083Y-70973368D01*
X67834252Y-71589399D01*
X68204698Y-72143812D01*
X68676188Y-72615302D01*
X69230601Y-72985748D01*
X69846632Y-73240917D01*
X70500607Y-73371000D01*
X71167393Y-73371000D01*
X71821368Y-73240917D01*
X72437399Y-72985748D01*
X72566608Y-72899413D01*
X111058192Y-72899413D01*
X111153956Y-73163814D01*
X111443571Y-73304704D01*
X111755108Y-73386384D01*
X112076595Y-73405718D01*
X112395675Y-73361961D01*
X112700088Y-73256795D01*
X112874044Y-73163814D01*
X112969808Y-72899413D01*
X112014000Y-71943605D01*
X111058192Y-72899413D01*
X72566608Y-72899413D01*
X72991812Y-72615302D01*
X73463302Y-72143812D01*
X73675259Y-71826595D01*
X110372282Y-71826595D01*
X110416039Y-72145675D01*
X110521205Y-72450088D01*
X110614186Y-72624044D01*
X110878587Y-72719808D01*
X111834395Y-71764000D01*
X112193605Y-71764000D01*
X113149413Y-72719808D01*
X113413814Y-72624044D01*
X113554704Y-72334429D01*
X113636384Y-72022892D01*
X113655718Y-71701405D01*
X113645596Y-71627589D01*
X115129000Y-71627589D01*
X115129000Y-71900411D01*
X115182225Y-72167989D01*
X115286629Y-72420043D01*
X115438201Y-72646886D01*
X115631114Y-72839799D01*
X115857957Y-72991371D01*
X116110011Y-73095775D01*
X116377589Y-73149000D01*
X116650411Y-73149000D01*
X116917989Y-73095775D01*
X117170043Y-72991371D01*
X117396886Y-72839799D01*
X117589799Y-72646886D01*
X117741371Y-72420043D01*
X117845775Y-72167989D01*
X117899000Y-71900411D01*
X117899000Y-71627589D01*
X117845775Y-71360011D01*
X117741371Y-71107957D01*
X117589799Y-70881114D01*
X117396886Y-70688201D01*
X117170043Y-70536629D01*
X116917989Y-70432225D01*
X116650411Y-70379000D01*
X116377589Y-70379000D01*
X116110011Y-70432225D01*
X115857957Y-70536629D01*
X115631114Y-70688201D01*
X115438201Y-70881114D01*
X115286629Y-71107957D01*
X115182225Y-71360011D01*
X115129000Y-71627589D01*
X113645596Y-71627589D01*
X113611961Y-71382325D01*
X113506795Y-71077912D01*
X113413814Y-70903956D01*
X113149413Y-70808192D01*
X112193605Y-71764000D01*
X111834395Y-71764000D01*
X110878587Y-70808192D01*
X110614186Y-70903956D01*
X110473296Y-71193571D01*
X110391616Y-71505108D01*
X110372282Y-71826595D01*
X73675259Y-71826595D01*
X73833748Y-71589399D01*
X74088917Y-70973368D01*
X74157497Y-70628587D01*
X111058192Y-70628587D01*
X112014000Y-71584395D01*
X112969808Y-70628587D01*
X112874044Y-70364186D01*
X112584429Y-70223296D01*
X112272892Y-70141616D01*
X111951405Y-70122282D01*
X111632325Y-70166039D01*
X111327912Y-70271205D01*
X111153956Y-70364186D01*
X111058192Y-70628587D01*
X74157497Y-70628587D01*
X74219000Y-70319393D01*
X74219000Y-69652607D01*
X119449000Y-69652607D01*
X119449000Y-70319393D01*
X119579083Y-70973368D01*
X119834252Y-71589399D01*
X120204698Y-72143812D01*
X120676188Y-72615302D01*
X121230601Y-72985748D01*
X121846632Y-73240917D01*
X122500607Y-73371000D01*
X123167393Y-73371000D01*
X123821368Y-73240917D01*
X124437399Y-72985748D01*
X124991812Y-72615302D01*
X125463302Y-72143812D01*
X125833748Y-71589399D01*
X126088917Y-70973368D01*
X126219000Y-70319393D01*
X126219000Y-69652607D01*
X126088917Y-68998632D01*
X125833748Y-68382601D01*
X125463302Y-67828188D01*
X124991812Y-67356698D01*
X124437399Y-66986252D01*
X123821368Y-66731083D01*
X123167393Y-66601000D01*
X122500607Y-66601000D01*
X121846632Y-66731083D01*
X121230601Y-66986252D01*
X120676188Y-67356698D01*
X120204698Y-67828188D01*
X119834252Y-68382601D01*
X119579083Y-68998632D01*
X119449000Y-69652607D01*
X74219000Y-69652607D01*
X74088917Y-68998632D01*
X73833748Y-68382601D01*
X73463302Y-67828188D01*
X72991812Y-67356698D01*
X72437399Y-66986252D01*
X71821368Y-66731083D01*
X71167393Y-66601000D01*
X70500607Y-66601000D01*
X69846632Y-66731083D01*
X69230601Y-66986252D01*
X68676188Y-67356698D01*
X68204698Y-67828188D01*
X67834252Y-68382601D01*
X67579083Y-68998632D01*
X67449000Y-69652607D01*
X67244000Y-69652607D01*
X67244000Y-66399413D01*
X111058192Y-66399413D01*
X111153956Y-66663814D01*
X111443571Y-66804704D01*
X111755108Y-66886384D01*
X112076595Y-66905718D01*
X112395675Y-66861961D01*
X112700088Y-66756795D01*
X112874044Y-66663814D01*
X112969808Y-66399413D01*
X112014000Y-65443605D01*
X111058192Y-66399413D01*
X67244000Y-66399413D01*
X67244000Y-65326595D01*
X110372282Y-65326595D01*
X110416039Y-65645675D01*
X110521205Y-65950088D01*
X110614186Y-66124044D01*
X110878587Y-66219808D01*
X111834395Y-65264000D01*
X112193605Y-65264000D01*
X113149413Y-66219808D01*
X113413814Y-66124044D01*
X113554704Y-65834429D01*
X113636384Y-65522892D01*
X113655718Y-65201405D01*
X113645596Y-65127589D01*
X115129000Y-65127589D01*
X115129000Y-65400411D01*
X115182225Y-65667989D01*
X115286629Y-65920043D01*
X115438201Y-66146886D01*
X115631114Y-66339799D01*
X115857957Y-66491371D01*
X116110011Y-66595775D01*
X116377589Y-66649000D01*
X116650411Y-66649000D01*
X116917989Y-66595775D01*
X117170043Y-66491371D01*
X117396886Y-66339799D01*
X117589799Y-66146886D01*
X117741371Y-65920043D01*
X117845775Y-65667989D01*
X117899000Y-65400411D01*
X117899000Y-65127589D01*
X117845775Y-64860011D01*
X117741371Y-64607957D01*
X117589799Y-64381114D01*
X117396886Y-64188201D01*
X117170043Y-64036629D01*
X116917989Y-63932225D01*
X116650411Y-63879000D01*
X116377589Y-63879000D01*
X116110011Y-63932225D01*
X115857957Y-64036629D01*
X115631114Y-64188201D01*
X115438201Y-64381114D01*
X115286629Y-64607957D01*
X115182225Y-64860011D01*
X115129000Y-65127589D01*
X113645596Y-65127589D01*
X113611961Y-64882325D01*
X113506795Y-64577912D01*
X113413814Y-64403956D01*
X113149413Y-64308192D01*
X112193605Y-65264000D01*
X111834395Y-65264000D01*
X110878587Y-64308192D01*
X110614186Y-64403956D01*
X110473296Y-64693571D01*
X110391616Y-65005108D01*
X110372282Y-65326595D01*
X67244000Y-65326595D01*
X67244000Y-63094891D01*
X100920519Y-63094891D01*
X101017843Y-63369252D01*
X101166822Y-63619355D01*
X101361731Y-63835588D01*
X101595080Y-64009641D01*
X101857901Y-64134825D01*
X102005110Y-64179476D01*
X102235000Y-64058155D01*
X102235000Y-62865000D01*
X101041186Y-62865000D01*
X100920519Y-63094891D01*
X67244000Y-63094891D01*
X67244000Y-62381109D01*
X100920519Y-62381109D01*
X101041186Y-62611000D01*
X102235000Y-62611000D01*
X102235000Y-62591000D01*
X102489000Y-62591000D01*
X102489000Y-62611000D01*
X102509000Y-62611000D01*
X102509000Y-62865000D01*
X102489000Y-62865000D01*
X102489000Y-64058155D01*
X102718890Y-64179476D01*
X102866099Y-64134825D01*
X102879195Y-64128587D01*
X111058192Y-64128587D01*
X112014000Y-65084395D01*
X112969808Y-64128587D01*
X112874044Y-63864186D01*
X112584429Y-63723296D01*
X112272892Y-63641616D01*
X111951405Y-63622282D01*
X111632325Y-63666039D01*
X111327912Y-63771205D01*
X111153956Y-63864186D01*
X111058192Y-64128587D01*
X102879195Y-64128587D01*
X103128920Y-64009641D01*
X103362269Y-63835588D01*
X103557178Y-63619355D01*
X103706157Y-63369252D01*
X103761775Y-63212463D01*
X103807557Y-63322992D01*
X103942713Y-63525267D01*
X104114733Y-63697287D01*
X104317008Y-63832443D01*
X104541764Y-63925540D01*
X104780363Y-63973000D01*
X105023637Y-63973000D01*
X105262236Y-63925540D01*
X105486992Y-63832443D01*
X105689267Y-63697287D01*
X105861287Y-63525267D01*
X105996443Y-63322992D01*
X106089540Y-63098236D01*
X106137000Y-62859637D01*
X106137000Y-62616363D01*
X106207000Y-62616363D01*
X106207000Y-62859637D01*
X106254460Y-63098236D01*
X106347557Y-63322992D01*
X106482713Y-63525267D01*
X106654733Y-63697287D01*
X106857008Y-63832443D01*
X107081764Y-63925540D01*
X107320363Y-63973000D01*
X107563637Y-63973000D01*
X107802236Y-63925540D01*
X108026992Y-63832443D01*
X108229267Y-63697287D01*
X108401287Y-63525267D01*
X108536443Y-63322992D01*
X108629540Y-63098236D01*
X108677000Y-62859637D01*
X108677000Y-62616363D01*
X108629540Y-62377764D01*
X108536443Y-62153008D01*
X108401287Y-61950733D01*
X108229267Y-61778713D01*
X108026992Y-61643557D01*
X107802236Y-61550460D01*
X107563637Y-61503000D01*
X107320363Y-61503000D01*
X107081764Y-61550460D01*
X106857008Y-61643557D01*
X106654733Y-61778713D01*
X106482713Y-61950733D01*
X106347557Y-62153008D01*
X106254460Y-62377764D01*
X106207000Y-62616363D01*
X106137000Y-62616363D01*
X106089540Y-62377764D01*
X105996443Y-62153008D01*
X105861287Y-61950733D01*
X105689267Y-61778713D01*
X105486992Y-61643557D01*
X105262236Y-61550460D01*
X105023637Y-61503000D01*
X104780363Y-61503000D01*
X104541764Y-61550460D01*
X104317008Y-61643557D01*
X104114733Y-61778713D01*
X103942713Y-61950733D01*
X103807557Y-62153008D01*
X103761775Y-62263537D01*
X103706157Y-62106748D01*
X103557178Y-61856645D01*
X103362269Y-61640412D01*
X103128920Y-61466359D01*
X102866099Y-61341175D01*
X102844880Y-61334739D01*
X102946992Y-61292443D01*
X103149267Y-61157287D01*
X103321287Y-60985267D01*
X103456443Y-60782992D01*
X103549540Y-60558236D01*
X103597000Y-60319637D01*
X103597000Y-60076363D01*
X103667000Y-60076363D01*
X103667000Y-60319637D01*
X103714460Y-60558236D01*
X103807557Y-60782992D01*
X103942713Y-60985267D01*
X104114733Y-61157287D01*
X104317008Y-61292443D01*
X104541764Y-61385540D01*
X104780363Y-61433000D01*
X105023637Y-61433000D01*
X105262236Y-61385540D01*
X105486992Y-61292443D01*
X105689267Y-61157287D01*
X105861287Y-60985267D01*
X105996443Y-60782992D01*
X106089540Y-60558236D01*
X106137000Y-60319637D01*
X106137000Y-60076363D01*
X106089540Y-59837764D01*
X105996443Y-59613008D01*
X105861287Y-59410733D01*
X105798554Y-59348000D01*
X106205138Y-59348000D01*
X106205138Y-61048000D01*
X106212571Y-61123473D01*
X106234586Y-61196046D01*
X106270336Y-61262929D01*
X106318447Y-61321553D01*
X106377071Y-61369664D01*
X106443954Y-61405414D01*
X106516527Y-61427429D01*
X106592000Y-61434862D01*
X108292000Y-61434862D01*
X108367473Y-61427429D01*
X108440046Y-61405414D01*
X108506929Y-61369664D01*
X108565553Y-61321553D01*
X108613664Y-61262929D01*
X108649414Y-61196046D01*
X108671429Y-61123473D01*
X108678862Y-61048000D01*
X108678862Y-59348000D01*
X108671429Y-59272527D01*
X108649414Y-59199954D01*
X108613664Y-59133071D01*
X108565553Y-59074447D01*
X108506929Y-59026336D01*
X108440046Y-58990586D01*
X108367473Y-58968571D01*
X108292000Y-58961138D01*
X106592000Y-58961138D01*
X106516527Y-58968571D01*
X106443954Y-58990586D01*
X106377071Y-59026336D01*
X106318447Y-59074447D01*
X106270336Y-59133071D01*
X106234586Y-59199954D01*
X106212571Y-59272527D01*
X106205138Y-59348000D01*
X105798554Y-59348000D01*
X105689267Y-59238713D01*
X105486992Y-59103557D01*
X105262236Y-59010460D01*
X105023637Y-58963000D01*
X104780363Y-58963000D01*
X104541764Y-59010460D01*
X104317008Y-59103557D01*
X104114733Y-59238713D01*
X103942713Y-59410733D01*
X103807557Y-59613008D01*
X103714460Y-59837764D01*
X103667000Y-60076363D01*
X103597000Y-60076363D01*
X103549540Y-59837764D01*
X103518477Y-59762771D01*
X105621249Y-57660000D01*
X108940955Y-57660000D01*
X108966000Y-57662467D01*
X108991045Y-57660000D01*
X108991048Y-57660000D01*
X109065977Y-57652620D01*
X109162113Y-57623458D01*
X109250711Y-57576101D01*
X109328369Y-57512369D01*
X109344341Y-57492907D01*
X111232913Y-55604336D01*
X111252369Y-55588369D01*
X111316101Y-55510711D01*
X111363458Y-55422113D01*
X111392620Y-55325977D01*
X111400000Y-55251048D01*
X111402467Y-55226000D01*
X111400000Y-55200952D01*
X111400000Y-49222157D01*
X111499749Y-49122408D01*
X111585658Y-48993837D01*
X111644833Y-48850976D01*
X111675000Y-48699316D01*
X111675000Y-48544684D01*
X111644833Y-48393024D01*
X111620125Y-48333373D01*
X112753000Y-49466249D01*
X112753000Y-49607316D01*
X112783167Y-49758976D01*
X112842342Y-49901837D01*
X112928251Y-50030408D01*
X113037592Y-50139749D01*
X113166163Y-50225658D01*
X113309024Y-50284833D01*
X113460684Y-50315000D01*
X113601752Y-50315000D01*
X116076001Y-52789250D01*
X116076000Y-58462751D01*
X115866752Y-58672000D01*
X114138157Y-58672000D01*
X114038408Y-58572251D01*
X113909837Y-58486342D01*
X113766976Y-58427167D01*
X113615316Y-58397000D01*
X113460684Y-58397000D01*
X113309024Y-58427167D01*
X113166163Y-58486342D01*
X113037592Y-58572251D01*
X112928251Y-58681592D01*
X112842342Y-58810163D01*
X112783167Y-58953024D01*
X112753000Y-59104684D01*
X112753000Y-59259316D01*
X112783167Y-59410976D01*
X112842342Y-59553837D01*
X112928251Y-59682408D01*
X113028000Y-59782157D01*
X113028001Y-62137842D01*
X112928251Y-62237592D01*
X112842342Y-62366163D01*
X112783167Y-62509024D01*
X112753000Y-62660684D01*
X112753000Y-62815316D01*
X112783167Y-62966976D01*
X112842342Y-63109837D01*
X112928251Y-63238408D01*
X113037592Y-63347749D01*
X113166163Y-63433658D01*
X113309024Y-63492833D01*
X113460684Y-63523000D01*
X113615316Y-63523000D01*
X113766976Y-63492833D01*
X113909837Y-63433658D01*
X114038408Y-63347749D01*
X114147749Y-63238408D01*
X114233658Y-63109837D01*
X114292833Y-62966976D01*
X114323000Y-62815316D01*
X114323000Y-62660684D01*
X114292833Y-62509024D01*
X114233658Y-62366163D01*
X114147749Y-62237592D01*
X114048000Y-62137843D01*
X114048000Y-59782157D01*
X114138157Y-59692000D01*
X116052955Y-59692000D01*
X116078000Y-59694467D01*
X116103045Y-59692000D01*
X116103048Y-59692000D01*
X116177977Y-59684620D01*
X116274113Y-59655458D01*
X116362711Y-59608101D01*
X116440369Y-59544369D01*
X116456341Y-59524907D01*
X116928912Y-59052337D01*
X116948369Y-59036369D01*
X117012101Y-58958711D01*
X117059458Y-58870113D01*
X117071088Y-58831773D01*
X117227114Y-58987799D01*
X117453957Y-59139371D01*
X117706011Y-59243775D01*
X117973589Y-59297000D01*
X118246411Y-59297000D01*
X118513989Y-59243775D01*
X118766043Y-59139371D01*
X118992886Y-58987799D01*
X119185799Y-58794886D01*
X119337371Y-58568043D01*
X119441775Y-58315989D01*
X119495000Y-58048411D01*
X119495000Y-57775589D01*
X123225000Y-57775589D01*
X123225000Y-58048411D01*
X123278225Y-58315989D01*
X123382629Y-58568043D01*
X123534201Y-58794886D01*
X123727114Y-58987799D01*
X123953957Y-59139371D01*
X124206011Y-59243775D01*
X124473589Y-59297000D01*
X124746411Y-59297000D01*
X125013989Y-59243775D01*
X125266043Y-59139371D01*
X125492886Y-58987799D01*
X125685799Y-58794886D01*
X125837371Y-58568043D01*
X125941775Y-58315989D01*
X125995000Y-58048411D01*
X125995000Y-57775589D01*
X125941775Y-57508011D01*
X125837371Y-57255957D01*
X125685799Y-57029114D01*
X125492886Y-56836201D01*
X125266043Y-56684629D01*
X125013989Y-56580225D01*
X124746411Y-56527000D01*
X124473589Y-56527000D01*
X124206011Y-56580225D01*
X123953957Y-56684629D01*
X123727114Y-56836201D01*
X123534201Y-57029114D01*
X123382629Y-57255957D01*
X123278225Y-57508011D01*
X123225000Y-57775589D01*
X119495000Y-57775589D01*
X119441775Y-57508011D01*
X119337371Y-57255957D01*
X119185799Y-57029114D01*
X118992886Y-56836201D01*
X118766043Y-56684629D01*
X118513989Y-56580225D01*
X118246411Y-56527000D01*
X117973589Y-56527000D01*
X117706011Y-56580225D01*
X117453957Y-56684629D01*
X117227114Y-56836201D01*
X117096000Y-56967315D01*
X117096000Y-54605608D01*
X117154193Y-54547415D01*
X117249956Y-54811814D01*
X117539571Y-54952704D01*
X117851108Y-55034384D01*
X118172595Y-55053718D01*
X118491675Y-55009961D01*
X118796088Y-54904795D01*
X118970044Y-54811814D01*
X119065808Y-54547413D01*
X123654192Y-54547413D01*
X123749956Y-54811814D01*
X124039571Y-54952704D01*
X124351108Y-55034384D01*
X124672595Y-55053718D01*
X124991675Y-55009961D01*
X125296088Y-54904795D01*
X125470044Y-54811814D01*
X125565808Y-54547413D01*
X124610000Y-53591605D01*
X123654192Y-54547413D01*
X119065808Y-54547413D01*
X118110000Y-53591605D01*
X118095858Y-53605748D01*
X117916253Y-53426143D01*
X117930395Y-53412000D01*
X118289605Y-53412000D01*
X119245413Y-54367808D01*
X119509814Y-54272044D01*
X119650704Y-53982429D01*
X119732384Y-53670892D01*
X119744189Y-53474595D01*
X122968282Y-53474595D01*
X123012039Y-53793675D01*
X123117205Y-54098088D01*
X123210186Y-54272044D01*
X123474587Y-54367808D01*
X124430395Y-53412000D01*
X124789605Y-53412000D01*
X125745413Y-54367808D01*
X126009814Y-54272044D01*
X126150704Y-53982429D01*
X126232384Y-53670892D01*
X126251718Y-53349405D01*
X126207961Y-53030325D01*
X126102795Y-52725912D01*
X126009814Y-52551956D01*
X125745413Y-52456192D01*
X124789605Y-53412000D01*
X124430395Y-53412000D01*
X123474587Y-52456192D01*
X123210186Y-52551956D01*
X123069296Y-52841571D01*
X122987616Y-53153108D01*
X122968282Y-53474595D01*
X119744189Y-53474595D01*
X119751718Y-53349405D01*
X119707961Y-53030325D01*
X119602795Y-52725912D01*
X119509814Y-52551956D01*
X119245413Y-52456192D01*
X118289605Y-53412000D01*
X117930395Y-53412000D01*
X117916253Y-53397858D01*
X118095858Y-53218253D01*
X118110000Y-53232395D01*
X119065808Y-52276587D01*
X123654192Y-52276587D01*
X124610000Y-53232395D01*
X125565808Y-52276587D01*
X125470044Y-52012186D01*
X125180429Y-51871296D01*
X124868892Y-51789616D01*
X124547405Y-51770282D01*
X124228325Y-51814039D01*
X123923912Y-51919205D01*
X123749956Y-52012186D01*
X123654192Y-52276587D01*
X119065808Y-52276587D01*
X118970044Y-52012186D01*
X118680429Y-51871296D01*
X118368892Y-51789616D01*
X118047405Y-51770282D01*
X117728325Y-51814039D01*
X117423912Y-51919205D01*
X117249956Y-52012186D01*
X117154193Y-52276585D01*
X117038525Y-52160917D01*
X116964345Y-52235097D01*
X116964336Y-52235087D01*
X116948369Y-52215631D01*
X116928913Y-52199664D01*
X114323000Y-49593752D01*
X114323000Y-49452684D01*
X114292833Y-49301024D01*
X114233658Y-49158163D01*
X114147749Y-49029592D01*
X114048000Y-48929843D01*
X114048000Y-48124588D01*
X116651999Y-48124588D01*
X116651999Y-48397410D01*
X116705224Y-48664988D01*
X116809628Y-48917042D01*
X116961200Y-49143885D01*
X117154113Y-49336798D01*
X117380956Y-49488370D01*
X117633010Y-49592774D01*
X117900588Y-49645999D01*
X118173410Y-49645999D01*
X118440988Y-49592774D01*
X118693042Y-49488370D01*
X118919885Y-49336798D01*
X119112798Y-49143885D01*
X119264370Y-48917042D01*
X119368774Y-48664988D01*
X119421999Y-48397410D01*
X119421999Y-48124588D01*
X123151999Y-48124588D01*
X123151999Y-48397410D01*
X123205224Y-48664988D01*
X123309628Y-48917042D01*
X123461200Y-49143885D01*
X123654113Y-49336798D01*
X123880956Y-49488370D01*
X124133010Y-49592774D01*
X124400588Y-49645999D01*
X124673410Y-49645999D01*
X124940988Y-49592774D01*
X125193042Y-49488370D01*
X125419885Y-49336798D01*
X125612798Y-49143885D01*
X125764370Y-48917042D01*
X125868774Y-48664988D01*
X125921999Y-48397410D01*
X125921999Y-48124588D01*
X125868774Y-47857010D01*
X125764370Y-47604956D01*
X125612798Y-47378113D01*
X125419885Y-47185200D01*
X125193042Y-47033628D01*
X124940988Y-46929224D01*
X124673410Y-46875999D01*
X124400588Y-46875999D01*
X124133010Y-46929224D01*
X123880956Y-47033628D01*
X123654113Y-47185200D01*
X123461200Y-47378113D01*
X123309628Y-47604956D01*
X123205224Y-47857010D01*
X123151999Y-48124588D01*
X119421999Y-48124588D01*
X119368774Y-47857010D01*
X119264370Y-47604956D01*
X119112798Y-47378113D01*
X118919885Y-47185200D01*
X118693042Y-47033628D01*
X118440988Y-46929224D01*
X118173410Y-46875999D01*
X117900588Y-46875999D01*
X117633010Y-46929224D01*
X117380956Y-47033628D01*
X117154113Y-47185200D01*
X116961200Y-47378113D01*
X116809628Y-47604956D01*
X116705224Y-47857010D01*
X116651999Y-48124588D01*
X114048000Y-48124588D01*
X114048000Y-44896412D01*
X117081191Y-44896412D01*
X117176955Y-45160813D01*
X117466570Y-45301703D01*
X117778107Y-45383383D01*
X118099594Y-45402717D01*
X118418674Y-45358960D01*
X118723087Y-45253794D01*
X118897043Y-45160813D01*
X118992807Y-44896412D01*
X123581191Y-44896412D01*
X123676955Y-45160813D01*
X123966570Y-45301703D01*
X124278107Y-45383383D01*
X124599594Y-45402717D01*
X124918674Y-45358960D01*
X125223087Y-45253794D01*
X125397043Y-45160813D01*
X125492807Y-44896412D01*
X124536999Y-43940604D01*
X123581191Y-44896412D01*
X118992807Y-44896412D01*
X118036999Y-43940604D01*
X117081191Y-44896412D01*
X114048000Y-44896412D01*
X114048000Y-43823594D01*
X116395281Y-43823594D01*
X116439038Y-44142674D01*
X116544204Y-44447087D01*
X116637185Y-44621043D01*
X116901586Y-44716807D01*
X117857394Y-43760999D01*
X118216604Y-43760999D01*
X119172412Y-44716807D01*
X119436813Y-44621043D01*
X119577703Y-44331428D01*
X119659383Y-44019891D01*
X119671188Y-43823594D01*
X122895281Y-43823594D01*
X122939038Y-44142674D01*
X123044204Y-44447087D01*
X123137185Y-44621043D01*
X123401586Y-44716807D01*
X124357394Y-43760999D01*
X124716604Y-43760999D01*
X125672412Y-44716807D01*
X125936813Y-44621043D01*
X126077703Y-44331428D01*
X126159383Y-44019891D01*
X126178717Y-43698404D01*
X126134960Y-43379324D01*
X126029794Y-43074911D01*
X125936813Y-42900955D01*
X125672412Y-42805191D01*
X124716604Y-43760999D01*
X124357394Y-43760999D01*
X123401586Y-42805191D01*
X123137185Y-42900955D01*
X122996295Y-43190570D01*
X122914615Y-43502107D01*
X122895281Y-43823594D01*
X119671188Y-43823594D01*
X119678717Y-43698404D01*
X119634960Y-43379324D01*
X119529794Y-43074911D01*
X119436813Y-42900955D01*
X119172412Y-42805191D01*
X118216604Y-43760999D01*
X117857394Y-43760999D01*
X116901586Y-42805191D01*
X116637185Y-42900955D01*
X116496295Y-43190570D01*
X116414615Y-43502107D01*
X116395281Y-43823594D01*
X114048000Y-43823594D01*
X114048000Y-42625586D01*
X117081191Y-42625586D01*
X118036999Y-43581394D01*
X118992807Y-42625586D01*
X123581191Y-42625586D01*
X124536999Y-43581394D01*
X125492807Y-42625586D01*
X125397043Y-42361185D01*
X125107428Y-42220295D01*
X124795891Y-42138615D01*
X124474404Y-42119281D01*
X124155324Y-42163038D01*
X123850911Y-42268204D01*
X123676955Y-42361185D01*
X123581191Y-42625586D01*
X118992807Y-42625586D01*
X118897043Y-42361185D01*
X118607428Y-42220295D01*
X118295891Y-42138615D01*
X117974404Y-42119281D01*
X117655324Y-42163038D01*
X117350911Y-42268204D01*
X117176955Y-42361185D01*
X117081191Y-42625586D01*
X114048000Y-42625586D01*
X114048000Y-37116665D01*
X119183000Y-37116665D01*
X119183000Y-37399335D01*
X119238147Y-37676574D01*
X119346320Y-37937727D01*
X119503363Y-38172759D01*
X119703241Y-38372637D01*
X119935759Y-38528000D01*
X119703241Y-38683363D01*
X119503363Y-38883241D01*
X119346320Y-39118273D01*
X119238147Y-39379426D01*
X119183000Y-39656665D01*
X119183000Y-39939335D01*
X119238147Y-40216574D01*
X119346320Y-40477727D01*
X119503363Y-40712759D01*
X119703241Y-40912637D01*
X119938273Y-41069680D01*
X120199426Y-41177853D01*
X120476665Y-41233000D01*
X120759335Y-41233000D01*
X121036574Y-41177853D01*
X121297727Y-41069680D01*
X121532759Y-40912637D01*
X121732637Y-40712759D01*
X121889680Y-40477727D01*
X121997853Y-40216574D01*
X122053000Y-39939335D01*
X122053000Y-39656665D01*
X121997853Y-39379426D01*
X121889680Y-39118273D01*
X121732637Y-38883241D01*
X121532759Y-38683363D01*
X121300241Y-38528000D01*
X121532759Y-38372637D01*
X121732637Y-38172759D01*
X121889680Y-37937727D01*
X121997853Y-37676574D01*
X122053000Y-37399335D01*
X122053000Y-37116665D01*
X121997853Y-36839426D01*
X121889680Y-36578273D01*
X121732637Y-36343241D01*
X121532759Y-36143363D01*
X121517308Y-36133039D01*
X121609461Y-35889066D01*
X120618000Y-34897605D01*
X119626539Y-35889066D01*
X119718692Y-36133039D01*
X119703241Y-36143363D01*
X119503363Y-36343241D01*
X119346320Y-36578273D01*
X119238147Y-36839426D01*
X119183000Y-37116665D01*
X114048000Y-37116665D01*
X114048000Y-34778617D01*
X118925934Y-34778617D01*
X118970272Y-35107557D01*
X119077931Y-35421527D01*
X119177421Y-35607661D01*
X119446934Y-35709461D01*
X120438395Y-34718000D01*
X120797605Y-34718000D01*
X121789066Y-35709461D01*
X122058579Y-35607661D01*
X122204463Y-35309523D01*
X122289380Y-34988654D01*
X122310066Y-34657383D01*
X122265728Y-34328443D01*
X122158069Y-34014473D01*
X122058579Y-33828339D01*
X121789066Y-33726539D01*
X120797605Y-34718000D01*
X120438395Y-34718000D01*
X119446934Y-33726539D01*
X119177421Y-33828339D01*
X119031537Y-34126477D01*
X118946620Y-34447346D01*
X118925934Y-34778617D01*
X114048000Y-34778617D01*
X114048000Y-33546934D01*
X119626539Y-33546934D01*
X120618000Y-34538395D01*
X121609461Y-33546934D01*
X121507661Y-33277421D01*
X121209523Y-33131537D01*
X120888654Y-33046620D01*
X120557383Y-33025934D01*
X120228443Y-33070272D01*
X119914473Y-33177931D01*
X119728339Y-33277421D01*
X119626539Y-33546934D01*
X114048000Y-33546934D01*
X114048000Y-32469248D01*
X115506249Y-31011000D01*
X115647316Y-31011000D01*
X115798976Y-30980833D01*
X115941837Y-30921658D01*
X116070408Y-30835749D01*
X116179749Y-30726408D01*
X116265658Y-30597837D01*
X116324833Y-30454976D01*
X116355000Y-30303316D01*
X116355000Y-30148684D01*
X116324833Y-29997024D01*
X116265658Y-29854163D01*
X116179749Y-29725592D01*
X116070408Y-29616251D01*
X115941837Y-29530342D01*
X115798976Y-29471167D01*
X115647316Y-29441000D01*
X115492684Y-29441000D01*
X115341024Y-29471167D01*
X115198163Y-29530342D01*
X115069592Y-29616251D01*
X114960251Y-29725592D01*
X114874342Y-29854163D01*
X114815167Y-29997024D01*
X114785000Y-30148684D01*
X114785000Y-30289751D01*
X114295862Y-30778889D01*
X114295862Y-29587001D01*
X114288429Y-29511528D01*
X114266414Y-29438955D01*
X114230664Y-29372072D01*
X114201509Y-29336545D01*
X117147061Y-29336545D01*
X117244032Y-29601968D01*
X117535353Y-29743856D01*
X117848757Y-29826185D01*
X118172200Y-29845789D01*
X118493253Y-29801916D01*
X118799578Y-29696251D01*
X118975968Y-29601968D01*
X119072939Y-29336545D01*
X118110000Y-28373605D01*
X117147061Y-29336545D01*
X114201509Y-29336545D01*
X114182553Y-29313448D01*
X114123929Y-29265337D01*
X114057046Y-29229587D01*
X113984473Y-29207572D01*
X113909000Y-29200139D01*
X112409000Y-29200139D01*
X112333527Y-29207572D01*
X112260954Y-29229587D01*
X112194071Y-29265337D01*
X112135447Y-29313448D01*
X112087336Y-29372072D01*
X112051586Y-29438955D01*
X112029571Y-29511528D01*
X112022138Y-29587001D01*
X112022138Y-31087001D01*
X112029571Y-31162474D01*
X112051586Y-31235047D01*
X112087336Y-31301930D01*
X112135447Y-31360554D01*
X112194071Y-31408665D01*
X112260954Y-31444415D01*
X112333527Y-31466430D01*
X112409000Y-31473863D01*
X113600889Y-31473863D01*
X113195088Y-31879664D01*
X113175632Y-31895631D01*
X113159665Y-31915087D01*
X113159664Y-31915088D01*
X113111900Y-31973289D01*
X113064542Y-32061888D01*
X113035381Y-32158023D01*
X113025533Y-32258000D01*
X113028001Y-32283055D01*
X113028000Y-48298752D01*
X112138341Y-47409093D01*
X112122369Y-47389631D01*
X112044711Y-47325899D01*
X111956113Y-47278542D01*
X111859977Y-47249380D01*
X111785048Y-47242000D01*
X111785045Y-47242000D01*
X111760000Y-47239533D01*
X111734955Y-47242000D01*
X106772157Y-47242000D01*
X106672408Y-47142251D01*
X106543837Y-47056342D01*
X106400976Y-46997167D01*
X106249316Y-46967000D01*
X106094684Y-46967000D01*
X105943024Y-46997167D01*
X105800163Y-47056342D01*
X105671592Y-47142251D01*
X105562251Y-47251592D01*
X105476342Y-47380163D01*
X105417167Y-47523024D01*
X105387000Y-47674684D01*
X105387000Y-47829316D01*
X105417167Y-47980976D01*
X105476342Y-48123837D01*
X105562251Y-48252408D01*
X105671592Y-48361749D01*
X105800163Y-48447658D01*
X105943024Y-48506833D01*
X106094684Y-48537000D01*
X106249316Y-48537000D01*
X106400976Y-48506833D01*
X106543837Y-48447658D01*
X106672408Y-48361749D01*
X106772157Y-48262000D01*
X110189439Y-48262000D01*
X110135167Y-48393024D01*
X110105000Y-48544684D01*
X110105000Y-48699316D01*
X110135167Y-48850976D01*
X110194342Y-48993837D01*
X110280251Y-49122408D01*
X110380000Y-49222157D01*
X110380001Y-55014750D01*
X108754752Y-56640000D01*
X105435048Y-56640000D01*
X105410000Y-56637533D01*
X105310022Y-56647380D01*
X105213887Y-56676542D01*
X105125289Y-56723899D01*
X105047631Y-56787631D01*
X105031664Y-56807087D01*
X102797229Y-59041523D01*
X102722236Y-59010460D01*
X102483637Y-58963000D01*
X102240363Y-58963000D01*
X102001764Y-59010460D01*
X101777008Y-59103557D01*
X101574733Y-59238713D01*
X101402713Y-59410733D01*
X101267557Y-59613008D01*
X101174460Y-59837764D01*
X101127000Y-60076363D01*
X101127000Y-60319637D01*
X101174460Y-60558236D01*
X101267557Y-60782992D01*
X101402713Y-60985267D01*
X101574733Y-61157287D01*
X101777008Y-61292443D01*
X101879120Y-61334739D01*
X101857901Y-61341175D01*
X101595080Y-61466359D01*
X101361731Y-61640412D01*
X101166822Y-61856645D01*
X101017843Y-62106748D01*
X100920519Y-62381109D01*
X67244000Y-62381109D01*
X67244000Y-59449001D01*
X75508139Y-59449001D01*
X75508139Y-61249001D01*
X75515572Y-61324474D01*
X75537587Y-61397047D01*
X75573337Y-61463930D01*
X75621448Y-61522554D01*
X75680072Y-61570665D01*
X75746955Y-61606415D01*
X75819528Y-61628430D01*
X75895001Y-61635863D01*
X77695001Y-61635863D01*
X77770474Y-61628430D01*
X77843047Y-61606415D01*
X77909930Y-61570665D01*
X77968554Y-61522554D01*
X78016665Y-61463930D01*
X78052415Y-61397047D01*
X78074430Y-61324474D01*
X78081863Y-61249001D01*
X78081863Y-60635746D01*
X78099382Y-60723822D01*
X78196248Y-60957677D01*
X78336876Y-61168141D01*
X78515861Y-61347126D01*
X78726325Y-61487754D01*
X78960180Y-61584620D01*
X79208440Y-61634001D01*
X79461562Y-61634001D01*
X79709822Y-61584620D01*
X79943677Y-61487754D01*
X80154141Y-61347126D01*
X80333126Y-61168141D01*
X80473754Y-60957677D01*
X80570620Y-60723822D01*
X80620001Y-60475562D01*
X80620001Y-60222440D01*
X80570620Y-59974180D01*
X80473754Y-59740325D01*
X80333126Y-59529861D01*
X80252266Y-59449001D01*
X83008139Y-59449001D01*
X83008139Y-61249001D01*
X83015572Y-61324474D01*
X83037587Y-61397047D01*
X83073337Y-61463930D01*
X83121448Y-61522554D01*
X83180072Y-61570665D01*
X83246955Y-61606415D01*
X83319528Y-61628430D01*
X83395001Y-61635863D01*
X85195001Y-61635863D01*
X85270474Y-61628430D01*
X85343047Y-61606415D01*
X85409930Y-61570665D01*
X85468554Y-61522554D01*
X85516665Y-61463930D01*
X85552415Y-61397047D01*
X85574430Y-61324474D01*
X85581863Y-61249001D01*
X85581863Y-60635746D01*
X85599382Y-60723822D01*
X85696248Y-60957677D01*
X85836876Y-61168141D01*
X86015861Y-61347126D01*
X86226325Y-61487754D01*
X86460180Y-61584620D01*
X86708440Y-61634001D01*
X86961562Y-61634001D01*
X87209822Y-61584620D01*
X87443677Y-61487754D01*
X87654141Y-61347126D01*
X87833126Y-61168141D01*
X87973754Y-60957677D01*
X88070620Y-60723822D01*
X88120001Y-60475562D01*
X88120001Y-60222440D01*
X88070620Y-59974180D01*
X87973754Y-59740325D01*
X87833126Y-59529861D01*
X87752266Y-59449001D01*
X90407138Y-59449001D01*
X90407138Y-61249001D01*
X90414571Y-61324474D01*
X90436586Y-61397047D01*
X90472336Y-61463930D01*
X90520447Y-61522554D01*
X90579071Y-61570665D01*
X90645954Y-61606415D01*
X90718527Y-61628430D01*
X90794000Y-61635863D01*
X92594000Y-61635863D01*
X92669473Y-61628430D01*
X92742046Y-61606415D01*
X92808929Y-61570665D01*
X92867553Y-61522554D01*
X92915664Y-61463930D01*
X92951414Y-61397047D01*
X92973429Y-61324474D01*
X92980862Y-61249001D01*
X92980862Y-60635746D01*
X92998381Y-60723822D01*
X93095247Y-60957677D01*
X93235875Y-61168141D01*
X93414860Y-61347126D01*
X93625324Y-61487754D01*
X93859179Y-61584620D01*
X94107439Y-61634001D01*
X94360561Y-61634001D01*
X94608821Y-61584620D01*
X94842676Y-61487754D01*
X95053140Y-61347126D01*
X95232125Y-61168141D01*
X95372753Y-60957677D01*
X95469619Y-60723822D01*
X95519000Y-60475562D01*
X95519000Y-60222440D01*
X95469619Y-59974180D01*
X95372753Y-59740325D01*
X95232125Y-59529861D01*
X95053140Y-59350876D01*
X94842676Y-59210248D01*
X94608821Y-59113382D01*
X94360561Y-59064001D01*
X94107439Y-59064001D01*
X93859179Y-59113382D01*
X93625324Y-59210248D01*
X93414860Y-59350876D01*
X93235875Y-59529861D01*
X93095247Y-59740325D01*
X92998381Y-59974180D01*
X92980862Y-60062256D01*
X92980862Y-59449001D01*
X92973429Y-59373528D01*
X92951414Y-59300955D01*
X92915664Y-59234072D01*
X92867553Y-59175448D01*
X92808929Y-59127337D01*
X92742046Y-59091587D01*
X92669473Y-59069572D01*
X92594000Y-59062139D01*
X90794000Y-59062139D01*
X90718527Y-59069572D01*
X90645954Y-59091587D01*
X90579071Y-59127337D01*
X90520447Y-59175448D01*
X90472336Y-59234072D01*
X90436586Y-59300955D01*
X90414571Y-59373528D01*
X90407138Y-59449001D01*
X87752266Y-59449001D01*
X87654141Y-59350876D01*
X87443677Y-59210248D01*
X87209822Y-59113382D01*
X86961562Y-59064001D01*
X86708440Y-59064001D01*
X86460180Y-59113382D01*
X86226325Y-59210248D01*
X86015861Y-59350876D01*
X85836876Y-59529861D01*
X85696248Y-59740325D01*
X85599382Y-59974180D01*
X85581863Y-60062256D01*
X85581863Y-59449001D01*
X85574430Y-59373528D01*
X85552415Y-59300955D01*
X85516665Y-59234072D01*
X85468554Y-59175448D01*
X85409930Y-59127337D01*
X85343047Y-59091587D01*
X85270474Y-59069572D01*
X85195001Y-59062139D01*
X83395001Y-59062139D01*
X83319528Y-59069572D01*
X83246955Y-59091587D01*
X83180072Y-59127337D01*
X83121448Y-59175448D01*
X83073337Y-59234072D01*
X83037587Y-59300955D01*
X83015572Y-59373528D01*
X83008139Y-59449001D01*
X80252266Y-59449001D01*
X80154141Y-59350876D01*
X79943677Y-59210248D01*
X79709822Y-59113382D01*
X79461562Y-59064001D01*
X79208440Y-59064001D01*
X78960180Y-59113382D01*
X78726325Y-59210248D01*
X78515861Y-59350876D01*
X78336876Y-59529861D01*
X78196248Y-59740325D01*
X78099382Y-59974180D01*
X78081863Y-60062256D01*
X78081863Y-59449001D01*
X78074430Y-59373528D01*
X78052415Y-59300955D01*
X78016665Y-59234072D01*
X77968554Y-59175448D01*
X77909930Y-59127337D01*
X77843047Y-59091587D01*
X77770474Y-59069572D01*
X77695001Y-59062139D01*
X75895001Y-59062139D01*
X75819528Y-59069572D01*
X75746955Y-59091587D01*
X75680072Y-59127337D01*
X75621448Y-59175448D01*
X75573337Y-59234072D01*
X75537587Y-59300955D01*
X75515572Y-59373528D01*
X75508139Y-59449001D01*
X67244000Y-59449001D01*
X67244000Y-51453167D01*
X81191000Y-51453167D01*
X81191000Y-51670833D01*
X81233464Y-51884317D01*
X81316761Y-52085414D01*
X81437690Y-52266397D01*
X81591603Y-52420310D01*
X81772586Y-52541239D01*
X81973683Y-52624536D01*
X82187167Y-52667000D01*
X82404833Y-52667000D01*
X82618317Y-52624536D01*
X82819414Y-52541239D01*
X83000397Y-52420310D01*
X83154310Y-52266397D01*
X83275239Y-52085414D01*
X83358536Y-51884317D01*
X83401000Y-51670833D01*
X83401000Y-51516684D01*
X91957000Y-51516684D01*
X91957000Y-51671316D01*
X91987167Y-51822976D01*
X92046342Y-51965837D01*
X92132251Y-52094408D01*
X92241592Y-52203749D01*
X92370163Y-52289658D01*
X92513024Y-52348833D01*
X92664684Y-52379000D01*
X92819316Y-52379000D01*
X92970976Y-52348833D01*
X93113837Y-52289658D01*
X93242408Y-52203749D01*
X93342157Y-52104000D01*
X106301843Y-52104000D01*
X106401592Y-52203749D01*
X106530163Y-52289658D01*
X106673024Y-52348833D01*
X106824684Y-52379000D01*
X106979316Y-52379000D01*
X107130976Y-52348833D01*
X107273837Y-52289658D01*
X107402408Y-52203749D01*
X107511749Y-52094408D01*
X107597658Y-51965837D01*
X107656833Y-51822976D01*
X107687000Y-51671316D01*
X107687000Y-51516684D01*
X107656833Y-51365024D01*
X107597658Y-51222163D01*
X107511749Y-51093592D01*
X107402408Y-50984251D01*
X107273837Y-50898342D01*
X107130976Y-50839167D01*
X106979316Y-50809000D01*
X106824684Y-50809000D01*
X106673024Y-50839167D01*
X106530163Y-50898342D01*
X106401592Y-50984251D01*
X106301843Y-51084000D01*
X93342157Y-51084000D01*
X93242408Y-50984251D01*
X93113837Y-50898342D01*
X92970976Y-50839167D01*
X92819316Y-50809000D01*
X92664684Y-50809000D01*
X92513024Y-50839167D01*
X92370163Y-50898342D01*
X92241592Y-50984251D01*
X92132251Y-51093592D01*
X92046342Y-51222163D01*
X91987167Y-51365024D01*
X91957000Y-51516684D01*
X83401000Y-51516684D01*
X83401000Y-51453167D01*
X83358536Y-51239683D01*
X83275239Y-51038586D01*
X83154310Y-50857603D01*
X83000397Y-50703690D01*
X82819414Y-50582761D01*
X82618317Y-50499464D01*
X82404833Y-50457000D01*
X82187167Y-50457000D01*
X81973683Y-50499464D01*
X81772586Y-50582761D01*
X81591603Y-50703690D01*
X81437690Y-50857603D01*
X81316761Y-51038586D01*
X81233464Y-51239683D01*
X81191000Y-51453167D01*
X67244000Y-51453167D01*
X67244000Y-49957560D01*
X84080045Y-49957560D01*
X84141932Y-50193368D01*
X84383790Y-50306266D01*
X84643027Y-50369811D01*
X84909680Y-50381561D01*
X85173501Y-50341063D01*
X85424353Y-50249875D01*
X85530068Y-50193368D01*
X85591955Y-49957560D01*
X84836000Y-49201605D01*
X84080045Y-49957560D01*
X67244000Y-49957560D01*
X67244000Y-49095680D01*
X83476439Y-49095680D01*
X83516937Y-49359501D01*
X83608125Y-49610353D01*
X83664632Y-49716068D01*
X83900440Y-49777955D01*
X84656395Y-49022000D01*
X85015605Y-49022000D01*
X85771560Y-49777955D01*
X86007368Y-49716068D01*
X86120266Y-49474210D01*
X86183811Y-49214973D01*
X86195561Y-48948320D01*
X86156013Y-48690684D01*
X98021000Y-48690684D01*
X98021000Y-48845316D01*
X98051167Y-48996976D01*
X98110342Y-49139837D01*
X98196251Y-49268408D01*
X98305592Y-49377749D01*
X98434163Y-49463658D01*
X98577024Y-49522833D01*
X98728684Y-49553000D01*
X98883316Y-49553000D01*
X99034976Y-49522833D01*
X99177837Y-49463658D01*
X99306408Y-49377749D01*
X99406157Y-49278000D01*
X101761843Y-49278000D01*
X101861592Y-49377749D01*
X101990163Y-49463658D01*
X102133024Y-49522833D01*
X102284684Y-49553000D01*
X102439316Y-49553000D01*
X102590976Y-49522833D01*
X102733837Y-49463658D01*
X102862408Y-49377749D01*
X102971749Y-49268408D01*
X103057658Y-49139837D01*
X103116833Y-48996976D01*
X103147000Y-48845316D01*
X103147000Y-48690684D01*
X103116833Y-48539024D01*
X103057658Y-48396163D01*
X102971749Y-48267592D01*
X102862408Y-48158251D01*
X102733837Y-48072342D01*
X102590976Y-48013167D01*
X102439316Y-47983000D01*
X102284684Y-47983000D01*
X102133024Y-48013167D01*
X101990163Y-48072342D01*
X101861592Y-48158251D01*
X101761843Y-48258000D01*
X99406157Y-48258000D01*
X99306408Y-48158251D01*
X99177837Y-48072342D01*
X99034976Y-48013167D01*
X98883316Y-47983000D01*
X98728684Y-47983000D01*
X98577024Y-48013167D01*
X98434163Y-48072342D01*
X98305592Y-48158251D01*
X98196251Y-48267592D01*
X98110342Y-48396163D01*
X98051167Y-48539024D01*
X98021000Y-48690684D01*
X86156013Y-48690684D01*
X86155063Y-48684499D01*
X86063875Y-48433647D01*
X86007368Y-48327932D01*
X85771560Y-48266045D01*
X85015605Y-49022000D01*
X84656395Y-49022000D01*
X83900440Y-48266045D01*
X83664632Y-48327932D01*
X83551734Y-48569790D01*
X83488189Y-48829027D01*
X83476439Y-49095680D01*
X67244000Y-49095680D01*
X67244000Y-48086440D01*
X84080045Y-48086440D01*
X84836000Y-48842395D01*
X85591955Y-48086440D01*
X85530068Y-47850632D01*
X85288210Y-47737734D01*
X85028973Y-47674189D01*
X84762320Y-47662439D01*
X84498499Y-47702937D01*
X84247647Y-47794125D01*
X84141932Y-47850632D01*
X84080045Y-48086440D01*
X67244000Y-48086440D01*
X67244000Y-46373167D01*
X81191000Y-46373167D01*
X81191000Y-46590833D01*
X81233464Y-46804317D01*
X81316761Y-47005414D01*
X81437690Y-47186397D01*
X81591603Y-47340310D01*
X81772586Y-47461239D01*
X81973683Y-47544536D01*
X82187167Y-47587000D01*
X82404833Y-47587000D01*
X82618317Y-47544536D01*
X82819414Y-47461239D01*
X83000397Y-47340310D01*
X83154310Y-47186397D01*
X83275239Y-47005414D01*
X83358536Y-46804317D01*
X83401000Y-46590833D01*
X83401000Y-46373167D01*
X83358536Y-46159683D01*
X83275239Y-45958586D01*
X83154310Y-45777603D01*
X83000397Y-45623690D01*
X82819414Y-45502761D01*
X82618317Y-45419464D01*
X82404833Y-45377000D01*
X82187167Y-45377000D01*
X81973683Y-45419464D01*
X81772586Y-45502761D01*
X81591603Y-45623690D01*
X81437690Y-45777603D01*
X81316761Y-45958586D01*
X81233464Y-46159683D01*
X81191000Y-46373167D01*
X67244000Y-46373167D01*
X67244000Y-44880684D01*
X87607000Y-44880684D01*
X87607000Y-45035316D01*
X87637167Y-45186976D01*
X87696342Y-45329837D01*
X87782251Y-45458408D01*
X87891592Y-45567749D01*
X88020163Y-45653658D01*
X88163024Y-45712833D01*
X88314684Y-45743000D01*
X88469316Y-45743000D01*
X88620976Y-45712833D01*
X88763837Y-45653658D01*
X88892408Y-45567749D01*
X89001749Y-45458408D01*
X89087658Y-45329837D01*
X89146833Y-45186976D01*
X89177000Y-45035316D01*
X89177000Y-45034248D01*
X90938249Y-43273000D01*
X91079316Y-43273000D01*
X91230976Y-43242833D01*
X91373837Y-43183658D01*
X91502408Y-43097749D01*
X91602157Y-42998000D01*
X103101843Y-42998000D01*
X103201592Y-43097749D01*
X103330163Y-43183658D01*
X103473024Y-43242833D01*
X103624684Y-43273000D01*
X103779316Y-43273000D01*
X103930976Y-43242833D01*
X104073837Y-43183658D01*
X104202408Y-43097749D01*
X104311749Y-42988408D01*
X104397658Y-42859837D01*
X104456833Y-42716976D01*
X104487000Y-42565316D01*
X104487000Y-42410684D01*
X104456833Y-42259024D01*
X104397658Y-42116163D01*
X104311749Y-41987592D01*
X104202408Y-41878251D01*
X104073837Y-41792342D01*
X103930976Y-41733167D01*
X103779316Y-41703000D01*
X103624684Y-41703000D01*
X103473024Y-41733167D01*
X103330163Y-41792342D01*
X103201592Y-41878251D01*
X103101843Y-41978000D01*
X91602157Y-41978000D01*
X91502408Y-41878251D01*
X91373837Y-41792342D01*
X91230976Y-41733167D01*
X91079316Y-41703000D01*
X90924684Y-41703000D01*
X90773024Y-41733167D01*
X90630163Y-41792342D01*
X90501592Y-41878251D01*
X90392251Y-41987592D01*
X90306342Y-42116163D01*
X90247167Y-42259024D01*
X90217000Y-42410684D01*
X90217000Y-42551751D01*
X88574775Y-44193977D01*
X88469316Y-44173000D01*
X88314684Y-44173000D01*
X88163024Y-44203167D01*
X88020163Y-44262342D01*
X87891592Y-44348251D01*
X87782251Y-44457592D01*
X87696342Y-44586163D01*
X87637167Y-44729024D01*
X87607000Y-44880684D01*
X67244000Y-44880684D01*
X67244000Y-37096000D01*
X80622138Y-37096000D01*
X80622138Y-38596000D01*
X80629571Y-38671473D01*
X80651586Y-38744046D01*
X80687336Y-38810929D01*
X80735447Y-38869553D01*
X80794071Y-38917664D01*
X80860954Y-38953414D01*
X80933527Y-38975429D01*
X81009000Y-38982862D01*
X82059000Y-38982862D01*
X82134473Y-38975429D01*
X82207046Y-38953414D01*
X82268715Y-38920451D01*
X82293000Y-38933432D01*
X82414816Y-38970385D01*
X82541500Y-38982862D01*
X83045027Y-38982862D01*
X83097815Y-39047185D01*
X83194506Y-39126537D01*
X83304820Y-39185502D01*
X83424518Y-39221812D01*
X83549000Y-39234072D01*
X83788250Y-39231000D01*
X83947000Y-39072250D01*
X83947000Y-37973000D01*
X84201000Y-37973000D01*
X84201000Y-39072250D01*
X84359750Y-39231000D01*
X84599000Y-39234072D01*
X84723482Y-39221812D01*
X84843180Y-39185502D01*
X84953494Y-39126537D01*
X85050185Y-39047185D01*
X85129537Y-38950494D01*
X85188502Y-38840180D01*
X85224812Y-38720482D01*
X85237072Y-38596000D01*
X85234000Y-38131750D01*
X85075250Y-37973000D01*
X84201000Y-37973000D01*
X83947000Y-37973000D01*
X83927000Y-37973000D01*
X83927000Y-37719000D01*
X83947000Y-37719000D01*
X83947000Y-36619750D01*
X84201000Y-36619750D01*
X84201000Y-37719000D01*
X85075250Y-37719000D01*
X85234000Y-37560250D01*
X85234529Y-37480212D01*
X95639000Y-37480212D01*
X95639000Y-37703788D01*
X95682617Y-37923067D01*
X95768176Y-38129624D01*
X95892388Y-38315520D01*
X96050480Y-38473612D01*
X96236376Y-38597824D01*
X96442933Y-38683383D01*
X96662212Y-38727000D01*
X96885788Y-38727000D01*
X97105067Y-38683383D01*
X97311624Y-38597824D01*
X97497520Y-38473612D01*
X97655612Y-38315520D01*
X97779824Y-38129624D01*
X97865383Y-37923067D01*
X97909000Y-37703788D01*
X97909000Y-37480212D01*
X97865383Y-37260933D01*
X97843044Y-37207001D01*
X104627138Y-37207001D01*
X104627138Y-38707001D01*
X104634571Y-38782474D01*
X104656586Y-38855047D01*
X104692336Y-38921930D01*
X104740447Y-38980554D01*
X104799071Y-39028665D01*
X104865954Y-39064415D01*
X104938527Y-39086430D01*
X105014000Y-39093863D01*
X106064000Y-39093863D01*
X106139473Y-39086430D01*
X106212046Y-39064415D01*
X106273715Y-39031452D01*
X106298000Y-39044433D01*
X106419816Y-39081386D01*
X106546500Y-39093863D01*
X107050027Y-39093863D01*
X107102815Y-39158186D01*
X107199506Y-39237538D01*
X107309820Y-39296503D01*
X107429518Y-39332813D01*
X107554000Y-39345073D01*
X107793250Y-39342001D01*
X107952000Y-39183251D01*
X107952000Y-38084001D01*
X108206000Y-38084001D01*
X108206000Y-39183251D01*
X108364750Y-39342001D01*
X108604000Y-39345073D01*
X108728482Y-39332813D01*
X108848180Y-39296503D01*
X108958494Y-39237538D01*
X109055185Y-39158186D01*
X109134537Y-39061495D01*
X109193502Y-38951181D01*
X109229812Y-38831483D01*
X109242072Y-38707001D01*
X109239000Y-38242751D01*
X109080250Y-38084001D01*
X108206000Y-38084001D01*
X107952000Y-38084001D01*
X107932000Y-38084001D01*
X107932000Y-37830001D01*
X107952000Y-37830001D01*
X107952000Y-36730751D01*
X108206000Y-36730751D01*
X108206000Y-37830001D01*
X109080250Y-37830001D01*
X109239000Y-37671251D01*
X109242072Y-37207001D01*
X109229812Y-37082519D01*
X109193502Y-36962821D01*
X109134537Y-36852507D01*
X109055185Y-36755816D01*
X108958494Y-36676464D01*
X108848180Y-36617499D01*
X108728482Y-36581189D01*
X108604000Y-36568929D01*
X108364750Y-36572001D01*
X108206000Y-36730751D01*
X107952000Y-36730751D01*
X107793250Y-36572001D01*
X107554000Y-36568929D01*
X107429518Y-36581189D01*
X107309820Y-36617499D01*
X107199506Y-36676464D01*
X107102815Y-36755816D01*
X107050027Y-36820139D01*
X106546500Y-36820139D01*
X106419816Y-36832616D01*
X106298000Y-36869569D01*
X106273715Y-36882550D01*
X106212046Y-36849587D01*
X106139473Y-36827572D01*
X106064000Y-36820139D01*
X105014000Y-36820139D01*
X104938527Y-36827572D01*
X104865954Y-36849587D01*
X104799071Y-36885337D01*
X104740447Y-36933448D01*
X104692336Y-36992072D01*
X104656586Y-37058955D01*
X104634571Y-37131528D01*
X104627138Y-37207001D01*
X97843044Y-37207001D01*
X97779824Y-37054376D01*
X97655612Y-36868480D01*
X97497520Y-36710388D01*
X97311624Y-36586176D01*
X97105067Y-36500617D01*
X96885788Y-36457000D01*
X96662212Y-36457000D01*
X96442933Y-36500617D01*
X96236376Y-36586176D01*
X96050480Y-36710388D01*
X95892388Y-36868480D01*
X95768176Y-37054376D01*
X95682617Y-37260933D01*
X95639000Y-37480212D01*
X85234529Y-37480212D01*
X85237072Y-37096000D01*
X85224812Y-36971518D01*
X85188502Y-36851820D01*
X85129537Y-36741506D01*
X85050185Y-36644815D01*
X84953494Y-36565463D01*
X84843180Y-36506498D01*
X84723482Y-36470188D01*
X84599000Y-36457928D01*
X84359750Y-36461000D01*
X84201000Y-36619750D01*
X83947000Y-36619750D01*
X83788250Y-36461000D01*
X83549000Y-36457928D01*
X83424518Y-36470188D01*
X83304820Y-36506498D01*
X83194506Y-36565463D01*
X83097815Y-36644815D01*
X83045027Y-36709138D01*
X82541500Y-36709138D01*
X82414816Y-36721615D01*
X82293000Y-36758568D01*
X82268715Y-36771549D01*
X82207046Y-36738586D01*
X82134473Y-36716571D01*
X82059000Y-36709138D01*
X81009000Y-36709138D01*
X80933527Y-36716571D01*
X80860954Y-36738586D01*
X80794071Y-36774336D01*
X80735447Y-36822447D01*
X80687336Y-36881071D01*
X80651586Y-36947954D01*
X80629571Y-37020527D01*
X80622138Y-37096000D01*
X67244000Y-37096000D01*
X67244000Y-34406604D01*
X69979000Y-34406604D01*
X69979000Y-34681396D01*
X70032609Y-34950907D01*
X70137767Y-35204780D01*
X70290433Y-35433261D01*
X70484739Y-35627567D01*
X70713220Y-35780233D01*
X70967093Y-35885391D01*
X71236604Y-35939000D01*
X71511396Y-35939000D01*
X71780907Y-35885391D01*
X72034780Y-35780233D01*
X72263261Y-35627567D01*
X72457567Y-35433261D01*
X72610233Y-35204780D01*
X72644000Y-35123260D01*
X72677767Y-35204780D01*
X72830433Y-35433261D01*
X73024739Y-35627567D01*
X73253220Y-35780233D01*
X73507093Y-35885391D01*
X73776604Y-35939000D01*
X74051396Y-35939000D01*
X74320907Y-35885391D01*
X74574780Y-35780233D01*
X74803261Y-35627567D01*
X74997567Y-35433261D01*
X75150233Y-35204780D01*
X75255391Y-34950907D01*
X75309000Y-34681396D01*
X75309000Y-34406604D01*
X75255391Y-34137093D01*
X75150233Y-33883220D01*
X74997567Y-33654739D01*
X74803261Y-33460433D01*
X74574780Y-33307767D01*
X74320907Y-33202609D01*
X74051396Y-33149000D01*
X73776604Y-33149000D01*
X73507093Y-33202609D01*
X73253220Y-33307767D01*
X73024739Y-33460433D01*
X72830433Y-33654739D01*
X72677767Y-33883220D01*
X72644000Y-33964740D01*
X72610233Y-33883220D01*
X72457567Y-33654739D01*
X72263261Y-33460433D01*
X72034780Y-33307767D01*
X71780907Y-33202609D01*
X71511396Y-33149000D01*
X71236604Y-33149000D01*
X70967093Y-33202609D01*
X70713220Y-33307767D01*
X70484739Y-33460433D01*
X70290433Y-33654739D01*
X70137767Y-33883220D01*
X70032609Y-34137093D01*
X69979000Y-34406604D01*
X67244000Y-34406604D01*
X67244000Y-32766000D01*
X79098268Y-32766000D01*
X79121148Y-32998300D01*
X79188907Y-33221674D01*
X79298943Y-33427536D01*
X79447026Y-33607975D01*
X79627465Y-33756058D01*
X79833327Y-33866094D01*
X80056701Y-33933853D01*
X80230794Y-33951000D01*
X81047208Y-33951000D01*
X81221301Y-33933853D01*
X81444675Y-33866094D01*
X81650537Y-33756058D01*
X81830976Y-33607975D01*
X81979059Y-33427536D01*
X82089095Y-33221674D01*
X82121442Y-33115039D01*
X86517097Y-33115039D01*
X86534634Y-33197818D01*
X86645286Y-33457646D01*
X86804501Y-33690895D01*
X87006162Y-33888601D01*
X87242518Y-34043166D01*
X87504487Y-34148650D01*
X87782001Y-34201000D01*
X88132001Y-34201000D01*
X88132001Y-32893000D01*
X88386001Y-32893000D01*
X88386001Y-34201000D01*
X88736001Y-34201000D01*
X89013515Y-34148650D01*
X89275484Y-34043166D01*
X89511840Y-33888601D01*
X89713501Y-33690895D01*
X89728451Y-33668993D01*
X95996612Y-33668993D01*
X96062137Y-33907860D01*
X96309116Y-34023760D01*
X96573960Y-34089250D01*
X96846492Y-34101812D01*
X97116238Y-34060965D01*
X97372832Y-33968277D01*
X97485863Y-33907860D01*
X97551388Y-33668993D01*
X96774000Y-32891605D01*
X95996612Y-33668993D01*
X89728451Y-33668993D01*
X89872716Y-33457646D01*
X89983368Y-33197818D01*
X90000905Y-33115039D01*
X89878916Y-32893000D01*
X88386001Y-32893000D01*
X88132001Y-32893000D01*
X86639086Y-32893000D01*
X86517097Y-33115039D01*
X82121442Y-33115039D01*
X82156854Y-32998300D01*
X82177912Y-32784492D01*
X95384188Y-32784492D01*
X95425035Y-33054238D01*
X95517723Y-33310832D01*
X95578140Y-33423863D01*
X95817007Y-33489388D01*
X96594395Y-32712000D01*
X96953605Y-32712000D01*
X97730993Y-33489388D01*
X97969860Y-33423863D01*
X98085760Y-33176884D01*
X98151250Y-32912040D01*
X98152865Y-32877001D01*
X101103268Y-32877001D01*
X101126148Y-33109301D01*
X101193907Y-33332675D01*
X101303943Y-33538537D01*
X101452026Y-33718976D01*
X101632465Y-33867059D01*
X101838327Y-33977095D01*
X102061701Y-34044854D01*
X102235794Y-34062001D01*
X103052208Y-34062001D01*
X103226301Y-34044854D01*
X103449675Y-33977095D01*
X103655537Y-33867059D01*
X103835976Y-33718976D01*
X103984059Y-33538537D01*
X104094095Y-33332675D01*
X104126442Y-33226040D01*
X108522097Y-33226040D01*
X108539634Y-33308819D01*
X108650286Y-33568647D01*
X108809501Y-33801896D01*
X109011162Y-33999602D01*
X109247518Y-34154167D01*
X109509487Y-34259651D01*
X109787001Y-34312001D01*
X110137001Y-34312001D01*
X110137001Y-33004001D01*
X110391001Y-33004001D01*
X110391001Y-34312001D01*
X110741001Y-34312001D01*
X111018515Y-34259651D01*
X111280484Y-34154167D01*
X111516840Y-33999602D01*
X111718501Y-33801896D01*
X111877716Y-33568647D01*
X111988368Y-33308819D01*
X112005905Y-33226040D01*
X111883916Y-33004001D01*
X110391001Y-33004001D01*
X110137001Y-33004001D01*
X108644086Y-33004001D01*
X108522097Y-33226040D01*
X104126442Y-33226040D01*
X104161854Y-33109301D01*
X104184734Y-32877001D01*
X104161854Y-32644701D01*
X104094095Y-32421327D01*
X103984059Y-32215465D01*
X103835976Y-32035026D01*
X103655537Y-31886943D01*
X103449675Y-31776907D01*
X103226301Y-31709148D01*
X103052208Y-31692001D01*
X102235794Y-31692001D01*
X102061701Y-31709148D01*
X101838327Y-31776907D01*
X101632465Y-31886943D01*
X101452026Y-32035026D01*
X101303943Y-32215465D01*
X101193907Y-32421327D01*
X101126148Y-32644701D01*
X101103268Y-32877001D01*
X98152865Y-32877001D01*
X98163812Y-32639508D01*
X98122965Y-32369762D01*
X98030277Y-32113168D01*
X97969860Y-32000137D01*
X97730993Y-31934612D01*
X96953605Y-32712000D01*
X96594395Y-32712000D01*
X95817007Y-31934612D01*
X95578140Y-32000137D01*
X95462240Y-32247116D01*
X95396750Y-32511960D01*
X95384188Y-32784492D01*
X82177912Y-32784492D01*
X82179734Y-32766000D01*
X82156854Y-32533700D01*
X82121443Y-32416961D01*
X86517097Y-32416961D01*
X86639086Y-32639000D01*
X88132001Y-32639000D01*
X88132001Y-32619000D01*
X88386001Y-32619000D01*
X88386001Y-32639000D01*
X89878916Y-32639000D01*
X90000905Y-32416961D01*
X89983368Y-32334182D01*
X89872716Y-32074354D01*
X89713501Y-31841105D01*
X89625681Y-31755007D01*
X95996612Y-31755007D01*
X96774000Y-32532395D01*
X97551388Y-31755007D01*
X97485863Y-31516140D01*
X97238884Y-31400240D01*
X96974040Y-31334750D01*
X96701508Y-31322188D01*
X96431762Y-31363035D01*
X96175168Y-31455723D01*
X96062137Y-31516140D01*
X95996612Y-31755007D01*
X89625681Y-31755007D01*
X89511840Y-31643399D01*
X89275484Y-31488834D01*
X89013515Y-31383350D01*
X88928681Y-31367347D01*
X89064675Y-31326094D01*
X89270537Y-31216058D01*
X89450976Y-31067975D01*
X89599059Y-30887536D01*
X89709095Y-30681674D01*
X89776854Y-30458300D01*
X89799734Y-30226000D01*
X89776854Y-29993700D01*
X89709095Y-29770326D01*
X89599059Y-29564464D01*
X89526459Y-29476000D01*
X90017138Y-29476000D01*
X90017138Y-30976000D01*
X90024571Y-31051473D01*
X90046586Y-31124046D01*
X90082336Y-31190929D01*
X90130447Y-31249553D01*
X90189071Y-31297664D01*
X90255954Y-31333414D01*
X90328527Y-31355429D01*
X90404000Y-31362862D01*
X91904000Y-31362862D01*
X91979473Y-31355429D01*
X92052046Y-31333414D01*
X92118929Y-31297664D01*
X92177553Y-31249553D01*
X92225664Y-31190929D01*
X92261414Y-31124046D01*
X92283429Y-31051473D01*
X92290862Y-30976000D01*
X92290862Y-29810387D01*
X92889249Y-29212000D01*
X101920435Y-29212000D01*
X101838327Y-29236907D01*
X101632465Y-29346943D01*
X101452026Y-29495026D01*
X101303943Y-29675465D01*
X101193907Y-29881327D01*
X101126148Y-30104701D01*
X101103268Y-30337001D01*
X101126148Y-30569301D01*
X101193907Y-30792675D01*
X101303943Y-30998537D01*
X101452026Y-31178976D01*
X101632465Y-31327059D01*
X101838327Y-31437095D01*
X102061701Y-31504854D01*
X102235794Y-31522001D01*
X103052208Y-31522001D01*
X103226301Y-31504854D01*
X103449675Y-31437095D01*
X103655537Y-31327059D01*
X103835976Y-31178976D01*
X103984059Y-30998537D01*
X104094095Y-30792675D01*
X104161854Y-30569301D01*
X104184734Y-30337001D01*
X104161854Y-30104701D01*
X104094095Y-29881327D01*
X103984059Y-29675465D01*
X103835976Y-29495026D01*
X103655537Y-29346943D01*
X103449675Y-29236907D01*
X103367567Y-29212000D01*
X108302754Y-29212000D01*
X108869003Y-29778250D01*
X108813907Y-29881327D01*
X108746148Y-30104701D01*
X108723268Y-30337001D01*
X108746148Y-30569301D01*
X108813907Y-30792675D01*
X108923943Y-30998537D01*
X109072026Y-31178976D01*
X109252465Y-31327059D01*
X109458327Y-31437095D01*
X109594321Y-31478348D01*
X109509487Y-31494351D01*
X109247518Y-31599835D01*
X109011162Y-31754400D01*
X108809501Y-31952106D01*
X108650286Y-32185355D01*
X108539634Y-32445183D01*
X108522097Y-32527962D01*
X108644086Y-32750001D01*
X110137001Y-32750001D01*
X110137001Y-32730001D01*
X110391001Y-32730001D01*
X110391001Y-32750001D01*
X111883916Y-32750001D01*
X112005905Y-32527962D01*
X111988368Y-32445183D01*
X111877716Y-32185355D01*
X111718501Y-31952106D01*
X111516840Y-31754400D01*
X111280484Y-31599835D01*
X111018515Y-31494351D01*
X110933681Y-31478348D01*
X111069675Y-31437095D01*
X111275537Y-31327059D01*
X111455976Y-31178976D01*
X111604059Y-30998537D01*
X111714095Y-30792675D01*
X111781854Y-30569301D01*
X111804734Y-30337001D01*
X111781854Y-30104701D01*
X111714095Y-29881327D01*
X111604059Y-29675465D01*
X111455976Y-29495026D01*
X111275537Y-29346943D01*
X111069675Y-29236907D01*
X110846301Y-29169148D01*
X110672208Y-29152001D01*
X109855794Y-29152001D01*
X109700543Y-29167292D01*
X108892343Y-28359093D01*
X108876371Y-28339631D01*
X108798713Y-28275899D01*
X108761860Y-28256200D01*
X116458211Y-28256200D01*
X116502084Y-28577253D01*
X116607749Y-28883578D01*
X116702032Y-29059968D01*
X116967455Y-29156939D01*
X117930395Y-28194000D01*
X118289605Y-28194000D01*
X119252545Y-29156939D01*
X119517968Y-29059968D01*
X119531839Y-29031488D01*
X119566433Y-29083261D01*
X119760739Y-29277567D01*
X119989220Y-29430233D01*
X120243093Y-29535391D01*
X120512604Y-29589000D01*
X120787396Y-29589000D01*
X121056907Y-29535391D01*
X121310780Y-29430233D01*
X121539261Y-29277567D01*
X121733567Y-29083261D01*
X121886233Y-28854780D01*
X121991391Y-28600907D01*
X122045000Y-28331396D01*
X122045000Y-28056604D01*
X121991391Y-27787093D01*
X121886233Y-27533220D01*
X121733567Y-27304739D01*
X121539261Y-27110433D01*
X121310780Y-26957767D01*
X121056907Y-26852609D01*
X120787396Y-26799000D01*
X120512604Y-26799000D01*
X120243093Y-26852609D01*
X119989220Y-26957767D01*
X119760739Y-27110433D01*
X119566433Y-27304739D01*
X119532590Y-27355388D01*
X119517968Y-27328032D01*
X119252545Y-27231061D01*
X118289605Y-28194000D01*
X117930395Y-28194000D01*
X116967455Y-27231061D01*
X116702032Y-27328032D01*
X116560144Y-27619353D01*
X116477815Y-27932757D01*
X116458211Y-28256200D01*
X108761860Y-28256200D01*
X108710115Y-28228542D01*
X108613979Y-28199380D01*
X108539050Y-28192000D01*
X108539047Y-28192000D01*
X108514002Y-28189533D01*
X108488957Y-28192000D01*
X92703037Y-28192000D01*
X92677999Y-28189534D01*
X92652961Y-28192000D01*
X92652952Y-28192000D01*
X92578023Y-28199380D01*
X92481887Y-28228542D01*
X92393289Y-28275899D01*
X92315631Y-28339631D01*
X92299664Y-28359087D01*
X91569613Y-29089138D01*
X90404000Y-29089138D01*
X90328527Y-29096571D01*
X90255954Y-29118586D01*
X90189071Y-29154336D01*
X90130447Y-29202447D01*
X90082336Y-29261071D01*
X90046586Y-29327954D01*
X90024571Y-29400527D01*
X90017138Y-29476000D01*
X89526459Y-29476000D01*
X89450976Y-29384025D01*
X89270537Y-29235942D01*
X89064675Y-29125906D01*
X88841301Y-29058147D01*
X88667208Y-29041000D01*
X87850794Y-29041000D01*
X87676701Y-29058147D01*
X87453327Y-29125906D01*
X87247465Y-29235942D01*
X87067026Y-29384025D01*
X86918943Y-29564464D01*
X86808907Y-29770326D01*
X86741148Y-29993700D01*
X86718268Y-30226000D01*
X86741148Y-30458300D01*
X86808907Y-30681674D01*
X86918943Y-30887536D01*
X87067026Y-31067975D01*
X87247465Y-31216058D01*
X87453327Y-31326094D01*
X87589321Y-31367347D01*
X87504487Y-31383350D01*
X87242518Y-31488834D01*
X87006162Y-31643399D01*
X86804501Y-31841105D01*
X86645286Y-32074354D01*
X86534634Y-32334182D01*
X86517097Y-32416961D01*
X82121443Y-32416961D01*
X82089095Y-32310326D01*
X81979059Y-32104464D01*
X81830976Y-31924025D01*
X81650537Y-31775942D01*
X81444675Y-31665906D01*
X81221301Y-31598147D01*
X81047208Y-31581000D01*
X80230794Y-31581000D01*
X80056701Y-31598147D01*
X79833327Y-31665906D01*
X79627465Y-31775942D01*
X79447026Y-31924025D01*
X79298943Y-32104464D01*
X79188907Y-32310326D01*
X79121148Y-32533700D01*
X79098268Y-32766000D01*
X67244000Y-32766000D01*
X67244000Y-30226000D01*
X79098268Y-30226000D01*
X79121148Y-30458300D01*
X79188907Y-30681674D01*
X79298943Y-30887536D01*
X79447026Y-31067975D01*
X79627465Y-31216058D01*
X79833327Y-31326094D01*
X80056701Y-31393853D01*
X80230794Y-31411000D01*
X81047208Y-31411000D01*
X81221301Y-31393853D01*
X81444675Y-31326094D01*
X81650537Y-31216058D01*
X81830976Y-31067975D01*
X81979059Y-30887536D01*
X82089095Y-30681674D01*
X82156854Y-30458300D01*
X82179734Y-30226000D01*
X82156854Y-29993700D01*
X82089095Y-29770326D01*
X81979059Y-29564464D01*
X81830976Y-29384025D01*
X81650537Y-29235942D01*
X81444675Y-29125906D01*
X81221301Y-29058147D01*
X81047208Y-29041000D01*
X80230794Y-29041000D01*
X80056701Y-29058147D01*
X79833327Y-29125906D01*
X79627465Y-29235942D01*
X79447026Y-29384025D01*
X79298943Y-29564464D01*
X79188907Y-29770326D01*
X79121148Y-29993700D01*
X79098268Y-30226000D01*
X67244000Y-30226000D01*
X67244000Y-27051455D01*
X117147061Y-27051455D01*
X118110000Y-28014395D01*
X119072939Y-27051455D01*
X118975968Y-26786032D01*
X118684647Y-26644144D01*
X118371243Y-26561815D01*
X118047800Y-26542211D01*
X117726747Y-26586084D01*
X117420422Y-26691749D01*
X117244032Y-26786032D01*
X117147061Y-27051455D01*
X67244000Y-27051455D01*
X67244000Y-22468604D01*
X73757000Y-22468604D01*
X73757000Y-22743396D01*
X73810609Y-23012907D01*
X73915767Y-23266780D01*
X74068433Y-23495261D01*
X74262739Y-23689567D01*
X74491220Y-23842233D01*
X74745093Y-23947391D01*
X75014604Y-24001000D01*
X75289396Y-24001000D01*
X75558907Y-23947391D01*
X75812780Y-23842233D01*
X76041261Y-23689567D01*
X76235567Y-23495261D01*
X76388233Y-23266780D01*
X76422000Y-23185260D01*
X76455767Y-23266780D01*
X76608433Y-23495261D01*
X76802739Y-23689567D01*
X77031220Y-23842233D01*
X77285093Y-23947391D01*
X77554604Y-24001000D01*
X77829396Y-24001000D01*
X78098907Y-23947391D01*
X78352780Y-23842233D01*
X78581261Y-23689567D01*
X78775567Y-23495261D01*
X78928233Y-23266780D01*
X79033391Y-23012907D01*
X79087000Y-22743396D01*
X79087000Y-22494212D01*
X90019000Y-22494212D01*
X90019000Y-22717788D01*
X90062617Y-22937067D01*
X90148176Y-23143624D01*
X90272388Y-23329520D01*
X90430480Y-23487612D01*
X90616376Y-23611824D01*
X90822933Y-23697383D01*
X91042212Y-23741000D01*
X91265788Y-23741000D01*
X91485067Y-23697383D01*
X91691624Y-23611824D01*
X91877520Y-23487612D01*
X92035612Y-23329520D01*
X92159824Y-23143624D01*
X92245383Y-22937067D01*
X92288042Y-22722604D01*
X95633000Y-22722604D01*
X95633000Y-22997396D01*
X95686609Y-23266907D01*
X95791767Y-23520780D01*
X95944433Y-23749261D01*
X96138739Y-23943567D01*
X96367220Y-24096233D01*
X96621093Y-24201391D01*
X96890604Y-24255000D01*
X97165396Y-24255000D01*
X97434907Y-24201391D01*
X97688780Y-24096233D01*
X97917261Y-23943567D01*
X98111567Y-23749261D01*
X98264233Y-23520780D01*
X98298000Y-23439260D01*
X98331767Y-23520780D01*
X98484433Y-23749261D01*
X98678739Y-23943567D01*
X98907220Y-24096233D01*
X99161093Y-24201391D01*
X99430604Y-24255000D01*
X99705396Y-24255000D01*
X99974907Y-24201391D01*
X100228780Y-24096233D01*
X100457261Y-23943567D01*
X100651567Y-23749261D01*
X100804233Y-23520780D01*
X100909391Y-23266907D01*
X100963000Y-22997396D01*
X100963000Y-22722604D01*
X100939650Y-22605213D01*
X112024000Y-22605213D01*
X112024000Y-22828789D01*
X112067617Y-23048068D01*
X112153176Y-23254625D01*
X112277388Y-23440521D01*
X112435480Y-23598613D01*
X112621376Y-23722825D01*
X112827933Y-23808384D01*
X113047212Y-23852001D01*
X113270788Y-23852001D01*
X113490067Y-23808384D01*
X113696624Y-23722825D01*
X113882520Y-23598613D01*
X114040612Y-23440521D01*
X114164824Y-23254625D01*
X114250383Y-23048068D01*
X114294000Y-22828789D01*
X114294000Y-22605213D01*
X114250383Y-22385934D01*
X114164824Y-22179377D01*
X114040612Y-21993481D01*
X113882520Y-21835389D01*
X113696624Y-21711177D01*
X113490067Y-21625618D01*
X113270788Y-21582001D01*
X113047212Y-21582001D01*
X112827933Y-21625618D01*
X112621376Y-21711177D01*
X112435480Y-21835389D01*
X112277388Y-21993481D01*
X112153176Y-22179377D01*
X112067617Y-22385934D01*
X112024000Y-22605213D01*
X100939650Y-22605213D01*
X100909391Y-22453093D01*
X100804233Y-22199220D01*
X100651567Y-21970739D01*
X100457261Y-21776433D01*
X100228780Y-21623767D01*
X99974907Y-21518609D01*
X99705396Y-21465000D01*
X99430604Y-21465000D01*
X99161093Y-21518609D01*
X98907220Y-21623767D01*
X98678739Y-21776433D01*
X98484433Y-21970739D01*
X98331767Y-22199220D01*
X98298000Y-22280740D01*
X98264233Y-22199220D01*
X98111567Y-21970739D01*
X97917261Y-21776433D01*
X97688780Y-21623767D01*
X97434907Y-21518609D01*
X97165396Y-21465000D01*
X96890604Y-21465000D01*
X96621093Y-21518609D01*
X96367220Y-21623767D01*
X96138739Y-21776433D01*
X95944433Y-21970739D01*
X95791767Y-22199220D01*
X95686609Y-22453093D01*
X95633000Y-22722604D01*
X92288042Y-22722604D01*
X92289000Y-22717788D01*
X92289000Y-22494212D01*
X92245383Y-22274933D01*
X92159824Y-22068376D01*
X92035612Y-21882480D01*
X91877520Y-21724388D01*
X91691624Y-21600176D01*
X91485067Y-21514617D01*
X91265788Y-21471000D01*
X91042212Y-21471000D01*
X90822933Y-21514617D01*
X90616376Y-21600176D01*
X90430480Y-21724388D01*
X90272388Y-21882480D01*
X90148176Y-22068376D01*
X90062617Y-22274933D01*
X90019000Y-22494212D01*
X79087000Y-22494212D01*
X79087000Y-22468604D01*
X79033391Y-22199093D01*
X78928233Y-21945220D01*
X78775567Y-21716739D01*
X78581261Y-21522433D01*
X78352780Y-21369767D01*
X78098907Y-21264609D01*
X77829396Y-21211000D01*
X77554604Y-21211000D01*
X77285093Y-21264609D01*
X77031220Y-21369767D01*
X76802739Y-21522433D01*
X76608433Y-21716739D01*
X76455767Y-21945220D01*
X76422000Y-22026740D01*
X76388233Y-21945220D01*
X76235567Y-21716739D01*
X76041261Y-21522433D01*
X75812780Y-21369767D01*
X75558907Y-21264609D01*
X75289396Y-21211000D01*
X75014604Y-21211000D01*
X74745093Y-21264609D01*
X74491220Y-21369767D01*
X74262739Y-21522433D01*
X74068433Y-21716739D01*
X73915767Y-21945220D01*
X73810609Y-22199093D01*
X73757000Y-22468604D01*
X67244000Y-22468604D01*
X67244000Y-17652607D01*
X67449000Y-17652607D01*
X67449000Y-18319393D01*
X67579083Y-18973368D01*
X67834252Y-19589399D01*
X68204698Y-20143812D01*
X68676188Y-20615302D01*
X69230601Y-20985748D01*
X69846632Y-21240917D01*
X70500607Y-21371000D01*
X71167393Y-21371000D01*
X71821368Y-21240917D01*
X72437399Y-20985748D01*
X72991812Y-20615302D01*
X73463302Y-20143812D01*
X73515294Y-20066000D01*
X79098268Y-20066000D01*
X79121148Y-20298300D01*
X79188907Y-20521674D01*
X79298943Y-20727536D01*
X79447026Y-20907975D01*
X79627465Y-21056058D01*
X79833327Y-21166094D01*
X80056701Y-21233853D01*
X80230794Y-21251000D01*
X81047208Y-21251000D01*
X81221301Y-21233853D01*
X81444675Y-21166094D01*
X81650537Y-21056058D01*
X81830976Y-20907975D01*
X81979059Y-20727536D01*
X82089095Y-20521674D01*
X82156854Y-20298300D01*
X82179734Y-20066000D01*
X86718268Y-20066000D01*
X86741148Y-20298300D01*
X86808907Y-20521674D01*
X86918943Y-20727536D01*
X87067026Y-20907975D01*
X87247465Y-21056058D01*
X87453327Y-21166094D01*
X87676701Y-21233853D01*
X87850794Y-21251000D01*
X88667208Y-21251000D01*
X88841301Y-21233853D01*
X89064675Y-21166094D01*
X89270537Y-21056058D01*
X89450976Y-20907975D01*
X89599059Y-20727536D01*
X89709095Y-20521674D01*
X89776854Y-20298300D01*
X89788801Y-20177001D01*
X101103268Y-20177001D01*
X101126148Y-20409301D01*
X101193907Y-20632675D01*
X101303943Y-20838537D01*
X101452026Y-21018976D01*
X101632465Y-21167059D01*
X101838327Y-21277095D01*
X102061701Y-21344854D01*
X102235794Y-21362001D01*
X103052208Y-21362001D01*
X103226301Y-21344854D01*
X103449675Y-21277095D01*
X103655537Y-21167059D01*
X103835976Y-21018976D01*
X103984059Y-20838537D01*
X104094095Y-20632675D01*
X104161854Y-20409301D01*
X104184734Y-20177001D01*
X108723268Y-20177001D01*
X108746148Y-20409301D01*
X108813907Y-20632675D01*
X108923943Y-20838537D01*
X109072026Y-21018976D01*
X109252465Y-21167059D01*
X109458327Y-21277095D01*
X109681701Y-21344854D01*
X109855794Y-21362001D01*
X110672208Y-21362001D01*
X110846301Y-21344854D01*
X111069675Y-21277095D01*
X111275537Y-21167059D01*
X111455976Y-21018976D01*
X111604059Y-20838537D01*
X111714095Y-20632675D01*
X111781854Y-20409301D01*
X111804734Y-20177001D01*
X111781854Y-19944701D01*
X111714095Y-19721327D01*
X111604059Y-19515465D01*
X111455976Y-19335026D01*
X111275537Y-19186943D01*
X111069675Y-19076907D01*
X110846301Y-19009148D01*
X110672208Y-18992001D01*
X109855794Y-18992001D01*
X109681701Y-19009148D01*
X109458327Y-19076907D01*
X109252465Y-19186943D01*
X109072026Y-19335026D01*
X108923943Y-19515465D01*
X108813907Y-19721327D01*
X108746148Y-19944701D01*
X108723268Y-20177001D01*
X104184734Y-20177001D01*
X104161854Y-19944701D01*
X104094095Y-19721327D01*
X103984059Y-19515465D01*
X103835976Y-19335026D01*
X103655537Y-19186943D01*
X103449675Y-19076907D01*
X103226301Y-19009148D01*
X103052208Y-18992001D01*
X102235794Y-18992001D01*
X102061701Y-19009148D01*
X101838327Y-19076907D01*
X101632465Y-19186943D01*
X101452026Y-19335026D01*
X101303943Y-19515465D01*
X101193907Y-19721327D01*
X101126148Y-19944701D01*
X101103268Y-20177001D01*
X89788801Y-20177001D01*
X89799734Y-20066000D01*
X89776854Y-19833700D01*
X89709095Y-19610326D01*
X89599059Y-19404464D01*
X89450976Y-19224025D01*
X89270537Y-19075942D01*
X89064675Y-18965906D01*
X88841301Y-18898147D01*
X88667208Y-18881000D01*
X87850794Y-18881000D01*
X87676701Y-18898147D01*
X87453327Y-18965906D01*
X87247465Y-19075942D01*
X87067026Y-19224025D01*
X86918943Y-19404464D01*
X86808907Y-19610326D01*
X86741148Y-19833700D01*
X86718268Y-20066000D01*
X82179734Y-20066000D01*
X82156854Y-19833700D01*
X82089095Y-19610326D01*
X81979059Y-19404464D01*
X81830976Y-19224025D01*
X81650537Y-19075942D01*
X81444675Y-18965906D01*
X81221301Y-18898147D01*
X81047208Y-18881000D01*
X80230794Y-18881000D01*
X80056701Y-18898147D01*
X79833327Y-18965906D01*
X79627465Y-19075942D01*
X79447026Y-19224025D01*
X79298943Y-19404464D01*
X79188907Y-19610326D01*
X79121148Y-19833700D01*
X79098268Y-20066000D01*
X73515294Y-20066000D01*
X73833748Y-19589399D01*
X74088917Y-18973368D01*
X74219000Y-18319393D01*
X74219000Y-17652607D01*
X119449000Y-17652607D01*
X119449000Y-18319393D01*
X119579083Y-18973368D01*
X119834252Y-19589399D01*
X120204698Y-20143812D01*
X120676188Y-20615302D01*
X121230601Y-20985748D01*
X121846632Y-21240917D01*
X122500607Y-21371000D01*
X123167393Y-21371000D01*
X123821368Y-21240917D01*
X124437399Y-20985748D01*
X124991812Y-20615302D01*
X125463302Y-20143812D01*
X125833748Y-19589399D01*
X126088917Y-18973368D01*
X126219000Y-18319393D01*
X126219000Y-17652607D01*
X126088917Y-16998632D01*
X125833748Y-16382601D01*
X125463302Y-15828188D01*
X124991812Y-15356698D01*
X124437399Y-14986252D01*
X123821368Y-14731083D01*
X123167393Y-14601000D01*
X122500607Y-14601000D01*
X121846632Y-14731083D01*
X121230601Y-14986252D01*
X120676188Y-15356698D01*
X120204698Y-15828188D01*
X119834252Y-16382601D01*
X119579083Y-16998632D01*
X119449000Y-17652607D01*
X74219000Y-17652607D01*
X74088917Y-16998632D01*
X73833748Y-16382601D01*
X73463302Y-15828188D01*
X72991812Y-15356698D01*
X72437399Y-14986252D01*
X71821368Y-14731083D01*
X71167393Y-14601000D01*
X70500607Y-14601000D01*
X69846632Y-14731083D01*
X69230601Y-14986252D01*
X68676188Y-15356698D01*
X68204698Y-15828188D01*
X67834252Y-16382601D01*
X67579083Y-16998632D01*
X67449000Y-17652607D01*
X67244000Y-17652607D01*
X67244000Y-14396000D01*
X126424001Y-14396000D01*
X126424000Y-73576000D01*
G37*
X126424000Y-73576000D02*
X67244000Y-73576000D01*
X67244000Y-69652607D01*
X67449000Y-69652607D01*
X67449000Y-70319393D01*
X67579083Y-70973368D01*
X67834252Y-71589399D01*
X68204698Y-72143812D01*
X68676188Y-72615302D01*
X69230601Y-72985748D01*
X69846632Y-73240917D01*
X70500607Y-73371000D01*
X71167393Y-73371000D01*
X71821368Y-73240917D01*
X72437399Y-72985748D01*
X72566608Y-72899413D01*
X111058192Y-72899413D01*
X111153956Y-73163814D01*
X111443571Y-73304704D01*
X111755108Y-73386384D01*
X112076595Y-73405718D01*
X112395675Y-73361961D01*
X112700088Y-73256795D01*
X112874044Y-73163814D01*
X112969808Y-72899413D01*
X112014000Y-71943605D01*
X111058192Y-72899413D01*
X72566608Y-72899413D01*
X72991812Y-72615302D01*
X73463302Y-72143812D01*
X73675259Y-71826595D01*
X110372282Y-71826595D01*
X110416039Y-72145675D01*
X110521205Y-72450088D01*
X110614186Y-72624044D01*
X110878587Y-72719808D01*
X111834395Y-71764000D01*
X112193605Y-71764000D01*
X113149413Y-72719808D01*
X113413814Y-72624044D01*
X113554704Y-72334429D01*
X113636384Y-72022892D01*
X113655718Y-71701405D01*
X113645596Y-71627589D01*
X115129000Y-71627589D01*
X115129000Y-71900411D01*
X115182225Y-72167989D01*
X115286629Y-72420043D01*
X115438201Y-72646886D01*
X115631114Y-72839799D01*
X115857957Y-72991371D01*
X116110011Y-73095775D01*
X116377589Y-73149000D01*
X116650411Y-73149000D01*
X116917989Y-73095775D01*
X117170043Y-72991371D01*
X117396886Y-72839799D01*
X117589799Y-72646886D01*
X117741371Y-72420043D01*
X117845775Y-72167989D01*
X117899000Y-71900411D01*
X117899000Y-71627589D01*
X117845775Y-71360011D01*
X117741371Y-71107957D01*
X117589799Y-70881114D01*
X117396886Y-70688201D01*
X117170043Y-70536629D01*
X116917989Y-70432225D01*
X116650411Y-70379000D01*
X116377589Y-70379000D01*
X116110011Y-70432225D01*
X115857957Y-70536629D01*
X115631114Y-70688201D01*
X115438201Y-70881114D01*
X115286629Y-71107957D01*
X115182225Y-71360011D01*
X115129000Y-71627589D01*
X113645596Y-71627589D01*
X113611961Y-71382325D01*
X113506795Y-71077912D01*
X113413814Y-70903956D01*
X113149413Y-70808192D01*
X112193605Y-71764000D01*
X111834395Y-71764000D01*
X110878587Y-70808192D01*
X110614186Y-70903956D01*
X110473296Y-71193571D01*
X110391616Y-71505108D01*
X110372282Y-71826595D01*
X73675259Y-71826595D01*
X73833748Y-71589399D01*
X74088917Y-70973368D01*
X74157497Y-70628587D01*
X111058192Y-70628587D01*
X112014000Y-71584395D01*
X112969808Y-70628587D01*
X112874044Y-70364186D01*
X112584429Y-70223296D01*
X112272892Y-70141616D01*
X111951405Y-70122282D01*
X111632325Y-70166039D01*
X111327912Y-70271205D01*
X111153956Y-70364186D01*
X111058192Y-70628587D01*
X74157497Y-70628587D01*
X74219000Y-70319393D01*
X74219000Y-69652607D01*
X119449000Y-69652607D01*
X119449000Y-70319393D01*
X119579083Y-70973368D01*
X119834252Y-71589399D01*
X120204698Y-72143812D01*
X120676188Y-72615302D01*
X121230601Y-72985748D01*
X121846632Y-73240917D01*
X122500607Y-73371000D01*
X123167393Y-73371000D01*
X123821368Y-73240917D01*
X124437399Y-72985748D01*
X124991812Y-72615302D01*
X125463302Y-72143812D01*
X125833748Y-71589399D01*
X126088917Y-70973368D01*
X126219000Y-70319393D01*
X126219000Y-69652607D01*
X126088917Y-68998632D01*
X125833748Y-68382601D01*
X125463302Y-67828188D01*
X124991812Y-67356698D01*
X124437399Y-66986252D01*
X123821368Y-66731083D01*
X123167393Y-66601000D01*
X122500607Y-66601000D01*
X121846632Y-66731083D01*
X121230601Y-66986252D01*
X120676188Y-67356698D01*
X120204698Y-67828188D01*
X119834252Y-68382601D01*
X119579083Y-68998632D01*
X119449000Y-69652607D01*
X74219000Y-69652607D01*
X74088917Y-68998632D01*
X73833748Y-68382601D01*
X73463302Y-67828188D01*
X72991812Y-67356698D01*
X72437399Y-66986252D01*
X71821368Y-66731083D01*
X71167393Y-66601000D01*
X70500607Y-66601000D01*
X69846632Y-66731083D01*
X69230601Y-66986252D01*
X68676188Y-67356698D01*
X68204698Y-67828188D01*
X67834252Y-68382601D01*
X67579083Y-68998632D01*
X67449000Y-69652607D01*
X67244000Y-69652607D01*
X67244000Y-66399413D01*
X111058192Y-66399413D01*
X111153956Y-66663814D01*
X111443571Y-66804704D01*
X111755108Y-66886384D01*
X112076595Y-66905718D01*
X112395675Y-66861961D01*
X112700088Y-66756795D01*
X112874044Y-66663814D01*
X112969808Y-66399413D01*
X112014000Y-65443605D01*
X111058192Y-66399413D01*
X67244000Y-66399413D01*
X67244000Y-65326595D01*
X110372282Y-65326595D01*
X110416039Y-65645675D01*
X110521205Y-65950088D01*
X110614186Y-66124044D01*
X110878587Y-66219808D01*
X111834395Y-65264000D01*
X112193605Y-65264000D01*
X113149413Y-66219808D01*
X113413814Y-66124044D01*
X113554704Y-65834429D01*
X113636384Y-65522892D01*
X113655718Y-65201405D01*
X113645596Y-65127589D01*
X115129000Y-65127589D01*
X115129000Y-65400411D01*
X115182225Y-65667989D01*
X115286629Y-65920043D01*
X115438201Y-66146886D01*
X115631114Y-66339799D01*
X115857957Y-66491371D01*
X116110011Y-66595775D01*
X116377589Y-66649000D01*
X116650411Y-66649000D01*
X116917989Y-66595775D01*
X117170043Y-66491371D01*
X117396886Y-66339799D01*
X117589799Y-66146886D01*
X117741371Y-65920043D01*
X117845775Y-65667989D01*
X117899000Y-65400411D01*
X117899000Y-65127589D01*
X117845775Y-64860011D01*
X117741371Y-64607957D01*
X117589799Y-64381114D01*
X117396886Y-64188201D01*
X117170043Y-64036629D01*
X116917989Y-63932225D01*
X116650411Y-63879000D01*
X116377589Y-63879000D01*
X116110011Y-63932225D01*
X115857957Y-64036629D01*
X115631114Y-64188201D01*
X115438201Y-64381114D01*
X115286629Y-64607957D01*
X115182225Y-64860011D01*
X115129000Y-65127589D01*
X113645596Y-65127589D01*
X113611961Y-64882325D01*
X113506795Y-64577912D01*
X113413814Y-64403956D01*
X113149413Y-64308192D01*
X112193605Y-65264000D01*
X111834395Y-65264000D01*
X110878587Y-64308192D01*
X110614186Y-64403956D01*
X110473296Y-64693571D01*
X110391616Y-65005108D01*
X110372282Y-65326595D01*
X67244000Y-65326595D01*
X67244000Y-63094891D01*
X100920519Y-63094891D01*
X101017843Y-63369252D01*
X101166822Y-63619355D01*
X101361731Y-63835588D01*
X101595080Y-64009641D01*
X101857901Y-64134825D01*
X102005110Y-64179476D01*
X102235000Y-64058155D01*
X102235000Y-62865000D01*
X101041186Y-62865000D01*
X100920519Y-63094891D01*
X67244000Y-63094891D01*
X67244000Y-62381109D01*
X100920519Y-62381109D01*
X101041186Y-62611000D01*
X102235000Y-62611000D01*
X102235000Y-62591000D01*
X102489000Y-62591000D01*
X102489000Y-62611000D01*
X102509000Y-62611000D01*
X102509000Y-62865000D01*
X102489000Y-62865000D01*
X102489000Y-64058155D01*
X102718890Y-64179476D01*
X102866099Y-64134825D01*
X102879195Y-64128587D01*
X111058192Y-64128587D01*
X112014000Y-65084395D01*
X112969808Y-64128587D01*
X112874044Y-63864186D01*
X112584429Y-63723296D01*
X112272892Y-63641616D01*
X111951405Y-63622282D01*
X111632325Y-63666039D01*
X111327912Y-63771205D01*
X111153956Y-63864186D01*
X111058192Y-64128587D01*
X102879195Y-64128587D01*
X103128920Y-64009641D01*
X103362269Y-63835588D01*
X103557178Y-63619355D01*
X103706157Y-63369252D01*
X103761775Y-63212463D01*
X103807557Y-63322992D01*
X103942713Y-63525267D01*
X104114733Y-63697287D01*
X104317008Y-63832443D01*
X104541764Y-63925540D01*
X104780363Y-63973000D01*
X105023637Y-63973000D01*
X105262236Y-63925540D01*
X105486992Y-63832443D01*
X105689267Y-63697287D01*
X105861287Y-63525267D01*
X105996443Y-63322992D01*
X106089540Y-63098236D01*
X106137000Y-62859637D01*
X106137000Y-62616363D01*
X106207000Y-62616363D01*
X106207000Y-62859637D01*
X106254460Y-63098236D01*
X106347557Y-63322992D01*
X106482713Y-63525267D01*
X106654733Y-63697287D01*
X106857008Y-63832443D01*
X107081764Y-63925540D01*
X107320363Y-63973000D01*
X107563637Y-63973000D01*
X107802236Y-63925540D01*
X108026992Y-63832443D01*
X108229267Y-63697287D01*
X108401287Y-63525267D01*
X108536443Y-63322992D01*
X108629540Y-63098236D01*
X108677000Y-62859637D01*
X108677000Y-62616363D01*
X108629540Y-62377764D01*
X108536443Y-62153008D01*
X108401287Y-61950733D01*
X108229267Y-61778713D01*
X108026992Y-61643557D01*
X107802236Y-61550460D01*
X107563637Y-61503000D01*
X107320363Y-61503000D01*
X107081764Y-61550460D01*
X106857008Y-61643557D01*
X106654733Y-61778713D01*
X106482713Y-61950733D01*
X106347557Y-62153008D01*
X106254460Y-62377764D01*
X106207000Y-62616363D01*
X106137000Y-62616363D01*
X106089540Y-62377764D01*
X105996443Y-62153008D01*
X105861287Y-61950733D01*
X105689267Y-61778713D01*
X105486992Y-61643557D01*
X105262236Y-61550460D01*
X105023637Y-61503000D01*
X104780363Y-61503000D01*
X104541764Y-61550460D01*
X104317008Y-61643557D01*
X104114733Y-61778713D01*
X103942713Y-61950733D01*
X103807557Y-62153008D01*
X103761775Y-62263537D01*
X103706157Y-62106748D01*
X103557178Y-61856645D01*
X103362269Y-61640412D01*
X103128920Y-61466359D01*
X102866099Y-61341175D01*
X102844880Y-61334739D01*
X102946992Y-61292443D01*
X103149267Y-61157287D01*
X103321287Y-60985267D01*
X103456443Y-60782992D01*
X103549540Y-60558236D01*
X103597000Y-60319637D01*
X103597000Y-60076363D01*
X103667000Y-60076363D01*
X103667000Y-60319637D01*
X103714460Y-60558236D01*
X103807557Y-60782992D01*
X103942713Y-60985267D01*
X104114733Y-61157287D01*
X104317008Y-61292443D01*
X104541764Y-61385540D01*
X104780363Y-61433000D01*
X105023637Y-61433000D01*
X105262236Y-61385540D01*
X105486992Y-61292443D01*
X105689267Y-61157287D01*
X105861287Y-60985267D01*
X105996443Y-60782992D01*
X106089540Y-60558236D01*
X106137000Y-60319637D01*
X106137000Y-60076363D01*
X106089540Y-59837764D01*
X105996443Y-59613008D01*
X105861287Y-59410733D01*
X105798554Y-59348000D01*
X106205138Y-59348000D01*
X106205138Y-61048000D01*
X106212571Y-61123473D01*
X106234586Y-61196046D01*
X106270336Y-61262929D01*
X106318447Y-61321553D01*
X106377071Y-61369664D01*
X106443954Y-61405414D01*
X106516527Y-61427429D01*
X106592000Y-61434862D01*
X108292000Y-61434862D01*
X108367473Y-61427429D01*
X108440046Y-61405414D01*
X108506929Y-61369664D01*
X108565553Y-61321553D01*
X108613664Y-61262929D01*
X108649414Y-61196046D01*
X108671429Y-61123473D01*
X108678862Y-61048000D01*
X108678862Y-59348000D01*
X108671429Y-59272527D01*
X108649414Y-59199954D01*
X108613664Y-59133071D01*
X108565553Y-59074447D01*
X108506929Y-59026336D01*
X108440046Y-58990586D01*
X108367473Y-58968571D01*
X108292000Y-58961138D01*
X106592000Y-58961138D01*
X106516527Y-58968571D01*
X106443954Y-58990586D01*
X106377071Y-59026336D01*
X106318447Y-59074447D01*
X106270336Y-59133071D01*
X106234586Y-59199954D01*
X106212571Y-59272527D01*
X106205138Y-59348000D01*
X105798554Y-59348000D01*
X105689267Y-59238713D01*
X105486992Y-59103557D01*
X105262236Y-59010460D01*
X105023637Y-58963000D01*
X104780363Y-58963000D01*
X104541764Y-59010460D01*
X104317008Y-59103557D01*
X104114733Y-59238713D01*
X103942713Y-59410733D01*
X103807557Y-59613008D01*
X103714460Y-59837764D01*
X103667000Y-60076363D01*
X103597000Y-60076363D01*
X103549540Y-59837764D01*
X103518477Y-59762771D01*
X105621249Y-57660000D01*
X108940955Y-57660000D01*
X108966000Y-57662467D01*
X108991045Y-57660000D01*
X108991048Y-57660000D01*
X109065977Y-57652620D01*
X109162113Y-57623458D01*
X109250711Y-57576101D01*
X109328369Y-57512369D01*
X109344341Y-57492907D01*
X111232913Y-55604336D01*
X111252369Y-55588369D01*
X111316101Y-55510711D01*
X111363458Y-55422113D01*
X111392620Y-55325977D01*
X111400000Y-55251048D01*
X111402467Y-55226000D01*
X111400000Y-55200952D01*
X111400000Y-49222157D01*
X111499749Y-49122408D01*
X111585658Y-48993837D01*
X111644833Y-48850976D01*
X111675000Y-48699316D01*
X111675000Y-48544684D01*
X111644833Y-48393024D01*
X111620125Y-48333373D01*
X112753000Y-49466249D01*
X112753000Y-49607316D01*
X112783167Y-49758976D01*
X112842342Y-49901837D01*
X112928251Y-50030408D01*
X113037592Y-50139749D01*
X113166163Y-50225658D01*
X113309024Y-50284833D01*
X113460684Y-50315000D01*
X113601752Y-50315000D01*
X116076001Y-52789250D01*
X116076000Y-58462751D01*
X115866752Y-58672000D01*
X114138157Y-58672000D01*
X114038408Y-58572251D01*
X113909837Y-58486342D01*
X113766976Y-58427167D01*
X113615316Y-58397000D01*
X113460684Y-58397000D01*
X113309024Y-58427167D01*
X113166163Y-58486342D01*
X113037592Y-58572251D01*
X112928251Y-58681592D01*
X112842342Y-58810163D01*
X112783167Y-58953024D01*
X112753000Y-59104684D01*
X112753000Y-59259316D01*
X112783167Y-59410976D01*
X112842342Y-59553837D01*
X112928251Y-59682408D01*
X113028000Y-59782157D01*
X113028001Y-62137842D01*
X112928251Y-62237592D01*
X112842342Y-62366163D01*
X112783167Y-62509024D01*
X112753000Y-62660684D01*
X112753000Y-62815316D01*
X112783167Y-62966976D01*
X112842342Y-63109837D01*
X112928251Y-63238408D01*
X113037592Y-63347749D01*
X113166163Y-63433658D01*
X113309024Y-63492833D01*
X113460684Y-63523000D01*
X113615316Y-63523000D01*
X113766976Y-63492833D01*
X113909837Y-63433658D01*
X114038408Y-63347749D01*
X114147749Y-63238408D01*
X114233658Y-63109837D01*
X114292833Y-62966976D01*
X114323000Y-62815316D01*
X114323000Y-62660684D01*
X114292833Y-62509024D01*
X114233658Y-62366163D01*
X114147749Y-62237592D01*
X114048000Y-62137843D01*
X114048000Y-59782157D01*
X114138157Y-59692000D01*
X116052955Y-59692000D01*
X116078000Y-59694467D01*
X116103045Y-59692000D01*
X116103048Y-59692000D01*
X116177977Y-59684620D01*
X116274113Y-59655458D01*
X116362711Y-59608101D01*
X116440369Y-59544369D01*
X116456341Y-59524907D01*
X116928912Y-59052337D01*
X116948369Y-59036369D01*
X117012101Y-58958711D01*
X117059458Y-58870113D01*
X117071088Y-58831773D01*
X117227114Y-58987799D01*
X117453957Y-59139371D01*
X117706011Y-59243775D01*
X117973589Y-59297000D01*
X118246411Y-59297000D01*
X118513989Y-59243775D01*
X118766043Y-59139371D01*
X118992886Y-58987799D01*
X119185799Y-58794886D01*
X119337371Y-58568043D01*
X119441775Y-58315989D01*
X119495000Y-58048411D01*
X119495000Y-57775589D01*
X123225000Y-57775589D01*
X123225000Y-58048411D01*
X123278225Y-58315989D01*
X123382629Y-58568043D01*
X123534201Y-58794886D01*
X123727114Y-58987799D01*
X123953957Y-59139371D01*
X124206011Y-59243775D01*
X124473589Y-59297000D01*
X124746411Y-59297000D01*
X125013989Y-59243775D01*
X125266043Y-59139371D01*
X125492886Y-58987799D01*
X125685799Y-58794886D01*
X125837371Y-58568043D01*
X125941775Y-58315989D01*
X125995000Y-58048411D01*
X125995000Y-57775589D01*
X125941775Y-57508011D01*
X125837371Y-57255957D01*
X125685799Y-57029114D01*
X125492886Y-56836201D01*
X125266043Y-56684629D01*
X125013989Y-56580225D01*
X124746411Y-56527000D01*
X124473589Y-56527000D01*
X124206011Y-56580225D01*
X123953957Y-56684629D01*
X123727114Y-56836201D01*
X123534201Y-57029114D01*
X123382629Y-57255957D01*
X123278225Y-57508011D01*
X123225000Y-57775589D01*
X119495000Y-57775589D01*
X119441775Y-57508011D01*
X119337371Y-57255957D01*
X119185799Y-57029114D01*
X118992886Y-56836201D01*
X118766043Y-56684629D01*
X118513989Y-56580225D01*
X118246411Y-56527000D01*
X117973589Y-56527000D01*
X117706011Y-56580225D01*
X117453957Y-56684629D01*
X117227114Y-56836201D01*
X117096000Y-56967315D01*
X117096000Y-54605608D01*
X117154193Y-54547415D01*
X117249956Y-54811814D01*
X117539571Y-54952704D01*
X117851108Y-55034384D01*
X118172595Y-55053718D01*
X118491675Y-55009961D01*
X118796088Y-54904795D01*
X118970044Y-54811814D01*
X119065808Y-54547413D01*
X123654192Y-54547413D01*
X123749956Y-54811814D01*
X124039571Y-54952704D01*
X124351108Y-55034384D01*
X124672595Y-55053718D01*
X124991675Y-55009961D01*
X125296088Y-54904795D01*
X125470044Y-54811814D01*
X125565808Y-54547413D01*
X124610000Y-53591605D01*
X123654192Y-54547413D01*
X119065808Y-54547413D01*
X118110000Y-53591605D01*
X118095858Y-53605748D01*
X117916253Y-53426143D01*
X117930395Y-53412000D01*
X118289605Y-53412000D01*
X119245413Y-54367808D01*
X119509814Y-54272044D01*
X119650704Y-53982429D01*
X119732384Y-53670892D01*
X119744189Y-53474595D01*
X122968282Y-53474595D01*
X123012039Y-53793675D01*
X123117205Y-54098088D01*
X123210186Y-54272044D01*
X123474587Y-54367808D01*
X124430395Y-53412000D01*
X124789605Y-53412000D01*
X125745413Y-54367808D01*
X126009814Y-54272044D01*
X126150704Y-53982429D01*
X126232384Y-53670892D01*
X126251718Y-53349405D01*
X126207961Y-53030325D01*
X126102795Y-52725912D01*
X126009814Y-52551956D01*
X125745413Y-52456192D01*
X124789605Y-53412000D01*
X124430395Y-53412000D01*
X123474587Y-52456192D01*
X123210186Y-52551956D01*
X123069296Y-52841571D01*
X122987616Y-53153108D01*
X122968282Y-53474595D01*
X119744189Y-53474595D01*
X119751718Y-53349405D01*
X119707961Y-53030325D01*
X119602795Y-52725912D01*
X119509814Y-52551956D01*
X119245413Y-52456192D01*
X118289605Y-53412000D01*
X117930395Y-53412000D01*
X117916253Y-53397858D01*
X118095858Y-53218253D01*
X118110000Y-53232395D01*
X119065808Y-52276587D01*
X123654192Y-52276587D01*
X124610000Y-53232395D01*
X125565808Y-52276587D01*
X125470044Y-52012186D01*
X125180429Y-51871296D01*
X124868892Y-51789616D01*
X124547405Y-51770282D01*
X124228325Y-51814039D01*
X123923912Y-51919205D01*
X123749956Y-52012186D01*
X123654192Y-52276587D01*
X119065808Y-52276587D01*
X118970044Y-52012186D01*
X118680429Y-51871296D01*
X118368892Y-51789616D01*
X118047405Y-51770282D01*
X117728325Y-51814039D01*
X117423912Y-51919205D01*
X117249956Y-52012186D01*
X117154193Y-52276585D01*
X117038525Y-52160917D01*
X116964345Y-52235097D01*
X116964336Y-52235087D01*
X116948369Y-52215631D01*
X116928913Y-52199664D01*
X114323000Y-49593752D01*
X114323000Y-49452684D01*
X114292833Y-49301024D01*
X114233658Y-49158163D01*
X114147749Y-49029592D01*
X114048000Y-48929843D01*
X114048000Y-48124588D01*
X116651999Y-48124588D01*
X116651999Y-48397410D01*
X116705224Y-48664988D01*
X116809628Y-48917042D01*
X116961200Y-49143885D01*
X117154113Y-49336798D01*
X117380956Y-49488370D01*
X117633010Y-49592774D01*
X117900588Y-49645999D01*
X118173410Y-49645999D01*
X118440988Y-49592774D01*
X118693042Y-49488370D01*
X118919885Y-49336798D01*
X119112798Y-49143885D01*
X119264370Y-48917042D01*
X119368774Y-48664988D01*
X119421999Y-48397410D01*
X119421999Y-48124588D01*
X123151999Y-48124588D01*
X123151999Y-48397410D01*
X123205224Y-48664988D01*
X123309628Y-48917042D01*
X123461200Y-49143885D01*
X123654113Y-49336798D01*
X123880956Y-49488370D01*
X124133010Y-49592774D01*
X124400588Y-49645999D01*
X124673410Y-49645999D01*
X124940988Y-49592774D01*
X125193042Y-49488370D01*
X125419885Y-49336798D01*
X125612798Y-49143885D01*
X125764370Y-48917042D01*
X125868774Y-48664988D01*
X125921999Y-48397410D01*
X125921999Y-48124588D01*
X125868774Y-47857010D01*
X125764370Y-47604956D01*
X125612798Y-47378113D01*
X125419885Y-47185200D01*
X125193042Y-47033628D01*
X124940988Y-46929224D01*
X124673410Y-46875999D01*
X124400588Y-46875999D01*
X124133010Y-46929224D01*
X123880956Y-47033628D01*
X123654113Y-47185200D01*
X123461200Y-47378113D01*
X123309628Y-47604956D01*
X123205224Y-47857010D01*
X123151999Y-48124588D01*
X119421999Y-48124588D01*
X119368774Y-47857010D01*
X119264370Y-47604956D01*
X119112798Y-47378113D01*
X118919885Y-47185200D01*
X118693042Y-47033628D01*
X118440988Y-46929224D01*
X118173410Y-46875999D01*
X117900588Y-46875999D01*
X117633010Y-46929224D01*
X117380956Y-47033628D01*
X117154113Y-47185200D01*
X116961200Y-47378113D01*
X116809628Y-47604956D01*
X116705224Y-47857010D01*
X116651999Y-48124588D01*
X114048000Y-48124588D01*
X114048000Y-44896412D01*
X117081191Y-44896412D01*
X117176955Y-45160813D01*
X117466570Y-45301703D01*
X117778107Y-45383383D01*
X118099594Y-45402717D01*
X118418674Y-45358960D01*
X118723087Y-45253794D01*
X118897043Y-45160813D01*
X118992807Y-44896412D01*
X123581191Y-44896412D01*
X123676955Y-45160813D01*
X123966570Y-45301703D01*
X124278107Y-45383383D01*
X124599594Y-45402717D01*
X124918674Y-45358960D01*
X125223087Y-45253794D01*
X125397043Y-45160813D01*
X125492807Y-44896412D01*
X124536999Y-43940604D01*
X123581191Y-44896412D01*
X118992807Y-44896412D01*
X118036999Y-43940604D01*
X117081191Y-44896412D01*
X114048000Y-44896412D01*
X114048000Y-43823594D01*
X116395281Y-43823594D01*
X116439038Y-44142674D01*
X116544204Y-44447087D01*
X116637185Y-44621043D01*
X116901586Y-44716807D01*
X117857394Y-43760999D01*
X118216604Y-43760999D01*
X119172412Y-44716807D01*
X119436813Y-44621043D01*
X119577703Y-44331428D01*
X119659383Y-44019891D01*
X119671188Y-43823594D01*
X122895281Y-43823594D01*
X122939038Y-44142674D01*
X123044204Y-44447087D01*
X123137185Y-44621043D01*
X123401586Y-44716807D01*
X124357394Y-43760999D01*
X124716604Y-43760999D01*
X125672412Y-44716807D01*
X125936813Y-44621043D01*
X126077703Y-44331428D01*
X126159383Y-44019891D01*
X126178717Y-43698404D01*
X126134960Y-43379324D01*
X126029794Y-43074911D01*
X125936813Y-42900955D01*
X125672412Y-42805191D01*
X124716604Y-43760999D01*
X124357394Y-43760999D01*
X123401586Y-42805191D01*
X123137185Y-42900955D01*
X122996295Y-43190570D01*
X122914615Y-43502107D01*
X122895281Y-43823594D01*
X119671188Y-43823594D01*
X119678717Y-43698404D01*
X119634960Y-43379324D01*
X119529794Y-43074911D01*
X119436813Y-42900955D01*
X119172412Y-42805191D01*
X118216604Y-43760999D01*
X117857394Y-43760999D01*
X116901586Y-42805191D01*
X116637185Y-42900955D01*
X116496295Y-43190570D01*
X116414615Y-43502107D01*
X116395281Y-43823594D01*
X114048000Y-43823594D01*
X114048000Y-42625586D01*
X117081191Y-42625586D01*
X118036999Y-43581394D01*
X118992807Y-42625586D01*
X123581191Y-42625586D01*
X124536999Y-43581394D01*
X125492807Y-42625586D01*
X125397043Y-42361185D01*
X125107428Y-42220295D01*
X124795891Y-42138615D01*
X124474404Y-42119281D01*
X124155324Y-42163038D01*
X123850911Y-42268204D01*
X123676955Y-42361185D01*
X123581191Y-42625586D01*
X118992807Y-42625586D01*
X118897043Y-42361185D01*
X118607428Y-42220295D01*
X118295891Y-42138615D01*
X117974404Y-42119281D01*
X117655324Y-42163038D01*
X117350911Y-42268204D01*
X117176955Y-42361185D01*
X117081191Y-42625586D01*
X114048000Y-42625586D01*
X114048000Y-37116665D01*
X119183000Y-37116665D01*
X119183000Y-37399335D01*
X119238147Y-37676574D01*
X119346320Y-37937727D01*
X119503363Y-38172759D01*
X119703241Y-38372637D01*
X119935759Y-38528000D01*
X119703241Y-38683363D01*
X119503363Y-38883241D01*
X119346320Y-39118273D01*
X119238147Y-39379426D01*
X119183000Y-39656665D01*
X119183000Y-39939335D01*
X119238147Y-40216574D01*
X119346320Y-40477727D01*
X119503363Y-40712759D01*
X119703241Y-40912637D01*
X119938273Y-41069680D01*
X120199426Y-41177853D01*
X120476665Y-41233000D01*
X120759335Y-41233000D01*
X121036574Y-41177853D01*
X121297727Y-41069680D01*
X121532759Y-40912637D01*
X121732637Y-40712759D01*
X121889680Y-40477727D01*
X121997853Y-40216574D01*
X122053000Y-39939335D01*
X122053000Y-39656665D01*
X121997853Y-39379426D01*
X121889680Y-39118273D01*
X121732637Y-38883241D01*
X121532759Y-38683363D01*
X121300241Y-38528000D01*
X121532759Y-38372637D01*
X121732637Y-38172759D01*
X121889680Y-37937727D01*
X121997853Y-37676574D01*
X122053000Y-37399335D01*
X122053000Y-37116665D01*
X121997853Y-36839426D01*
X121889680Y-36578273D01*
X121732637Y-36343241D01*
X121532759Y-36143363D01*
X121517308Y-36133039D01*
X121609461Y-35889066D01*
X120618000Y-34897605D01*
X119626539Y-35889066D01*
X119718692Y-36133039D01*
X119703241Y-36143363D01*
X119503363Y-36343241D01*
X119346320Y-36578273D01*
X119238147Y-36839426D01*
X119183000Y-37116665D01*
X114048000Y-37116665D01*
X114048000Y-34778617D01*
X118925934Y-34778617D01*
X118970272Y-35107557D01*
X119077931Y-35421527D01*
X119177421Y-35607661D01*
X119446934Y-35709461D01*
X120438395Y-34718000D01*
X120797605Y-34718000D01*
X121789066Y-35709461D01*
X122058579Y-35607661D01*
X122204463Y-35309523D01*
X122289380Y-34988654D01*
X122310066Y-34657383D01*
X122265728Y-34328443D01*
X122158069Y-34014473D01*
X122058579Y-33828339D01*
X121789066Y-33726539D01*
X120797605Y-34718000D01*
X120438395Y-34718000D01*
X119446934Y-33726539D01*
X119177421Y-33828339D01*
X119031537Y-34126477D01*
X118946620Y-34447346D01*
X118925934Y-34778617D01*
X114048000Y-34778617D01*
X114048000Y-33546934D01*
X119626539Y-33546934D01*
X120618000Y-34538395D01*
X121609461Y-33546934D01*
X121507661Y-33277421D01*
X121209523Y-33131537D01*
X120888654Y-33046620D01*
X120557383Y-33025934D01*
X120228443Y-33070272D01*
X119914473Y-33177931D01*
X119728339Y-33277421D01*
X119626539Y-33546934D01*
X114048000Y-33546934D01*
X114048000Y-32469248D01*
X115506249Y-31011000D01*
X115647316Y-31011000D01*
X115798976Y-30980833D01*
X115941837Y-30921658D01*
X116070408Y-30835749D01*
X116179749Y-30726408D01*
X116265658Y-30597837D01*
X116324833Y-30454976D01*
X116355000Y-30303316D01*
X116355000Y-30148684D01*
X116324833Y-29997024D01*
X116265658Y-29854163D01*
X116179749Y-29725592D01*
X116070408Y-29616251D01*
X115941837Y-29530342D01*
X115798976Y-29471167D01*
X115647316Y-29441000D01*
X115492684Y-29441000D01*
X115341024Y-29471167D01*
X115198163Y-29530342D01*
X115069592Y-29616251D01*
X114960251Y-29725592D01*
X114874342Y-29854163D01*
X114815167Y-29997024D01*
X114785000Y-30148684D01*
X114785000Y-30289751D01*
X114295862Y-30778889D01*
X114295862Y-29587001D01*
X114288429Y-29511528D01*
X114266414Y-29438955D01*
X114230664Y-29372072D01*
X114201509Y-29336545D01*
X117147061Y-29336545D01*
X117244032Y-29601968D01*
X117535353Y-29743856D01*
X117848757Y-29826185D01*
X118172200Y-29845789D01*
X118493253Y-29801916D01*
X118799578Y-29696251D01*
X118975968Y-29601968D01*
X119072939Y-29336545D01*
X118110000Y-28373605D01*
X117147061Y-29336545D01*
X114201509Y-29336545D01*
X114182553Y-29313448D01*
X114123929Y-29265337D01*
X114057046Y-29229587D01*
X113984473Y-29207572D01*
X113909000Y-29200139D01*
X112409000Y-29200139D01*
X112333527Y-29207572D01*
X112260954Y-29229587D01*
X112194071Y-29265337D01*
X112135447Y-29313448D01*
X112087336Y-29372072D01*
X112051586Y-29438955D01*
X112029571Y-29511528D01*
X112022138Y-29587001D01*
X112022138Y-31087001D01*
X112029571Y-31162474D01*
X112051586Y-31235047D01*
X112087336Y-31301930D01*
X112135447Y-31360554D01*
X112194071Y-31408665D01*
X112260954Y-31444415D01*
X112333527Y-31466430D01*
X112409000Y-31473863D01*
X113600889Y-31473863D01*
X113195088Y-31879664D01*
X113175632Y-31895631D01*
X113159665Y-31915087D01*
X113159664Y-31915088D01*
X113111900Y-31973289D01*
X113064542Y-32061888D01*
X113035381Y-32158023D01*
X113025533Y-32258000D01*
X113028001Y-32283055D01*
X113028000Y-48298752D01*
X112138341Y-47409093D01*
X112122369Y-47389631D01*
X112044711Y-47325899D01*
X111956113Y-47278542D01*
X111859977Y-47249380D01*
X111785048Y-47242000D01*
X111785045Y-47242000D01*
X111760000Y-47239533D01*
X111734955Y-47242000D01*
X106772157Y-47242000D01*
X106672408Y-47142251D01*
X106543837Y-47056342D01*
X106400976Y-46997167D01*
X106249316Y-46967000D01*
X106094684Y-46967000D01*
X105943024Y-46997167D01*
X105800163Y-47056342D01*
X105671592Y-47142251D01*
X105562251Y-47251592D01*
X105476342Y-47380163D01*
X105417167Y-47523024D01*
X105387000Y-47674684D01*
X105387000Y-47829316D01*
X105417167Y-47980976D01*
X105476342Y-48123837D01*
X105562251Y-48252408D01*
X105671592Y-48361749D01*
X105800163Y-48447658D01*
X105943024Y-48506833D01*
X106094684Y-48537000D01*
X106249316Y-48537000D01*
X106400976Y-48506833D01*
X106543837Y-48447658D01*
X106672408Y-48361749D01*
X106772157Y-48262000D01*
X110189439Y-48262000D01*
X110135167Y-48393024D01*
X110105000Y-48544684D01*
X110105000Y-48699316D01*
X110135167Y-48850976D01*
X110194342Y-48993837D01*
X110280251Y-49122408D01*
X110380000Y-49222157D01*
X110380001Y-55014750D01*
X108754752Y-56640000D01*
X105435048Y-56640000D01*
X105410000Y-56637533D01*
X105310022Y-56647380D01*
X105213887Y-56676542D01*
X105125289Y-56723899D01*
X105047631Y-56787631D01*
X105031664Y-56807087D01*
X102797229Y-59041523D01*
X102722236Y-59010460D01*
X102483637Y-58963000D01*
X102240363Y-58963000D01*
X102001764Y-59010460D01*
X101777008Y-59103557D01*
X101574733Y-59238713D01*
X101402713Y-59410733D01*
X101267557Y-59613008D01*
X101174460Y-59837764D01*
X101127000Y-60076363D01*
X101127000Y-60319637D01*
X101174460Y-60558236D01*
X101267557Y-60782992D01*
X101402713Y-60985267D01*
X101574733Y-61157287D01*
X101777008Y-61292443D01*
X101879120Y-61334739D01*
X101857901Y-61341175D01*
X101595080Y-61466359D01*
X101361731Y-61640412D01*
X101166822Y-61856645D01*
X101017843Y-62106748D01*
X100920519Y-62381109D01*
X67244000Y-62381109D01*
X67244000Y-59449001D01*
X75508139Y-59449001D01*
X75508139Y-61249001D01*
X75515572Y-61324474D01*
X75537587Y-61397047D01*
X75573337Y-61463930D01*
X75621448Y-61522554D01*
X75680072Y-61570665D01*
X75746955Y-61606415D01*
X75819528Y-61628430D01*
X75895001Y-61635863D01*
X77695001Y-61635863D01*
X77770474Y-61628430D01*
X77843047Y-61606415D01*
X77909930Y-61570665D01*
X77968554Y-61522554D01*
X78016665Y-61463930D01*
X78052415Y-61397047D01*
X78074430Y-61324474D01*
X78081863Y-61249001D01*
X78081863Y-60635746D01*
X78099382Y-60723822D01*
X78196248Y-60957677D01*
X78336876Y-61168141D01*
X78515861Y-61347126D01*
X78726325Y-61487754D01*
X78960180Y-61584620D01*
X79208440Y-61634001D01*
X79461562Y-61634001D01*
X79709822Y-61584620D01*
X79943677Y-61487754D01*
X80154141Y-61347126D01*
X80333126Y-61168141D01*
X80473754Y-60957677D01*
X80570620Y-60723822D01*
X80620001Y-60475562D01*
X80620001Y-60222440D01*
X80570620Y-59974180D01*
X80473754Y-59740325D01*
X80333126Y-59529861D01*
X80252266Y-59449001D01*
X83008139Y-59449001D01*
X83008139Y-61249001D01*
X83015572Y-61324474D01*
X83037587Y-61397047D01*
X83073337Y-61463930D01*
X83121448Y-61522554D01*
X83180072Y-61570665D01*
X83246955Y-61606415D01*
X83319528Y-61628430D01*
X83395001Y-61635863D01*
X85195001Y-61635863D01*
X85270474Y-61628430D01*
X85343047Y-61606415D01*
X85409930Y-61570665D01*
X85468554Y-61522554D01*
X85516665Y-61463930D01*
X85552415Y-61397047D01*
X85574430Y-61324474D01*
X85581863Y-61249001D01*
X85581863Y-60635746D01*
X85599382Y-60723822D01*
X85696248Y-60957677D01*
X85836876Y-61168141D01*
X86015861Y-61347126D01*
X86226325Y-61487754D01*
X86460180Y-61584620D01*
X86708440Y-61634001D01*
X86961562Y-61634001D01*
X87209822Y-61584620D01*
X87443677Y-61487754D01*
X87654141Y-61347126D01*
X87833126Y-61168141D01*
X87973754Y-60957677D01*
X88070620Y-60723822D01*
X88120001Y-60475562D01*
X88120001Y-60222440D01*
X88070620Y-59974180D01*
X87973754Y-59740325D01*
X87833126Y-59529861D01*
X87752266Y-59449001D01*
X90407138Y-59449001D01*
X90407138Y-61249001D01*
X90414571Y-61324474D01*
X90436586Y-61397047D01*
X90472336Y-61463930D01*
X90520447Y-61522554D01*
X90579071Y-61570665D01*
X90645954Y-61606415D01*
X90718527Y-61628430D01*
X90794000Y-61635863D01*
X92594000Y-61635863D01*
X92669473Y-61628430D01*
X92742046Y-61606415D01*
X92808929Y-61570665D01*
X92867553Y-61522554D01*
X92915664Y-61463930D01*
X92951414Y-61397047D01*
X92973429Y-61324474D01*
X92980862Y-61249001D01*
X92980862Y-60635746D01*
X92998381Y-60723822D01*
X93095247Y-60957677D01*
X93235875Y-61168141D01*
X93414860Y-61347126D01*
X93625324Y-61487754D01*
X93859179Y-61584620D01*
X94107439Y-61634001D01*
X94360561Y-61634001D01*
X94608821Y-61584620D01*
X94842676Y-61487754D01*
X95053140Y-61347126D01*
X95232125Y-61168141D01*
X95372753Y-60957677D01*
X95469619Y-60723822D01*
X95519000Y-60475562D01*
X95519000Y-60222440D01*
X95469619Y-59974180D01*
X95372753Y-59740325D01*
X95232125Y-59529861D01*
X95053140Y-59350876D01*
X94842676Y-59210248D01*
X94608821Y-59113382D01*
X94360561Y-59064001D01*
X94107439Y-59064001D01*
X93859179Y-59113382D01*
X93625324Y-59210248D01*
X93414860Y-59350876D01*
X93235875Y-59529861D01*
X93095247Y-59740325D01*
X92998381Y-59974180D01*
X92980862Y-60062256D01*
X92980862Y-59449001D01*
X92973429Y-59373528D01*
X92951414Y-59300955D01*
X92915664Y-59234072D01*
X92867553Y-59175448D01*
X92808929Y-59127337D01*
X92742046Y-59091587D01*
X92669473Y-59069572D01*
X92594000Y-59062139D01*
X90794000Y-59062139D01*
X90718527Y-59069572D01*
X90645954Y-59091587D01*
X90579071Y-59127337D01*
X90520447Y-59175448D01*
X90472336Y-59234072D01*
X90436586Y-59300955D01*
X90414571Y-59373528D01*
X90407138Y-59449001D01*
X87752266Y-59449001D01*
X87654141Y-59350876D01*
X87443677Y-59210248D01*
X87209822Y-59113382D01*
X86961562Y-59064001D01*
X86708440Y-59064001D01*
X86460180Y-59113382D01*
X86226325Y-59210248D01*
X86015861Y-59350876D01*
X85836876Y-59529861D01*
X85696248Y-59740325D01*
X85599382Y-59974180D01*
X85581863Y-60062256D01*
X85581863Y-59449001D01*
X85574430Y-59373528D01*
X85552415Y-59300955D01*
X85516665Y-59234072D01*
X85468554Y-59175448D01*
X85409930Y-59127337D01*
X85343047Y-59091587D01*
X85270474Y-59069572D01*
X85195001Y-59062139D01*
X83395001Y-59062139D01*
X83319528Y-59069572D01*
X83246955Y-59091587D01*
X83180072Y-59127337D01*
X83121448Y-59175448D01*
X83073337Y-59234072D01*
X83037587Y-59300955D01*
X83015572Y-59373528D01*
X83008139Y-59449001D01*
X80252266Y-59449001D01*
X80154141Y-59350876D01*
X79943677Y-59210248D01*
X79709822Y-59113382D01*
X79461562Y-59064001D01*
X79208440Y-59064001D01*
X78960180Y-59113382D01*
X78726325Y-59210248D01*
X78515861Y-59350876D01*
X78336876Y-59529861D01*
X78196248Y-59740325D01*
X78099382Y-59974180D01*
X78081863Y-60062256D01*
X78081863Y-59449001D01*
X78074430Y-59373528D01*
X78052415Y-59300955D01*
X78016665Y-59234072D01*
X77968554Y-59175448D01*
X77909930Y-59127337D01*
X77843047Y-59091587D01*
X77770474Y-59069572D01*
X77695001Y-59062139D01*
X75895001Y-59062139D01*
X75819528Y-59069572D01*
X75746955Y-59091587D01*
X75680072Y-59127337D01*
X75621448Y-59175448D01*
X75573337Y-59234072D01*
X75537587Y-59300955D01*
X75515572Y-59373528D01*
X75508139Y-59449001D01*
X67244000Y-59449001D01*
X67244000Y-51453167D01*
X81191000Y-51453167D01*
X81191000Y-51670833D01*
X81233464Y-51884317D01*
X81316761Y-52085414D01*
X81437690Y-52266397D01*
X81591603Y-52420310D01*
X81772586Y-52541239D01*
X81973683Y-52624536D01*
X82187167Y-52667000D01*
X82404833Y-52667000D01*
X82618317Y-52624536D01*
X82819414Y-52541239D01*
X83000397Y-52420310D01*
X83154310Y-52266397D01*
X83275239Y-52085414D01*
X83358536Y-51884317D01*
X83401000Y-51670833D01*
X83401000Y-51516684D01*
X91957000Y-51516684D01*
X91957000Y-51671316D01*
X91987167Y-51822976D01*
X92046342Y-51965837D01*
X92132251Y-52094408D01*
X92241592Y-52203749D01*
X92370163Y-52289658D01*
X92513024Y-52348833D01*
X92664684Y-52379000D01*
X92819316Y-52379000D01*
X92970976Y-52348833D01*
X93113837Y-52289658D01*
X93242408Y-52203749D01*
X93342157Y-52104000D01*
X106301843Y-52104000D01*
X106401592Y-52203749D01*
X106530163Y-52289658D01*
X106673024Y-52348833D01*
X106824684Y-52379000D01*
X106979316Y-52379000D01*
X107130976Y-52348833D01*
X107273837Y-52289658D01*
X107402408Y-52203749D01*
X107511749Y-52094408D01*
X107597658Y-51965837D01*
X107656833Y-51822976D01*
X107687000Y-51671316D01*
X107687000Y-51516684D01*
X107656833Y-51365024D01*
X107597658Y-51222163D01*
X107511749Y-51093592D01*
X107402408Y-50984251D01*
X107273837Y-50898342D01*
X107130976Y-50839167D01*
X106979316Y-50809000D01*
X106824684Y-50809000D01*
X106673024Y-50839167D01*
X106530163Y-50898342D01*
X106401592Y-50984251D01*
X106301843Y-51084000D01*
X93342157Y-51084000D01*
X93242408Y-50984251D01*
X93113837Y-50898342D01*
X92970976Y-50839167D01*
X92819316Y-50809000D01*
X92664684Y-50809000D01*
X92513024Y-50839167D01*
X92370163Y-50898342D01*
X92241592Y-50984251D01*
X92132251Y-51093592D01*
X92046342Y-51222163D01*
X91987167Y-51365024D01*
X91957000Y-51516684D01*
X83401000Y-51516684D01*
X83401000Y-51453167D01*
X83358536Y-51239683D01*
X83275239Y-51038586D01*
X83154310Y-50857603D01*
X83000397Y-50703690D01*
X82819414Y-50582761D01*
X82618317Y-50499464D01*
X82404833Y-50457000D01*
X82187167Y-50457000D01*
X81973683Y-50499464D01*
X81772586Y-50582761D01*
X81591603Y-50703690D01*
X81437690Y-50857603D01*
X81316761Y-51038586D01*
X81233464Y-51239683D01*
X81191000Y-51453167D01*
X67244000Y-51453167D01*
X67244000Y-49957560D01*
X84080045Y-49957560D01*
X84141932Y-50193368D01*
X84383790Y-50306266D01*
X84643027Y-50369811D01*
X84909680Y-50381561D01*
X85173501Y-50341063D01*
X85424353Y-50249875D01*
X85530068Y-50193368D01*
X85591955Y-49957560D01*
X84836000Y-49201605D01*
X84080045Y-49957560D01*
X67244000Y-49957560D01*
X67244000Y-49095680D01*
X83476439Y-49095680D01*
X83516937Y-49359501D01*
X83608125Y-49610353D01*
X83664632Y-49716068D01*
X83900440Y-49777955D01*
X84656395Y-49022000D01*
X85015605Y-49022000D01*
X85771560Y-49777955D01*
X86007368Y-49716068D01*
X86120266Y-49474210D01*
X86183811Y-49214973D01*
X86195561Y-48948320D01*
X86156013Y-48690684D01*
X98021000Y-48690684D01*
X98021000Y-48845316D01*
X98051167Y-48996976D01*
X98110342Y-49139837D01*
X98196251Y-49268408D01*
X98305592Y-49377749D01*
X98434163Y-49463658D01*
X98577024Y-49522833D01*
X98728684Y-49553000D01*
X98883316Y-49553000D01*
X99034976Y-49522833D01*
X99177837Y-49463658D01*
X99306408Y-49377749D01*
X99406157Y-49278000D01*
X101761843Y-49278000D01*
X101861592Y-49377749D01*
X101990163Y-49463658D01*
X102133024Y-49522833D01*
X102284684Y-49553000D01*
X102439316Y-49553000D01*
X102590976Y-49522833D01*
X102733837Y-49463658D01*
X102862408Y-49377749D01*
X102971749Y-49268408D01*
X103057658Y-49139837D01*
X103116833Y-48996976D01*
X103147000Y-48845316D01*
X103147000Y-48690684D01*
X103116833Y-48539024D01*
X103057658Y-48396163D01*
X102971749Y-48267592D01*
X102862408Y-48158251D01*
X102733837Y-48072342D01*
X102590976Y-48013167D01*
X102439316Y-47983000D01*
X102284684Y-47983000D01*
X102133024Y-48013167D01*
X101990163Y-48072342D01*
X101861592Y-48158251D01*
X101761843Y-48258000D01*
X99406157Y-48258000D01*
X99306408Y-48158251D01*
X99177837Y-48072342D01*
X99034976Y-48013167D01*
X98883316Y-47983000D01*
X98728684Y-47983000D01*
X98577024Y-48013167D01*
X98434163Y-48072342D01*
X98305592Y-48158251D01*
X98196251Y-48267592D01*
X98110342Y-48396163D01*
X98051167Y-48539024D01*
X98021000Y-48690684D01*
X86156013Y-48690684D01*
X86155063Y-48684499D01*
X86063875Y-48433647D01*
X86007368Y-48327932D01*
X85771560Y-48266045D01*
X85015605Y-49022000D01*
X84656395Y-49022000D01*
X83900440Y-48266045D01*
X83664632Y-48327932D01*
X83551734Y-48569790D01*
X83488189Y-48829027D01*
X83476439Y-49095680D01*
X67244000Y-49095680D01*
X67244000Y-48086440D01*
X84080045Y-48086440D01*
X84836000Y-48842395D01*
X85591955Y-48086440D01*
X85530068Y-47850632D01*
X85288210Y-47737734D01*
X85028973Y-47674189D01*
X84762320Y-47662439D01*
X84498499Y-47702937D01*
X84247647Y-47794125D01*
X84141932Y-47850632D01*
X84080045Y-48086440D01*
X67244000Y-48086440D01*
X67244000Y-46373167D01*
X81191000Y-46373167D01*
X81191000Y-46590833D01*
X81233464Y-46804317D01*
X81316761Y-47005414D01*
X81437690Y-47186397D01*
X81591603Y-47340310D01*
X81772586Y-47461239D01*
X81973683Y-47544536D01*
X82187167Y-47587000D01*
X82404833Y-47587000D01*
X82618317Y-47544536D01*
X82819414Y-47461239D01*
X83000397Y-47340310D01*
X83154310Y-47186397D01*
X83275239Y-47005414D01*
X83358536Y-46804317D01*
X83401000Y-46590833D01*
X83401000Y-46373167D01*
X83358536Y-46159683D01*
X83275239Y-45958586D01*
X83154310Y-45777603D01*
X83000397Y-45623690D01*
X82819414Y-45502761D01*
X82618317Y-45419464D01*
X82404833Y-45377000D01*
X82187167Y-45377000D01*
X81973683Y-45419464D01*
X81772586Y-45502761D01*
X81591603Y-45623690D01*
X81437690Y-45777603D01*
X81316761Y-45958586D01*
X81233464Y-46159683D01*
X81191000Y-46373167D01*
X67244000Y-46373167D01*
X67244000Y-44880684D01*
X87607000Y-44880684D01*
X87607000Y-45035316D01*
X87637167Y-45186976D01*
X87696342Y-45329837D01*
X87782251Y-45458408D01*
X87891592Y-45567749D01*
X88020163Y-45653658D01*
X88163024Y-45712833D01*
X88314684Y-45743000D01*
X88469316Y-45743000D01*
X88620976Y-45712833D01*
X88763837Y-45653658D01*
X88892408Y-45567749D01*
X89001749Y-45458408D01*
X89087658Y-45329837D01*
X89146833Y-45186976D01*
X89177000Y-45035316D01*
X89177000Y-45034248D01*
X90938249Y-43273000D01*
X91079316Y-43273000D01*
X91230976Y-43242833D01*
X91373837Y-43183658D01*
X91502408Y-43097749D01*
X91602157Y-42998000D01*
X103101843Y-42998000D01*
X103201592Y-43097749D01*
X103330163Y-43183658D01*
X103473024Y-43242833D01*
X103624684Y-43273000D01*
X103779316Y-43273000D01*
X103930976Y-43242833D01*
X104073837Y-43183658D01*
X104202408Y-43097749D01*
X104311749Y-42988408D01*
X104397658Y-42859837D01*
X104456833Y-42716976D01*
X104487000Y-42565316D01*
X104487000Y-42410684D01*
X104456833Y-42259024D01*
X104397658Y-42116163D01*
X104311749Y-41987592D01*
X104202408Y-41878251D01*
X104073837Y-41792342D01*
X103930976Y-41733167D01*
X103779316Y-41703000D01*
X103624684Y-41703000D01*
X103473024Y-41733167D01*
X103330163Y-41792342D01*
X103201592Y-41878251D01*
X103101843Y-41978000D01*
X91602157Y-41978000D01*
X91502408Y-41878251D01*
X91373837Y-41792342D01*
X91230976Y-41733167D01*
X91079316Y-41703000D01*
X90924684Y-41703000D01*
X90773024Y-41733167D01*
X90630163Y-41792342D01*
X90501592Y-41878251D01*
X90392251Y-41987592D01*
X90306342Y-42116163D01*
X90247167Y-42259024D01*
X90217000Y-42410684D01*
X90217000Y-42551751D01*
X88574775Y-44193977D01*
X88469316Y-44173000D01*
X88314684Y-44173000D01*
X88163024Y-44203167D01*
X88020163Y-44262342D01*
X87891592Y-44348251D01*
X87782251Y-44457592D01*
X87696342Y-44586163D01*
X87637167Y-44729024D01*
X87607000Y-44880684D01*
X67244000Y-44880684D01*
X67244000Y-37096000D01*
X80622138Y-37096000D01*
X80622138Y-38596000D01*
X80629571Y-38671473D01*
X80651586Y-38744046D01*
X80687336Y-38810929D01*
X80735447Y-38869553D01*
X80794071Y-38917664D01*
X80860954Y-38953414D01*
X80933527Y-38975429D01*
X81009000Y-38982862D01*
X82059000Y-38982862D01*
X82134473Y-38975429D01*
X82207046Y-38953414D01*
X82268715Y-38920451D01*
X82293000Y-38933432D01*
X82414816Y-38970385D01*
X82541500Y-38982862D01*
X83045027Y-38982862D01*
X83097815Y-39047185D01*
X83194506Y-39126537D01*
X83304820Y-39185502D01*
X83424518Y-39221812D01*
X83549000Y-39234072D01*
X83788250Y-39231000D01*
X83947000Y-39072250D01*
X83947000Y-37973000D01*
X84201000Y-37973000D01*
X84201000Y-39072250D01*
X84359750Y-39231000D01*
X84599000Y-39234072D01*
X84723482Y-39221812D01*
X84843180Y-39185502D01*
X84953494Y-39126537D01*
X85050185Y-39047185D01*
X85129537Y-38950494D01*
X85188502Y-38840180D01*
X85224812Y-38720482D01*
X85237072Y-38596000D01*
X85234000Y-38131750D01*
X85075250Y-37973000D01*
X84201000Y-37973000D01*
X83947000Y-37973000D01*
X83927000Y-37973000D01*
X83927000Y-37719000D01*
X83947000Y-37719000D01*
X83947000Y-36619750D01*
X84201000Y-36619750D01*
X84201000Y-37719000D01*
X85075250Y-37719000D01*
X85234000Y-37560250D01*
X85234529Y-37480212D01*
X95639000Y-37480212D01*
X95639000Y-37703788D01*
X95682617Y-37923067D01*
X95768176Y-38129624D01*
X95892388Y-38315520D01*
X96050480Y-38473612D01*
X96236376Y-38597824D01*
X96442933Y-38683383D01*
X96662212Y-38727000D01*
X96885788Y-38727000D01*
X97105067Y-38683383D01*
X97311624Y-38597824D01*
X97497520Y-38473612D01*
X97655612Y-38315520D01*
X97779824Y-38129624D01*
X97865383Y-37923067D01*
X97909000Y-37703788D01*
X97909000Y-37480212D01*
X97865383Y-37260933D01*
X97843044Y-37207001D01*
X104627138Y-37207001D01*
X104627138Y-38707001D01*
X104634571Y-38782474D01*
X104656586Y-38855047D01*
X104692336Y-38921930D01*
X104740447Y-38980554D01*
X104799071Y-39028665D01*
X104865954Y-39064415D01*
X104938527Y-39086430D01*
X105014000Y-39093863D01*
X106064000Y-39093863D01*
X106139473Y-39086430D01*
X106212046Y-39064415D01*
X106273715Y-39031452D01*
X106298000Y-39044433D01*
X106419816Y-39081386D01*
X106546500Y-39093863D01*
X107050027Y-39093863D01*
X107102815Y-39158186D01*
X107199506Y-39237538D01*
X107309820Y-39296503D01*
X107429518Y-39332813D01*
X107554000Y-39345073D01*
X107793250Y-39342001D01*
X107952000Y-39183251D01*
X107952000Y-38084001D01*
X108206000Y-38084001D01*
X108206000Y-39183251D01*
X108364750Y-39342001D01*
X108604000Y-39345073D01*
X108728482Y-39332813D01*
X108848180Y-39296503D01*
X108958494Y-39237538D01*
X109055185Y-39158186D01*
X109134537Y-39061495D01*
X109193502Y-38951181D01*
X109229812Y-38831483D01*
X109242072Y-38707001D01*
X109239000Y-38242751D01*
X109080250Y-38084001D01*
X108206000Y-38084001D01*
X107952000Y-38084001D01*
X107932000Y-38084001D01*
X107932000Y-37830001D01*
X107952000Y-37830001D01*
X107952000Y-36730751D01*
X108206000Y-36730751D01*
X108206000Y-37830001D01*
X109080250Y-37830001D01*
X109239000Y-37671251D01*
X109242072Y-37207001D01*
X109229812Y-37082519D01*
X109193502Y-36962821D01*
X109134537Y-36852507D01*
X109055185Y-36755816D01*
X108958494Y-36676464D01*
X108848180Y-36617499D01*
X108728482Y-36581189D01*
X108604000Y-36568929D01*
X108364750Y-36572001D01*
X108206000Y-36730751D01*
X107952000Y-36730751D01*
X107793250Y-36572001D01*
X107554000Y-36568929D01*
X107429518Y-36581189D01*
X107309820Y-36617499D01*
X107199506Y-36676464D01*
X107102815Y-36755816D01*
X107050027Y-36820139D01*
X106546500Y-36820139D01*
X106419816Y-36832616D01*
X106298000Y-36869569D01*
X106273715Y-36882550D01*
X106212046Y-36849587D01*
X106139473Y-36827572D01*
X106064000Y-36820139D01*
X105014000Y-36820139D01*
X104938527Y-36827572D01*
X104865954Y-36849587D01*
X104799071Y-36885337D01*
X104740447Y-36933448D01*
X104692336Y-36992072D01*
X104656586Y-37058955D01*
X104634571Y-37131528D01*
X104627138Y-37207001D01*
X97843044Y-37207001D01*
X97779824Y-37054376D01*
X97655612Y-36868480D01*
X97497520Y-36710388D01*
X97311624Y-36586176D01*
X97105067Y-36500617D01*
X96885788Y-36457000D01*
X96662212Y-36457000D01*
X96442933Y-36500617D01*
X96236376Y-36586176D01*
X96050480Y-36710388D01*
X95892388Y-36868480D01*
X95768176Y-37054376D01*
X95682617Y-37260933D01*
X95639000Y-37480212D01*
X85234529Y-37480212D01*
X85237072Y-37096000D01*
X85224812Y-36971518D01*
X85188502Y-36851820D01*
X85129537Y-36741506D01*
X85050185Y-36644815D01*
X84953494Y-36565463D01*
X84843180Y-36506498D01*
X84723482Y-36470188D01*
X84599000Y-36457928D01*
X84359750Y-36461000D01*
X84201000Y-36619750D01*
X83947000Y-36619750D01*
X83788250Y-36461000D01*
X83549000Y-36457928D01*
X83424518Y-36470188D01*
X83304820Y-36506498D01*
X83194506Y-36565463D01*
X83097815Y-36644815D01*
X83045027Y-36709138D01*
X82541500Y-36709138D01*
X82414816Y-36721615D01*
X82293000Y-36758568D01*
X82268715Y-36771549D01*
X82207046Y-36738586D01*
X82134473Y-36716571D01*
X82059000Y-36709138D01*
X81009000Y-36709138D01*
X80933527Y-36716571D01*
X80860954Y-36738586D01*
X80794071Y-36774336D01*
X80735447Y-36822447D01*
X80687336Y-36881071D01*
X80651586Y-36947954D01*
X80629571Y-37020527D01*
X80622138Y-37096000D01*
X67244000Y-37096000D01*
X67244000Y-34406604D01*
X69979000Y-34406604D01*
X69979000Y-34681396D01*
X70032609Y-34950907D01*
X70137767Y-35204780D01*
X70290433Y-35433261D01*
X70484739Y-35627567D01*
X70713220Y-35780233D01*
X70967093Y-35885391D01*
X71236604Y-35939000D01*
X71511396Y-35939000D01*
X71780907Y-35885391D01*
X72034780Y-35780233D01*
X72263261Y-35627567D01*
X72457567Y-35433261D01*
X72610233Y-35204780D01*
X72644000Y-35123260D01*
X72677767Y-35204780D01*
X72830433Y-35433261D01*
X73024739Y-35627567D01*
X73253220Y-35780233D01*
X73507093Y-35885391D01*
X73776604Y-35939000D01*
X74051396Y-35939000D01*
X74320907Y-35885391D01*
X74574780Y-35780233D01*
X74803261Y-35627567D01*
X74997567Y-35433261D01*
X75150233Y-35204780D01*
X75255391Y-34950907D01*
X75309000Y-34681396D01*
X75309000Y-34406604D01*
X75255391Y-34137093D01*
X75150233Y-33883220D01*
X74997567Y-33654739D01*
X74803261Y-33460433D01*
X74574780Y-33307767D01*
X74320907Y-33202609D01*
X74051396Y-33149000D01*
X73776604Y-33149000D01*
X73507093Y-33202609D01*
X73253220Y-33307767D01*
X73024739Y-33460433D01*
X72830433Y-33654739D01*
X72677767Y-33883220D01*
X72644000Y-33964740D01*
X72610233Y-33883220D01*
X72457567Y-33654739D01*
X72263261Y-33460433D01*
X72034780Y-33307767D01*
X71780907Y-33202609D01*
X71511396Y-33149000D01*
X71236604Y-33149000D01*
X70967093Y-33202609D01*
X70713220Y-33307767D01*
X70484739Y-33460433D01*
X70290433Y-33654739D01*
X70137767Y-33883220D01*
X70032609Y-34137093D01*
X69979000Y-34406604D01*
X67244000Y-34406604D01*
X67244000Y-32766000D01*
X79098268Y-32766000D01*
X79121148Y-32998300D01*
X79188907Y-33221674D01*
X79298943Y-33427536D01*
X79447026Y-33607975D01*
X79627465Y-33756058D01*
X79833327Y-33866094D01*
X80056701Y-33933853D01*
X80230794Y-33951000D01*
X81047208Y-33951000D01*
X81221301Y-33933853D01*
X81444675Y-33866094D01*
X81650537Y-33756058D01*
X81830976Y-33607975D01*
X81979059Y-33427536D01*
X82089095Y-33221674D01*
X82121442Y-33115039D01*
X86517097Y-33115039D01*
X86534634Y-33197818D01*
X86645286Y-33457646D01*
X86804501Y-33690895D01*
X87006162Y-33888601D01*
X87242518Y-34043166D01*
X87504487Y-34148650D01*
X87782001Y-34201000D01*
X88132001Y-34201000D01*
X88132001Y-32893000D01*
X88386001Y-32893000D01*
X88386001Y-34201000D01*
X88736001Y-34201000D01*
X89013515Y-34148650D01*
X89275484Y-34043166D01*
X89511840Y-33888601D01*
X89713501Y-33690895D01*
X89728451Y-33668993D01*
X95996612Y-33668993D01*
X96062137Y-33907860D01*
X96309116Y-34023760D01*
X96573960Y-34089250D01*
X96846492Y-34101812D01*
X97116238Y-34060965D01*
X97372832Y-33968277D01*
X97485863Y-33907860D01*
X97551388Y-33668993D01*
X96774000Y-32891605D01*
X95996612Y-33668993D01*
X89728451Y-33668993D01*
X89872716Y-33457646D01*
X89983368Y-33197818D01*
X90000905Y-33115039D01*
X89878916Y-32893000D01*
X88386001Y-32893000D01*
X88132001Y-32893000D01*
X86639086Y-32893000D01*
X86517097Y-33115039D01*
X82121442Y-33115039D01*
X82156854Y-32998300D01*
X82177912Y-32784492D01*
X95384188Y-32784492D01*
X95425035Y-33054238D01*
X95517723Y-33310832D01*
X95578140Y-33423863D01*
X95817007Y-33489388D01*
X96594395Y-32712000D01*
X96953605Y-32712000D01*
X97730993Y-33489388D01*
X97969860Y-33423863D01*
X98085760Y-33176884D01*
X98151250Y-32912040D01*
X98152865Y-32877001D01*
X101103268Y-32877001D01*
X101126148Y-33109301D01*
X101193907Y-33332675D01*
X101303943Y-33538537D01*
X101452026Y-33718976D01*
X101632465Y-33867059D01*
X101838327Y-33977095D01*
X102061701Y-34044854D01*
X102235794Y-34062001D01*
X103052208Y-34062001D01*
X103226301Y-34044854D01*
X103449675Y-33977095D01*
X103655537Y-33867059D01*
X103835976Y-33718976D01*
X103984059Y-33538537D01*
X104094095Y-33332675D01*
X104126442Y-33226040D01*
X108522097Y-33226040D01*
X108539634Y-33308819D01*
X108650286Y-33568647D01*
X108809501Y-33801896D01*
X109011162Y-33999602D01*
X109247518Y-34154167D01*
X109509487Y-34259651D01*
X109787001Y-34312001D01*
X110137001Y-34312001D01*
X110137001Y-33004001D01*
X110391001Y-33004001D01*
X110391001Y-34312001D01*
X110741001Y-34312001D01*
X111018515Y-34259651D01*
X111280484Y-34154167D01*
X111516840Y-33999602D01*
X111718501Y-33801896D01*
X111877716Y-33568647D01*
X111988368Y-33308819D01*
X112005905Y-33226040D01*
X111883916Y-33004001D01*
X110391001Y-33004001D01*
X110137001Y-33004001D01*
X108644086Y-33004001D01*
X108522097Y-33226040D01*
X104126442Y-33226040D01*
X104161854Y-33109301D01*
X104184734Y-32877001D01*
X104161854Y-32644701D01*
X104094095Y-32421327D01*
X103984059Y-32215465D01*
X103835976Y-32035026D01*
X103655537Y-31886943D01*
X103449675Y-31776907D01*
X103226301Y-31709148D01*
X103052208Y-31692001D01*
X102235794Y-31692001D01*
X102061701Y-31709148D01*
X101838327Y-31776907D01*
X101632465Y-31886943D01*
X101452026Y-32035026D01*
X101303943Y-32215465D01*
X101193907Y-32421327D01*
X101126148Y-32644701D01*
X101103268Y-32877001D01*
X98152865Y-32877001D01*
X98163812Y-32639508D01*
X98122965Y-32369762D01*
X98030277Y-32113168D01*
X97969860Y-32000137D01*
X97730993Y-31934612D01*
X96953605Y-32712000D01*
X96594395Y-32712000D01*
X95817007Y-31934612D01*
X95578140Y-32000137D01*
X95462240Y-32247116D01*
X95396750Y-32511960D01*
X95384188Y-32784492D01*
X82177912Y-32784492D01*
X82179734Y-32766000D01*
X82156854Y-32533700D01*
X82121443Y-32416961D01*
X86517097Y-32416961D01*
X86639086Y-32639000D01*
X88132001Y-32639000D01*
X88132001Y-32619000D01*
X88386001Y-32619000D01*
X88386001Y-32639000D01*
X89878916Y-32639000D01*
X90000905Y-32416961D01*
X89983368Y-32334182D01*
X89872716Y-32074354D01*
X89713501Y-31841105D01*
X89625681Y-31755007D01*
X95996612Y-31755007D01*
X96774000Y-32532395D01*
X97551388Y-31755007D01*
X97485863Y-31516140D01*
X97238884Y-31400240D01*
X96974040Y-31334750D01*
X96701508Y-31322188D01*
X96431762Y-31363035D01*
X96175168Y-31455723D01*
X96062137Y-31516140D01*
X95996612Y-31755007D01*
X89625681Y-31755007D01*
X89511840Y-31643399D01*
X89275484Y-31488834D01*
X89013515Y-31383350D01*
X88928681Y-31367347D01*
X89064675Y-31326094D01*
X89270537Y-31216058D01*
X89450976Y-31067975D01*
X89599059Y-30887536D01*
X89709095Y-30681674D01*
X89776854Y-30458300D01*
X89799734Y-30226000D01*
X89776854Y-29993700D01*
X89709095Y-29770326D01*
X89599059Y-29564464D01*
X89526459Y-29476000D01*
X90017138Y-29476000D01*
X90017138Y-30976000D01*
X90024571Y-31051473D01*
X90046586Y-31124046D01*
X90082336Y-31190929D01*
X90130447Y-31249553D01*
X90189071Y-31297664D01*
X90255954Y-31333414D01*
X90328527Y-31355429D01*
X90404000Y-31362862D01*
X91904000Y-31362862D01*
X91979473Y-31355429D01*
X92052046Y-31333414D01*
X92118929Y-31297664D01*
X92177553Y-31249553D01*
X92225664Y-31190929D01*
X92261414Y-31124046D01*
X92283429Y-31051473D01*
X92290862Y-30976000D01*
X92290862Y-29810387D01*
X92889249Y-29212000D01*
X101920435Y-29212000D01*
X101838327Y-29236907D01*
X101632465Y-29346943D01*
X101452026Y-29495026D01*
X101303943Y-29675465D01*
X101193907Y-29881327D01*
X101126148Y-30104701D01*
X101103268Y-30337001D01*
X101126148Y-30569301D01*
X101193907Y-30792675D01*
X101303943Y-30998537D01*
X101452026Y-31178976D01*
X101632465Y-31327059D01*
X101838327Y-31437095D01*
X102061701Y-31504854D01*
X102235794Y-31522001D01*
X103052208Y-31522001D01*
X103226301Y-31504854D01*
X103449675Y-31437095D01*
X103655537Y-31327059D01*
X103835976Y-31178976D01*
X103984059Y-30998537D01*
X104094095Y-30792675D01*
X104161854Y-30569301D01*
X104184734Y-30337001D01*
X104161854Y-30104701D01*
X104094095Y-29881327D01*
X103984059Y-29675465D01*
X103835976Y-29495026D01*
X103655537Y-29346943D01*
X103449675Y-29236907D01*
X103367567Y-29212000D01*
X108302754Y-29212000D01*
X108869003Y-29778250D01*
X108813907Y-29881327D01*
X108746148Y-30104701D01*
X108723268Y-30337001D01*
X108746148Y-30569301D01*
X108813907Y-30792675D01*
X108923943Y-30998537D01*
X109072026Y-31178976D01*
X109252465Y-31327059D01*
X109458327Y-31437095D01*
X109594321Y-31478348D01*
X109509487Y-31494351D01*
X109247518Y-31599835D01*
X109011162Y-31754400D01*
X108809501Y-31952106D01*
X108650286Y-32185355D01*
X108539634Y-32445183D01*
X108522097Y-32527962D01*
X108644086Y-32750001D01*
X110137001Y-32750001D01*
X110137001Y-32730001D01*
X110391001Y-32730001D01*
X110391001Y-32750001D01*
X111883916Y-32750001D01*
X112005905Y-32527962D01*
X111988368Y-32445183D01*
X111877716Y-32185355D01*
X111718501Y-31952106D01*
X111516840Y-31754400D01*
X111280484Y-31599835D01*
X111018515Y-31494351D01*
X110933681Y-31478348D01*
X111069675Y-31437095D01*
X111275537Y-31327059D01*
X111455976Y-31178976D01*
X111604059Y-30998537D01*
X111714095Y-30792675D01*
X111781854Y-30569301D01*
X111804734Y-30337001D01*
X111781854Y-30104701D01*
X111714095Y-29881327D01*
X111604059Y-29675465D01*
X111455976Y-29495026D01*
X111275537Y-29346943D01*
X111069675Y-29236907D01*
X110846301Y-29169148D01*
X110672208Y-29152001D01*
X109855794Y-29152001D01*
X109700543Y-29167292D01*
X108892343Y-28359093D01*
X108876371Y-28339631D01*
X108798713Y-28275899D01*
X108761860Y-28256200D01*
X116458211Y-28256200D01*
X116502084Y-28577253D01*
X116607749Y-28883578D01*
X116702032Y-29059968D01*
X116967455Y-29156939D01*
X117930395Y-28194000D01*
X118289605Y-28194000D01*
X119252545Y-29156939D01*
X119517968Y-29059968D01*
X119531839Y-29031488D01*
X119566433Y-29083261D01*
X119760739Y-29277567D01*
X119989220Y-29430233D01*
X120243093Y-29535391D01*
X120512604Y-29589000D01*
X120787396Y-29589000D01*
X121056907Y-29535391D01*
X121310780Y-29430233D01*
X121539261Y-29277567D01*
X121733567Y-29083261D01*
X121886233Y-28854780D01*
X121991391Y-28600907D01*
X122045000Y-28331396D01*
X122045000Y-28056604D01*
X121991391Y-27787093D01*
X121886233Y-27533220D01*
X121733567Y-27304739D01*
X121539261Y-27110433D01*
X121310780Y-26957767D01*
X121056907Y-26852609D01*
X120787396Y-26799000D01*
X120512604Y-26799000D01*
X120243093Y-26852609D01*
X119989220Y-26957767D01*
X119760739Y-27110433D01*
X119566433Y-27304739D01*
X119532590Y-27355388D01*
X119517968Y-27328032D01*
X119252545Y-27231061D01*
X118289605Y-28194000D01*
X117930395Y-28194000D01*
X116967455Y-27231061D01*
X116702032Y-27328032D01*
X116560144Y-27619353D01*
X116477815Y-27932757D01*
X116458211Y-28256200D01*
X108761860Y-28256200D01*
X108710115Y-28228542D01*
X108613979Y-28199380D01*
X108539050Y-28192000D01*
X108539047Y-28192000D01*
X108514002Y-28189533D01*
X108488957Y-28192000D01*
X92703037Y-28192000D01*
X92677999Y-28189534D01*
X92652961Y-28192000D01*
X92652952Y-28192000D01*
X92578023Y-28199380D01*
X92481887Y-28228542D01*
X92393289Y-28275899D01*
X92315631Y-28339631D01*
X92299664Y-28359087D01*
X91569613Y-29089138D01*
X90404000Y-29089138D01*
X90328527Y-29096571D01*
X90255954Y-29118586D01*
X90189071Y-29154336D01*
X90130447Y-29202447D01*
X90082336Y-29261071D01*
X90046586Y-29327954D01*
X90024571Y-29400527D01*
X90017138Y-29476000D01*
X89526459Y-29476000D01*
X89450976Y-29384025D01*
X89270537Y-29235942D01*
X89064675Y-29125906D01*
X88841301Y-29058147D01*
X88667208Y-29041000D01*
X87850794Y-29041000D01*
X87676701Y-29058147D01*
X87453327Y-29125906D01*
X87247465Y-29235942D01*
X87067026Y-29384025D01*
X86918943Y-29564464D01*
X86808907Y-29770326D01*
X86741148Y-29993700D01*
X86718268Y-30226000D01*
X86741148Y-30458300D01*
X86808907Y-30681674D01*
X86918943Y-30887536D01*
X87067026Y-31067975D01*
X87247465Y-31216058D01*
X87453327Y-31326094D01*
X87589321Y-31367347D01*
X87504487Y-31383350D01*
X87242518Y-31488834D01*
X87006162Y-31643399D01*
X86804501Y-31841105D01*
X86645286Y-32074354D01*
X86534634Y-32334182D01*
X86517097Y-32416961D01*
X82121443Y-32416961D01*
X82089095Y-32310326D01*
X81979059Y-32104464D01*
X81830976Y-31924025D01*
X81650537Y-31775942D01*
X81444675Y-31665906D01*
X81221301Y-31598147D01*
X81047208Y-31581000D01*
X80230794Y-31581000D01*
X80056701Y-31598147D01*
X79833327Y-31665906D01*
X79627465Y-31775942D01*
X79447026Y-31924025D01*
X79298943Y-32104464D01*
X79188907Y-32310326D01*
X79121148Y-32533700D01*
X79098268Y-32766000D01*
X67244000Y-32766000D01*
X67244000Y-30226000D01*
X79098268Y-30226000D01*
X79121148Y-30458300D01*
X79188907Y-30681674D01*
X79298943Y-30887536D01*
X79447026Y-31067975D01*
X79627465Y-31216058D01*
X79833327Y-31326094D01*
X80056701Y-31393853D01*
X80230794Y-31411000D01*
X81047208Y-31411000D01*
X81221301Y-31393853D01*
X81444675Y-31326094D01*
X81650537Y-31216058D01*
X81830976Y-31067975D01*
X81979059Y-30887536D01*
X82089095Y-30681674D01*
X82156854Y-30458300D01*
X82179734Y-30226000D01*
X82156854Y-29993700D01*
X82089095Y-29770326D01*
X81979059Y-29564464D01*
X81830976Y-29384025D01*
X81650537Y-29235942D01*
X81444675Y-29125906D01*
X81221301Y-29058147D01*
X81047208Y-29041000D01*
X80230794Y-29041000D01*
X80056701Y-29058147D01*
X79833327Y-29125906D01*
X79627465Y-29235942D01*
X79447026Y-29384025D01*
X79298943Y-29564464D01*
X79188907Y-29770326D01*
X79121148Y-29993700D01*
X79098268Y-30226000D01*
X67244000Y-30226000D01*
X67244000Y-27051455D01*
X117147061Y-27051455D01*
X118110000Y-28014395D01*
X119072939Y-27051455D01*
X118975968Y-26786032D01*
X118684647Y-26644144D01*
X118371243Y-26561815D01*
X118047800Y-26542211D01*
X117726747Y-26586084D01*
X117420422Y-26691749D01*
X117244032Y-26786032D01*
X117147061Y-27051455D01*
X67244000Y-27051455D01*
X67244000Y-22468604D01*
X73757000Y-22468604D01*
X73757000Y-22743396D01*
X73810609Y-23012907D01*
X73915767Y-23266780D01*
X74068433Y-23495261D01*
X74262739Y-23689567D01*
X74491220Y-23842233D01*
X74745093Y-23947391D01*
X75014604Y-24001000D01*
X75289396Y-24001000D01*
X75558907Y-23947391D01*
X75812780Y-23842233D01*
X76041261Y-23689567D01*
X76235567Y-23495261D01*
X76388233Y-23266780D01*
X76422000Y-23185260D01*
X76455767Y-23266780D01*
X76608433Y-23495261D01*
X76802739Y-23689567D01*
X77031220Y-23842233D01*
X77285093Y-23947391D01*
X77554604Y-24001000D01*
X77829396Y-24001000D01*
X78098907Y-23947391D01*
X78352780Y-23842233D01*
X78581261Y-23689567D01*
X78775567Y-23495261D01*
X78928233Y-23266780D01*
X79033391Y-23012907D01*
X79087000Y-22743396D01*
X79087000Y-22494212D01*
X90019000Y-22494212D01*
X90019000Y-22717788D01*
X90062617Y-22937067D01*
X90148176Y-23143624D01*
X90272388Y-23329520D01*
X90430480Y-23487612D01*
X90616376Y-23611824D01*
X90822933Y-23697383D01*
X91042212Y-23741000D01*
X91265788Y-23741000D01*
X91485067Y-23697383D01*
X91691624Y-23611824D01*
X91877520Y-23487612D01*
X92035612Y-23329520D01*
X92159824Y-23143624D01*
X92245383Y-22937067D01*
X92288042Y-22722604D01*
X95633000Y-22722604D01*
X95633000Y-22997396D01*
X95686609Y-23266907D01*
X95791767Y-23520780D01*
X95944433Y-23749261D01*
X96138739Y-23943567D01*
X96367220Y-24096233D01*
X96621093Y-24201391D01*
X96890604Y-24255000D01*
X97165396Y-24255000D01*
X97434907Y-24201391D01*
X97688780Y-24096233D01*
X97917261Y-23943567D01*
X98111567Y-23749261D01*
X98264233Y-23520780D01*
X98298000Y-23439260D01*
X98331767Y-23520780D01*
X98484433Y-23749261D01*
X98678739Y-23943567D01*
X98907220Y-24096233D01*
X99161093Y-24201391D01*
X99430604Y-24255000D01*
X99705396Y-24255000D01*
X99974907Y-24201391D01*
X100228780Y-24096233D01*
X100457261Y-23943567D01*
X100651567Y-23749261D01*
X100804233Y-23520780D01*
X100909391Y-23266907D01*
X100963000Y-22997396D01*
X100963000Y-22722604D01*
X100939650Y-22605213D01*
X112024000Y-22605213D01*
X112024000Y-22828789D01*
X112067617Y-23048068D01*
X112153176Y-23254625D01*
X112277388Y-23440521D01*
X112435480Y-23598613D01*
X112621376Y-23722825D01*
X112827933Y-23808384D01*
X113047212Y-23852001D01*
X113270788Y-23852001D01*
X113490067Y-23808384D01*
X113696624Y-23722825D01*
X113882520Y-23598613D01*
X114040612Y-23440521D01*
X114164824Y-23254625D01*
X114250383Y-23048068D01*
X114294000Y-22828789D01*
X114294000Y-22605213D01*
X114250383Y-22385934D01*
X114164824Y-22179377D01*
X114040612Y-21993481D01*
X113882520Y-21835389D01*
X113696624Y-21711177D01*
X113490067Y-21625618D01*
X113270788Y-21582001D01*
X113047212Y-21582001D01*
X112827933Y-21625618D01*
X112621376Y-21711177D01*
X112435480Y-21835389D01*
X112277388Y-21993481D01*
X112153176Y-22179377D01*
X112067617Y-22385934D01*
X112024000Y-22605213D01*
X100939650Y-22605213D01*
X100909391Y-22453093D01*
X100804233Y-22199220D01*
X100651567Y-21970739D01*
X100457261Y-21776433D01*
X100228780Y-21623767D01*
X99974907Y-21518609D01*
X99705396Y-21465000D01*
X99430604Y-21465000D01*
X99161093Y-21518609D01*
X98907220Y-21623767D01*
X98678739Y-21776433D01*
X98484433Y-21970739D01*
X98331767Y-22199220D01*
X98298000Y-22280740D01*
X98264233Y-22199220D01*
X98111567Y-21970739D01*
X97917261Y-21776433D01*
X97688780Y-21623767D01*
X97434907Y-21518609D01*
X97165396Y-21465000D01*
X96890604Y-21465000D01*
X96621093Y-21518609D01*
X96367220Y-21623767D01*
X96138739Y-21776433D01*
X95944433Y-21970739D01*
X95791767Y-22199220D01*
X95686609Y-22453093D01*
X95633000Y-22722604D01*
X92288042Y-22722604D01*
X92289000Y-22717788D01*
X92289000Y-22494212D01*
X92245383Y-22274933D01*
X92159824Y-22068376D01*
X92035612Y-21882480D01*
X91877520Y-21724388D01*
X91691624Y-21600176D01*
X91485067Y-21514617D01*
X91265788Y-21471000D01*
X91042212Y-21471000D01*
X90822933Y-21514617D01*
X90616376Y-21600176D01*
X90430480Y-21724388D01*
X90272388Y-21882480D01*
X90148176Y-22068376D01*
X90062617Y-22274933D01*
X90019000Y-22494212D01*
X79087000Y-22494212D01*
X79087000Y-22468604D01*
X79033391Y-22199093D01*
X78928233Y-21945220D01*
X78775567Y-21716739D01*
X78581261Y-21522433D01*
X78352780Y-21369767D01*
X78098907Y-21264609D01*
X77829396Y-21211000D01*
X77554604Y-21211000D01*
X77285093Y-21264609D01*
X77031220Y-21369767D01*
X76802739Y-21522433D01*
X76608433Y-21716739D01*
X76455767Y-21945220D01*
X76422000Y-22026740D01*
X76388233Y-21945220D01*
X76235567Y-21716739D01*
X76041261Y-21522433D01*
X75812780Y-21369767D01*
X75558907Y-21264609D01*
X75289396Y-21211000D01*
X75014604Y-21211000D01*
X74745093Y-21264609D01*
X74491220Y-21369767D01*
X74262739Y-21522433D01*
X74068433Y-21716739D01*
X73915767Y-21945220D01*
X73810609Y-22199093D01*
X73757000Y-22468604D01*
X67244000Y-22468604D01*
X67244000Y-17652607D01*
X67449000Y-17652607D01*
X67449000Y-18319393D01*
X67579083Y-18973368D01*
X67834252Y-19589399D01*
X68204698Y-20143812D01*
X68676188Y-20615302D01*
X69230601Y-20985748D01*
X69846632Y-21240917D01*
X70500607Y-21371000D01*
X71167393Y-21371000D01*
X71821368Y-21240917D01*
X72437399Y-20985748D01*
X72991812Y-20615302D01*
X73463302Y-20143812D01*
X73515294Y-20066000D01*
X79098268Y-20066000D01*
X79121148Y-20298300D01*
X79188907Y-20521674D01*
X79298943Y-20727536D01*
X79447026Y-20907975D01*
X79627465Y-21056058D01*
X79833327Y-21166094D01*
X80056701Y-21233853D01*
X80230794Y-21251000D01*
X81047208Y-21251000D01*
X81221301Y-21233853D01*
X81444675Y-21166094D01*
X81650537Y-21056058D01*
X81830976Y-20907975D01*
X81979059Y-20727536D01*
X82089095Y-20521674D01*
X82156854Y-20298300D01*
X82179734Y-20066000D01*
X86718268Y-20066000D01*
X86741148Y-20298300D01*
X86808907Y-20521674D01*
X86918943Y-20727536D01*
X87067026Y-20907975D01*
X87247465Y-21056058D01*
X87453327Y-21166094D01*
X87676701Y-21233853D01*
X87850794Y-21251000D01*
X88667208Y-21251000D01*
X88841301Y-21233853D01*
X89064675Y-21166094D01*
X89270537Y-21056058D01*
X89450976Y-20907975D01*
X89599059Y-20727536D01*
X89709095Y-20521674D01*
X89776854Y-20298300D01*
X89788801Y-20177001D01*
X101103268Y-20177001D01*
X101126148Y-20409301D01*
X101193907Y-20632675D01*
X101303943Y-20838537D01*
X101452026Y-21018976D01*
X101632465Y-21167059D01*
X101838327Y-21277095D01*
X102061701Y-21344854D01*
X102235794Y-21362001D01*
X103052208Y-21362001D01*
X103226301Y-21344854D01*
X103449675Y-21277095D01*
X103655537Y-21167059D01*
X103835976Y-21018976D01*
X103984059Y-20838537D01*
X104094095Y-20632675D01*
X104161854Y-20409301D01*
X104184734Y-20177001D01*
X108723268Y-20177001D01*
X108746148Y-20409301D01*
X108813907Y-20632675D01*
X108923943Y-20838537D01*
X109072026Y-21018976D01*
X109252465Y-21167059D01*
X109458327Y-21277095D01*
X109681701Y-21344854D01*
X109855794Y-21362001D01*
X110672208Y-21362001D01*
X110846301Y-21344854D01*
X111069675Y-21277095D01*
X111275537Y-21167059D01*
X111455976Y-21018976D01*
X111604059Y-20838537D01*
X111714095Y-20632675D01*
X111781854Y-20409301D01*
X111804734Y-20177001D01*
X111781854Y-19944701D01*
X111714095Y-19721327D01*
X111604059Y-19515465D01*
X111455976Y-19335026D01*
X111275537Y-19186943D01*
X111069675Y-19076907D01*
X110846301Y-19009148D01*
X110672208Y-18992001D01*
X109855794Y-18992001D01*
X109681701Y-19009148D01*
X109458327Y-19076907D01*
X109252465Y-19186943D01*
X109072026Y-19335026D01*
X108923943Y-19515465D01*
X108813907Y-19721327D01*
X108746148Y-19944701D01*
X108723268Y-20177001D01*
X104184734Y-20177001D01*
X104161854Y-19944701D01*
X104094095Y-19721327D01*
X103984059Y-19515465D01*
X103835976Y-19335026D01*
X103655537Y-19186943D01*
X103449675Y-19076907D01*
X103226301Y-19009148D01*
X103052208Y-18992001D01*
X102235794Y-18992001D01*
X102061701Y-19009148D01*
X101838327Y-19076907D01*
X101632465Y-19186943D01*
X101452026Y-19335026D01*
X101303943Y-19515465D01*
X101193907Y-19721327D01*
X101126148Y-19944701D01*
X101103268Y-20177001D01*
X89788801Y-20177001D01*
X89799734Y-20066000D01*
X89776854Y-19833700D01*
X89709095Y-19610326D01*
X89599059Y-19404464D01*
X89450976Y-19224025D01*
X89270537Y-19075942D01*
X89064675Y-18965906D01*
X88841301Y-18898147D01*
X88667208Y-18881000D01*
X87850794Y-18881000D01*
X87676701Y-18898147D01*
X87453327Y-18965906D01*
X87247465Y-19075942D01*
X87067026Y-19224025D01*
X86918943Y-19404464D01*
X86808907Y-19610326D01*
X86741148Y-19833700D01*
X86718268Y-20066000D01*
X82179734Y-20066000D01*
X82156854Y-19833700D01*
X82089095Y-19610326D01*
X81979059Y-19404464D01*
X81830976Y-19224025D01*
X81650537Y-19075942D01*
X81444675Y-18965906D01*
X81221301Y-18898147D01*
X81047208Y-18881000D01*
X80230794Y-18881000D01*
X80056701Y-18898147D01*
X79833327Y-18965906D01*
X79627465Y-19075942D01*
X79447026Y-19224025D01*
X79298943Y-19404464D01*
X79188907Y-19610326D01*
X79121148Y-19833700D01*
X79098268Y-20066000D01*
X73515294Y-20066000D01*
X73833748Y-19589399D01*
X74088917Y-18973368D01*
X74219000Y-18319393D01*
X74219000Y-17652607D01*
X119449000Y-17652607D01*
X119449000Y-18319393D01*
X119579083Y-18973368D01*
X119834252Y-19589399D01*
X120204698Y-20143812D01*
X120676188Y-20615302D01*
X121230601Y-20985748D01*
X121846632Y-21240917D01*
X122500607Y-21371000D01*
X123167393Y-21371000D01*
X123821368Y-21240917D01*
X124437399Y-20985748D01*
X124991812Y-20615302D01*
X125463302Y-20143812D01*
X125833748Y-19589399D01*
X126088917Y-18973368D01*
X126219000Y-18319393D01*
X126219000Y-17652607D01*
X126088917Y-16998632D01*
X125833748Y-16382601D01*
X125463302Y-15828188D01*
X124991812Y-15356698D01*
X124437399Y-14986252D01*
X123821368Y-14731083D01*
X123167393Y-14601000D01*
X122500607Y-14601000D01*
X121846632Y-14731083D01*
X121230601Y-14986252D01*
X120676188Y-15356698D01*
X120204698Y-15828188D01*
X119834252Y-16382601D01*
X119579083Y-16998632D01*
X119449000Y-17652607D01*
X74219000Y-17652607D01*
X74088917Y-16998632D01*
X73833748Y-16382601D01*
X73463302Y-15828188D01*
X72991812Y-15356698D01*
X72437399Y-14986252D01*
X71821368Y-14731083D01*
X71167393Y-14601000D01*
X70500607Y-14601000D01*
X69846632Y-14731083D01*
X69230601Y-14986252D01*
X68676188Y-15356698D01*
X68204698Y-15828188D01*
X67834252Y-16382601D01*
X67579083Y-16998632D01*
X67449000Y-17652607D01*
X67244000Y-17652607D01*
X67244000Y-14396000D01*
X126424001Y-14396000D01*
X126424000Y-73576000D01*
%TD*%
M02*
