%TF.GenerationSoftware,KiCad,Pcbnew,5.1.10-88a1d61d58~88~ubuntu20.10.1*%
%TF.CreationDate,2021-05-10T20:47:44+02:00*%
%TF.ProjectId,arduBell,61726475-4265-46c6-9c2e-6b696361645f,rev?*%
%TF.SameCoordinates,Original*%
%TF.FileFunction,Soldermask,Bot*%
%TF.FilePolarity,Negative*%
%FSLAX46Y46*%
G04 Gerber Fmt 4.6, Leading zero omitted, Abs format (unit mm)*
G04 Created by KiCad (PCBNEW 5.1.10-88a1d61d58~88~ubuntu20.10.1) date 2021-05-10 20:47:44*
%MOMM*%
%LPD*%
G01*
G04 APERTURE LIST*
%ADD10O,1.600000X1.600000*%
%ADD11C,0.900000*%
%ADD12C,6.100000*%
%ADD13O,1.800000X1.800000*%
%ADD14O,2.400000X1.700000*%
%ADD15C,1.900000*%
%ADD16C,2.120000*%
%ADD17C,1.540000*%
%ADD18C,1.600000*%
%ADD19C,2.100000*%
%ADD20C,2.200000*%
G04 APERTURE END LIST*
%TO.C,Q2*%
G36*
G01*
X80705000Y-38596000D02*
X80705000Y-37096000D01*
G75*
G02*
X80755000Y-37046000I50000J0D01*
G01*
X81805000Y-37046000D01*
G75*
G02*
X81855000Y-37096000I0J-50000D01*
G01*
X81855000Y-38596000D01*
G75*
G02*
X81805000Y-38646000I-50000J0D01*
G01*
X80755000Y-38646000D01*
G75*
G02*
X80705000Y-38596000I0J50000D01*
G01*
G37*
G36*
G01*
X83753000Y-38358500D02*
X83753000Y-37333500D01*
G75*
G02*
X84040500Y-37046000I287500J0D01*
G01*
X84615500Y-37046000D01*
G75*
G02*
X84903000Y-37333500I0J-287500D01*
G01*
X84903000Y-38358500D01*
G75*
G02*
X84615500Y-38646000I-287500J0D01*
G01*
X84040500Y-38646000D01*
G75*
G02*
X83753000Y-38358500I0J287500D01*
G01*
G37*
G36*
G01*
X82229000Y-38358500D02*
X82229000Y-37333500D01*
G75*
G02*
X82516500Y-37046000I287500J0D01*
G01*
X83091500Y-37046000D01*
G75*
G02*
X83379000Y-37333500I0J-287500D01*
G01*
X83379000Y-38358500D01*
G75*
G02*
X83091500Y-38646000I-287500J0D01*
G01*
X82516500Y-38646000D01*
G75*
G02*
X82229000Y-38358500I0J287500D01*
G01*
G37*
%TD*%
%TO.C,Q1*%
G36*
G01*
X104710000Y-38707001D02*
X104710000Y-37207001D01*
G75*
G02*
X104760000Y-37157001I50000J0D01*
G01*
X105810000Y-37157001D01*
G75*
G02*
X105860000Y-37207001I0J-50000D01*
G01*
X105860000Y-38707001D01*
G75*
G02*
X105810000Y-38757001I-50000J0D01*
G01*
X104760000Y-38757001D01*
G75*
G02*
X104710000Y-38707001I0J50000D01*
G01*
G37*
G36*
G01*
X107758000Y-38469501D02*
X107758000Y-37444501D01*
G75*
G02*
X108045500Y-37157001I287500J0D01*
G01*
X108620500Y-37157001D01*
G75*
G02*
X108908000Y-37444501I0J-287500D01*
G01*
X108908000Y-38469501D01*
G75*
G02*
X108620500Y-38757001I-287500J0D01*
G01*
X108045500Y-38757001D01*
G75*
G02*
X107758000Y-38469501I0J287500D01*
G01*
G37*
G36*
G01*
X106234000Y-38469501D02*
X106234000Y-37444501D01*
G75*
G02*
X106521500Y-37157001I287500J0D01*
G01*
X107096500Y-37157001D01*
G75*
G02*
X107384000Y-37444501I0J-287500D01*
G01*
X107384000Y-38469501D01*
G75*
G02*
X107096500Y-38757001I-287500J0D01*
G01*
X106521500Y-38757001D01*
G75*
G02*
X106234000Y-38469501I0J287500D01*
G01*
G37*
%TD*%
D10*
%TO.C,D1*%
X91154000Y-22606000D03*
G36*
G01*
X91904000Y-31026000D02*
X90404000Y-31026000D01*
G75*
G02*
X90354000Y-30976000I0J50000D01*
G01*
X90354000Y-29476000D01*
G75*
G02*
X90404000Y-29426000I50000J0D01*
G01*
X91904000Y-29426000D01*
G75*
G02*
X91954000Y-29476000I0J-50000D01*
G01*
X91954000Y-30976000D01*
G75*
G02*
X91904000Y-31026000I-50000J0D01*
G01*
G37*
%TD*%
D11*
%TO.C, *%
X124424990Y-68395010D03*
X122834000Y-67736000D03*
X121243010Y-68395010D03*
X120584000Y-69986000D03*
X121243010Y-71576990D03*
X122834000Y-72236000D03*
X124424990Y-71576990D03*
X125084000Y-69986000D03*
D12*
X122834000Y-69986000D03*
%TD*%
%TO.C, *%
X122834000Y-17986000D03*
D11*
X125084000Y-17986000D03*
X124424990Y-19576990D03*
X122834000Y-20236000D03*
X121243010Y-19576990D03*
X120584000Y-17986000D03*
X121243010Y-16395010D03*
X122834000Y-15736000D03*
X124424990Y-16395010D03*
%TD*%
D12*
%TO.C, *%
X70834000Y-17986000D03*
D11*
X73084000Y-17986000D03*
X72424990Y-19576990D03*
X70834000Y-20236000D03*
X69243010Y-19576990D03*
X68584000Y-17986000D03*
X69243010Y-16395010D03*
X70834000Y-15736000D03*
X72424990Y-16395010D03*
%TD*%
%TO.C, *%
X72424990Y-68395010D03*
X70834000Y-67736000D03*
X69243010Y-68395010D03*
X68584000Y-69986000D03*
X69243010Y-71576990D03*
X70834000Y-72236000D03*
X72424990Y-71576990D03*
X73084000Y-69986000D03*
D12*
X70834000Y-69986000D03*
%TD*%
D13*
%TO.C,J1*%
X102362000Y-62738000D03*
X102362000Y-60198000D03*
X104902000Y-62738000D03*
X104902000Y-60198000D03*
X107442000Y-62738000D03*
G36*
G01*
X106592000Y-59298000D02*
X108292000Y-59298000D01*
G75*
G02*
X108342000Y-59348000I0J-50000D01*
G01*
X108342000Y-61048000D01*
G75*
G02*
X108292000Y-61098000I-50000J0D01*
G01*
X106592000Y-61098000D01*
G75*
G02*
X106542000Y-61048000I0J50000D01*
G01*
X106542000Y-59348000D01*
G75*
G02*
X106592000Y-59298000I50000J0D01*
G01*
G37*
%TD*%
D14*
%TO.C,RLY2*%
X80639001Y-32766000D03*
X88259001Y-32766000D03*
X80639001Y-30226000D03*
X80639001Y-20066000D03*
X88259001Y-30226000D03*
X88259001Y-20066000D03*
%TD*%
D15*
%TO.C,D4*%
X86835001Y-60349001D03*
G36*
G01*
X83345001Y-61249001D02*
X83345001Y-59449001D01*
G75*
G02*
X83395001Y-59399001I50000J0D01*
G01*
X85195001Y-59399001D01*
G75*
G02*
X85245001Y-59449001I0J-50000D01*
G01*
X85245001Y-61249001D01*
G75*
G02*
X85195001Y-61299001I-50000J0D01*
G01*
X83395001Y-61299001D01*
G75*
G02*
X83345001Y-61249001I0J50000D01*
G01*
G37*
%TD*%
D16*
%TO.C,J4*%
X71374000Y-40386000D03*
X73914000Y-40386000D03*
%TD*%
%TO.C,J3*%
X120650000Y-28194000D03*
X118110000Y-28194000D03*
%TD*%
D15*
%TO.C,D3*%
X79335001Y-60349001D03*
G36*
G01*
X75845001Y-61249001D02*
X75845001Y-59449001D01*
G75*
G02*
X75895001Y-59399001I50000J0D01*
G01*
X77695001Y-59399001D01*
G75*
G02*
X77745001Y-59449001I0J-50000D01*
G01*
X77745001Y-61249001D01*
G75*
G02*
X77695001Y-61299001I-50000J0D01*
G01*
X75895001Y-61299001D01*
G75*
G02*
X75845001Y-61249001I0J50000D01*
G01*
G37*
%TD*%
D17*
%TO.C,R4*%
X82296000Y-51562000D03*
X84836000Y-49022000D03*
X82296000Y-46482000D03*
%TD*%
D18*
%TO.C,Y1*%
X94996000Y-39932000D03*
X94996000Y-35052000D03*
%TD*%
D16*
%TO.C,J5*%
X99568000Y-26924000D03*
X97028000Y-26924000D03*
%TD*%
D19*
%TO.C,SW1*%
X118110000Y-57912000D03*
X118110000Y-53412000D03*
X124610000Y-57912000D03*
X124610000Y-53412000D03*
%TD*%
D16*
%TO.C,J6*%
X77470000Y-26924000D03*
X74930000Y-26924000D03*
%TD*%
D15*
%TO.C,D5*%
X94234000Y-60349001D03*
G36*
G01*
X90744000Y-61249001D02*
X90744000Y-59449001D01*
G75*
G02*
X90794000Y-59399001I50000J0D01*
G01*
X92594000Y-59399001D01*
G75*
G02*
X92644000Y-59449001I0J-50000D01*
G01*
X92644000Y-61249001D01*
G75*
G02*
X92594000Y-61299001I-50000J0D01*
G01*
X90794000Y-61299001D01*
G75*
G02*
X90744000Y-61249001I0J50000D01*
G01*
G37*
%TD*%
D20*
%TO.C,J2*%
X117316000Y-33956000D03*
X117316000Y-36496000D03*
X117316000Y-39036000D03*
%TD*%
D10*
%TO.C,D2*%
X113159000Y-22717001D03*
G36*
G01*
X113909000Y-31137001D02*
X112409000Y-31137001D01*
G75*
G02*
X112359000Y-31087001I0J50000D01*
G01*
X112359000Y-29587001D01*
G75*
G02*
X112409000Y-29537001I50000J0D01*
G01*
X113909000Y-29537001D01*
G75*
G02*
X113959000Y-29587001I0J-50000D01*
G01*
X113959000Y-31087001D01*
G75*
G02*
X113909000Y-31137001I-50000J0D01*
G01*
G37*
%TD*%
D19*
%TO.C,SW2*%
X118036999Y-48260999D03*
X118036999Y-43760999D03*
X124536999Y-48260999D03*
X124536999Y-43760999D03*
%TD*%
D14*
%TO.C,RLY1*%
X102644001Y-32877001D03*
X110264001Y-32877001D03*
X102644001Y-30337001D03*
X102644001Y-20177001D03*
X110264001Y-30337001D03*
X110264001Y-20177001D03*
%TD*%
D19*
%TO.C,S1*%
X112014000Y-65264000D03*
X116514000Y-65264000D03*
X112014000Y-71764000D03*
X116514000Y-71764000D03*
%TD*%
M02*
