M48
; DRILL file {KiCad 5.1.9-73d0e3b20d~88~ubuntu20.04.1} date Wed Mar 10 21:47:12 2021
; FORMAT={-:-/ absolute / metric / decimal}
; #@! TF.CreationDate,2021-03-10T21:47:12+01:00
; #@! TF.GenerationSoftware,Kicad,Pcbnew,5.1.9-73d0e3b20d~88~ubuntu20.04.1
FMAT,2
METRIC
T1C0.400
T2C0.500
T3C0.750
T4C0.800
T5C0.900
T6C1.000
T7C1.020
T8C1.100
T9C3.000
%
G90
G05
T1
X88.392Y-44.958
X91.002Y-42.488
X92.742Y-51.594
X98.806Y-48.768
X102.362Y-48.768
X103.702Y-42.488
X105.918Y-49.53
X106.172Y-47.752
X106.902Y-51.594
X110.89Y-48.622
X113.538Y-49.53
X113.538Y-59.182
X113.538Y-62.738
X115.57Y-30.226
T2
X68.584Y-17.986
X68.584Y-69.986
X69.243Y-16.395
X69.243Y-19.577
X69.243Y-68.395
X69.243Y-71.577
X70.834Y-15.736
X70.834Y-20.236
X70.834Y-67.736
X70.834Y-72.236
X72.425Y-16.395
X72.425Y-19.577
X72.425Y-68.395
X72.425Y-71.577
X73.084Y-17.986
X73.084Y-69.986
X120.584Y-17.986
X120.584Y-69.986
X121.243Y-16.395
X121.243Y-19.577
X121.243Y-68.395
X121.243Y-71.577
X122.834Y-15.736
X122.834Y-20.236
X122.834Y-67.736
X122.834Y-72.236
X124.425Y-16.395
X124.425Y-19.577
X124.425Y-68.395
X124.425Y-71.577
X125.084Y-17.986
X125.084Y-69.986
T3
X81.534Y-37.846
X82.804Y-37.846
X84.074Y-37.846
X91.154Y-22.606
X91.154Y-30.226
X105.539Y-37.957
X106.809Y-37.957
X108.079Y-37.957
X113.159Y-22.717
X113.159Y-30.337
T4
X82.296Y-46.482
X82.296Y-51.562
X84.836Y-49.022
X96.774Y-32.712
X96.774Y-37.592
T5
X76.795Y-60.349
X79.335Y-60.349
X84.295Y-60.349
X86.835Y-60.349
X91.694Y-60.349
X94.234Y-60.349
T6
X80.639Y-20.066
X80.639Y-30.226
X80.639Y-32.766
X88.259Y-20.066
X88.259Y-30.226
X88.259Y-32.766
X102.362Y-60.198
X102.362Y-62.738
X102.644Y-20.177
X102.644Y-30.337
X102.644Y-32.877
X104.902Y-60.198
X104.902Y-62.738
X107.442Y-60.198
X107.442Y-62.738
X110.264Y-20.177
X110.264Y-30.337
X110.264Y-32.877
T7
X71.374Y-34.544
X73.914Y-34.544
X75.152Y-22.606
X77.692Y-22.606
X97.028Y-22.86
X99.568Y-22.86
X118.11Y-28.194
X120.65Y-28.194
T8
X112.014Y-65.264
X112.014Y-71.764
X116.514Y-65.264
X116.514Y-71.764
X118.037Y-43.761
X118.037Y-48.261
X118.11Y-53.412
X118.11Y-57.912
X120.618Y-34.718
X120.618Y-37.258
X120.618Y-39.798
X124.537Y-43.761
X124.537Y-48.261
X124.61Y-53.412
X124.61Y-57.912
T9
X70.834Y-17.986
X70.834Y-69.986
X122.834Y-17.986
X122.834Y-69.986
T0
M30
