%TF.GenerationSoftware,KiCad,Pcbnew,5.1.10-88a1d61d58~88~ubuntu20.10.1*%
%TF.CreationDate,2021-05-10T20:47:44+02:00*%
%TF.ProjectId,arduBell,61726475-4265-46c6-9c2e-6b696361645f,rev?*%
%TF.SameCoordinates,Original*%
%TF.FileFunction,Paste,Top*%
%TF.FilePolarity,Positive*%
%FSLAX46Y46*%
G04 Gerber Fmt 4.6, Leading zero omitted, Abs format (unit mm)*
G04 Created by KiCad (PCBNEW 5.1.10-88a1d61d58~88~ubuntu20.10.1) date 2021-05-10 20:47:44*
%MOMM*%
%LPD*%
G01*
G04 APERTURE LIST*
%ADD10R,1.500000X0.550000*%
%ADD11R,0.550000X1.500000*%
%ADD12R,1.600000X3.100000*%
G04 APERTURE END LIST*
%TO.C,C10*%
G36*
G01*
X99564000Y-38791000D02*
X99064000Y-38791000D01*
G75*
G02*
X98839000Y-38566000I0J225000D01*
G01*
X98839000Y-38116000D01*
G75*
G02*
X99064000Y-37891000I225000J0D01*
G01*
X99564000Y-37891000D01*
G75*
G02*
X99789000Y-38116000I0J-225000D01*
G01*
X99789000Y-38566000D01*
G75*
G02*
X99564000Y-38791000I-225000J0D01*
G01*
G37*
G36*
G01*
X99564000Y-40341000D02*
X99064000Y-40341000D01*
G75*
G02*
X98839000Y-40116000I0J225000D01*
G01*
X98839000Y-39666000D01*
G75*
G02*
X99064000Y-39441000I225000J0D01*
G01*
X99564000Y-39441000D01*
G75*
G02*
X99789000Y-39666000I0J-225000D01*
G01*
X99789000Y-40116000D01*
G75*
G02*
X99564000Y-40341000I-225000J0D01*
G01*
G37*
%TD*%
%TO.C,C9*%
G36*
G01*
X99064000Y-36139000D02*
X99564000Y-36139000D01*
G75*
G02*
X99789000Y-36364000I0J-225000D01*
G01*
X99789000Y-36814000D01*
G75*
G02*
X99564000Y-37039000I-225000J0D01*
G01*
X99064000Y-37039000D01*
G75*
G02*
X98839000Y-36814000I0J225000D01*
G01*
X98839000Y-36364000D01*
G75*
G02*
X99064000Y-36139000I225000J0D01*
G01*
G37*
G36*
G01*
X99064000Y-34589000D02*
X99564000Y-34589000D01*
G75*
G02*
X99789000Y-34814000I0J-225000D01*
G01*
X99789000Y-35264000D01*
G75*
G02*
X99564000Y-35489000I-225000J0D01*
G01*
X99064000Y-35489000D01*
G75*
G02*
X98839000Y-35264000I0J225000D01*
G01*
X98839000Y-34814000D01*
G75*
G02*
X99064000Y-34589000I225000J0D01*
G01*
G37*
%TD*%
%TO.C,R2*%
G36*
G01*
X113918000Y-36239750D02*
X113918000Y-36752250D01*
G75*
G02*
X113699250Y-36971000I-218750J0D01*
G01*
X113261750Y-36971000D01*
G75*
G02*
X113043000Y-36752250I0J218750D01*
G01*
X113043000Y-36239750D01*
G75*
G02*
X113261750Y-36021000I218750J0D01*
G01*
X113699250Y-36021000D01*
G75*
G02*
X113918000Y-36239750I0J-218750D01*
G01*
G37*
G36*
G01*
X115493000Y-36239750D02*
X115493000Y-36752250D01*
G75*
G02*
X115274250Y-36971000I-218750J0D01*
G01*
X114836750Y-36971000D01*
G75*
G02*
X114618000Y-36752250I0J218750D01*
G01*
X114618000Y-36239750D01*
G75*
G02*
X114836750Y-36021000I218750J0D01*
G01*
X115274250Y-36021000D01*
G75*
G02*
X115493000Y-36239750I0J-218750D01*
G01*
G37*
%TD*%
%TO.C,R11*%
G36*
G01*
X82547750Y-42006000D02*
X83060250Y-42006000D01*
G75*
G02*
X83279000Y-42224750I0J-218750D01*
G01*
X83279000Y-42662250D01*
G75*
G02*
X83060250Y-42881000I-218750J0D01*
G01*
X82547750Y-42881000D01*
G75*
G02*
X82329000Y-42662250I0J218750D01*
G01*
X82329000Y-42224750D01*
G75*
G02*
X82547750Y-42006000I218750J0D01*
G01*
G37*
G36*
G01*
X82547750Y-40431000D02*
X83060250Y-40431000D01*
G75*
G02*
X83279000Y-40649750I0J-218750D01*
G01*
X83279000Y-41087250D01*
G75*
G02*
X83060250Y-41306000I-218750J0D01*
G01*
X82547750Y-41306000D01*
G75*
G02*
X82329000Y-41087250I0J218750D01*
G01*
X82329000Y-40649750D01*
G75*
G02*
X82547750Y-40431000I218750J0D01*
G01*
G37*
%TD*%
%TO.C,R1*%
G36*
G01*
X116000000Y-62994250D02*
X116000000Y-62481750D01*
G75*
G02*
X116218750Y-62263000I218750J0D01*
G01*
X116656250Y-62263000D01*
G75*
G02*
X116875000Y-62481750I0J-218750D01*
G01*
X116875000Y-62994250D01*
G75*
G02*
X116656250Y-63213000I-218750J0D01*
G01*
X116218750Y-63213000D01*
G75*
G02*
X116000000Y-62994250I0J218750D01*
G01*
G37*
G36*
G01*
X114425000Y-62994250D02*
X114425000Y-62481750D01*
G75*
G02*
X114643750Y-62263000I218750J0D01*
G01*
X115081250Y-62263000D01*
G75*
G02*
X115300000Y-62481750I0J-218750D01*
G01*
X115300000Y-62994250D01*
G75*
G02*
X115081250Y-63213000I-218750J0D01*
G01*
X114643750Y-63213000D01*
G75*
G02*
X114425000Y-62994250I0J218750D01*
G01*
G37*
%TD*%
%TO.C,R8*%
G36*
G01*
X114689001Y-55120250D02*
X114689001Y-54607750D01*
G75*
G02*
X114907751Y-54389000I218750J0D01*
G01*
X115345251Y-54389000D01*
G75*
G02*
X115564001Y-54607750I0J-218750D01*
G01*
X115564001Y-55120250D01*
G75*
G02*
X115345251Y-55339000I-218750J0D01*
G01*
X114907751Y-55339000D01*
G75*
G02*
X114689001Y-55120250I0J218750D01*
G01*
G37*
G36*
G01*
X113114001Y-55120250D02*
X113114001Y-54607750D01*
G75*
G02*
X113332751Y-54389000I218750J0D01*
G01*
X113770251Y-54389000D01*
G75*
G02*
X113989001Y-54607750I0J-218750D01*
G01*
X113989001Y-55120250D01*
G75*
G02*
X113770251Y-55339000I-218750J0D01*
G01*
X113332751Y-55339000D01*
G75*
G02*
X113114001Y-55120250I0J218750D01*
G01*
G37*
%TD*%
%TO.C,R10*%
G36*
G01*
X106552750Y-42117001D02*
X107065250Y-42117001D01*
G75*
G02*
X107284000Y-42335751I0J-218750D01*
G01*
X107284000Y-42773251D01*
G75*
G02*
X107065250Y-42992001I-218750J0D01*
G01*
X106552750Y-42992001D01*
G75*
G02*
X106334000Y-42773251I0J218750D01*
G01*
X106334000Y-42335751D01*
G75*
G02*
X106552750Y-42117001I218750J0D01*
G01*
G37*
G36*
G01*
X106552750Y-40542001D02*
X107065250Y-40542001D01*
G75*
G02*
X107284000Y-40760751I0J-218750D01*
G01*
X107284000Y-41198251D01*
G75*
G02*
X107065250Y-41417001I-218750J0D01*
G01*
X106552750Y-41417001D01*
G75*
G02*
X106334000Y-41198251I0J218750D01*
G01*
X106334000Y-40760751D01*
G75*
G02*
X106552750Y-40542001I218750J0D01*
G01*
G37*
%TD*%
%TO.C,R9*%
G36*
G01*
X114616000Y-45469249D02*
X114616000Y-44956749D01*
G75*
G02*
X114834750Y-44737999I218750J0D01*
G01*
X115272250Y-44737999D01*
G75*
G02*
X115491000Y-44956749I0J-218750D01*
G01*
X115491000Y-45469249D01*
G75*
G02*
X115272250Y-45687999I-218750J0D01*
G01*
X114834750Y-45687999D01*
G75*
G02*
X114616000Y-45469249I0J218750D01*
G01*
G37*
G36*
G01*
X113041000Y-45469249D02*
X113041000Y-44956749D01*
G75*
G02*
X113259750Y-44737999I218750J0D01*
G01*
X113697250Y-44737999D01*
G75*
G02*
X113916000Y-44956749I0J-218750D01*
G01*
X113916000Y-45469249D01*
G75*
G02*
X113697250Y-45687999I-218750J0D01*
G01*
X113259750Y-45687999D01*
G75*
G02*
X113041000Y-45469249I0J218750D01*
G01*
G37*
%TD*%
%TO.C,R13*%
G36*
G01*
X114576999Y-48517249D02*
X114576999Y-48004749D01*
G75*
G02*
X114795749Y-47785999I218750J0D01*
G01*
X115233249Y-47785999D01*
G75*
G02*
X115451999Y-48004749I0J-218750D01*
G01*
X115451999Y-48517249D01*
G75*
G02*
X115233249Y-48735999I-218750J0D01*
G01*
X114795749Y-48735999D01*
G75*
G02*
X114576999Y-48517249I0J218750D01*
G01*
G37*
G36*
G01*
X113001999Y-48517249D02*
X113001999Y-48004749D01*
G75*
G02*
X113220749Y-47785999I218750J0D01*
G01*
X113658249Y-47785999D01*
G75*
G02*
X113876999Y-48004749I0J-218750D01*
G01*
X113876999Y-48517249D01*
G75*
G02*
X113658249Y-48735999I-218750J0D01*
G01*
X113220749Y-48735999D01*
G75*
G02*
X113001999Y-48517249I0J218750D01*
G01*
G37*
%TD*%
%TO.C,R5*%
G36*
G01*
X75596000Y-65275750D02*
X75596000Y-65788250D01*
G75*
G02*
X75377250Y-66007000I-218750J0D01*
G01*
X74939750Y-66007000D01*
G75*
G02*
X74721000Y-65788250I0J218750D01*
G01*
X74721000Y-65275750D01*
G75*
G02*
X74939750Y-65057000I218750J0D01*
G01*
X75377250Y-65057000D01*
G75*
G02*
X75596000Y-65275750I0J-218750D01*
G01*
G37*
G36*
G01*
X77171000Y-65275750D02*
X77171000Y-65788250D01*
G75*
G02*
X76952250Y-66007000I-218750J0D01*
G01*
X76514750Y-66007000D01*
G75*
G02*
X76296000Y-65788250I0J218750D01*
G01*
X76296000Y-65275750D01*
G75*
G02*
X76514750Y-65057000I218750J0D01*
G01*
X76952250Y-65057000D01*
G75*
G02*
X77171000Y-65275750I0J-218750D01*
G01*
G37*
%TD*%
D10*
%TO.C,U1*%
X109102000Y-46222000D03*
X109102000Y-47022000D03*
X109102000Y-47822000D03*
X109102000Y-48622000D03*
X109102000Y-49422000D03*
X109102000Y-50222000D03*
X109102000Y-51022000D03*
X109102000Y-51822000D03*
D11*
X107702000Y-53222000D03*
X106902000Y-53222000D03*
X106102000Y-53222000D03*
X105302000Y-53222000D03*
X104502000Y-53222000D03*
X103702000Y-53222000D03*
X102902000Y-53222000D03*
X102102000Y-53222000D03*
D10*
X100702000Y-51822000D03*
X100702000Y-51022000D03*
X100702000Y-50222000D03*
X100702000Y-49422000D03*
X100702000Y-48622000D03*
X100702000Y-47822000D03*
X100702000Y-47022000D03*
D11*
X102102000Y-44822000D03*
X102902000Y-44822000D03*
X103702000Y-44822000D03*
X104502000Y-44822000D03*
X105302000Y-44822000D03*
X106102000Y-44822000D03*
X106902000Y-44822000D03*
X107702000Y-44822000D03*
D10*
X100702000Y-46222000D03*
%TD*%
%TO.C,C2*%
G36*
G01*
X89820000Y-40637750D02*
X89820000Y-41150250D01*
G75*
G02*
X89601250Y-41369000I-218750J0D01*
G01*
X89163750Y-41369000D01*
G75*
G02*
X88945000Y-41150250I0J218750D01*
G01*
X88945000Y-40637750D01*
G75*
G02*
X89163750Y-40419000I218750J0D01*
G01*
X89601250Y-40419000D01*
G75*
G02*
X89820000Y-40637750I0J-218750D01*
G01*
G37*
G36*
G01*
X91395000Y-40637750D02*
X91395000Y-41150250D01*
G75*
G02*
X91176250Y-41369000I-218750J0D01*
G01*
X90738750Y-41369000D01*
G75*
G02*
X90520000Y-41150250I0J218750D01*
G01*
X90520000Y-40637750D01*
G75*
G02*
X90738750Y-40419000I218750J0D01*
G01*
X91176250Y-40419000D01*
G75*
G02*
X91395000Y-40637750I0J-218750D01*
G01*
G37*
%TD*%
%TO.C,R6*%
G36*
G01*
X83216000Y-65275750D02*
X83216000Y-65788250D01*
G75*
G02*
X82997250Y-66007000I-218750J0D01*
G01*
X82559750Y-66007000D01*
G75*
G02*
X82341000Y-65788250I0J218750D01*
G01*
X82341000Y-65275750D01*
G75*
G02*
X82559750Y-65057000I218750J0D01*
G01*
X82997250Y-65057000D01*
G75*
G02*
X83216000Y-65275750I0J-218750D01*
G01*
G37*
G36*
G01*
X84791000Y-65275750D02*
X84791000Y-65788250D01*
G75*
G02*
X84572250Y-66007000I-218750J0D01*
G01*
X84134750Y-66007000D01*
G75*
G02*
X83916000Y-65788250I0J218750D01*
G01*
X83916000Y-65275750D01*
G75*
G02*
X84134750Y-65057000I218750J0D01*
G01*
X84572250Y-65057000D01*
G75*
G02*
X84791000Y-65275750I0J-218750D01*
G01*
G37*
%TD*%
%TO.C,C8*%
G36*
G01*
X114576999Y-42421249D02*
X114576999Y-41908749D01*
G75*
G02*
X114795749Y-41689999I218750J0D01*
G01*
X115233249Y-41689999D01*
G75*
G02*
X115451999Y-41908749I0J-218750D01*
G01*
X115451999Y-42421249D01*
G75*
G02*
X115233249Y-42639999I-218750J0D01*
G01*
X114795749Y-42639999D01*
G75*
G02*
X114576999Y-42421249I0J218750D01*
G01*
G37*
G36*
G01*
X113001999Y-42421249D02*
X113001999Y-41908749D01*
G75*
G02*
X113220749Y-41689999I218750J0D01*
G01*
X113658249Y-41689999D01*
G75*
G02*
X113876999Y-41908749I0J-218750D01*
G01*
X113876999Y-42421249D01*
G75*
G02*
X113658249Y-42639999I-218750J0D01*
G01*
X113220749Y-42639999D01*
G75*
G02*
X113001999Y-42421249I0J218750D01*
G01*
G37*
%TD*%
%TO.C,C5*%
G36*
G01*
X90929750Y-51124500D02*
X91442250Y-51124500D01*
G75*
G02*
X91661000Y-51343250I0J-218750D01*
G01*
X91661000Y-51780750D01*
G75*
G02*
X91442250Y-51999500I-218750J0D01*
G01*
X90929750Y-51999500D01*
G75*
G02*
X90711000Y-51780750I0J218750D01*
G01*
X90711000Y-51343250D01*
G75*
G02*
X90929750Y-51124500I218750J0D01*
G01*
G37*
G36*
G01*
X90929750Y-49549500D02*
X91442250Y-49549500D01*
G75*
G02*
X91661000Y-49768250I0J-218750D01*
G01*
X91661000Y-50205750D01*
G75*
G02*
X91442250Y-50424500I-218750J0D01*
G01*
X90929750Y-50424500D01*
G75*
G02*
X90711000Y-50205750I0J218750D01*
G01*
X90711000Y-49768250D01*
G75*
G02*
X90929750Y-49549500I218750J0D01*
G01*
G37*
%TD*%
D12*
%TO.C,U2*%
X73914000Y-54737000D03*
X71374000Y-45847000D03*
X71374000Y-54737000D03*
X73914000Y-45847000D03*
%TD*%
%TO.C,C4*%
G36*
G01*
X88001000Y-38725000D02*
X86751000Y-38725000D01*
G75*
G02*
X86501000Y-38475000I0J250000D01*
G01*
X86501000Y-37725000D01*
G75*
G02*
X86751000Y-37475000I250000J0D01*
G01*
X88001000Y-37475000D01*
G75*
G02*
X88251000Y-37725000I0J-250000D01*
G01*
X88251000Y-38475000D01*
G75*
G02*
X88001000Y-38725000I-250000J0D01*
G01*
G37*
G36*
G01*
X88001000Y-41525000D02*
X86751000Y-41525000D01*
G75*
G02*
X86501000Y-41275000I0J250000D01*
G01*
X86501000Y-40525000D01*
G75*
G02*
X86751000Y-40275000I250000J0D01*
G01*
X88001000Y-40275000D01*
G75*
G02*
X88251000Y-40525000I0J-250000D01*
G01*
X88251000Y-41275000D01*
G75*
G02*
X88001000Y-41525000I-250000J0D01*
G01*
G37*
%TD*%
%TO.C,C1*%
G36*
G01*
X106268000Y-55374250D02*
X106268000Y-54861750D01*
G75*
G02*
X106486750Y-54643000I218750J0D01*
G01*
X106924250Y-54643000D01*
G75*
G02*
X107143000Y-54861750I0J-218750D01*
G01*
X107143000Y-55374250D01*
G75*
G02*
X106924250Y-55593000I-218750J0D01*
G01*
X106486750Y-55593000D01*
G75*
G02*
X106268000Y-55374250I0J218750D01*
G01*
G37*
G36*
G01*
X104693000Y-55374250D02*
X104693000Y-54861750D01*
G75*
G02*
X104911750Y-54643000I218750J0D01*
G01*
X105349250Y-54643000D01*
G75*
G02*
X105568000Y-54861750I0J-218750D01*
G01*
X105568000Y-55374250D01*
G75*
G02*
X105349250Y-55593000I-218750J0D01*
G01*
X104911750Y-55593000D01*
G75*
G02*
X104693000Y-55374250I0J218750D01*
G01*
G37*
%TD*%
%TO.C,R7*%
G36*
G01*
X90582000Y-65275750D02*
X90582000Y-65788250D01*
G75*
G02*
X90363250Y-66007000I-218750J0D01*
G01*
X89925750Y-66007000D01*
G75*
G02*
X89707000Y-65788250I0J218750D01*
G01*
X89707000Y-65275750D01*
G75*
G02*
X89925750Y-65057000I218750J0D01*
G01*
X90363250Y-65057000D01*
G75*
G02*
X90582000Y-65275750I0J-218750D01*
G01*
G37*
G36*
G01*
X92157000Y-65275750D02*
X92157000Y-65788250D01*
G75*
G02*
X91938250Y-66007000I-218750J0D01*
G01*
X91500750Y-66007000D01*
G75*
G02*
X91282000Y-65788250I0J218750D01*
G01*
X91282000Y-65275750D01*
G75*
G02*
X91500750Y-65057000I218750J0D01*
G01*
X91938250Y-65057000D01*
G75*
G02*
X92157000Y-65275750I0J-218750D01*
G01*
G37*
%TD*%
%TO.C,R12*%
G36*
G01*
X114650000Y-58168250D02*
X114650000Y-57655750D01*
G75*
G02*
X114868750Y-57437000I218750J0D01*
G01*
X115306250Y-57437000D01*
G75*
G02*
X115525000Y-57655750I0J-218750D01*
G01*
X115525000Y-58168250D01*
G75*
G02*
X115306250Y-58387000I-218750J0D01*
G01*
X114868750Y-58387000D01*
G75*
G02*
X114650000Y-58168250I0J218750D01*
G01*
G37*
G36*
G01*
X113075000Y-58168250D02*
X113075000Y-57655750D01*
G75*
G02*
X113293750Y-57437000I218750J0D01*
G01*
X113731250Y-57437000D01*
G75*
G02*
X113950000Y-57655750I0J-218750D01*
G01*
X113950000Y-58168250D01*
G75*
G02*
X113731250Y-58387000I-218750J0D01*
G01*
X113293750Y-58387000D01*
G75*
G02*
X113075000Y-58168250I0J218750D01*
G01*
G37*
%TD*%
%TO.C,C7*%
G36*
G01*
X114650000Y-52072250D02*
X114650000Y-51559750D01*
G75*
G02*
X114868750Y-51341000I218750J0D01*
G01*
X115306250Y-51341000D01*
G75*
G02*
X115525000Y-51559750I0J-218750D01*
G01*
X115525000Y-52072250D01*
G75*
G02*
X115306250Y-52291000I-218750J0D01*
G01*
X114868750Y-52291000D01*
G75*
G02*
X114650000Y-52072250I0J218750D01*
G01*
G37*
G36*
G01*
X113075000Y-52072250D02*
X113075000Y-51559750D01*
G75*
G02*
X113293750Y-51341000I218750J0D01*
G01*
X113731250Y-51341000D01*
G75*
G02*
X113950000Y-51559750I0J-218750D01*
G01*
X113950000Y-52072250D01*
G75*
G02*
X113731250Y-52291000I-218750J0D01*
G01*
X113293750Y-52291000D01*
G75*
G02*
X113075000Y-52072250I0J218750D01*
G01*
G37*
%TD*%
%TO.C,C6*%
G36*
G01*
X89271000Y-49387000D02*
X88021000Y-49387000D01*
G75*
G02*
X87771000Y-49137000I0J250000D01*
G01*
X87771000Y-48387000D01*
G75*
G02*
X88021000Y-48137000I250000J0D01*
G01*
X89271000Y-48137000D01*
G75*
G02*
X89521000Y-48387000I0J-250000D01*
G01*
X89521000Y-49137000D01*
G75*
G02*
X89271000Y-49387000I-250000J0D01*
G01*
G37*
G36*
G01*
X89271000Y-52187000D02*
X88021000Y-52187000D01*
G75*
G02*
X87771000Y-51937000I0J250000D01*
G01*
X87771000Y-51187000D01*
G75*
G02*
X88021000Y-50937000I250000J0D01*
G01*
X89271000Y-50937000D01*
G75*
G02*
X89521000Y-51187000I0J-250000D01*
G01*
X89521000Y-51937000D01*
G75*
G02*
X89271000Y-52187000I-250000J0D01*
G01*
G37*
%TD*%
%TO.C,C3*%
G36*
G01*
X89820000Y-37843750D02*
X89820000Y-38356250D01*
G75*
G02*
X89601250Y-38575000I-218750J0D01*
G01*
X89163750Y-38575000D01*
G75*
G02*
X88945000Y-38356250I0J218750D01*
G01*
X88945000Y-37843750D01*
G75*
G02*
X89163750Y-37625000I218750J0D01*
G01*
X89601250Y-37625000D01*
G75*
G02*
X89820000Y-37843750I0J-218750D01*
G01*
G37*
G36*
G01*
X91395000Y-37843750D02*
X91395000Y-38356250D01*
G75*
G02*
X91176250Y-38575000I-218750J0D01*
G01*
X90738750Y-38575000D01*
G75*
G02*
X90520000Y-38356250I0J218750D01*
G01*
X90520000Y-37843750D01*
G75*
G02*
X90738750Y-37625000I218750J0D01*
G01*
X91176250Y-37625000D01*
G75*
G02*
X91395000Y-37843750I0J-218750D01*
G01*
G37*
%TD*%
%TO.C,R3*%
G36*
G01*
X113918000Y-38779750D02*
X113918000Y-39292250D01*
G75*
G02*
X113699250Y-39511000I-218750J0D01*
G01*
X113261750Y-39511000D01*
G75*
G02*
X113043000Y-39292250I0J218750D01*
G01*
X113043000Y-38779750D01*
G75*
G02*
X113261750Y-38561000I218750J0D01*
G01*
X113699250Y-38561000D01*
G75*
G02*
X113918000Y-38779750I0J-218750D01*
G01*
G37*
G36*
G01*
X115493000Y-38779750D02*
X115493000Y-39292250D01*
G75*
G02*
X115274250Y-39511000I-218750J0D01*
G01*
X114836750Y-39511000D01*
G75*
G02*
X114618000Y-39292250I0J218750D01*
G01*
X114618000Y-38779750D01*
G75*
G02*
X114836750Y-38561000I218750J0D01*
G01*
X115274250Y-38561000D01*
G75*
G02*
X115493000Y-38779750I0J-218750D01*
G01*
G37*
%TD*%
M02*
